<svg width="55" height="53" viewBox="0 0 55 53" fill="none" xmlns="http://www.w3.org/2000/svg">
<g filter="url(#filter0_d_2_1038)">
<circle cx="27.4042" cy="25.4042" r="24.4681" fill="#F7EAD5"/>
<circle cx="27.4042" cy="25.4042" r="23.9787" stroke="black" stroke-width="0.978723"/>
</g>
<path d="M16.2929 24.2929C15.9024 24.6834 15.9024 25.3166 16.2929 25.7071L22.6569 32.0711C23.0474 32.4616 23.6805 32.4616 24.0711 32.0711C24.4616 31.6805 24.4616 31.0474 24.0711 30.6569L18.4142 25L24.0711 19.3431C24.4616 18.9526 24.4616 18.3195 24.0711 17.9289C23.6805 17.5384 23.0474 17.5384 22.6569 17.9289L16.2929 24.2929ZM38 24L17 24V26L38 26V24Z" fill="black"/>
<defs>
<filter id="filter0_d_2_1038" x="-0.978736" y="0.936157" width="56.7659" height="56.7659" filterUnits="userSpaceOnUse" color-interpolation-filters="sRGB">
<feFlood flood-opacity="0" result="BackgroundImageFix"/>
<feColorMatrix in="SourceAlpha" type="matrix" values="0 0 0 0 0 0 0 0 0 0 0 0 0 0 0 0 0 0 127 0" result="hardAlpha"/>
<feOffset dy="3.91489"/>
<feGaussianBlur stdDeviation="1.95745"/>
<feComposite in2="hardAlpha" operator="out"/>
<feColorMatrix type="matrix" values="0 0 0 0 0 0 0 0 0 0 0 0 0 0 0 0 0 0 0.25 0"/>
<feBlend mode="normal" in2="BackgroundImageFix" result="effect1_dropShadow_2_1038"/>
<feBlend mode="normal" in="SourceGraphic" in2="effect1_dropShadow_2_1038" result="shape"/>
</filter>
</defs>
</svg>
