<svg width="55" height="53" viewBox="0 0 55 53" fill="none" xmlns="http://www.w3.org/2000/svg">
<g filter="url(#filter0_d_2_871)">
<circle cx="26.9475" cy="23.9475" r="23.9475" fill="#F7EAD5"/>
<circle cx="26.9475" cy="23.9475" r="23.4685" stroke="black" stroke-width="0.9579"/>
</g>
<path d="M37.3704 41.5958C35.5113 41.5958 33.9311 40.8821 32.6297 39.4548C31.3284 38.0275 30.6777 36.2943 30.6777 34.2553C30.6777 32.2163 31.3284 30.4832 32.6297 29.0559C33.9311 27.6286 35.5113 26.9149 37.3704 26.9149C37.5439 26.9149 37.7143 26.9217 37.8817 26.9353C38.049 26.9489 38.2132 26.9693 38.3743 26.9965C37.8662 27.3907 37.4603 27.9038 37.1566 28.5359C36.853 29.168 36.7011 29.8511 36.7011 30.5851C36.7011 31.8085 37.0915 32.8484 37.8724 33.7048C38.6532 34.5612 39.6013 34.9894 40.7168 34.9894C41.3985 34.9894 42.0243 34.8229 42.5945 34.4898C43.1646 34.1568 43.6294 33.7116 43.9888 33.1543C44.0136 33.331 44.0322 33.5111 44.0446 33.6946C44.057 33.8781 44.0632 34.065 44.0632 34.2553C44.0632 36.2943 43.4125 38.0275 42.1111 39.4548C40.8097 40.8821 39.2295 41.5958 37.3704 41.5958ZM37.3704 39.9646C38.4611 39.9646 39.4402 39.6349 40.3078 38.9756C41.1754 38.3164 41.8075 37.4566 42.2041 36.3963C41.9562 36.4643 41.7083 36.5186 41.4604 36.5594C41.2125 36.6002 40.9647 36.6206 40.7168 36.6206C39.1923 36.6206 37.8941 36.0327 36.822 34.8568C35.7499 33.681 35.2139 32.2571 35.2139 30.5851C35.2139 30.3133 35.2325 30.0414 35.2696 29.7695C35.3068 29.4977 35.3564 29.2258 35.4184 28.9539C34.4516 29.3889 33.6677 30.0822 33.0666 31.0337C32.4655 31.9852 32.1649 33.0591 32.1649 34.2553C32.1649 35.8322 32.6731 37.1779 33.6894 38.2926C34.7057 39.4072 35.9327 39.9646 37.3704 39.9646Z" fill="#1D1B20"/>
<path d="M19.6383 18.1064C20.3179 18.1064 20.8956 17.8685 21.3714 17.3927C21.8472 16.9169 22.0851 16.3392 22.0851 15.6596C22.0851 14.9799 21.8472 14.4022 21.3714 13.9264C20.8956 13.4506 20.3179 13.2127 19.6383 13.2127C18.9586 13.2127 18.3809 13.4506 17.9051 13.9264C17.4293 14.4022 17.1914 14.9799 17.1914 15.6596C17.1914 16.3392 17.4293 16.9169 17.9051 17.3927C18.3809 17.8685 18.9586 18.1064 19.6383 18.1064ZM19.6383 19.7376C18.51 19.7376 17.5483 19.34 16.7531 18.5448C15.9578 17.7495 15.5602 16.7878 15.5602 15.6596C15.5602 14.5313 15.9578 13.5696 16.7531 12.7744C17.5483 11.9792 18.51 11.5815 19.6383 11.5815C20.7665 11.5815 21.7282 11.9792 22.5235 12.7744C23.3187 13.5696 23.7163 14.5313 23.7163 15.6596C23.7163 16.7878 23.3187 17.7495 22.5235 18.5448C21.7282 19.34 20.7665 19.7376 19.6383 19.7376ZM13.929 16.4752H10.6666V14.844H13.929V16.4752ZM28.6099 16.4752H25.3475V14.844H28.6099V16.4752ZM18.8227 9.95034V6.68793H20.4539V9.95034H18.8227ZM18.8227 24.6312V21.3688H20.4539V24.6312H18.8227ZM15.0709 12.1932L13.0115 10.2154L14.1737 9.0124L16.1312 11.0514L15.0709 12.1932ZM25.1028 22.3067L23.125 20.2473L24.2056 19.1259L26.265 21.1037L25.1028 22.3067ZM23.1046 11.0922L25.0824 9.03279L26.2854 10.195L24.2464 12.1525L23.1046 11.0922ZM12.9911 21.1241L15.0505 19.1463L16.1719 20.2269L14.1941 22.2863L12.9911 21.1241Z" fill="#1D1B20"/>
<line x1="18.1404" y1="35.5339" x2="40.1828" y2="16.1366" stroke="black" stroke-width="1.95745"/>
<defs>
<filter id="filter0_d_2_871" x="-0.831598" y="0" width="55.5582" height="55.5582" filterUnits="userSpaceOnUse" color-interpolation-filters="sRGB">
<feFlood flood-opacity="0" result="BackgroundImageFix"/>
<feColorMatrix in="SourceAlpha" type="matrix" values="0 0 0 0 0 0 0 0 0 0 0 0 0 0 0 0 0 0 127 0" result="hardAlpha"/>
<feOffset dy="3.8316"/>
<feGaussianBlur stdDeviation="1.9158"/>
<feComposite in2="hardAlpha" operator="out"/>
<feColorMatrix type="matrix" values="0 0 0 0 0 0 0 0 0 0 0 0 0 0 0 0 0 0 0.25 0"/>
<feBlend mode="normal" in2="BackgroundImageFix" result="effect1_dropShadow_2_871"/>
<feBlend mode="normal" in="SourceGraphic" in2="effect1_dropShadow_2_871" result="shape"/>
</filter>
</defs>
</svg>
