<svg width="55" height="53" viewBox="0 0 55 53" fill="none" xmlns="http://www.w3.org/2000/svg">
<g filter="url(#filter0_d_2_1119)">
<circle cx="27.4042" cy="25.4042" r="24.4681" fill="white"/>
<circle cx="27.4042" cy="25.4042" r="23.9787" stroke="black" stroke-width="0.978723"/>
</g>
<rect x="13.5" y="14.5" width="28" height="22" rx="1.5" stroke="black"/>
<path d="M25.3536 25.3536C25.5488 25.1583 25.5488 24.8417 25.3536 24.6464L22.1716 21.4645C21.9763 21.2692 21.6597 21.2692 21.4645 21.4645C21.2692 21.6597 21.2692 21.9763 21.4645 22.1716L24.2929 25L21.4645 27.8284C21.2692 28.0237 21.2692 28.3403 21.4645 28.5355C21.6597 28.7308 21.9763 28.7308 22.1716 28.5355L25.3536 25.3536ZM13 25.5H25V24.5H13V25.5Z" fill="black"/>
<defs>
<filter id="filter0_d_2_1119" x="-0.978736" y="0.936157" width="56.766" height="56.7659" filterUnits="userSpaceOnUse" color-interpolation-filters="sRGB">
<feFlood flood-opacity="0" result="BackgroundImageFix"/>
<feColorMatrix in="SourceAlpha" type="matrix" values="0 0 0 0 0 0 0 0 0 0 0 0 0 0 0 0 0 0 127 0" result="hardAlpha"/>
<feOffset dy="3.91489"/>
<feGaussianBlur stdDeviation="1.95745"/>
<feComposite in2="hardAlpha" operator="out"/>
<feColorMatrix type="matrix" values="0 0 0 0 0 0 0 0 0 0 0 0 0 0 0 0 0 0 0.25 0"/>
<feBlend mode="normal" in2="BackgroundImageFix" result="effect1_dropShadow_2_1119"/>
<feBlend mode="normal" in="SourceGraphic" in2="effect1_dropShadow_2_1119" result="shape"/>
</filter>
</defs>
</svg>
