<svg width="55" height="53" viewBox="0 0 55 53" fill="none" xmlns="http://www.w3.org/2000/svg">
<g filter="url(#filter0_d_2_1116)">
<circle cx="27.4042" cy="25.4042" r="24.4681" fill="#F7EAD5"/>
<circle cx="27.4042" cy="25.4042" r="23.9787" stroke="black" stroke-width="0.978723"/>
</g>
<rect x="13.5" y="14.5" width="28" height="22" rx="1.5" stroke="black"/>
<path d="M29.6464 24.6464C29.4512 24.8417 29.4512 25.1583 29.6464 25.3536L32.8284 28.5355C33.0237 28.7308 33.3403 28.7308 33.5355 28.5355C33.7308 28.3403 33.7308 28.0237 33.5355 27.8284L30.7071 25L33.5355 22.1716C33.7308 21.9763 33.7308 21.6597 33.5355 21.4645C33.3403 21.2692 33.0237 21.2692 32.8284 21.4645L29.6464 24.6464ZM42 24.5H30V25.5H42V24.5Z" fill="black"/>
<defs>
<filter id="filter0_d_2_1116" x="-0.978736" y="0.936157" width="56.7659" height="56.7659" filterUnits="userSpaceOnUse" color-interpolation-filters="sRGB">
<feFlood flood-opacity="0" result="BackgroundImageFix"/>
<feColorMatrix in="SourceAlpha" type="matrix" values="0 0 0 0 0 0 0 0 0 0 0 0 0 0 0 0 0 0 127 0" result="hardAlpha"/>
<feOffset dy="3.91489"/>
<feGaussianBlur stdDeviation="1.95745"/>
<feComposite in2="hardAlpha" operator="out"/>
<feColorMatrix type="matrix" values="0 0 0 0 0 0 0 0 0 0 0 0 0 0 0 0 0 0 0.25 0"/>
<feBlend mode="normal" in2="BackgroundImageFix" result="effect1_dropShadow_2_1116"/>
<feBlend mode="normal" in="SourceGraphic" in2="effect1_dropShadow_2_1116" result="shape"/>
</filter>
</defs>
</svg>
