<svg width="94" height="93" viewBox="0 0 94 93" fill="none" xmlns="http://www.w3.org/2000/svg">
<g filter="url(#filter0_d_2_861)">
<circle cx="46.1055" cy="43.1055" r="43.1055" fill="white"/>
<circle cx="46.1055" cy="43.1055" r="42.6265" stroke="black" stroke-width="0.9579"/>
</g>
<rect x="14.2553" y="21.0426" width="66.5532" height="46.9787" fill="white" stroke="black" stroke-width="0.978723"/>
<line x1="14.7446" y1="23.0363" x2="80.3191" y2="23.0363" stroke="#BD0909" stroke-width="3.91489"/>
<line x1="14.7446" y1="30.1411" x2="80.3191" y2="30.1411" stroke="#BD0909" stroke-width="3.91489"/>
<line x1="14.7446" y1="37.2459" x2="80.3191" y2="37.2459" stroke="#BD0909" stroke-width="3.91489"/>
<line x1="14.7446" y1="44.3507" x2="80.3191" y2="44.3507" stroke="#BD0909" stroke-width="3.91489"/>
<line x1="14.7446" y1="51.4555" x2="80.3191" y2="51.4555" stroke="#BD0909" stroke-width="3.91489"/>
<line x1="14.7446" y1="58.5603" x2="80.3191" y2="58.5603" stroke="#BD0909" stroke-width="3.91489"/>
<line x1="14.7446" y1="65.6651" x2="80.3191" y2="65.6651" stroke="#BD0909" stroke-width="3.91489"/>
<rect x="14.7447" y="21.4413" width="34.2553" height="24.8668" fill="#100884"/>
<path d="M17.1915 22.3295L17.5211 23.25H18.5877L17.7248 23.8189L18.0544 24.7394L17.1915 24.1705L16.3285 24.7394L16.6581 23.8189L15.7952 23.25H16.8618L17.1915 22.3295Z" fill="white"/>
<path d="M17.1915 22.3295L17.5211 23.25H18.5877L17.7248 23.8189L18.0544 24.7394L17.1915 24.1705L16.3285 24.7394L16.6581 23.8189L15.7952 23.25H16.8618L17.1915 22.3295Z" fill="white"/>
<path d="M17.1915 22.3295L17.5211 23.25H18.5877L17.7248 23.8189L18.0544 24.7394L17.1915 24.1705L16.3285 24.7394L16.6581 23.8189L15.7952 23.25H16.8618L17.1915 22.3295Z" fill="white"/>
<path d="M23.0638 22.3295L23.3934 23.25H24.46L23.5971 23.8189L23.9267 24.7394L23.0638 24.1705L22.2009 24.7394L22.5305 23.8189L21.6676 23.25H22.7342L23.0638 22.3295Z" fill="white"/>
<path d="M23.0638 22.3295L23.3934 23.25H24.46L23.5971 23.8189L23.9267 24.7394L23.0638 24.1705L22.2009 24.7394L22.5305 23.8189L21.6676 23.25H22.7342L23.0638 22.3295Z" fill="white"/>
<path d="M23.0638 22.3295L23.3934 23.25H24.46L23.5971 23.8189L23.9267 24.7394L23.0638 24.1705L22.2009 24.7394L22.5305 23.8189L21.6676 23.25H22.7342L23.0638 22.3295Z" fill="white"/>
<path d="M20.1276 24.9938L20.4572 25.9143H21.5239L20.6609 26.4832L20.9905 27.4037L20.1276 26.8348L19.2647 27.4037L19.5943 26.4832L18.7314 25.9143H19.798L20.1276 24.9938Z" fill="white"/>
<path d="M20.1276 24.9938L20.4572 25.9143H21.5239L20.6609 26.4832L20.9905 27.4037L20.1276 26.8348L19.2647 27.4037L19.5943 26.4832L18.7314 25.9143H19.798L20.1276 24.9938Z" fill="white"/>
<path d="M20.1276 24.9938L20.4572 25.9143H21.5239L20.6609 26.4832L20.9905 27.4037L20.1276 26.8348L19.2647 27.4037L19.5943 26.4832L18.7314 25.9143H19.798L20.1276 24.9938Z" fill="white"/>
<path d="M28.9361 22.3295L29.2657 23.25H30.3324L29.4694 23.8189L29.7991 24.7394L28.9361 24.1705L28.0732 24.7394L28.4028 23.8189L27.5399 23.25H28.6065L28.9361 22.3295Z" fill="white"/>
<path d="M28.9361 22.3295L29.2657 23.25H30.3324L29.4694 23.8189L29.7991 24.7394L28.9361 24.1705L28.0732 24.7394L28.4028 23.8189L27.5399 23.25H28.6065L28.9361 22.3295Z" fill="white"/>
<path d="M28.9361 22.3295L29.2657 23.25H30.3324L29.4694 23.8189L29.7991 24.7394L28.9361 24.1705L28.0732 24.7394L28.4028 23.8189L27.5399 23.25H28.6065L28.9361 22.3295Z" fill="white"/>
<path d="M26 24.9938L26.3296 25.9143H27.3962L26.5333 26.4832L26.8629 27.4037L26 26.8348L25.137 27.4037L25.4667 26.4832L24.6037 25.9143H25.6704L26 24.9938Z" fill="white"/>
<path d="M26 24.9938L26.3296 25.9143H27.3962L26.5333 26.4832L26.8629 27.4037L26 26.8348L25.137 27.4037L25.4667 26.4832L24.6037 25.9143H25.6704L26 24.9938Z" fill="white"/>
<path d="M26 24.9938L26.3296 25.9143H27.3962L26.5333 26.4832L26.8629 27.4037L26 26.8348L25.137 27.4037L25.4667 26.4832L24.6037 25.9143H25.6704L26 24.9938Z" fill="white"/>
<path d="M34.8085 22.3295L35.1381 23.25H36.2047L35.3418 23.8189L35.6714 24.7394L34.8085 24.1705L33.9456 24.7394L34.2752 23.8189L33.4122 23.25H34.4789L34.8085 22.3295Z" fill="white"/>
<path d="M34.8085 22.3295L35.1381 23.25H36.2047L35.3418 23.8189L35.6714 24.7394L34.8085 24.1705L33.9456 24.7394L34.2752 23.8189L33.4122 23.25H34.4789L34.8085 22.3295Z" fill="white"/>
<path d="M34.8085 22.3295L35.1381 23.25H36.2047L35.3418 23.8189L35.6714 24.7394L34.8085 24.1705L33.9456 24.7394L34.2752 23.8189L33.4122 23.25H34.4789L34.8085 22.3295Z" fill="white"/>
<path d="M31.8723 24.9938L32.2019 25.9143H33.2685L32.4056 26.4832L32.7352 27.4037L31.8723 26.8348L31.0094 27.4037L31.339 26.4832L30.4761 25.9143H31.5427L31.8723 24.9938Z" fill="white"/>
<path d="M31.8723 24.9938L32.2019 25.9143H33.2685L32.4056 26.4832L32.7352 27.4037L31.8723 26.8348L31.0094 27.4037L31.339 26.4832L30.4761 25.9143H31.5427L31.8723 24.9938Z" fill="white"/>
<path d="M31.8723 24.9938L32.2019 25.9143H33.2685L32.4056 26.4832L32.7352 27.4037L31.8723 26.8348L31.0094 27.4037L31.339 26.4832L30.4761 25.9143H31.5427L31.8723 24.9938Z" fill="white"/>
<path d="M40.6808 22.3295L41.0104 23.25H42.077L41.2141 23.8189L41.5437 24.7394L40.6808 24.1705L39.8179 24.7394L40.1475 23.8189L39.2846 23.25H40.3512L40.6808 22.3295Z" fill="white"/>
<path d="M40.6808 22.3295L41.0104 23.25H42.077L41.2141 23.8189L41.5437 24.7394L40.6808 24.1705L39.8179 24.7394L40.1475 23.8189L39.2846 23.25H40.3512L40.6808 22.3295Z" fill="white"/>
<path d="M40.6808 22.3295L41.0104 23.25H42.077L41.2141 23.8189L41.5437 24.7394L40.6808 24.1705L39.8179 24.7394L40.1475 23.8189L39.2846 23.25H40.3512L40.6808 22.3295Z" fill="white"/>
<path d="M37.7446 24.9938L38.0743 25.9143H39.1409L38.278 26.4832L38.6076 27.4037L37.7446 26.8348L36.8817 27.4037L37.2113 26.4832L36.3484 25.9143H37.415L37.7446 24.9938Z" fill="white"/>
<path d="M37.7446 24.9938L38.0743 25.9143H39.1409L38.278 26.4832L38.6076 27.4037L37.7446 26.8348L36.8817 27.4037L37.2113 26.4832L36.3484 25.9143H37.415L37.7446 24.9938Z" fill="white"/>
<path d="M37.7446 24.9938L38.0743 25.9143H39.1409L38.278 26.4832L38.6076 27.4037L37.7446 26.8348L36.8817 27.4037L37.2113 26.4832L36.3484 25.9143H37.415L37.7446 24.9938Z" fill="white"/>
<path d="M46.5532 22.3295L46.8828 23.25H47.9494L47.0865 23.8189L47.4161 24.7394L46.5532 24.1705L45.6902 24.7394L46.0198 23.8189L45.1569 23.25H46.2236L46.5532 22.3295Z" fill="white"/>
<path d="M46.5532 22.3295L46.8828 23.25H47.9494L47.0865 23.8189L47.4161 24.7394L46.5532 24.1705L45.6902 24.7394L46.0198 23.8189L45.1569 23.25H46.2236L46.5532 22.3295Z" fill="white"/>
<path d="M46.5532 22.3295L46.8828 23.25H47.9494L47.0865 23.8189L47.4161 24.7394L46.5532 24.1705L45.6902 24.7394L46.0198 23.8189L45.1569 23.25H46.2236L46.5532 22.3295Z" fill="white"/>
<path d="M17.1915 43.6439L17.5211 44.5644H18.5877L17.7248 45.1333L18.0544 46.0537L17.1915 45.4848L16.3285 46.0537L16.6581 45.1333L15.7952 44.5644H16.8618L17.1915 43.6439Z" fill="white"/>
<path d="M17.1915 43.6439L17.5211 44.5644H18.5877L17.7248 45.1333L18.0544 46.0537L17.1915 45.4848L16.3285 46.0537L16.6581 45.1333L15.7952 44.5644H16.8618L17.1915 43.6439Z" fill="white"/>
<path d="M17.1915 43.6439L17.5211 44.5644H18.5877L17.7248 45.1333L18.0544 46.0537L17.1915 45.4848L16.3285 46.0537L16.6581 45.1333L15.7952 44.5644H16.8618L17.1915 43.6439Z" fill="white"/>
<path d="M23.0638 43.6439L23.3934 44.5644H24.46L23.5971 45.1333L23.9267 46.0537L23.0638 45.4848L22.2009 46.0537L22.5305 45.1333L21.6676 44.5644H22.7342L23.0638 43.6439Z" fill="white"/>
<path d="M23.0638 43.6439L23.3934 44.5644H24.46L23.5971 45.1333L23.9267 46.0537L23.0638 45.4848L22.2009 46.0537L22.5305 45.1333L21.6676 44.5644H22.7342L23.0638 43.6439Z" fill="white"/>
<path d="M23.0638 43.6439L23.3934 44.5644H24.46L23.5971 45.1333L23.9267 46.0537L23.0638 45.4848L22.2009 46.0537L22.5305 45.1333L21.6676 44.5644H22.7342L23.0638 43.6439Z" fill="white"/>
<path d="M28.9361 43.6439L29.2657 44.5644H30.3324L29.4694 45.1333L29.7991 46.0537L28.9361 45.4848L28.0732 46.0537L28.4028 45.1333L27.5399 44.5644H28.6065L28.9361 43.6439Z" fill="white"/>
<path d="M28.9361 43.6439L29.2657 44.5644H30.3324L29.4694 45.1333L29.7991 46.0537L28.9361 45.4848L28.0732 46.0537L28.4028 45.1333L27.5399 44.5644H28.6065L28.9361 43.6439Z" fill="white"/>
<path d="M28.9361 43.6439L29.2657 44.5644H30.3324L29.4694 45.1333L29.7991 46.0537L28.9361 45.4848L28.0732 46.0537L28.4028 45.1333L27.5399 44.5644H28.6065L28.9361 43.6439Z" fill="white"/>
<path d="M34.8085 43.6439L35.1381 44.5644H36.2047L35.3418 45.1333L35.6714 46.0537L34.8085 45.4848L33.9456 46.0537L34.2752 45.1333L33.4122 44.5644H34.4789L34.8085 43.6439Z" fill="white"/>
<path d="M34.8085 43.6439L35.1381 44.5644H36.2047L35.3418 45.1333L35.6714 46.0537L34.8085 45.4848L33.9456 46.0537L34.2752 45.1333L33.4122 44.5644H34.4789L34.8085 43.6439Z" fill="white"/>
<path d="M34.8085 43.6439L35.1381 44.5644H36.2047L35.3418 45.1333L35.6714 46.0537L34.8085 45.4848L33.9456 46.0537L34.2752 45.1333L33.4122 44.5644H34.4789L34.8085 43.6439Z" fill="white"/>
<path d="M40.6808 43.6439L41.0104 44.5644H42.077L41.2141 45.1333L41.5437 46.0537L40.6808 45.4848L39.8179 46.0537L40.1475 45.1333L39.2846 44.5644H40.3512L40.6808 43.6439Z" fill="white"/>
<path d="M40.6808 43.6439L41.0104 44.5644H42.077L41.2141 45.1333L41.5437 46.0537L40.6808 45.4848L39.8179 46.0537L40.1475 45.1333L39.2846 44.5644H40.3512L40.6808 43.6439Z" fill="white"/>
<path d="M40.6808 43.6439L41.0104 44.5644H42.077L41.2141 45.1333L41.5437 46.0537L40.6808 45.4848L39.8179 46.0537L40.1475 45.1333L39.2846 44.5644H40.3512L40.6808 43.6439Z" fill="white"/>
<path d="M46.5532 43.6439L46.8828 44.5644H47.9494L47.0865 45.1333L47.4161 46.0537L46.5532 45.4848L45.6902 46.0537L46.0198 45.1333L45.1569 44.5644H46.2236L46.5532 43.6439Z" fill="white"/>
<path d="M46.5532 43.6439L46.8828 44.5644H47.9494L47.0865 45.1333L47.4161 46.0537L46.5532 45.4848L45.6902 46.0537L46.0198 45.1333L45.1569 44.5644H46.2236L46.5532 43.6439Z" fill="white"/>
<path d="M46.5532 43.6439L46.8828 44.5644H47.9494L47.0865 45.1333L47.4161 46.0537L46.5532 45.4848L45.6902 46.0537L46.0198 45.1333L45.1569 44.5644H46.2236L46.5532 43.6439Z" fill="white"/>
<path d="M43.617 24.9938L43.9466 25.9143H45.0132L44.1503 26.4832L44.4799 27.4037L43.617 26.8348L42.7541 27.4037L43.0837 26.4832L42.2208 25.9143H43.2874L43.617 24.9938Z" fill="white"/>
<path d="M43.617 24.9938L43.9466 25.9143H45.0132L44.1503 26.4832L44.4799 27.4037L43.617 26.8348L42.7541 27.4037L43.0837 26.4832L42.2208 25.9143H43.2874L43.617 24.9938Z" fill="white"/>
<path d="M43.617 24.9938L43.9466 25.9143H45.0132L44.1503 26.4832L44.4799 27.4037L43.617 26.8348L42.7541 27.4037L43.0837 26.4832L42.2208 25.9143H43.2874L43.617 24.9938Z" fill="white"/>
<path d="M17.1915 27.6581L17.5211 28.5786H18.5877L17.7248 29.1475L18.0544 30.068L17.1915 29.4991L16.3285 30.068L16.6581 29.1475L15.7952 28.5786H16.8618L17.1915 27.6581Z" fill="white"/>
<path d="M17.1915 27.6581L17.5211 28.5786H18.5877L17.7248 29.1475L18.0544 30.068L17.1915 29.4991L16.3285 30.068L16.6581 29.1475L15.7952 28.5786H16.8618L17.1915 27.6581Z" fill="white"/>
<path d="M17.1915 27.6581L17.5211 28.5786H18.5877L17.7248 29.1475L18.0544 30.068L17.1915 29.4991L16.3285 30.068L16.6581 29.1475L15.7952 28.5786H16.8618L17.1915 27.6581Z" fill="white"/>
<path d="M23.0638 27.6581L23.3934 28.5786H24.46L23.5971 29.1475L23.9267 30.068L23.0638 29.4991L22.2009 30.068L22.5305 29.1475L21.6676 28.5786H22.7342L23.0638 27.6581Z" fill="white"/>
<path d="M23.0638 27.6581L23.3934 28.5786H24.46L23.5971 29.1475L23.9267 30.068L23.0638 29.4991L22.2009 30.068L22.5305 29.1475L21.6676 28.5786H22.7342L23.0638 27.6581Z" fill="white"/>
<path d="M23.0638 27.6581L23.3934 28.5786H24.46L23.5971 29.1475L23.9267 30.068L23.0638 29.4991L22.2009 30.068L22.5305 29.1475L21.6676 28.5786H22.7342L23.0638 27.6581Z" fill="white"/>
<path d="M20.1276 30.3224L20.4572 31.2429H21.5239L20.6609 31.8118L20.9905 32.7323L20.1276 32.1634L19.2647 32.7323L19.5943 31.8118L18.7314 31.2429H19.798L20.1276 30.3224Z" fill="white"/>
<path d="M20.1276 30.3224L20.4572 31.2429H21.5239L20.6609 31.8118L20.9905 32.7323L20.1276 32.1634L19.2647 32.7323L19.5943 31.8118L18.7314 31.2429H19.798L20.1276 30.3224Z" fill="white"/>
<path d="M20.1276 30.3224L20.4572 31.2429H21.5239L20.6609 31.8118L20.9905 32.7323L20.1276 32.1634L19.2647 32.7323L19.5943 31.8118L18.7314 31.2429H19.798L20.1276 30.3224Z" fill="white"/>
<path d="M28.9361 27.6581L29.2657 28.5786H30.3324L29.4694 29.1475L29.7991 30.068L28.9361 29.4991L28.0732 30.068L28.4028 29.1475L27.5399 28.5786H28.6065L28.9361 27.6581Z" fill="white"/>
<path d="M28.9361 27.6581L29.2657 28.5786H30.3324L29.4694 29.1475L29.7991 30.068L28.9361 29.4991L28.0732 30.068L28.4028 29.1475L27.5399 28.5786H28.6065L28.9361 27.6581Z" fill="white"/>
<path d="M28.9361 27.6581L29.2657 28.5786H30.3324L29.4694 29.1475L29.7991 30.068L28.9361 29.4991L28.0732 30.068L28.4028 29.1475L27.5399 28.5786H28.6065L28.9361 27.6581Z" fill="white"/>
<path d="M26 30.3224L26.3296 31.2429H27.3962L26.5333 31.8118L26.8629 32.7323L26 32.1634L25.137 32.7323L25.4667 31.8118L24.6037 31.2429H25.6704L26 30.3224Z" fill="white"/>
<path d="M26 30.3224L26.3296 31.2429H27.3962L26.5333 31.8118L26.8629 32.7323L26 32.1634L25.137 32.7323L25.4667 31.8118L24.6037 31.2429H25.6704L26 30.3224Z" fill="white"/>
<path d="M26 30.3224L26.3296 31.2429H27.3962L26.5333 31.8118L26.8629 32.7323L26 32.1634L25.137 32.7323L25.4667 31.8118L24.6037 31.2429H25.6704L26 30.3224Z" fill="white"/>
<path d="M34.8085 27.6581L35.1381 28.5786H36.2047L35.3418 29.1475L35.6714 30.068L34.8085 29.4991L33.9456 30.068L34.2752 29.1475L33.4122 28.5786H34.4789L34.8085 27.6581Z" fill="white"/>
<path d="M34.8085 27.6581L35.1381 28.5786H36.2047L35.3418 29.1475L35.6714 30.068L34.8085 29.4991L33.9456 30.068L34.2752 29.1475L33.4122 28.5786H34.4789L34.8085 27.6581Z" fill="white"/>
<path d="M34.8085 27.6581L35.1381 28.5786H36.2047L35.3418 29.1475L35.6714 30.068L34.8085 29.4991L33.9456 30.068L34.2752 29.1475L33.4122 28.5786H34.4789L34.8085 27.6581Z" fill="white"/>
<path d="M31.8723 30.3224L32.2019 31.2429H33.2685L32.4056 31.8118L32.7352 32.7323L31.8723 32.1634L31.0094 32.7323L31.339 31.8118L30.4761 31.2429H31.5427L31.8723 30.3224Z" fill="white"/>
<path d="M31.8723 30.3224L32.2019 31.2429H33.2685L32.4056 31.8118L32.7352 32.7323L31.8723 32.1634L31.0094 32.7323L31.339 31.8118L30.4761 31.2429H31.5427L31.8723 30.3224Z" fill="white"/>
<path d="M31.8723 30.3224L32.2019 31.2429H33.2685L32.4056 31.8118L32.7352 32.7323L31.8723 32.1634L31.0094 32.7323L31.339 31.8118L30.4761 31.2429H31.5427L31.8723 30.3224Z" fill="white"/>
<path d="M40.6808 27.6581L41.0104 28.5786H42.077L41.2141 29.1475L41.5437 30.068L40.6808 29.4991L39.8179 30.068L40.1475 29.1475L39.2846 28.5786H40.3512L40.6808 27.6581Z" fill="white"/>
<path d="M40.6808 27.6581L41.0104 28.5786H42.077L41.2141 29.1475L41.5437 30.068L40.6808 29.4991L39.8179 30.068L40.1475 29.1475L39.2846 28.5786H40.3512L40.6808 27.6581Z" fill="white"/>
<path d="M40.6808 27.6581L41.0104 28.5786H42.077L41.2141 29.1475L41.5437 30.068L40.6808 29.4991L39.8179 30.068L40.1475 29.1475L39.2846 28.5786H40.3512L40.6808 27.6581Z" fill="white"/>
<path d="M37.7446 30.3224L38.0743 31.2429H39.1409L38.278 31.8118L38.6076 32.7323L37.7446 32.1634L36.8817 32.7323L37.2113 31.8118L36.3484 31.2429H37.415L37.7446 30.3224Z" fill="white"/>
<path d="M37.7446 30.3224L38.0743 31.2429H39.1409L38.278 31.8118L38.6076 32.7323L37.7446 32.1634L36.8817 32.7323L37.2113 31.8118L36.3484 31.2429H37.415L37.7446 30.3224Z" fill="white"/>
<path d="M37.7446 30.3224L38.0743 31.2429H39.1409L38.278 31.8118L38.6076 32.7323L37.7446 32.1634L36.8817 32.7323L37.2113 31.8118L36.3484 31.2429H37.415L37.7446 30.3224Z" fill="white"/>
<path d="M46.5532 27.6581L46.8828 28.5786H47.9494L47.0865 29.1475L47.4161 30.068L46.5532 29.4991L45.6902 30.068L46.0198 29.1475L45.1569 28.5786H46.2236L46.5532 27.6581Z" fill="white"/>
<path d="M46.5532 27.6581L46.8828 28.5786H47.9494L47.0865 29.1475L47.4161 30.068L46.5532 29.4991L45.6902 30.068L46.0198 29.1475L45.1569 28.5786H46.2236L46.5532 27.6581Z" fill="white"/>
<path d="M46.5532 27.6581L46.8828 28.5786H47.9494L47.0865 29.1475L47.4161 30.068L46.5532 29.4991L45.6902 30.068L46.0198 29.1475L45.1569 28.5786H46.2236L46.5532 27.6581Z" fill="white"/>
<path d="M43.617 30.3224L43.9466 31.2429H45.0132L44.1503 31.8118L44.4799 32.7323L43.617 32.1634L42.7541 32.7323L43.0837 31.8118L42.2208 31.2429H43.2874L43.617 30.3224Z" fill="white"/>
<path d="M43.617 30.3224L43.9466 31.2429H45.0132L44.1503 31.8118L44.4799 32.7323L43.617 32.1634L42.7541 32.7323L43.0837 31.8118L42.2208 31.2429H43.2874L43.617 30.3224Z" fill="white"/>
<path d="M43.617 30.3224L43.9466 31.2429H45.0132L44.1503 31.8118L44.4799 32.7323L43.617 32.1634L42.7541 32.7323L43.0837 31.8118L42.2208 31.2429H43.2874L43.617 30.3224Z" fill="white"/>
<path d="M17.1915 32.9867L17.5211 33.9072H18.5877L17.7248 34.4761L18.0544 35.3966L17.1915 34.8277L16.3285 35.3966L16.6581 34.4761L15.7952 33.9072H16.8618L17.1915 32.9867Z" fill="white"/>
<path d="M17.1915 32.9867L17.5211 33.9072H18.5877L17.7248 34.4761L18.0544 35.3966L17.1915 34.8277L16.3285 35.3966L16.6581 34.4761L15.7952 33.9072H16.8618L17.1915 32.9867Z" fill="white"/>
<path d="M17.1915 32.9867L17.5211 33.9072H18.5877L17.7248 34.4761L18.0544 35.3966L17.1915 34.8277L16.3285 35.3966L16.6581 34.4761L15.7952 33.9072H16.8618L17.1915 32.9867Z" fill="white"/>
<path d="M23.0638 32.9867L23.3934 33.9072H24.46L23.5971 34.4761L23.9267 35.3966L23.0638 34.8277L22.2009 35.3966L22.5305 34.4761L21.6676 33.9072H22.7342L23.0638 32.9867Z" fill="white"/>
<path d="M23.0638 32.9867L23.3934 33.9072H24.46L23.5971 34.4761L23.9267 35.3966L23.0638 34.8277L22.2009 35.3966L22.5305 34.4761L21.6676 33.9072H22.7342L23.0638 32.9867Z" fill="white"/>
<path d="M23.0638 32.9867L23.3934 33.9072H24.46L23.5971 34.4761L23.9267 35.3966L23.0638 34.8277L22.2009 35.3966L22.5305 34.4761L21.6676 33.9072H22.7342L23.0638 32.9867Z" fill="white"/>
<path d="M20.1276 35.6509L20.4572 36.5714H21.5239L20.6609 37.1403L20.9905 38.0608L20.1276 37.4919L19.2647 38.0608L19.5943 37.1403L18.7314 36.5714H19.798L20.1276 35.6509Z" fill="white"/>
<path d="M20.1276 35.6509L20.4572 36.5714H21.5239L20.6609 37.1403L20.9905 38.0608L20.1276 37.4919L19.2647 38.0608L19.5943 37.1403L18.7314 36.5714H19.798L20.1276 35.6509Z" fill="white"/>
<path d="M20.1276 35.6509L20.4572 36.5714H21.5239L20.6609 37.1403L20.9905 38.0608L20.1276 37.4919L19.2647 38.0608L19.5943 37.1403L18.7314 36.5714H19.798L20.1276 35.6509Z" fill="white"/>
<path d="M28.9361 32.9867L29.2657 33.9072H30.3324L29.4694 34.4761L29.7991 35.3966L28.9361 34.8277L28.0732 35.3966L28.4028 34.4761L27.5399 33.9072H28.6065L28.9361 32.9867Z" fill="white"/>
<path d="M28.9361 32.9867L29.2657 33.9072H30.3324L29.4694 34.4761L29.7991 35.3966L28.9361 34.8277L28.0732 35.3966L28.4028 34.4761L27.5399 33.9072H28.6065L28.9361 32.9867Z" fill="white"/>
<path d="M28.9361 32.9867L29.2657 33.9072H30.3324L29.4694 34.4761L29.7991 35.3966L28.9361 34.8277L28.0732 35.3966L28.4028 34.4761L27.5399 33.9072H28.6065L28.9361 32.9867Z" fill="white"/>
<path d="M26 35.6509L26.3296 36.5714H27.3962L26.5333 37.1403L26.8629 38.0608L26 37.4919L25.137 38.0608L25.4667 37.1403L24.6037 36.5714H25.6704L26 35.6509Z" fill="white"/>
<path d="M26 35.6509L26.3296 36.5714H27.3962L26.5333 37.1403L26.8629 38.0608L26 37.4919L25.137 38.0608L25.4667 37.1403L24.6037 36.5714H25.6704L26 35.6509Z" fill="white"/>
<path d="M26 35.6509L26.3296 36.5714H27.3962L26.5333 37.1403L26.8629 38.0608L26 37.4919L25.137 38.0608L25.4667 37.1403L24.6037 36.5714H25.6704L26 35.6509Z" fill="white"/>
<path d="M34.8085 32.9867L35.1381 33.9072H36.2047L35.3418 34.4761L35.6714 35.3966L34.8085 34.8277L33.9456 35.3966L34.2752 34.4761L33.4122 33.9072H34.4789L34.8085 32.9867Z" fill="white"/>
<path d="M34.8085 32.9867L35.1381 33.9072H36.2047L35.3418 34.4761L35.6714 35.3966L34.8085 34.8277L33.9456 35.3966L34.2752 34.4761L33.4122 33.9072H34.4789L34.8085 32.9867Z" fill="white"/>
<path d="M34.8085 32.9867L35.1381 33.9072H36.2047L35.3418 34.4761L35.6714 35.3966L34.8085 34.8277L33.9456 35.3966L34.2752 34.4761L33.4122 33.9072H34.4789L34.8085 32.9867Z" fill="white"/>
<path d="M31.8723 35.6509L32.2019 36.5714H33.2685L32.4056 37.1403L32.7352 38.0608L31.8723 37.4919L31.0094 38.0608L31.339 37.1403L30.4761 36.5714H31.5427L31.8723 35.6509Z" fill="white"/>
<path d="M31.8723 35.6509L32.2019 36.5714H33.2685L32.4056 37.1403L32.7352 38.0608L31.8723 37.4919L31.0094 38.0608L31.339 37.1403L30.4761 36.5714H31.5427L31.8723 35.6509Z" fill="white"/>
<path d="M31.8723 35.6509L32.2019 36.5714H33.2685L32.4056 37.1403L32.7352 38.0608L31.8723 37.4919L31.0094 38.0608L31.339 37.1403L30.4761 36.5714H31.5427L31.8723 35.6509Z" fill="white"/>
<path d="M40.6808 32.9867L41.0104 33.9072H42.077L41.2141 34.4761L41.5437 35.3966L40.6808 34.8277L39.8179 35.3966L40.1475 34.4761L39.2846 33.9072H40.3512L40.6808 32.9867Z" fill="white"/>
<path d="M40.6808 32.9867L41.0104 33.9072H42.077L41.2141 34.4761L41.5437 35.3966L40.6808 34.8277L39.8179 35.3966L40.1475 34.4761L39.2846 33.9072H40.3512L40.6808 32.9867Z" fill="white"/>
<path d="M40.6808 32.9867L41.0104 33.9072H42.077L41.2141 34.4761L41.5437 35.3966L40.6808 34.8277L39.8179 35.3966L40.1475 34.4761L39.2846 33.9072H40.3512L40.6808 32.9867Z" fill="white"/>
<path d="M37.7446 35.6509L38.0743 36.5714H39.1409L38.278 37.1403L38.6076 38.0608L37.7446 37.4919L36.8817 38.0608L37.2113 37.1403L36.3484 36.5714H37.415L37.7446 35.6509Z" fill="white"/>
<path d="M37.7446 35.6509L38.0743 36.5714H39.1409L38.278 37.1403L38.6076 38.0608L37.7446 37.4919L36.8817 38.0608L37.2113 37.1403L36.3484 36.5714H37.415L37.7446 35.6509Z" fill="white"/>
<path d="M37.7446 35.6509L38.0743 36.5714H39.1409L38.278 37.1403L38.6076 38.0608L37.7446 37.4919L36.8817 38.0608L37.2113 37.1403L36.3484 36.5714H37.415L37.7446 35.6509Z" fill="white"/>
<path d="M46.5532 32.9867L46.8828 33.9072H47.9494L47.0865 34.4761L47.4161 35.3966L46.5532 34.8277L45.6902 35.3966L46.0198 34.4761L45.1569 33.9072H46.2236L46.5532 32.9867Z" fill="white"/>
<path d="M46.5532 32.9867L46.8828 33.9072H47.9494L47.0865 34.4761L47.4161 35.3966L46.5532 34.8277L45.6902 35.3966L46.0198 34.4761L45.1569 33.9072H46.2236L46.5532 32.9867Z" fill="white"/>
<path d="M46.5532 32.9867L46.8828 33.9072H47.9494L47.0865 34.4761L47.4161 35.3966L46.5532 34.8277L45.6902 35.3966L46.0198 34.4761L45.1569 33.9072H46.2236L46.5532 32.9867Z" fill="white"/>
<path d="M43.617 35.6509L43.9466 36.5714H45.0132L44.1503 37.1403L44.4799 38.0608L43.617 37.4919L42.7541 38.0608L43.0837 37.1403L42.2208 36.5714H43.2874L43.617 35.6509Z" fill="white"/>
<path d="M43.617 35.6509L43.9466 36.5714H45.0132L44.1503 37.1403L44.4799 38.0608L43.617 37.4919L42.7541 38.0608L43.0837 37.1403L42.2208 36.5714H43.2874L43.617 35.6509Z" fill="white"/>
<path d="M43.617 35.6509L43.9466 36.5714H45.0132L44.1503 37.1403L44.4799 38.0608L43.617 37.4919L42.7541 38.0608L43.0837 37.1403L42.2208 36.5714H43.2874L43.617 35.6509Z" fill="white"/>
<path d="M17.1915 38.3152L17.5211 39.2357H18.5877L17.7248 39.8046L18.0544 40.7251L17.1915 40.1562L16.3285 40.7251L16.6581 39.8046L15.7952 39.2357H16.8618L17.1915 38.3152Z" fill="white"/>
<path d="M17.1915 38.3152L17.5211 39.2357H18.5877L17.7248 39.8046L18.0544 40.7251L17.1915 40.1562L16.3285 40.7251L16.6581 39.8046L15.7952 39.2357H16.8618L17.1915 38.3152Z" fill="white"/>
<path d="M17.1915 38.3152L17.5211 39.2357H18.5877L17.7248 39.8046L18.0544 40.7251L17.1915 40.1562L16.3285 40.7251L16.6581 39.8046L15.7952 39.2357H16.8618L17.1915 38.3152Z" fill="white"/>
<path d="M23.0638 38.3152L23.3934 39.2357H24.46L23.5971 39.8046L23.9267 40.7251L23.0638 40.1562L22.2009 40.7251L22.5305 39.8046L21.6676 39.2357H22.7342L23.0638 38.3152Z" fill="white"/>
<path d="M23.0638 38.3152L23.3934 39.2357H24.46L23.5971 39.8046L23.9267 40.7251L23.0638 40.1562L22.2009 40.7251L22.5305 39.8046L21.6676 39.2357H22.7342L23.0638 38.3152Z" fill="white"/>
<path d="M23.0638 38.3152L23.3934 39.2357H24.46L23.5971 39.8046L23.9267 40.7251L23.0638 40.1562L22.2009 40.7251L22.5305 39.8046L21.6676 39.2357H22.7342L23.0638 38.3152Z" fill="white"/>
<path d="M20.1276 40.9796L20.4572 41.9H21.5239L20.6609 42.4689L20.9905 43.3894L20.1276 42.8205L19.2647 43.3894L19.5943 42.4689L18.7314 41.9H19.798L20.1276 40.9796Z" fill="white"/>
<path d="M20.1276 40.9796L20.4572 41.9H21.5239L20.6609 42.4689L20.9905 43.3894L20.1276 42.8205L19.2647 43.3894L19.5943 42.4689L18.7314 41.9H19.798L20.1276 40.9796Z" fill="white"/>
<path d="M20.1276 40.9796L20.4572 41.9H21.5239L20.6609 42.4689L20.9905 43.3894L20.1276 42.8205L19.2647 43.3894L19.5943 42.4689L18.7314 41.9H19.798L20.1276 40.9796Z" fill="white"/>
<path d="M28.9361 38.3152L29.2657 39.2357H30.3324L29.4694 39.8046L29.7991 40.7251L28.9361 40.1562L28.0732 40.7251L28.4028 39.8046L27.5399 39.2357H28.6065L28.9361 38.3152Z" fill="white"/>
<path d="M28.9361 38.3152L29.2657 39.2357H30.3324L29.4694 39.8046L29.7991 40.7251L28.9361 40.1562L28.0732 40.7251L28.4028 39.8046L27.5399 39.2357H28.6065L28.9361 38.3152Z" fill="white"/>
<path d="M28.9361 38.3152L29.2657 39.2357H30.3324L29.4694 39.8046L29.7991 40.7251L28.9361 40.1562L28.0732 40.7251L28.4028 39.8046L27.5399 39.2357H28.6065L28.9361 38.3152Z" fill="white"/>
<path d="M26 40.9796L26.3296 41.9H27.3962L26.5333 42.4689L26.8629 43.3894L26 42.8205L25.137 43.3894L25.4667 42.4689L24.6037 41.9H25.6704L26 40.9796Z" fill="white"/>
<path d="M26 40.9796L26.3296 41.9H27.3962L26.5333 42.4689L26.8629 43.3894L26 42.8205L25.137 43.3894L25.4667 42.4689L24.6037 41.9H25.6704L26 40.9796Z" fill="white"/>
<path d="M26 40.9796L26.3296 41.9H27.3962L26.5333 42.4689L26.8629 43.3894L26 42.8205L25.137 43.3894L25.4667 42.4689L24.6037 41.9H25.6704L26 40.9796Z" fill="white"/>
<path d="M34.8085 38.3152L35.1381 39.2357H36.2047L35.3418 39.8046L35.6714 40.7251L34.8085 40.1562L33.9456 40.7251L34.2752 39.8046L33.4122 39.2357H34.4789L34.8085 38.3152Z" fill="white"/>
<path d="M34.8085 38.3152L35.1381 39.2357H36.2047L35.3418 39.8046L35.6714 40.7251L34.8085 40.1562L33.9456 40.7251L34.2752 39.8046L33.4122 39.2357H34.4789L34.8085 38.3152Z" fill="white"/>
<path d="M34.8085 38.3152L35.1381 39.2357H36.2047L35.3418 39.8046L35.6714 40.7251L34.8085 40.1562L33.9456 40.7251L34.2752 39.8046L33.4122 39.2357H34.4789L34.8085 38.3152Z" fill="white"/>
<path d="M31.8723 40.9796L32.2019 41.9H33.2685L32.4056 42.4689L32.7352 43.3894L31.8723 42.8205L31.0094 43.3894L31.339 42.4689L30.4761 41.9H31.5427L31.8723 40.9796Z" fill="white"/>
<path d="M31.8723 40.9796L32.2019 41.9H33.2685L32.4056 42.4689L32.7352 43.3894L31.8723 42.8205L31.0094 43.3894L31.339 42.4689L30.4761 41.9H31.5427L31.8723 40.9796Z" fill="white"/>
<path d="M31.8723 40.9796L32.2019 41.9H33.2685L32.4056 42.4689L32.7352 43.3894L31.8723 42.8205L31.0094 43.3894L31.339 42.4689L30.4761 41.9H31.5427L31.8723 40.9796Z" fill="white"/>
<path d="M40.6808 38.3152L41.0104 39.2357H42.077L41.2141 39.8046L41.5437 40.7251L40.6808 40.1562L39.8179 40.7251L40.1475 39.8046L39.2846 39.2357H40.3512L40.6808 38.3152Z" fill="white"/>
<path d="M40.6808 38.3152L41.0104 39.2357H42.077L41.2141 39.8046L41.5437 40.7251L40.6808 40.1562L39.8179 40.7251L40.1475 39.8046L39.2846 39.2357H40.3512L40.6808 38.3152Z" fill="white"/>
<path d="M40.6808 38.3152L41.0104 39.2357H42.077L41.2141 39.8046L41.5437 40.7251L40.6808 40.1562L39.8179 40.7251L40.1475 39.8046L39.2846 39.2357H40.3512L40.6808 38.3152Z" fill="white"/>
<path d="M37.7446 40.9796L38.0743 41.9H39.1409L38.278 42.4689L38.6076 43.3894L37.7446 42.8205L36.8817 43.3894L37.2113 42.4689L36.3484 41.9H37.415L37.7446 40.9796Z" fill="white"/>
<path d="M37.7446 40.9796L38.0743 41.9H39.1409L38.278 42.4689L38.6076 43.3894L37.7446 42.8205L36.8817 43.3894L37.2113 42.4689L36.3484 41.9H37.415L37.7446 40.9796Z" fill="white"/>
<path d="M37.7446 40.9796L38.0743 41.9H39.1409L38.278 42.4689L38.6076 43.3894L37.7446 42.8205L36.8817 43.3894L37.2113 42.4689L36.3484 41.9H37.415L37.7446 40.9796Z" fill="white"/>
<path d="M46.5532 38.3152L46.8828 39.2357H47.9494L47.0865 39.8046L47.4161 40.7251L46.5532 40.1562L45.6902 40.7251L46.0198 39.8046L45.1569 39.2357H46.2236L46.5532 38.3152Z" fill="white"/>
<path d="M46.5532 38.3152L46.8828 39.2357H47.9494L47.0865 39.8046L47.4161 40.7251L46.5532 40.1562L45.6902 40.7251L46.0198 39.8046L45.1569 39.2357H46.2236L46.5532 38.3152Z" fill="white"/>
<path d="M46.5532 38.3152L46.8828 39.2357H47.9494L47.0865 39.8046L47.4161 40.7251L46.5532 40.1562L45.6902 40.7251L46.0198 39.8046L45.1569 39.2357H46.2236L46.5532 38.3152Z" fill="white"/>
<path d="M43.617 40.9796L43.9466 41.9H45.0132L44.1503 42.4689L44.4799 43.3894L43.617 42.8205L42.7541 43.3894L43.0837 42.4689L42.2208 41.9H43.2874L43.617 40.9796Z" fill="white"/>
<path d="M43.617 40.9796L43.9466 41.9H45.0132L44.1503 42.4689L44.4799 43.3894L43.617 42.8205L42.7541 43.3894L43.0837 42.4689L42.2208 41.9H43.2874L43.617 40.9796Z" fill="white"/>
<path d="M43.617 40.9796L43.9466 41.9H45.0132L44.1503 42.4689L44.4799 43.3894L43.617 42.8205L42.7541 43.3894L43.0837 42.4689L42.2208 41.9H43.2874L43.617 40.9796Z" fill="white"/>
<defs>
<filter id="filter0_d_2_861" x="-0.831598" y="0" width="93.8741" height="93.8741" filterUnits="userSpaceOnUse" color-interpolation-filters="sRGB">
<feFlood flood-opacity="0" result="BackgroundImageFix"/>
<feColorMatrix in="SourceAlpha" type="matrix" values="0 0 0 0 0 0 0 0 0 0 0 0 0 0 0 0 0 0 127 0" result="hardAlpha"/>
<feOffset dy="3.8316"/>
<feGaussianBlur stdDeviation="1.9158"/>
<feComposite in2="hardAlpha" operator="out"/>
<feColorMatrix type="matrix" values="0 0 0 0 0 0 0 0 0 0 0 0 0 0 0 0 0 0 0.25 0"/>
<feBlend mode="normal" in2="BackgroundImageFix" result="effect1_dropShadow_2_861"/>
<feBlend mode="normal" in="SourceGraphic" in2="effect1_dropShadow_2_861" result="shape"/>
</filter>
</defs>
</svg>
