<svg width="94" height="93" viewBox="0 0 94 93" fill="none" xmlns="http://www.w3.org/2000/svg">
<g filter="url(#filter0_d_2_851)">
<circle cx="46.1055" cy="43.1055" r="43.1055" fill="#F7EAD5"/>
<circle cx="46.1055" cy="43.1055" r="42.6265" stroke="black" stroke-width="0.9579"/>
</g>
<rect x="14.2554" y="21.0426" width="66.5532" height="46.9787" fill="#100884" stroke="black" stroke-width="0.978723"/>
<rect x="14.7448" y="62.6384" width="5.87234" height="4.89362" fill="white"/>
<rect x="74.4469" y="62.6384" width="5.87234" height="4.89362" fill="white"/>
<rect x="76.4369" y="59.5739" width="4.83241" height="1.72675" transform="rotate(31.83 76.4369 59.5739)" fill="white"/>
<rect x="75.4255" y="21.532" width="4.89362" height="6.85106" fill="white"/>
<rect x="14.7448" y="21.532" width="3.91489" height="6.85106" fill="white"/>
<rect x="18.2948" y="21.3167" width="5.3504" height="2.41536" transform="rotate(32.4479 18.2948 21.3167)" fill="white"/>
<rect x="14.7448" y="62.2904" width="4.89362" height="5.17776" transform="rotate(-7.40672 14.7448 62.2904)" fill="white"/>
<rect x="14.6471" y="61.9935" width="4.89362" height="6.06667" transform="rotate(-30.1704 14.6471 61.9935)" fill="white"/>
<rect x="14.7987" y="63.6171" width="2.04889" height="3.35263" transform="rotate(0.796171 14.7987 63.6171)" fill="#BD0909"/>
<line x1="46.0639" y1="67.532" x2="46.0639" y2="21.532" stroke="white" stroke-width="9.78723"/>
<line x1="14.6988" y1="46.6162" x2="80.2777" y2="46.0003" stroke="white" stroke-width="9.78723"/>
<line x1="18.4703" y1="64.2582" x2="78.1724" y2="25.1092" stroke="white" stroke-width="7.82979"/>
<line x1="16.8915" y1="25.1092" x2="76.5936" y2="64.2581" stroke="white" stroke-width="7.82979"/>
<path d="M46.0638 67.532L46.0638 21.532" stroke="#BD0909" stroke-width="5.87234"/>
<line x1="80.363" y1="45.9997" x2="14.7886" y2="46.9784" stroke="#BD0909" stroke-width="5.87234"/>
<line x1="79.424" y1="24.1548" x2="15.807" y2="65.2612" stroke="#BD0909" stroke-width="3.91489"/>
<line x1="15.8071" y1="24.7815" x2="79.4241" y2="65.8879" stroke="#BD0909" stroke-width="3.91489"/>
<defs>
<filter id="filter0_d_2_851" x="-0.831598" y="0" width="93.8741" height="93.8741" filterUnits="userSpaceOnUse" color-interpolation-filters="sRGB">
<feFlood flood-opacity="0" result="BackgroundImageFix"/>
<feColorMatrix in="SourceAlpha" type="matrix" values="0 0 0 0 0 0 0 0 0 0 0 0 0 0 0 0 0 0 127 0" result="hardAlpha"/>
<feOffset dy="3.8316"/>
<feGaussianBlur stdDeviation="1.9158"/>
<feComposite in2="hardAlpha" operator="out"/>
<feColorMatrix type="matrix" values="0 0 0 0 0 0 0 0 0 0 0 0 0 0 0 0 0 0 0.25 0"/>
<feBlend mode="normal" in2="BackgroundImageFix" result="effect1_dropShadow_2_851"/>
<feBlend mode="normal" in="SourceGraphic" in2="effect1_dropShadow_2_851" result="shape"/>
</filter>
</defs>
</svg>
