<svg width="94" height="93" viewBox="0 0 94 93" fill="none" xmlns="http://www.w3.org/2000/svg">
<g filter="url(#filter0_d_2_850)">
<circle cx="46.1055" cy="43.1055" r="43.1055" fill="#F7EAD5"/>
<circle cx="46.1055" cy="43.1055" r="42.6265" stroke="black" stroke-width="0.9579"/>
</g>
<rect x="14.2554" y="21.0426" width="66.5532" height="46.9787" fill="white" stroke="black" stroke-width="0.978723"/>
<line x1="14.7448" y1="23.0363" x2="80.3192" y2="23.0363" stroke="#BD0909" stroke-width="3.91489"/>
<line x1="14.7448" y1="30.1411" x2="80.3192" y2="30.1411" stroke="#BD0909" stroke-width="3.91489"/>
<line x1="14.7448" y1="37.2459" x2="80.3192" y2="37.2459" stroke="#BD0909" stroke-width="3.91489"/>
<line x1="14.7448" y1="44.3507" x2="80.3192" y2="44.3507" stroke="#BD0909" stroke-width="3.91489"/>
<line x1="14.7448" y1="51.4555" x2="80.3192" y2="51.4555" stroke="#BD0909" stroke-width="3.91489"/>
<line x1="14.7448" y1="58.5603" x2="80.3192" y2="58.5603" stroke="#BD0909" stroke-width="3.91489"/>
<line x1="14.7448" y1="65.6651" x2="80.3192" y2="65.6651" stroke="#BD0909" stroke-width="3.91489"/>
<rect x="14.7448" y="21.4413" width="34.2553" height="24.8668" fill="#100884"/>
<path d="M17.1916 22.3295L17.5212 23.25H18.5878L17.7249 23.8189L18.0545 24.7394L17.1916 24.1705L16.3287 24.7394L16.6583 23.8189L15.7954 23.25H16.862L17.1916 22.3295Z" fill="white"/>
<path d="M17.1916 22.3295L17.5212 23.25H18.5878L17.7249 23.8189L18.0545 24.7394L17.1916 24.1705L16.3287 24.7394L16.6583 23.8189L15.7954 23.25H16.862L17.1916 22.3295Z" fill="white"/>
<path d="M17.1916 22.3295L17.5212 23.25H18.5878L17.7249 23.8189L18.0545 24.7394L17.1916 24.1705L16.3287 24.7394L16.6583 23.8189L15.7954 23.25H16.862L17.1916 22.3295Z" fill="white"/>
<path d="M23.0639 22.3295L23.3935 23.25H24.4601L23.5972 23.8189L23.9268 24.7394L23.0639 24.1705L22.201 24.7394L22.5306 23.8189L21.6677 23.25H22.7343L23.0639 22.3295Z" fill="white"/>
<path d="M23.0639 22.3295L23.3935 23.25H24.4601L23.5972 23.8189L23.9268 24.7394L23.0639 24.1705L22.201 24.7394L22.5306 23.8189L21.6677 23.25H22.7343L23.0639 22.3295Z" fill="white"/>
<path d="M23.0639 22.3295L23.3935 23.25H24.4601L23.5972 23.8189L23.9268 24.7394L23.0639 24.1705L22.201 24.7394L22.5306 23.8189L21.6677 23.25H22.7343L23.0639 22.3295Z" fill="white"/>
<path d="M20.1278 24.9938L20.4574 25.9143H21.524L20.6611 26.4832L20.9907 27.4037L20.1278 26.8348L19.2648 27.4037L19.5944 26.4832L18.7315 25.9143H19.7981L20.1278 24.9938Z" fill="white"/>
<path d="M20.1278 24.9938L20.4574 25.9143H21.524L20.6611 26.4832L20.9907 27.4037L20.1278 26.8348L19.2648 27.4037L19.5944 26.4832L18.7315 25.9143H19.7981L20.1278 24.9938Z" fill="white"/>
<path d="M20.1278 24.9938L20.4574 25.9143H21.524L20.6611 26.4832L20.9907 27.4037L20.1278 26.8348L19.2648 27.4037L19.5944 26.4832L18.7315 25.9143H19.7981L20.1278 24.9938Z" fill="white"/>
<path d="M28.9362 22.3295L29.2658 23.25H30.3325L29.4695 23.8189L29.7991 24.7394L28.9362 24.1705L28.0733 24.7394L28.4029 23.8189L27.54 23.25H28.6066L28.9362 22.3295Z" fill="white"/>
<path d="M28.9362 22.3295L29.2658 23.25H30.3325L29.4695 23.8189L29.7991 24.7394L28.9362 24.1705L28.0733 24.7394L28.4029 23.8189L27.54 23.25H28.6066L28.9362 22.3295Z" fill="white"/>
<path d="M28.9362 22.3295L29.2658 23.25H30.3325L29.4695 23.8189L29.7991 24.7394L28.9362 24.1705L28.0733 24.7394L28.4029 23.8189L27.54 23.25H28.6066L28.9362 22.3295Z" fill="white"/>
<path d="M26.0001 24.9938L26.3297 25.9143H27.3963L26.5334 26.4832L26.863 27.4037L26.0001 26.8348L25.1371 27.4037L25.4668 26.4832L24.6038 25.9143H25.6705L26.0001 24.9938Z" fill="white"/>
<path d="M26.0001 24.9938L26.3297 25.9143H27.3963L26.5334 26.4832L26.863 27.4037L26.0001 26.8348L25.1371 27.4037L25.4668 26.4832L24.6038 25.9143H25.6705L26.0001 24.9938Z" fill="white"/>
<path d="M26.0001 24.9938L26.3297 25.9143H27.3963L26.5334 26.4832L26.863 27.4037L26.0001 26.8348L25.1371 27.4037L25.4668 26.4832L24.6038 25.9143H25.6705L26.0001 24.9938Z" fill="white"/>
<path d="M34.8085 22.3295L35.1381 23.25H36.2048L35.3419 23.8189L35.6715 24.7394L34.8085 24.1705L33.9456 24.7394L34.2752 23.8189L33.4123 23.25H34.4789L34.8085 22.3295Z" fill="white"/>
<path d="M34.8085 22.3295L35.1381 23.25H36.2048L35.3419 23.8189L35.6715 24.7394L34.8085 24.1705L33.9456 24.7394L34.2752 23.8189L33.4123 23.25H34.4789L34.8085 22.3295Z" fill="white"/>
<path d="M34.8085 22.3295L35.1381 23.25H36.2048L35.3419 23.8189L35.6715 24.7394L34.8085 24.1705L33.9456 24.7394L34.2752 23.8189L33.4123 23.25H34.4789L34.8085 22.3295Z" fill="white"/>
<path d="M31.8724 24.9938L32.202 25.9143H33.2686L32.4057 26.4832L32.7353 27.4037L31.8724 26.8348L31.0095 27.4037L31.3391 26.4832L30.4762 25.9143H31.5428L31.8724 24.9938Z" fill="white"/>
<path d="M31.8724 24.9938L32.202 25.9143H33.2686L32.4057 26.4832L32.7353 27.4037L31.8724 26.8348L31.0095 27.4037L31.3391 26.4832L30.4762 25.9143H31.5428L31.8724 24.9938Z" fill="white"/>
<path d="M31.8724 24.9938L32.202 25.9143H33.2686L32.4057 26.4832L32.7353 27.4037L31.8724 26.8348L31.0095 27.4037L31.3391 26.4832L30.4762 25.9143H31.5428L31.8724 24.9938Z" fill="white"/>
<path d="M40.681 22.3295L41.0106 23.25H42.0772L41.2143 23.8189L41.5439 24.7394L40.681 24.1705L39.8181 24.7394L40.1477 23.8189L39.2847 23.25H40.3514L40.681 22.3295Z" fill="white"/>
<path d="M40.681 22.3295L41.0106 23.25H42.0772L41.2143 23.8189L41.5439 24.7394L40.681 24.1705L39.8181 24.7394L40.1477 23.8189L39.2847 23.25H40.3514L40.681 22.3295Z" fill="white"/>
<path d="M40.681 22.3295L41.0106 23.25H42.0772L41.2143 23.8189L41.5439 24.7394L40.681 24.1705L39.8181 24.7394L40.1477 23.8189L39.2847 23.25H40.3514L40.681 22.3295Z" fill="white"/>
<path d="M37.7447 24.9938L38.0743 25.9143H39.1409L38.278 26.4832L38.6076 27.4037L37.7447 26.8348L36.8818 27.4037L37.2114 26.4832L36.3485 25.9143H37.4151L37.7447 24.9938Z" fill="white"/>
<path d="M37.7447 24.9938L38.0743 25.9143H39.1409L38.278 26.4832L38.6076 27.4037L37.7447 26.8348L36.8818 27.4037L37.2114 26.4832L36.3485 25.9143H37.4151L37.7447 24.9938Z" fill="white"/>
<path d="M37.7447 24.9938L38.0743 25.9143H39.1409L38.278 26.4832L38.6076 27.4037L37.7447 26.8348L36.8818 27.4037L37.2114 26.4832L36.3485 25.9143H37.4151L37.7447 24.9938Z" fill="white"/>
<path d="M46.5533 22.3295L46.8829 23.25H47.9495L47.0866 23.8189L47.4162 24.7394L46.5533 24.1705L45.6904 24.7394L46.02 23.8189L45.1571 23.25H46.2237L46.5533 22.3295Z" fill="white"/>
<path d="M46.5533 22.3295L46.8829 23.25H47.9495L47.0866 23.8189L47.4162 24.7394L46.5533 24.1705L45.6904 24.7394L46.02 23.8189L45.1571 23.25H46.2237L46.5533 22.3295Z" fill="white"/>
<path d="M46.5533 22.3295L46.8829 23.25H47.9495L47.0866 23.8189L47.4162 24.7394L46.5533 24.1705L45.6904 24.7394L46.02 23.8189L45.1571 23.25H46.2237L46.5533 22.3295Z" fill="white"/>
<path d="M17.1916 43.6439L17.5212 44.5644H18.5878L17.7249 45.1333L18.0545 46.0537L17.1916 45.4848L16.3287 46.0537L16.6583 45.1333L15.7954 44.5644H16.862L17.1916 43.6439Z" fill="white"/>
<path d="M17.1916 43.6439L17.5212 44.5644H18.5878L17.7249 45.1333L18.0545 46.0537L17.1916 45.4848L16.3287 46.0537L16.6583 45.1333L15.7954 44.5644H16.862L17.1916 43.6439Z" fill="white"/>
<path d="M17.1916 43.6439L17.5212 44.5644H18.5878L17.7249 45.1333L18.0545 46.0537L17.1916 45.4848L16.3287 46.0537L16.6583 45.1333L15.7954 44.5644H16.862L17.1916 43.6439Z" fill="white"/>
<path d="M23.0639 43.6439L23.3935 44.5644H24.4601L23.5972 45.1333L23.9268 46.0537L23.0639 45.4848L22.201 46.0537L22.5306 45.1333L21.6677 44.5644H22.7343L23.0639 43.6439Z" fill="white"/>
<path d="M23.0639 43.6439L23.3935 44.5644H24.4601L23.5972 45.1333L23.9268 46.0537L23.0639 45.4848L22.201 46.0537L22.5306 45.1333L21.6677 44.5644H22.7343L23.0639 43.6439Z" fill="white"/>
<path d="M23.0639 43.6439L23.3935 44.5644H24.4601L23.5972 45.1333L23.9268 46.0537L23.0639 45.4848L22.201 46.0537L22.5306 45.1333L21.6677 44.5644H22.7343L23.0639 43.6439Z" fill="white"/>
<path d="M28.9362 43.6439L29.2658 44.5644H30.3325L29.4695 45.1333L29.7991 46.0537L28.9362 45.4848L28.0733 46.0537L28.4029 45.1333L27.54 44.5644H28.6066L28.9362 43.6439Z" fill="white"/>
<path d="M28.9362 43.6439L29.2658 44.5644H30.3325L29.4695 45.1333L29.7991 46.0537L28.9362 45.4848L28.0733 46.0537L28.4029 45.1333L27.54 44.5644H28.6066L28.9362 43.6439Z" fill="white"/>
<path d="M28.9362 43.6439L29.2658 44.5644H30.3325L29.4695 45.1333L29.7991 46.0537L28.9362 45.4848L28.0733 46.0537L28.4029 45.1333L27.54 44.5644H28.6066L28.9362 43.6439Z" fill="white"/>
<path d="M34.8085 43.6439L35.1381 44.5644H36.2048L35.3419 45.1333L35.6715 46.0537L34.8085 45.4848L33.9456 46.0537L34.2752 45.1333L33.4123 44.5644H34.4789L34.8085 43.6439Z" fill="white"/>
<path d="M34.8085 43.6439L35.1381 44.5644H36.2048L35.3419 45.1333L35.6715 46.0537L34.8085 45.4848L33.9456 46.0537L34.2752 45.1333L33.4123 44.5644H34.4789L34.8085 43.6439Z" fill="white"/>
<path d="M34.8085 43.6439L35.1381 44.5644H36.2048L35.3419 45.1333L35.6715 46.0537L34.8085 45.4848L33.9456 46.0537L34.2752 45.1333L33.4123 44.5644H34.4789L34.8085 43.6439Z" fill="white"/>
<path d="M40.681 43.6439L41.0106 44.5644H42.0772L41.2143 45.1333L41.5439 46.0537L40.681 45.4848L39.8181 46.0537L40.1477 45.1333L39.2847 44.5644H40.3514L40.681 43.6439Z" fill="white"/>
<path d="M40.681 43.6439L41.0106 44.5644H42.0772L41.2143 45.1333L41.5439 46.0537L40.681 45.4848L39.8181 46.0537L40.1477 45.1333L39.2847 44.5644H40.3514L40.681 43.6439Z" fill="white"/>
<path d="M40.681 43.6439L41.0106 44.5644H42.0772L41.2143 45.1333L41.5439 46.0537L40.681 45.4848L39.8181 46.0537L40.1477 45.1333L39.2847 44.5644H40.3514L40.681 43.6439Z" fill="white"/>
<path d="M46.5533 43.6439L46.8829 44.5644H47.9495L47.0866 45.1333L47.4162 46.0537L46.5533 45.4848L45.6904 46.0537L46.02 45.1333L45.1571 44.5644H46.2237L46.5533 43.6439Z" fill="white"/>
<path d="M46.5533 43.6439L46.8829 44.5644H47.9495L47.0866 45.1333L47.4162 46.0537L46.5533 45.4848L45.6904 46.0537L46.02 45.1333L45.1571 44.5644H46.2237L46.5533 43.6439Z" fill="white"/>
<path d="M46.5533 43.6439L46.8829 44.5644H47.9495L47.0866 45.1333L47.4162 46.0537L46.5533 45.4848L45.6904 46.0537L46.02 45.1333L45.1571 44.5644H46.2237L46.5533 43.6439Z" fill="white"/>
<path d="M43.6171 24.9938L43.9467 25.9143H45.0134L44.1504 26.4832L44.4801 27.4037L43.6171 26.8348L42.7542 27.4037L43.0838 26.4832L42.2209 25.9143H43.2875L43.6171 24.9938Z" fill="white"/>
<path d="M43.6171 24.9938L43.9467 25.9143H45.0134L44.1504 26.4832L44.4801 27.4037L43.6171 26.8348L42.7542 27.4037L43.0838 26.4832L42.2209 25.9143H43.2875L43.6171 24.9938Z" fill="white"/>
<path d="M43.6171 24.9938L43.9467 25.9143H45.0134L44.1504 26.4832L44.4801 27.4037L43.6171 26.8348L42.7542 27.4037L43.0838 26.4832L42.2209 25.9143H43.2875L43.6171 24.9938Z" fill="white"/>
<path d="M17.1916 27.6581L17.5212 28.5786H18.5878L17.7249 29.1475L18.0545 30.068L17.1916 29.4991L16.3287 30.068L16.6583 29.1475L15.7954 28.5786H16.862L17.1916 27.6581Z" fill="white"/>
<path d="M17.1916 27.6581L17.5212 28.5786H18.5878L17.7249 29.1475L18.0545 30.068L17.1916 29.4991L16.3287 30.068L16.6583 29.1475L15.7954 28.5786H16.862L17.1916 27.6581Z" fill="white"/>
<path d="M17.1916 27.6581L17.5212 28.5786H18.5878L17.7249 29.1475L18.0545 30.068L17.1916 29.4991L16.3287 30.068L16.6583 29.1475L15.7954 28.5786H16.862L17.1916 27.6581Z" fill="white"/>
<path d="M23.0639 27.6581L23.3935 28.5786H24.4601L23.5972 29.1475L23.9268 30.068L23.0639 29.4991L22.201 30.068L22.5306 29.1475L21.6677 28.5786H22.7343L23.0639 27.6581Z" fill="white"/>
<path d="M23.0639 27.6581L23.3935 28.5786H24.4601L23.5972 29.1475L23.9268 30.068L23.0639 29.4991L22.201 30.068L22.5306 29.1475L21.6677 28.5786H22.7343L23.0639 27.6581Z" fill="white"/>
<path d="M23.0639 27.6581L23.3935 28.5786H24.4601L23.5972 29.1475L23.9268 30.068L23.0639 29.4991L22.201 30.068L22.5306 29.1475L21.6677 28.5786H22.7343L23.0639 27.6581Z" fill="white"/>
<path d="M20.1278 30.3224L20.4574 31.2429H21.524L20.6611 31.8118L20.9907 32.7323L20.1278 32.1634L19.2648 32.7323L19.5944 31.8118L18.7315 31.2429H19.7981L20.1278 30.3224Z" fill="white"/>
<path d="M20.1278 30.3224L20.4574 31.2429H21.524L20.6611 31.8118L20.9907 32.7323L20.1278 32.1634L19.2648 32.7323L19.5944 31.8118L18.7315 31.2429H19.7981L20.1278 30.3224Z" fill="white"/>
<path d="M20.1278 30.3224L20.4574 31.2429H21.524L20.6611 31.8118L20.9907 32.7323L20.1278 32.1634L19.2648 32.7323L19.5944 31.8118L18.7315 31.2429H19.7981L20.1278 30.3224Z" fill="white"/>
<path d="M28.9362 27.6581L29.2658 28.5786H30.3325L29.4695 29.1475L29.7991 30.068L28.9362 29.4991L28.0733 30.068L28.4029 29.1475L27.54 28.5786H28.6066L28.9362 27.6581Z" fill="white"/>
<path d="M28.9362 27.6581L29.2658 28.5786H30.3325L29.4695 29.1475L29.7991 30.068L28.9362 29.4991L28.0733 30.068L28.4029 29.1475L27.54 28.5786H28.6066L28.9362 27.6581Z" fill="white"/>
<path d="M28.9362 27.6581L29.2658 28.5786H30.3325L29.4695 29.1475L29.7991 30.068L28.9362 29.4991L28.0733 30.068L28.4029 29.1475L27.54 28.5786H28.6066L28.9362 27.6581Z" fill="white"/>
<path d="M26.0001 30.3224L26.3297 31.2429H27.3963L26.5334 31.8118L26.863 32.7323L26.0001 32.1634L25.1371 32.7323L25.4668 31.8118L24.6038 31.2429H25.6705L26.0001 30.3224Z" fill="white"/>
<path d="M26.0001 30.3224L26.3297 31.2429H27.3963L26.5334 31.8118L26.863 32.7323L26.0001 32.1634L25.1371 32.7323L25.4668 31.8118L24.6038 31.2429H25.6705L26.0001 30.3224Z" fill="white"/>
<path d="M26.0001 30.3224L26.3297 31.2429H27.3963L26.5334 31.8118L26.863 32.7323L26.0001 32.1634L25.1371 32.7323L25.4668 31.8118L24.6038 31.2429H25.6705L26.0001 30.3224Z" fill="white"/>
<path d="M34.8085 27.6581L35.1381 28.5786H36.2048L35.3419 29.1475L35.6715 30.068L34.8085 29.4991L33.9456 30.068L34.2752 29.1475L33.4123 28.5786H34.4789L34.8085 27.6581Z" fill="white"/>
<path d="M34.8085 27.6581L35.1381 28.5786H36.2048L35.3419 29.1475L35.6715 30.068L34.8085 29.4991L33.9456 30.068L34.2752 29.1475L33.4123 28.5786H34.4789L34.8085 27.6581Z" fill="white"/>
<path d="M34.8085 27.6581L35.1381 28.5786H36.2048L35.3419 29.1475L35.6715 30.068L34.8085 29.4991L33.9456 30.068L34.2752 29.1475L33.4123 28.5786H34.4789L34.8085 27.6581Z" fill="white"/>
<path d="M31.8724 30.3224L32.202 31.2429H33.2686L32.4057 31.8118L32.7353 32.7323L31.8724 32.1634L31.0095 32.7323L31.3391 31.8118L30.4762 31.2429H31.5428L31.8724 30.3224Z" fill="white"/>
<path d="M31.8724 30.3224L32.202 31.2429H33.2686L32.4057 31.8118L32.7353 32.7323L31.8724 32.1634L31.0095 32.7323L31.3391 31.8118L30.4762 31.2429H31.5428L31.8724 30.3224Z" fill="white"/>
<path d="M31.8724 30.3224L32.202 31.2429H33.2686L32.4057 31.8118L32.7353 32.7323L31.8724 32.1634L31.0095 32.7323L31.3391 31.8118L30.4762 31.2429H31.5428L31.8724 30.3224Z" fill="white"/>
<path d="M40.681 27.6581L41.0106 28.5786H42.0772L41.2143 29.1475L41.5439 30.068L40.681 29.4991L39.8181 30.068L40.1477 29.1475L39.2847 28.5786H40.3514L40.681 27.6581Z" fill="white"/>
<path d="M40.681 27.6581L41.0106 28.5786H42.0772L41.2143 29.1475L41.5439 30.068L40.681 29.4991L39.8181 30.068L40.1477 29.1475L39.2847 28.5786H40.3514L40.681 27.6581Z" fill="white"/>
<path d="M40.681 27.6581L41.0106 28.5786H42.0772L41.2143 29.1475L41.5439 30.068L40.681 29.4991L39.8181 30.068L40.1477 29.1475L39.2847 28.5786H40.3514L40.681 27.6581Z" fill="white"/>
<path d="M37.7447 30.3224L38.0743 31.2429H39.1409L38.278 31.8118L38.6076 32.7323L37.7447 32.1634L36.8818 32.7323L37.2114 31.8118L36.3485 31.2429H37.4151L37.7447 30.3224Z" fill="white"/>
<path d="M37.7447 30.3224L38.0743 31.2429H39.1409L38.278 31.8118L38.6076 32.7323L37.7447 32.1634L36.8818 32.7323L37.2114 31.8118L36.3485 31.2429H37.4151L37.7447 30.3224Z" fill="white"/>
<path d="M37.7447 30.3224L38.0743 31.2429H39.1409L38.278 31.8118L38.6076 32.7323L37.7447 32.1634L36.8818 32.7323L37.2114 31.8118L36.3485 31.2429H37.4151L37.7447 30.3224Z" fill="white"/>
<path d="M46.5533 27.6581L46.8829 28.5786H47.9495L47.0866 29.1475L47.4162 30.068L46.5533 29.4991L45.6904 30.068L46.02 29.1475L45.1571 28.5786H46.2237L46.5533 27.6581Z" fill="white"/>
<path d="M46.5533 27.6581L46.8829 28.5786H47.9495L47.0866 29.1475L47.4162 30.068L46.5533 29.4991L45.6904 30.068L46.02 29.1475L45.1571 28.5786H46.2237L46.5533 27.6581Z" fill="white"/>
<path d="M46.5533 27.6581L46.8829 28.5786H47.9495L47.0866 29.1475L47.4162 30.068L46.5533 29.4991L45.6904 30.068L46.02 29.1475L45.1571 28.5786H46.2237L46.5533 27.6581Z" fill="white"/>
<path d="M43.6171 30.3224L43.9467 31.2429H45.0134L44.1504 31.8118L44.4801 32.7323L43.6171 32.1634L42.7542 32.7323L43.0838 31.8118L42.2209 31.2429H43.2875L43.6171 30.3224Z" fill="white"/>
<path d="M43.6171 30.3224L43.9467 31.2429H45.0134L44.1504 31.8118L44.4801 32.7323L43.6171 32.1634L42.7542 32.7323L43.0838 31.8118L42.2209 31.2429H43.2875L43.6171 30.3224Z" fill="white"/>
<path d="M43.6171 30.3224L43.9467 31.2429H45.0134L44.1504 31.8118L44.4801 32.7323L43.6171 32.1634L42.7542 32.7323L43.0838 31.8118L42.2209 31.2429H43.2875L43.6171 30.3224Z" fill="white"/>
<path d="M17.1916 32.9867L17.5212 33.9072H18.5878L17.7249 34.4761L18.0545 35.3966L17.1916 34.8277L16.3287 35.3966L16.6583 34.4761L15.7954 33.9072H16.862L17.1916 32.9867Z" fill="white"/>
<path d="M17.1916 32.9867L17.5212 33.9072H18.5878L17.7249 34.4761L18.0545 35.3966L17.1916 34.8277L16.3287 35.3966L16.6583 34.4761L15.7954 33.9072H16.862L17.1916 32.9867Z" fill="white"/>
<path d="M17.1916 32.9867L17.5212 33.9072H18.5878L17.7249 34.4761L18.0545 35.3966L17.1916 34.8277L16.3287 35.3966L16.6583 34.4761L15.7954 33.9072H16.862L17.1916 32.9867Z" fill="white"/>
<path d="M23.0639 32.9867L23.3935 33.9072H24.4601L23.5972 34.4761L23.9268 35.3966L23.0639 34.8277L22.201 35.3966L22.5306 34.4761L21.6677 33.9072H22.7343L23.0639 32.9867Z" fill="white"/>
<path d="M23.0639 32.9867L23.3935 33.9072H24.4601L23.5972 34.4761L23.9268 35.3966L23.0639 34.8277L22.201 35.3966L22.5306 34.4761L21.6677 33.9072H22.7343L23.0639 32.9867Z" fill="white"/>
<path d="M23.0639 32.9867L23.3935 33.9072H24.4601L23.5972 34.4761L23.9268 35.3966L23.0639 34.8277L22.201 35.3966L22.5306 34.4761L21.6677 33.9072H22.7343L23.0639 32.9867Z" fill="white"/>
<path d="M20.1278 35.6509L20.4574 36.5714H21.524L20.6611 37.1403L20.9907 38.0608L20.1278 37.4919L19.2648 38.0608L19.5944 37.1403L18.7315 36.5714H19.7981L20.1278 35.6509Z" fill="white"/>
<path d="M20.1278 35.6509L20.4574 36.5714H21.524L20.6611 37.1403L20.9907 38.0608L20.1278 37.4919L19.2648 38.0608L19.5944 37.1403L18.7315 36.5714H19.7981L20.1278 35.6509Z" fill="white"/>
<path d="M20.1278 35.6509L20.4574 36.5714H21.524L20.6611 37.1403L20.9907 38.0608L20.1278 37.4919L19.2648 38.0608L19.5944 37.1403L18.7315 36.5714H19.7981L20.1278 35.6509Z" fill="white"/>
<path d="M28.9362 32.9867L29.2658 33.9072H30.3325L29.4695 34.4761L29.7991 35.3966L28.9362 34.8277L28.0733 35.3966L28.4029 34.4761L27.54 33.9072H28.6066L28.9362 32.9867Z" fill="white"/>
<path d="M28.9362 32.9867L29.2658 33.9072H30.3325L29.4695 34.4761L29.7991 35.3966L28.9362 34.8277L28.0733 35.3966L28.4029 34.4761L27.54 33.9072H28.6066L28.9362 32.9867Z" fill="white"/>
<path d="M28.9362 32.9867L29.2658 33.9072H30.3325L29.4695 34.4761L29.7991 35.3966L28.9362 34.8277L28.0733 35.3966L28.4029 34.4761L27.54 33.9072H28.6066L28.9362 32.9867Z" fill="white"/>
<path d="M26.0001 35.6509L26.3297 36.5714H27.3963L26.5334 37.1403L26.863 38.0608L26.0001 37.4919L25.1371 38.0608L25.4668 37.1403L24.6038 36.5714H25.6705L26.0001 35.6509Z" fill="white"/>
<path d="M26.0001 35.6509L26.3297 36.5714H27.3963L26.5334 37.1403L26.863 38.0608L26.0001 37.4919L25.1371 38.0608L25.4668 37.1403L24.6038 36.5714H25.6705L26.0001 35.6509Z" fill="white"/>
<path d="M26.0001 35.6509L26.3297 36.5714H27.3963L26.5334 37.1403L26.863 38.0608L26.0001 37.4919L25.1371 38.0608L25.4668 37.1403L24.6038 36.5714H25.6705L26.0001 35.6509Z" fill="white"/>
<path d="M34.8085 32.9867L35.1381 33.9072H36.2048L35.3419 34.4761L35.6715 35.3966L34.8085 34.8277L33.9456 35.3966L34.2752 34.4761L33.4123 33.9072H34.4789L34.8085 32.9867Z" fill="white"/>
<path d="M34.8085 32.9867L35.1381 33.9072H36.2048L35.3419 34.4761L35.6715 35.3966L34.8085 34.8277L33.9456 35.3966L34.2752 34.4761L33.4123 33.9072H34.4789L34.8085 32.9867Z" fill="white"/>
<path d="M34.8085 32.9867L35.1381 33.9072H36.2048L35.3419 34.4761L35.6715 35.3966L34.8085 34.8277L33.9456 35.3966L34.2752 34.4761L33.4123 33.9072H34.4789L34.8085 32.9867Z" fill="white"/>
<path d="M31.8724 35.6509L32.202 36.5714H33.2686L32.4057 37.1403L32.7353 38.0608L31.8724 37.4919L31.0095 38.0608L31.3391 37.1403L30.4762 36.5714H31.5428L31.8724 35.6509Z" fill="white"/>
<path d="M31.8724 35.6509L32.202 36.5714H33.2686L32.4057 37.1403L32.7353 38.0608L31.8724 37.4919L31.0095 38.0608L31.3391 37.1403L30.4762 36.5714H31.5428L31.8724 35.6509Z" fill="white"/>
<path d="M31.8724 35.6509L32.202 36.5714H33.2686L32.4057 37.1403L32.7353 38.0608L31.8724 37.4919L31.0095 38.0608L31.3391 37.1403L30.4762 36.5714H31.5428L31.8724 35.6509Z" fill="white"/>
<path d="M40.681 32.9867L41.0106 33.9072H42.0772L41.2143 34.4761L41.5439 35.3966L40.681 34.8277L39.8181 35.3966L40.1477 34.4761L39.2847 33.9072H40.3514L40.681 32.9867Z" fill="white"/>
<path d="M40.681 32.9867L41.0106 33.9072H42.0772L41.2143 34.4761L41.5439 35.3966L40.681 34.8277L39.8181 35.3966L40.1477 34.4761L39.2847 33.9072H40.3514L40.681 32.9867Z" fill="white"/>
<path d="M40.681 32.9867L41.0106 33.9072H42.0772L41.2143 34.4761L41.5439 35.3966L40.681 34.8277L39.8181 35.3966L40.1477 34.4761L39.2847 33.9072H40.3514L40.681 32.9867Z" fill="white"/>
<path d="M37.7447 35.6509L38.0743 36.5714H39.1409L38.278 37.1403L38.6076 38.0608L37.7447 37.4919L36.8818 38.0608L37.2114 37.1403L36.3485 36.5714H37.4151L37.7447 35.6509Z" fill="white"/>
<path d="M37.7447 35.6509L38.0743 36.5714H39.1409L38.278 37.1403L38.6076 38.0608L37.7447 37.4919L36.8818 38.0608L37.2114 37.1403L36.3485 36.5714H37.4151L37.7447 35.6509Z" fill="white"/>
<path d="M37.7447 35.6509L38.0743 36.5714H39.1409L38.278 37.1403L38.6076 38.0608L37.7447 37.4919L36.8818 38.0608L37.2114 37.1403L36.3485 36.5714H37.4151L37.7447 35.6509Z" fill="white"/>
<path d="M46.5533 32.9867L46.8829 33.9072H47.9495L47.0866 34.4761L47.4162 35.3966L46.5533 34.8277L45.6904 35.3966L46.02 34.4761L45.1571 33.9072H46.2237L46.5533 32.9867Z" fill="white"/>
<path d="M46.5533 32.9867L46.8829 33.9072H47.9495L47.0866 34.4761L47.4162 35.3966L46.5533 34.8277L45.6904 35.3966L46.02 34.4761L45.1571 33.9072H46.2237L46.5533 32.9867Z" fill="white"/>
<path d="M46.5533 32.9867L46.8829 33.9072H47.9495L47.0866 34.4761L47.4162 35.3966L46.5533 34.8277L45.6904 35.3966L46.02 34.4761L45.1571 33.9072H46.2237L46.5533 32.9867Z" fill="white"/>
<path d="M43.6171 35.6509L43.9467 36.5714H45.0134L44.1504 37.1403L44.4801 38.0608L43.6171 37.4919L42.7542 38.0608L43.0838 37.1403L42.2209 36.5714H43.2875L43.6171 35.6509Z" fill="white"/>
<path d="M43.6171 35.6509L43.9467 36.5714H45.0134L44.1504 37.1403L44.4801 38.0608L43.6171 37.4919L42.7542 38.0608L43.0838 37.1403L42.2209 36.5714H43.2875L43.6171 35.6509Z" fill="white"/>
<path d="M43.6171 35.6509L43.9467 36.5714H45.0134L44.1504 37.1403L44.4801 38.0608L43.6171 37.4919L42.7542 38.0608L43.0838 37.1403L42.2209 36.5714H43.2875L43.6171 35.6509Z" fill="white"/>
<path d="M17.1916 38.3152L17.5212 39.2357H18.5878L17.7249 39.8046L18.0545 40.7251L17.1916 40.1562L16.3287 40.7251L16.6583 39.8046L15.7954 39.2357H16.862L17.1916 38.3152Z" fill="white"/>
<path d="M17.1916 38.3152L17.5212 39.2357H18.5878L17.7249 39.8046L18.0545 40.7251L17.1916 40.1562L16.3287 40.7251L16.6583 39.8046L15.7954 39.2357H16.862L17.1916 38.3152Z" fill="white"/>
<path d="M17.1916 38.3152L17.5212 39.2357H18.5878L17.7249 39.8046L18.0545 40.7251L17.1916 40.1562L16.3287 40.7251L16.6583 39.8046L15.7954 39.2357H16.862L17.1916 38.3152Z" fill="white"/>
<path d="M23.0639 38.3152L23.3935 39.2357H24.4601L23.5972 39.8046L23.9268 40.7251L23.0639 40.1562L22.201 40.7251L22.5306 39.8046L21.6677 39.2357H22.7343L23.0639 38.3152Z" fill="white"/>
<path d="M23.0639 38.3152L23.3935 39.2357H24.4601L23.5972 39.8046L23.9268 40.7251L23.0639 40.1562L22.201 40.7251L22.5306 39.8046L21.6677 39.2357H22.7343L23.0639 38.3152Z" fill="white"/>
<path d="M23.0639 38.3152L23.3935 39.2357H24.4601L23.5972 39.8046L23.9268 40.7251L23.0639 40.1562L22.201 40.7251L22.5306 39.8046L21.6677 39.2357H22.7343L23.0639 38.3152Z" fill="white"/>
<path d="M20.1278 40.9796L20.4574 41.9H21.524L20.6611 42.4689L20.9907 43.3894L20.1278 42.8205L19.2648 43.3894L19.5944 42.4689L18.7315 41.9H19.7981L20.1278 40.9796Z" fill="white"/>
<path d="M20.1278 40.9796L20.4574 41.9H21.524L20.6611 42.4689L20.9907 43.3894L20.1278 42.8205L19.2648 43.3894L19.5944 42.4689L18.7315 41.9H19.7981L20.1278 40.9796Z" fill="white"/>
<path d="M20.1278 40.9796L20.4574 41.9H21.524L20.6611 42.4689L20.9907 43.3894L20.1278 42.8205L19.2648 43.3894L19.5944 42.4689L18.7315 41.9H19.7981L20.1278 40.9796Z" fill="white"/>
<path d="M28.9362 38.3152L29.2658 39.2357H30.3325L29.4695 39.8046L29.7991 40.7251L28.9362 40.1562L28.0733 40.7251L28.4029 39.8046L27.54 39.2357H28.6066L28.9362 38.3152Z" fill="white"/>
<path d="M28.9362 38.3152L29.2658 39.2357H30.3325L29.4695 39.8046L29.7991 40.7251L28.9362 40.1562L28.0733 40.7251L28.4029 39.8046L27.54 39.2357H28.6066L28.9362 38.3152Z" fill="white"/>
<path d="M28.9362 38.3152L29.2658 39.2357H30.3325L29.4695 39.8046L29.7991 40.7251L28.9362 40.1562L28.0733 40.7251L28.4029 39.8046L27.54 39.2357H28.6066L28.9362 38.3152Z" fill="white"/>
<path d="M26.0001 40.9796L26.3297 41.9H27.3963L26.5334 42.4689L26.863 43.3894L26.0001 42.8205L25.1371 43.3894L25.4668 42.4689L24.6038 41.9H25.6705L26.0001 40.9796Z" fill="white"/>
<path d="M26.0001 40.9796L26.3297 41.9H27.3963L26.5334 42.4689L26.863 43.3894L26.0001 42.8205L25.1371 43.3894L25.4668 42.4689L24.6038 41.9H25.6705L26.0001 40.9796Z" fill="white"/>
<path d="M26.0001 40.9796L26.3297 41.9H27.3963L26.5334 42.4689L26.863 43.3894L26.0001 42.8205L25.1371 43.3894L25.4668 42.4689L24.6038 41.9H25.6705L26.0001 40.9796Z" fill="white"/>
<path d="M34.8085 38.3152L35.1381 39.2357H36.2048L35.3419 39.8046L35.6715 40.7251L34.8085 40.1562L33.9456 40.7251L34.2752 39.8046L33.4123 39.2357H34.4789L34.8085 38.3152Z" fill="white"/>
<path d="M34.8085 38.3152L35.1381 39.2357H36.2048L35.3419 39.8046L35.6715 40.7251L34.8085 40.1562L33.9456 40.7251L34.2752 39.8046L33.4123 39.2357H34.4789L34.8085 38.3152Z" fill="white"/>
<path d="M34.8085 38.3152L35.1381 39.2357H36.2048L35.3419 39.8046L35.6715 40.7251L34.8085 40.1562L33.9456 40.7251L34.2752 39.8046L33.4123 39.2357H34.4789L34.8085 38.3152Z" fill="white"/>
<path d="M31.8724 40.9796L32.202 41.9H33.2686L32.4057 42.4689L32.7353 43.3894L31.8724 42.8205L31.0095 43.3894L31.3391 42.4689L30.4762 41.9H31.5428L31.8724 40.9796Z" fill="white"/>
<path d="M31.8724 40.9796L32.202 41.9H33.2686L32.4057 42.4689L32.7353 43.3894L31.8724 42.8205L31.0095 43.3894L31.3391 42.4689L30.4762 41.9H31.5428L31.8724 40.9796Z" fill="white"/>
<path d="M31.8724 40.9796L32.202 41.9H33.2686L32.4057 42.4689L32.7353 43.3894L31.8724 42.8205L31.0095 43.3894L31.3391 42.4689L30.4762 41.9H31.5428L31.8724 40.9796Z" fill="white"/>
<path d="M40.681 38.3152L41.0106 39.2357H42.0772L41.2143 39.8046L41.5439 40.7251L40.681 40.1562L39.8181 40.7251L40.1477 39.8046L39.2847 39.2357H40.3514L40.681 38.3152Z" fill="white"/>
<path d="M40.681 38.3152L41.0106 39.2357H42.0772L41.2143 39.8046L41.5439 40.7251L40.681 40.1562L39.8181 40.7251L40.1477 39.8046L39.2847 39.2357H40.3514L40.681 38.3152Z" fill="white"/>
<path d="M40.681 38.3152L41.0106 39.2357H42.0772L41.2143 39.8046L41.5439 40.7251L40.681 40.1562L39.8181 40.7251L40.1477 39.8046L39.2847 39.2357H40.3514L40.681 38.3152Z" fill="white"/>
<path d="M37.7447 40.9796L38.0743 41.9H39.1409L38.278 42.4689L38.6076 43.3894L37.7447 42.8205L36.8818 43.3894L37.2114 42.4689L36.3485 41.9H37.4151L37.7447 40.9796Z" fill="white"/>
<path d="M37.7447 40.9796L38.0743 41.9H39.1409L38.278 42.4689L38.6076 43.3894L37.7447 42.8205L36.8818 43.3894L37.2114 42.4689L36.3485 41.9H37.4151L37.7447 40.9796Z" fill="white"/>
<path d="M37.7447 40.9796L38.0743 41.9H39.1409L38.278 42.4689L38.6076 43.3894L37.7447 42.8205L36.8818 43.3894L37.2114 42.4689L36.3485 41.9H37.4151L37.7447 40.9796Z" fill="white"/>
<path d="M46.5533 38.3152L46.8829 39.2357H47.9495L47.0866 39.8046L47.4162 40.7251L46.5533 40.1562L45.6904 40.7251L46.02 39.8046L45.1571 39.2357H46.2237L46.5533 38.3152Z" fill="white"/>
<path d="M46.5533 38.3152L46.8829 39.2357H47.9495L47.0866 39.8046L47.4162 40.7251L46.5533 40.1562L45.6904 40.7251L46.02 39.8046L45.1571 39.2357H46.2237L46.5533 38.3152Z" fill="white"/>
<path d="M46.5533 38.3152L46.8829 39.2357H47.9495L47.0866 39.8046L47.4162 40.7251L46.5533 40.1562L45.6904 40.7251L46.02 39.8046L45.1571 39.2357H46.2237L46.5533 38.3152Z" fill="white"/>
<path d="M43.6171 40.9796L43.9467 41.9H45.0134L44.1504 42.4689L44.4801 43.3894L43.6171 42.8205L42.7542 43.3894L43.0838 42.4689L42.2209 41.9H43.2875L43.6171 40.9796Z" fill="white"/>
<path d="M43.6171 40.9796L43.9467 41.9H45.0134L44.1504 42.4689L44.4801 43.3894L43.6171 42.8205L42.7542 43.3894L43.0838 42.4689L42.2209 41.9H43.2875L43.6171 40.9796Z" fill="white"/>
<path d="M43.6171 40.9796L43.9467 41.9H45.0134L44.1504 42.4689L44.4801 43.3894L43.6171 42.8205L42.7542 43.3894L43.0838 42.4689L42.2209 41.9H43.2875L43.6171 40.9796Z" fill="white"/>
<defs>
<filter id="filter0_d_2_850" x="-0.831598" y="0" width="93.8741" height="93.8741" filterUnits="userSpaceOnUse" color-interpolation-filters="sRGB">
<feFlood flood-opacity="0" result="BackgroundImageFix"/>
<feColorMatrix in="SourceAlpha" type="matrix" values="0 0 0 0 0 0 0 0 0 0 0 0 0 0 0 0 0 0 127 0" result="hardAlpha"/>
<feOffset dy="3.8316"/>
<feGaussianBlur stdDeviation="1.9158"/>
<feComposite in2="hardAlpha" operator="out"/>
<feColorMatrix type="matrix" values="0 0 0 0 0 0 0 0 0 0 0 0 0 0 0 0 0 0 0.25 0"/>
<feBlend mode="normal" in2="BackgroundImageFix" result="effect1_dropShadow_2_850"/>
<feBlend mode="normal" in="SourceGraphic" in2="effect1_dropShadow_2_850" result="shape"/>
</filter>
</defs>
</svg>
