<svg width="88" height="81" viewBox="0 0 88 81" fill="none" xmlns="http://www.w3.org/2000/svg">
<path d="M87.5 40.5C87.5 62.5532 68.0642 80.5 44 80.5C19.9358 80.5 0.5 62.5532 0.5 40.5C0.5 18.4468 19.9358 0.5 44 0.5C68.0642 0.5 87.5 18.4468 87.5 40.5Z" fill="white" stroke="black"/>
<mask id="path-2-outside-1_13_976" maskUnits="userSpaceOnUse" x="43" y="25" width="35" height="33" fill="black">
<rect fill="white" x="43" y="25" width="35" height="33"/>
<path d="M57.125 27.25L64.375 26.9375C64.0417 27.9375 63.7708 28.8542 63.5625 29.6875C63.3958 30.4792 63.2708 31.1667 63.1875 31.75C63.0625 32.4583 63 33.0833 63 33.625V35.4375C63 36.0208 62.9792 36.6667 62.9375 37.375C62.8958 38.0833 62.8542 38.8542 62.8125 39.6875C64.3125 39.6458 65.5833 39.6042 66.625 39.5625C67.7083 39.5208 68.6042 39.5 69.3125 39.5H71.3125C71.8125 39.5 72.3125 39.4792 72.8125 39.4375C73.2708 39.3958 73.75 39.3542 74.25 39.3125C74.7917 39.2292 75.3125 39.1042 75.8125 38.9375L76.0625 44.25C75.1458 44.1667 74.3125 44.125 73.5625 44.125C72.8542 44.125 72.2292 44.1042 71.6875 44.0625C71.0625 44.0625 70.5 44.0417 70 44H68.125C67.5 44 66.7292 44.0208 65.8125 44.0625C64.9375 44.1042 63.8958 44.1458 62.6875 44.1875C62.6042 44.8958 62.5417 45.5625 62.5 46.1875C62.5 46.8125 62.5208 47.375 62.5625 47.875C62.5625 48.4583 62.6042 49 62.6875 49.5C62.7292 50.0417 62.8125 50.6667 62.9375 51.375C63.0208 52 63.125 52.75 63.25 53.625C63.4167 54.5 63.6042 55.5417 63.8125 56.75H57C57.1667 55.625 57.2917 54.625 57.375 53.75C57.5 52.8333 57.6042 52.0833 57.6875 51.5C57.7708 50.7917 57.8333 50.1667 57.875 49.625C57.9167 48.9583 57.9583 48.2917 58 47.625C58.0417 47.0417 58.0625 46.4375 58.0625 45.8125C58.0625 45.1458 58.0417 44.5208 58 43.9375C56.9583 43.8958 56.0208 43.8958 55.1875 43.9375C54.3958 43.9375 53.7083 43.9583 53.125 44C52.4583 44.0417 51.875 44.0833 51.375 44.125C50.875 44.2083 50.3125 44.2708 49.6875 44.3125C49.1458 44.3958 48.5 44.4583 47.75 44.5C47 44.5 46.1875 44.5417 45.3125 44.625L44.875 39.5C46 39.5833 46.9792 39.6458 47.8125 39.6875C48.6875 39.7292 49.4167 39.75 50 39.75H51.6875H53.5625H58.5C58.5 38.6667 58.4792 37.7292 58.4375 36.9375C58.4375 36.1042 58.4167 35.4167 58.375 34.875C58.3333 34.25 58.2917 33.75 58.25 33.375C58.2083 32.9583 58.125 32.4583 58 31.875C57.9167 31.375 57.7917 30.75 57.625 30C57.5 29.2083 57.3333 28.2917 57.125 27.25Z"/>
</mask>
<path d="M57.125 27.25L64.375 26.9375C64.0417 27.9375 63.7708 28.8542 63.5625 29.6875C63.3958 30.4792 63.2708 31.1667 63.1875 31.75C63.0625 32.4583 63 33.0833 63 33.625V35.4375C63 36.0208 62.9792 36.6667 62.9375 37.375C62.8958 38.0833 62.8542 38.8542 62.8125 39.6875C64.3125 39.6458 65.5833 39.6042 66.625 39.5625C67.7083 39.5208 68.6042 39.5 69.3125 39.5H71.3125C71.8125 39.5 72.3125 39.4792 72.8125 39.4375C73.2708 39.3958 73.75 39.3542 74.25 39.3125C74.7917 39.2292 75.3125 39.1042 75.8125 38.9375L76.0625 44.25C75.1458 44.1667 74.3125 44.125 73.5625 44.125C72.8542 44.125 72.2292 44.1042 71.6875 44.0625C71.0625 44.0625 70.5 44.0417 70 44H68.125C67.5 44 66.7292 44.0208 65.8125 44.0625C64.9375 44.1042 63.8958 44.1458 62.6875 44.1875C62.6042 44.8958 62.5417 45.5625 62.5 46.1875C62.5 46.8125 62.5208 47.375 62.5625 47.875C62.5625 48.4583 62.6042 49 62.6875 49.5C62.7292 50.0417 62.8125 50.6667 62.9375 51.375C63.0208 52 63.125 52.75 63.25 53.625C63.4167 54.5 63.6042 55.5417 63.8125 56.75H57C57.1667 55.625 57.2917 54.625 57.375 53.75C57.5 52.8333 57.6042 52.0833 57.6875 51.5C57.7708 50.7917 57.8333 50.1667 57.875 49.625C57.9167 48.9583 57.9583 48.2917 58 47.625C58.0417 47.0417 58.0625 46.4375 58.0625 45.8125C58.0625 45.1458 58.0417 44.5208 58 43.9375C56.9583 43.8958 56.0208 43.8958 55.1875 43.9375C54.3958 43.9375 53.7083 43.9583 53.125 44C52.4583 44.0417 51.875 44.0833 51.375 44.125C50.875 44.2083 50.3125 44.2708 49.6875 44.3125C49.1458 44.3958 48.5 44.4583 47.75 44.5C47 44.5 46.1875 44.5417 45.3125 44.625L44.875 39.5C46 39.5833 46.9792 39.6458 47.8125 39.6875C48.6875 39.7292 49.4167 39.75 50 39.75H51.6875H53.5625H58.5C58.5 38.6667 58.4792 37.7292 58.4375 36.9375C58.4375 36.1042 58.4167 35.4167 58.375 34.875C58.3333 34.25 58.2917 33.75 58.25 33.375C58.2083 32.9583 58.125 32.4583 58 31.875C57.9167 31.375 57.7917 30.75 57.625 30C57.5 29.2083 57.3333 28.2917 57.125 27.25Z" fill="black"/>
<path d="M57.125 27.25L57.0819 26.2509L55.9154 26.3012L56.1444 27.4461L57.125 27.25ZM64.375 26.9375L65.3237 27.2537L65.783 25.8759L64.3319 25.9384L64.375 26.9375ZM63.5625 29.6875L62.5924 29.445L62.5878 29.4631L62.584 29.4815L63.5625 29.6875ZM63.1875 31.75L64.1723 31.9238L64.1751 31.9076L64.1775 31.8914L63.1875 31.75ZM62.8125 39.6875L61.8137 39.6376L61.7598 40.7171L62.8403 40.6871L62.8125 39.6875ZM66.625 39.5625L66.5866 38.5632L66.585 38.5633L66.625 39.5625ZM72.8125 39.4375L72.8955 40.4341L72.903 40.4334L72.8125 39.4375ZM74.25 39.3125L74.333 40.309L74.3677 40.3062L74.4021 40.3009L74.25 39.3125ZM75.8125 38.9375L76.8114 38.8905L76.7493 37.5711L75.4963 37.9888L75.8125 38.9375ZM76.0625 44.25L75.972 45.2459L77.1154 45.3498L77.0614 44.203L76.0625 44.25ZM71.6875 44.0625L71.7642 43.0654L71.7259 43.0625H71.6875V44.0625ZM70 44L70.083 43.0035L70.0416 43H70V44ZM65.8125 44.0625L65.7671 43.0635L65.7649 43.0636L65.8125 44.0625ZM62.6875 44.1875L62.653 43.1881L61.7947 43.2177L61.6943 44.0707L62.6875 44.1875ZM62.5 46.1875L61.5022 46.121L61.5 46.1542V46.1875H62.5ZM62.5625 47.875H63.5625V47.8334L63.559 47.792L62.5625 47.875ZM62.6875 49.5L63.6846 49.4233L63.6812 49.3792L63.6739 49.3356L62.6875 49.5ZM62.9375 51.375L63.9287 51.2428L63.9259 51.222L63.9223 51.2012L62.9375 51.375ZM63.25 53.625L62.26 53.7664L62.2633 53.7894L62.2677 53.8121L63.25 53.625ZM63.8125 56.75V57.75H64.9997L64.798 56.5801L63.8125 56.75ZM57 56.75L56.0108 56.6035L55.8409 57.75H57V56.75ZM57.375 53.75L56.3842 53.6149L56.3814 53.635L56.3795 53.6552L57.375 53.75ZM57.6875 51.5L58.6775 51.6414L58.6792 51.6292L58.6807 51.6168L57.6875 51.5ZM57.875 49.625L58.8721 49.7017L58.8726 49.6945L58.8731 49.6874L57.875 49.625ZM58 47.625L57.0025 47.5538L57.0019 47.5626L58 47.625ZM58 43.9375L58.9975 43.8663L58.9337 42.974L58.04 42.9383L58 43.9375ZM55.1875 43.9375V44.9375H55.2125L55.2374 44.9363L55.1875 43.9375ZM53.125 44L53.1874 44.9981L53.1962 44.9975L53.125 44ZM51.375 44.125L51.292 43.1285L51.2511 43.1319L51.2106 43.1386L51.375 44.125ZM49.6875 44.3125L49.621 43.3147L49.578 43.3176L49.5354 43.3241L49.6875 44.3125ZM47.75 44.5V45.5H47.7778L47.8055 45.4985L47.75 44.5ZM45.3125 44.625L44.3161 44.7101L44.402 45.7162L45.4073 45.6205L45.3125 44.625ZM44.875 39.5L44.9489 38.5027L43.7788 38.4161L43.8786 39.5851L44.875 39.5ZM47.8125 39.6875L47.7626 40.6863L47.7649 40.6864L47.8125 39.6875ZM58.5 39.75V40.75H59.5V39.75H58.5ZM58.4375 36.9375H57.4375V36.9638L57.4389 36.9901L58.4375 36.9375ZM58.375 34.875L57.3772 34.9415L57.3779 34.9517L58.375 34.875ZM58.25 33.375L57.2549 33.4745L57.2561 33.4854L58.25 33.375ZM58 31.875L57.0136 32.0394L57.0174 32.0621L57.0222 32.0845L58 31.875ZM57.625 30L56.6372 30.156L56.6421 30.1866L56.6488 30.2169L57.625 30ZM57.1681 28.2491L64.4181 27.9366L64.3319 25.9384L57.0819 26.2509L57.1681 28.2491ZM63.4263 26.6213C63.0866 27.6403 62.8081 28.582 62.5924 29.445L64.5326 29.93C64.7336 29.1263 64.9967 28.2347 65.3237 27.2537L63.4263 26.6213ZM62.584 29.4815C62.4143 30.2873 62.2849 30.9973 62.1975 31.6086L64.1775 31.8914C64.2568 31.336 64.3774 30.671 64.541 29.8935L62.584 29.4815ZM62.2027 31.5762C62.0707 32.3245 62 33.0097 62 33.625H64C64 33.1569 64.0543 32.5921 64.1723 31.9238L62.2027 31.5762ZM62 33.625V35.4375H64V33.625H62ZM62 35.4375C62 35.9976 61.98 36.6235 61.9392 37.3163L63.9358 37.4337C63.9784 36.7098 64 36.0441 64 35.4375H62ZM61.9392 37.3163C61.8974 38.028 61.8555 38.8018 61.8137 39.6376L63.8113 39.7374C63.8528 38.9065 63.8943 38.1387 63.9358 37.4337L61.9392 37.3163ZM62.8403 40.6871C64.3427 40.6454 65.6179 40.6036 66.665 40.5617L66.585 38.5633C65.5488 38.6047 64.2823 38.6463 62.7847 38.6879L62.8403 40.6871ZM66.6634 40.5618C67.7399 40.5204 68.6218 40.5 69.3125 40.5V38.5C68.5865 38.5 67.6768 38.5213 66.5866 38.5632L66.6634 40.5618ZM69.3125 40.5H71.3125V38.5H69.3125V40.5ZM71.3125 40.5C71.8403 40.5 72.368 40.478 72.8955 40.434L72.7295 38.441C72.257 38.4803 71.7847 38.5 71.3125 38.5V40.5ZM72.903 40.4334C73.3587 40.392 73.8353 40.3505 74.333 40.309L74.167 38.316C73.6647 38.3578 73.183 38.3997 72.722 38.4416L72.903 40.4334ZM74.4021 40.3009C74.9973 40.2093 75.5731 40.0714 76.1287 39.8862L75.4963 37.9888C75.0519 38.137 74.5861 38.249 74.0979 38.3241L74.4021 40.3009ZM74.8136 38.9845L75.0636 44.297L77.0614 44.203L76.8114 38.8905L74.8136 38.9845ZM76.153 43.2541C75.2127 43.1686 74.3486 43.125 73.5625 43.125V45.125C74.2764 45.125 75.0789 45.1647 75.972 45.2459L76.153 43.2541ZM73.5625 43.125C72.8726 43.125 72.2741 43.1047 71.7642 43.0654L71.6108 45.0596C72.1843 45.1037 72.8358 45.125 73.5625 45.125V43.125ZM71.6875 43.0625C71.0838 43.0625 70.5497 43.0423 70.083 43.0035L69.917 44.9965C70.4503 45.041 71.0412 45.0625 71.6875 45.0625V43.0625ZM70 43H68.125V45H70V43ZM68.125 43C67.4797 43 66.6926 43.0215 65.7671 43.0635L65.8579 45.0615C66.7657 45.0202 67.5203 45 68.125 45V43ZM65.7649 43.0636C64.8956 43.105 63.8585 43.1465 62.653 43.1881L62.722 45.1869C63.9332 45.1451 64.9794 45.1033 65.8601 45.0614L65.7649 43.0636ZM61.6943 44.0707C61.6093 44.7935 61.5451 45.4771 61.5022 46.121L63.4978 46.254C63.5382 45.6479 63.599 44.9982 63.6807 44.3043L61.6943 44.0707ZM61.5 46.1875C61.5 46.8338 61.5215 47.4247 61.566 47.958L63.559 47.792C63.5202 47.3253 63.5 46.7912 63.5 46.1875H61.5ZM61.5625 47.875C61.5625 48.5054 61.6075 49.1027 61.7011 49.6644L63.6739 49.3356C63.6008 48.8973 63.5625 48.4113 63.5625 47.875H61.5625ZM61.6904 49.5767C61.7353 50.1594 61.8237 50.8179 61.9527 51.5488L63.9223 51.2012C63.8013 50.5154 63.7231 49.924 63.6846 49.4233L61.6904 49.5767ZM61.9463 51.5072C62.0301 52.1362 62.1348 52.8895 62.26 53.7664L64.24 53.4836C64.1152 52.6105 64.0115 51.8638 63.9287 51.2428L61.9463 51.5072ZM62.2677 53.8121C62.4329 54.6797 62.6194 55.7154 62.827 56.9199L64.798 56.5801C64.589 55.368 64.4004 54.3203 64.2323 53.4379L62.2677 53.8121ZM63.8125 55.75H57V57.75H63.8125V55.75ZM57.9892 56.8965C58.1577 55.759 58.2851 54.7413 58.3705 53.8448L56.3795 53.6552C56.2982 54.5087 56.1756 55.491 56.0108 56.6035L57.9892 56.8965ZM58.3658 53.8851C58.4907 52.9695 58.5945 52.2218 58.6775 51.6414L56.6975 51.3586C56.6138 51.9448 56.5093 52.6972 56.3842 53.6149L58.3658 53.8851ZM58.6807 51.6168C58.7651 50.899 58.8291 50.2602 58.8721 49.7017L56.8779 49.5483C56.8376 50.0732 56.7766 50.6843 56.6943 51.3832L58.6807 51.6168ZM58.8731 49.6874C58.8781 49.6059 58.8836 49.5189 58.8887 49.4374C58.8938 49.3559 58.8992 49.2689 58.9043 49.1874C58.9094 49.1059 58.9148 49.0189 58.9199 48.9374C58.925 48.8559 58.9305 48.7689 58.9356 48.6874C58.9364 48.6744 58.9386 48.6378 58.9395 48.6249C58.9403 48.6119 58.9426 48.5753 58.9434 48.5624C58.9442 48.5494 58.9465 48.5128 58.9473 48.4999C58.9481 48.4869 58.9504 48.4503 58.9512 48.4374C58.952 48.4244 58.9543 48.3878 58.9551 48.3749C58.9559 48.3619 58.9582 48.3253 58.959 48.3124C58.9598 48.2994 58.9621 48.2628 58.9629 48.2499C58.9637 48.2369 58.966 48.2003 58.9668 48.1874C58.9676 48.1744 58.9699 48.1378 58.9707 48.1249C58.9715 48.1119 58.9738 48.0753 58.9746 48.0624C58.9754 48.0494 58.9777 48.0128 58.9785 47.9999C58.9793 47.9869 58.9816 47.9503 58.9824 47.9374C58.9832 47.9244 58.9855 47.8878 58.9863 47.8749C58.9871 47.8619 58.9894 47.8253 58.9902 47.8124C58.9911 47.7994 58.9933 47.7628 58.9941 47.7499C58.995 47.7369 58.9972 47.7003 58.9981 47.6874L57.0019 47.5626C56.9969 47.6441 56.9914 47.7311 56.9863 47.8126C56.9812 47.8941 56.9758 47.9811 56.9707 48.0626C56.9656 48.1441 56.9602 48.2311 56.9551 48.3126C56.95 48.3941 56.9445 48.4811 56.9394 48.5626C56.9386 48.5756 56.9364 48.6122 56.9355 48.6251C56.9347 48.6381 56.9324 48.6747 56.9316 48.6876C56.9308 48.7006 56.9285 48.7372 56.9277 48.7501C56.9269 48.7631 56.9246 48.7997 56.9238 48.8126C56.923 48.8256 56.9207 48.8622 56.9199 48.8751C56.9191 48.8881 56.9168 48.9247 56.916 48.9376C56.9152 48.9506 56.9129 48.9872 56.9121 49.0001C56.9113 49.0131 56.909 49.0497 56.9082 49.0626C56.9074 49.0756 56.9051 49.1122 56.9043 49.1251C56.9035 49.1381 56.9012 49.1747 56.9004 49.1876C56.8996 49.2006 56.8973 49.2372 56.8965 49.2501C56.8957 49.2631 56.8934 49.2997 56.8926 49.3126C56.8918 49.3256 56.8895 49.3622 56.8887 49.3751C56.8879 49.3881 56.8856 49.4247 56.8848 49.4376C56.8839 49.4506 56.8817 49.4872 56.8809 49.5001C56.88 49.5131 56.8778 49.5497 56.8769 49.5626L58.8731 49.6874ZM58.9975 47.6962C59.0409 47.0877 59.0625 46.4597 59.0625 45.8125H57.0625C57.0625 46.4153 57.0424 46.9957 57.0025 47.5538L58.9975 47.6962ZM59.0625 45.8125C59.0625 45.1253 59.041 44.4763 58.9975 43.8663L57.0025 44.0087C57.0423 44.5654 57.0625 45.1664 57.0625 45.8125H59.0625ZM58.04 42.9383C56.9754 42.8957 56.0071 42.8953 55.1376 42.9387L55.2374 44.9363C56.0345 44.8964 56.9413 44.896 57.96 44.9367L58.04 42.9383ZM55.1875 42.9375C54.3797 42.9375 53.6674 42.9587 53.0538 43.0025L53.1962 44.9975C53.7493 44.958 54.4119 44.9375 55.1875 44.9375V42.9375ZM53.0626 43.0019C52.3912 43.0439 51.8007 43.0861 51.292 43.1285L51.458 45.1215C51.9493 45.0806 52.5255 45.0394 53.1874 44.9981L53.0626 43.0019ZM51.2106 43.1386C50.7495 43.2155 50.2205 43.2747 49.621 43.3147L49.754 45.3103C50.4045 45.2669 51.0005 45.2012 51.5394 45.1114L51.2106 43.1386ZM49.5354 43.3241C49.035 43.4011 48.4231 43.4611 47.6945 43.5015L47.8055 45.4985C48.5769 45.4556 49.2566 45.3906 49.8396 45.3009L49.5354 43.3241ZM47.75 43.5C46.9635 43.5 46.119 43.5437 45.2177 43.6295L45.4073 45.6205C46.256 45.5397 47.0365 45.5 47.75 45.5V43.5ZM46.3089 44.5399L45.8714 39.4149L43.8786 39.5851L44.3161 44.7101L46.3089 44.5399ZM44.8011 40.4973C45.9315 40.581 46.919 40.6441 47.7626 40.6863L47.8624 38.6887C47.0393 38.6476 46.0685 38.5857 44.9489 38.5027L44.8011 40.4973ZM47.7649 40.6864C48.6488 40.7285 49.3951 40.75 50 40.75V38.75C49.4383 38.75 48.7262 38.7299 47.8601 38.6886L47.7649 40.6864ZM50 40.75H51.6875V38.75H50V40.75ZM51.6875 40.75H53.5625V38.75H51.6875V40.75ZM53.5625 40.75H58.5V38.75H53.5625V40.75ZM59.5 39.75C59.5 38.655 59.479 37.6991 59.4361 36.8849L57.4389 36.9901C57.4794 37.7592 57.5 38.6783 57.5 39.75H59.5ZM59.4375 36.9375C59.4375 36.0905 59.4164 35.3751 59.3721 34.7983L57.3779 34.9517C57.4169 35.4582 57.4375 36.1178 57.4375 36.9375H59.4375ZM59.3728 34.8085C59.3307 34.177 59.2879 33.6605 59.2439 33.2646L57.2561 33.4854C57.2955 33.8395 57.336 34.323 57.3772 34.9415L59.3728 34.8085ZM59.245 33.2755C59.1985 32.81 59.1076 32.2713 58.9778 31.6655L57.0222 32.0845C57.1424 32.6454 57.2182 33.1066 57.255 33.4745L59.245 33.2755ZM58.9864 31.7106C58.899 31.1865 58.77 30.5426 58.6012 29.7831L56.6488 30.2169C56.8134 30.9574 56.9343 31.5635 57.0136 32.0394L58.9864 31.7106ZM58.6128 29.844C58.4851 29.0354 58.3158 28.1049 58.1056 27.0539L56.1444 27.4461C56.3509 28.4784 56.5149 29.3812 56.6372 30.156L58.6128 29.844Z" fill="black" mask="url(#path-2-outside-1_13_976)"/>
<path d="M23.0718 38C26.151 32.6667 33.849 32.6667 36.9282 38L44.7224 51.5C47.8016 56.8333 43.9526 63.5 37.7942 63.5H22.2058C16.0474 63.5 12.1984 56.8333 15.2776 51.5L23.0718 38Z" fill="black"/>
<path d="M23.0718 38C26.151 32.6667 33.849 32.6667 36.9282 38L44.7224 51.5C47.8016 56.8333 43.9526 63.5 37.7942 63.5H22.2058C16.0474 63.5 12.1984 56.8333 15.2776 51.5L23.0718 38Z" fill="black"/>
<path d="M47.5294 25.5556C47.5294 33.4376 39.8523 40.1111 30 40.1111C20.1478 40.1111 12.4706 33.4376 12.4706 25.5556C12.4706 17.6735 20.1478 11 30 11C39.8523 11 47.5294 17.6735 47.5294 25.5556Z" fill="black" stroke="black" stroke-width="2"/>
</svg>
