<svg width="88" height="81" viewBox="0 0 88 81" fill="none" xmlns="http://www.w3.org/2000/svg">
<path d="M87.5 40.5C87.5 62.5532 68.0642 80.5 44 80.5C19.9358 80.5 0.5 62.5532 0.5 40.5C0.5 18.4468 19.9358 0.5 44 0.5C68.0642 0.5 87.5 18.4468 87.5 40.5Z" fill="black" stroke="white"/>
<path d="M41.125 39.25L48.375 38.9375C48.0417 39.9375 47.7708 40.8542 47.5625 41.6875C47.3958 42.4792 47.2708 43.1667 47.1875 43.75C47.0625 44.4583 47 45.0833 47 45.625V47.4375C47 48.0208 46.9792 48.6667 46.9375 49.375C46.8958 50.0833 46.8542 50.8542 46.8125 51.6875C48.3125 51.6458 49.5833 51.6042 50.625 51.5625C51.7083 51.5208 52.6042 51.5 53.3125 51.5H55.3125C55.8125 51.5 56.3125 51.4792 56.8125 51.4375C57.2708 51.3958 57.75 51.3542 58.25 51.3125C58.7917 51.2292 59.3125 51.1042 59.8125 50.9375L60.0625 56.25C59.1458 56.1667 58.3125 56.125 57.5625 56.125C56.8542 56.125 56.2292 56.1042 55.6875 56.0625C55.0625 56.0625 54.5 56.0417 54 56H52.125C51.5 56 50.7292 56.0208 49.8125 56.0625C48.9375 56.1042 47.8958 56.1458 46.6875 56.1875C46.6042 56.8958 46.5417 57.5625 46.5 58.1875C46.5 58.8125 46.5208 59.375 46.5625 59.875C46.5625 60.4583 46.6042 61 46.6875 61.5C46.7292 62.0417 46.8125 62.6667 46.9375 63.375C47.0208 64 47.125 64.75 47.25 65.625C47.4167 66.5 47.6042 67.5417 47.8125 68.75H41C41.1667 67.625 41.2917 66.625 41.375 65.75C41.5 64.8333 41.6042 64.0833 41.6875 63.5C41.7708 62.7917 41.8333 62.1667 41.875 61.625C41.9167 60.9583 41.9583 60.2917 42 59.625C42.0417 59.0417 42.0625 58.4375 42.0625 57.8125C42.0625 57.1458 42.0417 56.5208 42 55.9375C40.9583 55.8958 40.0208 55.8958 39.1875 55.9375C38.3958 55.9375 37.7083 55.9583 37.125 56C36.4583 56.0417 35.875 56.0833 35.375 56.125C34.875 56.2083 34.3125 56.2708 33.6875 56.3125C33.1458 56.3958 32.5 56.4583 31.75 56.5C31 56.5 30.1875 56.5417 29.3125 56.625L28.875 51.5C30 51.5833 30.9792 51.6458 31.8125 51.6875C32.6875 51.7292 33.4167 51.75 34 51.75H35.6875H37.5625H42.5C42.5 50.6667 42.4792 49.7292 42.4375 48.9375C42.4375 48.1042 42.4167 47.4167 42.375 46.875C42.3333 46.25 42.2917 45.75 42.25 45.375C42.2083 44.9583 42.125 44.4583 42 43.875C41.9167 43.375 41.7917 42.75 41.625 42C41.5 41.2083 41.3333 40.2917 41.125 39.25Z" fill="white"/>
<path d="M23.1446 43.6944L30.9875 27.9019L38.8304 43.6944H23.1446Z" fill="white"/>
<path d="M23.1446 43.6944L30.9875 27.9019L38.8304 43.6944H23.1446Z" fill="white"/>
<path d="M23.1446 43.6944L30.9875 27.9019L38.8304 43.6944H23.1446Z" stroke="white"/>
<path d="M38.8 25.5556C38.8 29.7007 35.3303 33.1111 30.9875 33.1111C26.6447 33.1111 23.175 29.7007 23.175 25.5556C23.175 21.4104 26.6447 18 30.9875 18C35.3303 18 38.8 21.4104 38.8 25.5556Z" fill="white" stroke="white" stroke-width="2"/>
<path d="M50.1696 43.6944L58.0125 27.9019L65.8554 43.6944H50.1696Z" fill="white"/>
<path d="M50.1696 43.6944L58.0125 27.9019L65.8554 43.6944H50.1696Z" fill="white"/>
<path d="M50.1696 43.6944L58.0125 27.9019L65.8554 43.6944H50.1696Z" stroke="white"/>
<path d="M65.825 25.5556C65.825 29.7007 62.3553 33.1111 58.0125 33.1111C53.6697 33.1111 50.2 29.7007 50.2 25.5556C50.2 21.4104 53.6697 18 58.0125 18C62.3553 18 65.825 21.4104 65.825 25.5556Z" fill="white" stroke="white" stroke-width="2"/>
</svg>
