<svg width="88" height="81" viewBox="0 0 88 81" fill="none" xmlns="http://www.w3.org/2000/svg">
<path d="M87.5 40.5C87.5 62.5532 68.0642 80.5 44 80.5C19.9358 80.5 0.5 62.5532 0.5 40.5C0.5 18.4468 19.9358 0.5 44 0.5C68.0642 0.5 87.5 18.4468 87.5 40.5Z" fill="black" stroke="white"/>
<rect x="18" y="42" width="52" height="28" stroke="white" stroke-width="2"/>
<line x1="30" y1="41" x2="30" y2="71" stroke="white" stroke-width="2"/>
<line x1="45" y1="41" x2="45" y2="71" stroke="white" stroke-width="2"/>
<line x1="57" y1="41" x2="57" y2="71" stroke="white" stroke-width="2"/>
<line x1="17" y1="51" x2="71" y2="51" stroke="white" stroke-width="2"/>
<line x1="17" y1="60" x2="71" y2="60" stroke="white" stroke-width="2"/>
<mask id="path-8-outside-1_14_1066" maskUnits="userSpaceOnUse" x="25" y="6" width="35" height="33" fill="black">
<rect fill="white" x="25" y="6" width="35" height="33"/>
<path d="M39.125 8.25L46.375 7.9375C46.0417 8.9375 45.7708 9.85417 45.5625 10.6875C45.3958 11.4792 45.2708 12.1667 45.1875 12.75C45.0625 13.4583 45 14.0833 45 14.625V16.4375C45 17.0208 44.9792 17.6667 44.9375 18.375C44.8958 19.0833 44.8542 19.8542 44.8125 20.6875C46.3125 20.6458 47.5833 20.6042 48.625 20.5625C49.7083 20.5208 50.6042 20.5 51.3125 20.5H53.3125C53.8125 20.5 54.3125 20.4792 54.8125 20.4375C55.2708 20.3958 55.75 20.3542 56.25 20.3125C56.7917 20.2292 57.3125 20.1042 57.8125 19.9375L58.0625 25.25C57.1458 25.1667 56.3125 25.125 55.5625 25.125C54.8542 25.125 54.2292 25.1042 53.6875 25.0625C53.0625 25.0625 52.5 25.0417 52 25H50.125C49.5 25 48.7292 25.0208 47.8125 25.0625C46.9375 25.1042 45.8958 25.1458 44.6875 25.1875C44.6042 25.8958 44.5417 26.5625 44.5 27.1875C44.5 27.8125 44.5208 28.375 44.5625 28.875C44.5625 29.4583 44.6042 30 44.6875 30.5C44.7292 31.0417 44.8125 31.6667 44.9375 32.375C45.0208 33 45.125 33.75 45.25 34.625C45.4167 35.5 45.6042 36.5417 45.8125 37.75H39C39.1667 36.625 39.2917 35.625 39.375 34.75C39.5 33.8333 39.6042 33.0833 39.6875 32.5C39.7708 31.7917 39.8333 31.1667 39.875 30.625C39.9167 29.9583 39.9583 29.2917 40 28.625C40.0417 28.0417 40.0625 27.4375 40.0625 26.8125C40.0625 26.1458 40.0417 25.5208 40 24.9375C38.9583 24.8958 38.0208 24.8958 37.1875 24.9375C36.3958 24.9375 35.7083 24.9583 35.125 25C34.4583 25.0417 33.875 25.0833 33.375 25.125C32.875 25.2083 32.3125 25.2708 31.6875 25.3125C31.1458 25.3958 30.5 25.4583 29.75 25.5C29 25.5 28.1875 25.5417 27.3125 25.625L26.875 20.5C28 20.5833 28.9792 20.6458 29.8125 20.6875C30.6875 20.7292 31.4167 20.75 32 20.75H33.6875H35.5625H40.5C40.5 19.6667 40.4792 18.7292 40.4375 17.9375C40.4375 17.1042 40.4167 16.4167 40.375 15.875C40.3333 15.25 40.2917 14.75 40.25 14.375C40.2083 13.9583 40.125 13.4583 40 12.875C39.9167 12.375 39.7917 11.75 39.625 11C39.5 10.2083 39.3333 9.29167 39.125 8.25Z"/>
</mask>
<path d="M39.125 8.25L46.375 7.9375C46.0417 8.9375 45.7708 9.85417 45.5625 10.6875C45.3958 11.4792 45.2708 12.1667 45.1875 12.75C45.0625 13.4583 45 14.0833 45 14.625V16.4375C45 17.0208 44.9792 17.6667 44.9375 18.375C44.8958 19.0833 44.8542 19.8542 44.8125 20.6875C46.3125 20.6458 47.5833 20.6042 48.625 20.5625C49.7083 20.5208 50.6042 20.5 51.3125 20.5H53.3125C53.8125 20.5 54.3125 20.4792 54.8125 20.4375C55.2708 20.3958 55.75 20.3542 56.25 20.3125C56.7917 20.2292 57.3125 20.1042 57.8125 19.9375L58.0625 25.25C57.1458 25.1667 56.3125 25.125 55.5625 25.125C54.8542 25.125 54.2292 25.1042 53.6875 25.0625C53.0625 25.0625 52.5 25.0417 52 25H50.125C49.5 25 48.7292 25.0208 47.8125 25.0625C46.9375 25.1042 45.8958 25.1458 44.6875 25.1875C44.6042 25.8958 44.5417 26.5625 44.5 27.1875C44.5 27.8125 44.5208 28.375 44.5625 28.875C44.5625 29.4583 44.6042 30 44.6875 30.5C44.7292 31.0417 44.8125 31.6667 44.9375 32.375C45.0208 33 45.125 33.75 45.25 34.625C45.4167 35.5 45.6042 36.5417 45.8125 37.75H39C39.1667 36.625 39.2917 35.625 39.375 34.75C39.5 33.8333 39.6042 33.0833 39.6875 32.5C39.7708 31.7917 39.8333 31.1667 39.875 30.625C39.9167 29.9583 39.9583 29.2917 40 28.625C40.0417 28.0417 40.0625 27.4375 40.0625 26.8125C40.0625 26.1458 40.0417 25.5208 40 24.9375C38.9583 24.8958 38.0208 24.8958 37.1875 24.9375C36.3958 24.9375 35.7083 24.9583 35.125 25C34.4583 25.0417 33.875 25.0833 33.375 25.125C32.875 25.2083 32.3125 25.2708 31.6875 25.3125C31.1458 25.3958 30.5 25.4583 29.75 25.5C29 25.5 28.1875 25.5417 27.3125 25.625L26.875 20.5C28 20.5833 28.9792 20.6458 29.8125 20.6875C30.6875 20.7292 31.4167 20.75 32 20.75H33.6875H35.5625H40.5C40.5 19.6667 40.4792 18.7292 40.4375 17.9375C40.4375 17.1042 40.4167 16.4167 40.375 15.875C40.3333 15.25 40.2917 14.75 40.25 14.375C40.2083 13.9583 40.125 13.4583 40 12.875C39.9167 12.375 39.7917 11.75 39.625 11C39.5 10.2083 39.3333 9.29167 39.125 8.25Z" fill="white"/>
<path d="M39.125 8.25L39.0819 7.25093L37.9154 7.30121L38.1444 8.44612L39.125 8.25ZM46.375 7.9375L47.3237 8.25373L47.783 6.87588L46.3319 6.93843L46.375 7.9375ZM45.5625 10.6875L44.5924 10.445L44.5878 10.4631L44.584 10.4815L45.5625 10.6875ZM45.1875 12.75L46.1723 12.9238L46.1751 12.9076L46.1775 12.8914L45.1875 12.75ZM44.8125 20.6875L43.8137 20.6376L43.7598 21.7171L44.8403 21.6871L44.8125 20.6875ZM48.625 20.5625L48.5866 19.5632L48.585 19.5633L48.625 20.5625ZM54.8125 20.4375L54.8955 21.4341L54.903 21.4334L54.8125 20.4375ZM56.25 20.3125L56.333 21.309L56.3677 21.3062L56.4021 21.3009L56.25 20.3125ZM57.8125 19.9375L58.8114 19.8905L58.7493 18.5711L57.4963 18.9888L57.8125 19.9375ZM58.0625 25.25L57.972 26.2459L59.1154 26.3498L59.0614 25.203L58.0625 25.25ZM53.6875 25.0625L53.7642 24.0654L53.7259 24.0625H53.6875V25.0625ZM52 25L52.083 24.0035L52.0416 24H52V25ZM47.8125 25.0625L47.7671 24.0635L47.7649 24.0636L47.8125 25.0625ZM44.6875 25.1875L44.653 24.1881L43.7947 24.2177L43.6943 25.0707L44.6875 25.1875ZM44.5 27.1875L43.5022 27.121L43.5 27.1542V27.1875H44.5ZM44.5625 28.875H45.5625V28.8334L45.559 28.792L44.5625 28.875ZM44.6875 30.5L45.6846 30.4233L45.6812 30.3792L45.6739 30.3356L44.6875 30.5ZM44.9375 32.375L45.9287 32.2428L45.9259 32.222L45.9223 32.2012L44.9375 32.375ZM45.25 34.625L44.26 34.7664L44.2633 34.7894L44.2677 34.8121L45.25 34.625ZM45.8125 37.75V38.75H46.9997L46.798 37.5801L45.8125 37.75ZM39 37.75L38.0108 37.6035L37.8409 38.75H39V37.75ZM39.375 34.75L38.3842 34.6149L38.3814 34.635L38.3795 34.6552L39.375 34.75ZM39.6875 32.5L40.6775 32.6414L40.6792 32.6292L40.6807 32.6168L39.6875 32.5ZM39.875 30.625L40.8721 30.7017L40.8726 30.6945L40.8731 30.6874L39.875 30.625ZM40 28.625L39.0025 28.5538L39.0019 28.5626L40 28.625ZM40 24.9375L40.9975 24.8663L40.9337 23.974L40.04 23.9383L40 24.9375ZM37.1875 24.9375V25.9375H37.2125L37.2374 25.9363L37.1875 24.9375ZM35.125 25L35.1874 25.9981L35.1962 25.9975L35.125 25ZM33.375 25.125L33.292 24.1285L33.2511 24.1319L33.2106 24.1386L33.375 25.125ZM31.6875 25.3125L31.621 24.3147L31.578 24.3176L31.5354 24.3241L31.6875 25.3125ZM29.75 25.5V26.5H29.7778L29.8055 26.4985L29.75 25.5ZM27.3125 25.625L26.3161 25.7101L26.402 26.7162L27.4073 26.6205L27.3125 25.625ZM26.875 20.5L26.9489 19.5027L25.7788 19.4161L25.8786 20.5851L26.875 20.5ZM29.8125 20.6875L29.7626 21.6863L29.7649 21.6864L29.8125 20.6875ZM40.5 20.75V21.75H41.5V20.75H40.5ZM40.4375 17.9375H39.4375V17.9638L39.4389 17.9901L40.4375 17.9375ZM40.375 15.875L39.3772 15.9415L39.3779 15.9517L40.375 15.875ZM40.25 14.375L39.2549 14.4745L39.2561 14.4854L40.25 14.375ZM40 12.875L39.0136 13.0394L39.0174 13.0621L39.0222 13.0845L40 12.875ZM39.625 11L38.6372 11.156L38.6421 11.1866L38.6488 11.2169L39.625 11ZM39.1681 9.24907L46.4181 8.93657L46.3319 6.93843L39.0819 7.25093L39.1681 9.24907ZM45.4263 7.62127C45.0866 8.64034 44.8081 9.58199 44.5924 10.445L46.5326 10.93C46.7336 10.1263 46.9967 9.23466 47.3237 8.25373L45.4263 7.62127ZM44.584 10.4815C44.4143 11.2873 44.2849 11.9973 44.1975 12.6086L46.1775 12.8914C46.2568 12.336 46.3774 11.671 46.541 10.8935L44.584 10.4815ZM44.2027 12.5762C44.0707 13.3245 44 14.0097 44 14.625H46C46 14.1569 46.0543 13.5921 46.1723 12.9238L44.2027 12.5762ZM44 14.625V16.4375H46V14.625H44ZM44 16.4375C44 16.9976 43.98 17.6235 43.9392 18.3163L45.9358 18.4337C45.9784 17.7098 46 17.0441 46 16.4375H44ZM43.9392 18.3163C43.8974 19.028 43.8555 19.8018 43.8137 20.6376L45.8113 20.7374C45.8528 19.9065 45.8943 19.1387 45.9358 18.4337L43.9392 18.3163ZM44.8403 21.6871C46.3427 21.6454 47.6179 21.6036 48.665 21.5617L48.585 19.5633C47.5488 19.6047 46.2823 19.6463 44.7847 19.6879L44.8403 21.6871ZM48.6634 21.5618C49.7399 21.5204 50.6218 21.5 51.3125 21.5V19.5C50.5865 19.5 49.6768 19.5213 48.5866 19.5632L48.6634 21.5618ZM51.3125 21.5H53.3125V19.5H51.3125V21.5ZM53.3125 21.5C53.8403 21.5 54.368 21.478 54.8955 21.434L54.7295 19.441C54.257 19.4803 53.7847 19.5 53.3125 19.5V21.5ZM54.903 21.4334C55.3587 21.392 55.8353 21.3505 56.333 21.309L56.167 19.316C55.6647 19.3578 55.183 19.3997 54.722 19.4416L54.903 21.4334ZM56.4021 21.3009C56.9973 21.2093 57.5731 21.0714 58.1287 20.8862L57.4963 18.9888C57.0519 19.137 56.5861 19.249 56.0979 19.3241L56.4021 21.3009ZM56.8136 19.9845L57.0636 25.297L59.0614 25.203L58.8114 19.8905L56.8136 19.9845ZM58.153 24.2541C57.2127 24.1686 56.3486 24.125 55.5625 24.125V26.125C56.2764 26.125 57.0789 26.1647 57.972 26.2459L58.153 24.2541ZM55.5625 24.125C54.8726 24.125 54.2741 24.1047 53.7642 24.0654L53.6108 26.0596C54.1843 26.1037 54.8358 26.125 55.5625 26.125V24.125ZM53.6875 24.0625C53.0838 24.0625 52.5497 24.0423 52.083 24.0035L51.917 25.9965C52.4503 26.041 53.0412 26.0625 53.6875 26.0625V24.0625ZM52 24H50.125V26H52V24ZM50.125 24C49.4797 24 48.6926 24.0215 47.7671 24.0635L47.8579 26.0615C48.7657 26.0202 49.5203 26 50.125 26V24ZM47.7649 24.0636C46.8956 24.105 45.8585 24.1465 44.653 24.1881L44.722 26.1869C45.9332 26.1451 46.9794 26.1033 47.8601 26.0614L47.7649 24.0636ZM43.6943 25.0707C43.6093 25.7935 43.5451 26.4771 43.5022 27.121L45.4978 27.254C45.5382 26.6479 45.599 25.9982 45.6807 25.3043L43.6943 25.0707ZM43.5 27.1875C43.5 27.8338 43.5215 28.4247 43.566 28.958L45.559 28.792C45.5202 28.3253 45.5 27.7912 45.5 27.1875H43.5ZM43.5625 28.875C43.5625 29.5054 43.6075 30.1027 43.7011 30.6644L45.6739 30.3356C45.6008 29.8973 45.5625 29.4113 45.5625 28.875H43.5625ZM43.6904 30.5767C43.7353 31.1594 43.8237 31.8179 43.9527 32.5488L45.9223 32.2012C45.8013 31.5154 45.7231 30.924 45.6846 30.4233L43.6904 30.5767ZM43.9463 32.5072C44.0301 33.1362 44.1348 33.8895 44.26 34.7664L46.24 34.4836C46.1152 33.6105 46.0115 32.8638 45.9287 32.2428L43.9463 32.5072ZM44.2677 34.8121C44.4329 35.6797 44.6194 36.7154 44.827 37.9199L46.798 37.5801C46.589 36.368 46.4004 35.3203 46.2323 34.4379L44.2677 34.8121ZM45.8125 36.75H39V38.75H45.8125V36.75ZM39.9892 37.8965C40.1577 36.759 40.2851 35.7413 40.3705 34.8448L38.3795 34.6552C38.2982 35.5087 38.1756 36.491 38.0108 37.6035L39.9892 37.8965ZM40.3658 34.8851C40.4907 33.9695 40.5945 33.2218 40.6775 32.6414L38.6975 32.3586C38.6138 32.9448 38.5093 33.6972 38.3842 34.6149L40.3658 34.8851ZM40.6807 32.6168C40.7651 31.899 40.8291 31.2602 40.8721 30.7017L38.8779 30.5483C38.8376 31.0732 38.7766 31.6843 38.6943 32.3832L40.6807 32.6168ZM40.8731 30.6874C40.8781 30.6059 40.8836 30.5189 40.8887 30.4374C40.8938 30.3559 40.8992 30.2689 40.9043 30.1874C40.9094 30.1059 40.9148 30.0189 40.9199 29.9374C40.925 29.8559 40.9305 29.7689 40.9356 29.6874C40.9364 29.6744 40.9386 29.6378 40.9395 29.6249C40.9403 29.6119 40.9426 29.5753 40.9434 29.5624C40.9442 29.5494 40.9465 29.5128 40.9473 29.4999C40.9481 29.4869 40.9504 29.4503 40.9512 29.4374C40.952 29.4244 40.9543 29.3878 40.9551 29.3749C40.9559 29.3619 40.9582 29.3253 40.959 29.3124C40.9598 29.2994 40.9621 29.2628 40.9629 29.2499C40.9637 29.2369 40.966 29.2003 40.9668 29.1874C40.9676 29.1744 40.9699 29.1378 40.9707 29.1249C40.9715 29.1119 40.9738 29.0753 40.9746 29.0624C40.9754 29.0494 40.9777 29.0128 40.9785 28.9999C40.9793 28.9869 40.9816 28.9503 40.9824 28.9374C40.9832 28.9244 40.9855 28.8878 40.9863 28.8749C40.9871 28.8619 40.9894 28.8253 40.9902 28.8124C40.9911 28.7994 40.9933 28.7628 40.9941 28.7499C40.995 28.7369 40.9972 28.7003 40.9981 28.6874L39.0019 28.5626C38.9969 28.6441 38.9914 28.7311 38.9863 28.8126C38.9812 28.8941 38.9758 28.9811 38.9707 29.0626C38.9656 29.1441 38.9602 29.2311 38.9551 29.3126C38.95 29.3941 38.9445 29.4811 38.9394 29.5626C38.9386 29.5756 38.9364 29.6122 38.9355 29.6251C38.9347 29.6381 38.9324 29.6747 38.9316 29.6876C38.9308 29.7006 38.9285 29.7372 38.9277 29.7501C38.9269 29.7631 38.9246 29.7997 38.9238 29.8126C38.923 29.8256 38.9207 29.8622 38.9199 29.8751C38.9191 29.8881 38.9168 29.9247 38.916 29.9376C38.9152 29.9506 38.9129 29.9872 38.9121 30.0001C38.9113 30.0131 38.909 30.0497 38.9082 30.0626C38.9074 30.0756 38.9051 30.1122 38.9043 30.1251C38.9035 30.1381 38.9012 30.1747 38.9004 30.1876C38.8996 30.2006 38.8973 30.2372 38.8965 30.2501C38.8957 30.2631 38.8934 30.2997 38.8926 30.3126C38.8918 30.3256 38.8895 30.3622 38.8887 30.3751C38.8879 30.3881 38.8856 30.4247 38.8848 30.4376C38.8839 30.4506 38.8817 30.4872 38.8809 30.5001C38.88 30.5131 38.8778 30.5497 38.8769 30.5626L40.8731 30.6874ZM40.9975 28.6962C41.0409 28.0877 41.0625 27.4597 41.0625 26.8125H39.0625C39.0625 27.4153 39.0424 27.9957 39.0025 28.5538L40.9975 28.6962ZM41.0625 26.8125C41.0625 26.1253 41.041 25.4763 40.9975 24.8663L39.0025 25.0087C39.0423 25.5654 39.0625 26.1664 39.0625 26.8125H41.0625ZM40.04 23.9383C38.9754 23.8957 38.0071 23.8953 37.1376 23.9387L37.2374 25.9363C38.0345 25.8964 38.9413 25.896 39.96 25.9367L40.04 23.9383ZM37.1875 23.9375C36.3797 23.9375 35.6674 23.9587 35.0538 24.0025L35.1962 25.9975C35.7493 25.958 36.4119 25.9375 37.1875 25.9375V23.9375ZM35.0626 24.0019C34.3912 24.0439 33.8007 24.0861 33.292 24.1285L33.458 26.1215C33.9493 26.0806 34.5255 26.0394 35.1874 25.9981L35.0626 24.0019ZM33.2106 24.1386C32.7495 24.2155 32.2205 24.2747 31.621 24.3147L31.754 26.3103C32.4045 26.2669 33.0005 26.2012 33.5394 26.1114L33.2106 24.1386ZM31.5354 24.3241C31.035 24.4011 30.4231 24.4611 29.6945 24.5015L29.8055 26.4985C30.5769 26.4556 31.2566 26.3906 31.8396 26.3009L31.5354 24.3241ZM29.75 24.5C28.9635 24.5 28.119 24.5437 27.2177 24.6295L27.4073 26.6205C28.256 26.5397 29.0365 26.5 29.75 26.5V24.5ZM28.3089 25.5399L27.8714 20.4149L25.8786 20.5851L26.3161 25.7101L28.3089 25.5399ZM26.8011 21.4973C27.9315 21.581 28.919 21.6441 29.7626 21.6863L29.8624 19.6887C29.0393 19.6476 28.0685 19.5857 26.9489 19.5027L26.8011 21.4973ZM29.7649 21.6864C30.6488 21.7285 31.3951 21.75 32 21.75V19.75C31.4383 19.75 30.7262 19.7299 29.8601 19.6886L29.7649 21.6864ZM32 21.75H33.6875V19.75H32V21.75ZM33.6875 21.75H35.5625V19.75H33.6875V21.75ZM35.5625 21.75H40.5V19.75H35.5625V21.75ZM41.5 20.75C41.5 19.655 41.479 18.6991 41.4361 17.8849L39.4389 17.9901C39.4794 18.7592 39.5 19.6783 39.5 20.75H41.5ZM41.4375 17.9375C41.4375 17.0905 41.4164 16.3751 41.3721 15.7983L39.3779 15.9517C39.4169 16.4582 39.4375 17.1178 39.4375 17.9375H41.4375ZM41.3728 15.8085C41.3307 15.177 41.2879 14.6605 41.2439 14.2646L39.2561 14.4854C39.2955 14.8395 39.336 15.323 39.3772 15.9415L41.3728 15.8085ZM41.245 14.2755C41.1985 13.81 41.1076 13.2713 40.9778 12.6655L39.0222 13.0845C39.1424 13.6454 39.2182 14.1066 39.255 14.4745L41.245 14.2755ZM40.9864 12.7106C40.899 12.1865 40.77 11.5426 40.6012 10.7831L38.6488 11.2169C38.8134 11.9574 38.9343 12.5635 39.0136 13.0394L40.9864 12.7106ZM40.6128 10.844C40.4851 10.0354 40.3158 9.10489 40.1056 8.05388L38.1444 8.44612C38.3509 9.47844 38.5149 10.3812 38.6372 11.156L40.6128 10.844Z" fill="black" mask="url(#path-8-outside-1_14_1066)"/>
<rect x="31" y="52" width="13" height="7" fill="#BD0909"/>
</svg>
