<svg width="88" height="81" viewBox="0 0 88 81" fill="none" xmlns="http://www.w3.org/2000/svg">
<path d="M87.5 40.5C87.5 62.5532 68.0642 80.5 44 80.5C19.9358 80.5 0.5 62.5532 0.5 40.5C0.5 18.4468 19.9358 0.5 44 0.5C68.0642 0.5 87.5 18.4468 87.5 40.5Z" fill="white" stroke="black"/>
<mask id="path-2-outside-1_3_405" maskUnits="userSpaceOnUse" x="27" y="37" width="35" height="33" fill="black">
<rect fill="white" x="27" y="37" width="35" height="33"/>
<path d="M41.125 39.25L48.375 38.9375C48.0417 39.9375 47.7708 40.8542 47.5625 41.6875C47.3958 42.4792 47.2708 43.1667 47.1875 43.75C47.0625 44.4583 47 45.0833 47 45.625V47.4375C47 48.0208 46.9792 48.6667 46.9375 49.375C46.8958 50.0833 46.8542 50.8542 46.8125 51.6875C48.3125 51.6458 49.5833 51.6042 50.625 51.5625C51.7083 51.5208 52.6042 51.5 53.3125 51.5H55.3125C55.8125 51.5 56.3125 51.4792 56.8125 51.4375C57.2708 51.3958 57.75 51.3542 58.25 51.3125C58.7917 51.2292 59.3125 51.1042 59.8125 50.9375L60.0625 56.25C59.1458 56.1667 58.3125 56.125 57.5625 56.125C56.8542 56.125 56.2292 56.1042 55.6875 56.0625C55.0625 56.0625 54.5 56.0417 54 56H52.125C51.5 56 50.7292 56.0208 49.8125 56.0625C48.9375 56.1042 47.8958 56.1458 46.6875 56.1875C46.6042 56.8958 46.5417 57.5625 46.5 58.1875C46.5 58.8125 46.5208 59.375 46.5625 59.875C46.5625 60.4583 46.6042 61 46.6875 61.5C46.7292 62.0417 46.8125 62.6667 46.9375 63.375C47.0208 64 47.125 64.75 47.25 65.625C47.4167 66.5 47.6042 67.5417 47.8125 68.75H41C41.1667 67.625 41.2917 66.625 41.375 65.75C41.5 64.8333 41.6042 64.0833 41.6875 63.5C41.7708 62.7917 41.8333 62.1667 41.875 61.625C41.9167 60.9583 41.9583 60.2917 42 59.625C42.0417 59.0417 42.0625 58.4375 42.0625 57.8125C42.0625 57.1458 42.0417 56.5208 42 55.9375C40.9583 55.8958 40.0208 55.8958 39.1875 55.9375C38.3958 55.9375 37.7083 55.9583 37.125 56C36.4583 56.0417 35.875 56.0833 35.375 56.125C34.875 56.2083 34.3125 56.2708 33.6875 56.3125C33.1458 56.3958 32.5 56.4583 31.75 56.5C31 56.5 30.1875 56.5417 29.3125 56.625L28.875 51.5C30 51.5833 30.9792 51.6458 31.8125 51.6875C32.6875 51.7292 33.4167 51.75 34 51.75H35.6875H37.5625H42.5C42.5 50.6667 42.4792 49.7292 42.4375 48.9375C42.4375 48.1042 42.4167 47.4167 42.375 46.875C42.3333 46.25 42.2917 45.75 42.25 45.375C42.2083 44.9583 42.125 44.4583 42 43.875C41.9167 43.375 41.7917 42.75 41.625 42C41.5 41.2083 41.3333 40.2917 41.125 39.25Z"/>
</mask>
<path d="M41.125 39.25L48.375 38.9375C48.0417 39.9375 47.7708 40.8542 47.5625 41.6875C47.3958 42.4792 47.2708 43.1667 47.1875 43.75C47.0625 44.4583 47 45.0833 47 45.625V47.4375C47 48.0208 46.9792 48.6667 46.9375 49.375C46.8958 50.0833 46.8542 50.8542 46.8125 51.6875C48.3125 51.6458 49.5833 51.6042 50.625 51.5625C51.7083 51.5208 52.6042 51.5 53.3125 51.5H55.3125C55.8125 51.5 56.3125 51.4792 56.8125 51.4375C57.2708 51.3958 57.75 51.3542 58.25 51.3125C58.7917 51.2292 59.3125 51.1042 59.8125 50.9375L60.0625 56.25C59.1458 56.1667 58.3125 56.125 57.5625 56.125C56.8542 56.125 56.2292 56.1042 55.6875 56.0625C55.0625 56.0625 54.5 56.0417 54 56H52.125C51.5 56 50.7292 56.0208 49.8125 56.0625C48.9375 56.1042 47.8958 56.1458 46.6875 56.1875C46.6042 56.8958 46.5417 57.5625 46.5 58.1875C46.5 58.8125 46.5208 59.375 46.5625 59.875C46.5625 60.4583 46.6042 61 46.6875 61.5C46.7292 62.0417 46.8125 62.6667 46.9375 63.375C47.0208 64 47.125 64.75 47.25 65.625C47.4167 66.5 47.6042 67.5417 47.8125 68.75H41C41.1667 67.625 41.2917 66.625 41.375 65.75C41.5 64.8333 41.6042 64.0833 41.6875 63.5C41.7708 62.7917 41.8333 62.1667 41.875 61.625C41.9167 60.9583 41.9583 60.2917 42 59.625C42.0417 59.0417 42.0625 58.4375 42.0625 57.8125C42.0625 57.1458 42.0417 56.5208 42 55.9375C40.9583 55.8958 40.0208 55.8958 39.1875 55.9375C38.3958 55.9375 37.7083 55.9583 37.125 56C36.4583 56.0417 35.875 56.0833 35.375 56.125C34.875 56.2083 34.3125 56.2708 33.6875 56.3125C33.1458 56.3958 32.5 56.4583 31.75 56.5C31 56.5 30.1875 56.5417 29.3125 56.625L28.875 51.5C30 51.5833 30.9792 51.6458 31.8125 51.6875C32.6875 51.7292 33.4167 51.75 34 51.75H35.6875H37.5625H42.5C42.5 50.6667 42.4792 49.7292 42.4375 48.9375C42.4375 48.1042 42.4167 47.4167 42.375 46.875C42.3333 46.25 42.2917 45.75 42.25 45.375C42.2083 44.9583 42.125 44.4583 42 43.875C41.9167 43.375 41.7917 42.75 41.625 42C41.5 41.2083 41.3333 40.2917 41.125 39.25Z" fill="black"/>
<path d="M41.125 39.25L41.0819 38.2509L39.9154 38.3012L40.1444 39.4461L41.125 39.25ZM48.375 38.9375L49.3237 39.2537L49.783 37.8759L48.3319 37.9384L48.375 38.9375ZM47.5625 41.6875L46.5924 41.445L46.5878 41.4631L46.584 41.4815L47.5625 41.6875ZM47.1875 43.75L48.1723 43.9238L48.1751 43.9076L48.1775 43.8914L47.1875 43.75ZM46.8125 51.6875L45.8137 51.6376L45.7598 52.7171L46.8403 52.6871L46.8125 51.6875ZM50.625 51.5625L50.5866 50.5632L50.585 50.5633L50.625 51.5625ZM56.8125 51.4375L56.8955 52.4341L56.903 52.4334L56.8125 51.4375ZM58.25 51.3125L58.333 52.309L58.3677 52.3062L58.4021 52.3009L58.25 51.3125ZM59.8125 50.9375L60.8114 50.8905L60.7493 49.5711L59.4963 49.9888L59.8125 50.9375ZM60.0625 56.25L59.972 57.2459L61.1154 57.3498L61.0614 56.203L60.0625 56.25ZM55.6875 56.0625L55.7642 55.0654L55.7259 55.0625H55.6875V56.0625ZM54 56L54.083 55.0035L54.0416 55H54V56ZM49.8125 56.0625L49.7671 55.0635L49.7649 55.0636L49.8125 56.0625ZM46.6875 56.1875L46.653 55.1881L45.7947 55.2177L45.6943 56.0707L46.6875 56.1875ZM46.5 58.1875L45.5022 58.121L45.5 58.1542V58.1875H46.5ZM46.5625 59.875H47.5625V59.8334L47.559 59.792L46.5625 59.875ZM46.6875 61.5L47.6846 61.4233L47.6812 61.3792L47.6739 61.3356L46.6875 61.5ZM46.9375 63.375L47.9287 63.2428L47.9259 63.222L47.9223 63.2012L46.9375 63.375ZM47.25 65.625L46.26 65.7664L46.2633 65.7894L46.2677 65.8121L47.25 65.625ZM47.8125 68.75V69.75H48.9997L48.798 68.5801L47.8125 68.75ZM41 68.75L40.0108 68.6035L39.8409 69.75H41V68.75ZM41.375 65.75L40.3842 65.6149L40.3814 65.635L40.3795 65.6552L41.375 65.75ZM41.6875 63.5L42.6775 63.6414L42.6792 63.6292L42.6807 63.6168L41.6875 63.5ZM41.875 61.625L42.8721 61.7017L42.8726 61.6945L42.8731 61.6874L41.875 61.625ZM42 59.625L41.0025 59.5538L41.0019 59.5626L42 59.625ZM42 55.9375L42.9975 55.8663L42.9337 54.974L42.04 54.9383L42 55.9375ZM39.1875 55.9375V56.9375H39.2125L39.2374 56.9363L39.1875 55.9375ZM37.125 56L37.1874 56.9981L37.1962 56.9975L37.125 56ZM35.375 56.125L35.292 55.1285L35.2511 55.1319L35.2106 55.1386L35.375 56.125ZM33.6875 56.3125L33.621 55.3147L33.578 55.3176L33.5354 55.3241L33.6875 56.3125ZM31.75 56.5V57.5H31.7778L31.8055 57.4985L31.75 56.5ZM29.3125 56.625L28.3161 56.7101L28.402 57.7162L29.4073 57.6205L29.3125 56.625ZM28.875 51.5L28.9489 50.5027L27.7788 50.4161L27.8786 51.5851L28.875 51.5ZM31.8125 51.6875L31.7626 52.6863L31.7649 52.6864L31.8125 51.6875ZM42.5 51.75V52.75H43.5V51.75H42.5ZM42.4375 48.9375H41.4375V48.9638L41.4389 48.9901L42.4375 48.9375ZM42.375 46.875L41.3772 46.9415L41.3779 46.9517L42.375 46.875ZM42.25 45.375L41.2549 45.4745L41.2561 45.4854L42.25 45.375ZM42 43.875L41.0136 44.0394L41.0174 44.0621L41.0222 44.0845L42 43.875ZM41.625 42L40.6372 42.156L40.6421 42.1866L40.6488 42.2169L41.625 42ZM41.1681 40.2491L48.4181 39.9366L48.3319 37.9384L41.0819 38.2509L41.1681 40.2491ZM47.4263 38.6213C47.0866 39.6403 46.8081 40.582 46.5924 41.445L48.5326 41.93C48.7336 41.1263 48.9967 40.2347 49.3237 39.2537L47.4263 38.6213ZM46.584 41.4815C46.4143 42.2873 46.2849 42.9973 46.1975 43.6086L48.1775 43.8914C48.2568 43.336 48.3774 42.671 48.541 41.8935L46.584 41.4815ZM46.2027 43.5762C46.0707 44.3245 46 45.0097 46 45.625H48C48 45.1569 48.0543 44.5921 48.1723 43.9238L46.2027 43.5762ZM46 45.625V47.4375H48V45.625H46ZM46 47.4375C46 47.9976 45.98 48.6235 45.9392 49.3163L47.9358 49.4337C47.9784 48.7098 48 48.0441 48 47.4375H46ZM45.9392 49.3163C45.8974 50.028 45.8555 50.8018 45.8137 51.6376L47.8113 51.7374C47.8528 50.9065 47.8943 50.1387 47.9358 49.4337L45.9392 49.3163ZM46.8403 52.6871C48.3427 52.6454 49.6179 52.6036 50.665 52.5617L50.585 50.5633C49.5488 50.6047 48.2823 50.6463 46.7847 50.6879L46.8403 52.6871ZM50.6634 52.5618C51.7399 52.5204 52.6218 52.5 53.3125 52.5V50.5C52.5865 50.5 51.6768 50.5213 50.5866 50.5632L50.6634 52.5618ZM53.3125 52.5H55.3125V50.5H53.3125V52.5ZM55.3125 52.5C55.8403 52.5 56.368 52.478 56.8955 52.434L56.7295 50.441C56.257 50.4803 55.7847 50.5 55.3125 50.5V52.5ZM56.903 52.4334C57.3587 52.392 57.8353 52.3505 58.333 52.309L58.167 50.316C57.6647 50.3578 57.183 50.3997 56.722 50.4416L56.903 52.4334ZM58.4021 52.3009C58.9973 52.2093 59.5731 52.0714 60.1287 51.8862L59.4963 49.9888C59.0519 50.137 58.5861 50.249 58.0979 50.3241L58.4021 52.3009ZM58.8136 50.9845L59.0636 56.297L61.0614 56.203L60.8114 50.8905L58.8136 50.9845ZM60.153 55.2541C59.2127 55.1686 58.3486 55.125 57.5625 55.125V57.125C58.2764 57.125 59.0789 57.1647 59.972 57.2459L60.153 55.2541ZM57.5625 55.125C56.8726 55.125 56.2741 55.1047 55.7642 55.0654L55.6108 57.0596C56.1843 57.1037 56.8358 57.125 57.5625 57.125V55.125ZM55.6875 55.0625C55.0838 55.0625 54.5497 55.0423 54.083 55.0035L53.917 56.9965C54.4503 57.041 55.0412 57.0625 55.6875 57.0625V55.0625ZM54 55H52.125V57H54V55ZM52.125 55C51.4797 55 50.6926 55.0215 49.7671 55.0635L49.8579 57.0615C50.7657 57.0202 51.5203 57 52.125 57V55ZM49.7649 55.0636C48.8956 55.105 47.8585 55.1465 46.653 55.1881L46.722 57.1869C47.9332 57.1451 48.9794 57.1033 49.8601 57.0614L49.7649 55.0636ZM45.6943 56.0707C45.6093 56.7935 45.5451 57.4771 45.5022 58.121L47.4978 58.254C47.5382 57.6479 47.599 56.9982 47.6807 56.3043L45.6943 56.0707ZM45.5 58.1875C45.5 58.8338 45.5215 59.4247 45.566 59.958L47.559 59.792C47.5202 59.3253 47.5 58.7912 47.5 58.1875H45.5ZM45.5625 59.875C45.5625 60.5054 45.6075 61.1027 45.7011 61.6644L47.6739 61.3356C47.6008 60.8973 47.5625 60.4113 47.5625 59.875H45.5625ZM45.6904 61.5767C45.7353 62.1594 45.8237 62.8179 45.9527 63.5488L47.9223 63.2012C47.8013 62.5154 47.7231 61.924 47.6846 61.4233L45.6904 61.5767ZM45.9463 63.5072C46.0301 64.1362 46.1348 64.8895 46.26 65.7664L48.24 65.4836C48.1152 64.6105 48.0115 63.8638 47.9287 63.2428L45.9463 63.5072ZM46.2677 65.8121C46.4329 66.6797 46.6194 67.7154 46.827 68.9199L48.798 68.5801C48.589 67.368 48.4004 66.3203 48.2323 65.4379L46.2677 65.8121ZM47.8125 67.75H41V69.75H47.8125V67.75ZM41.9892 68.8965C42.1577 67.759 42.2851 66.7413 42.3705 65.8448L40.3795 65.6552C40.2982 66.5087 40.1756 67.491 40.0108 68.6035L41.9892 68.8965ZM42.3658 65.8851C42.4907 64.9695 42.5945 64.2218 42.6775 63.6414L40.6975 63.3586C40.6138 63.9448 40.5093 64.6972 40.3842 65.6149L42.3658 65.8851ZM42.6807 63.6168C42.7651 62.899 42.8291 62.2602 42.8721 61.7017L40.8779 61.5483C40.8376 62.0732 40.7766 62.6843 40.6943 63.3832L42.6807 63.6168ZM42.8731 61.6874C42.8781 61.6059 42.8836 61.5189 42.8887 61.4374C42.8938 61.3559 42.8992 61.2689 42.9043 61.1874C42.9094 61.1059 42.9148 61.0189 42.9199 60.9374C42.925 60.8559 42.9305 60.7689 42.9356 60.6874C42.9364 60.6744 42.9386 60.6378 42.9395 60.6249C42.9403 60.6119 42.9426 60.5753 42.9434 60.5624C42.9442 60.5494 42.9465 60.5128 42.9473 60.4999C42.9481 60.4869 42.9504 60.4503 42.9512 60.4374C42.952 60.4244 42.9543 60.3878 42.9551 60.3749C42.9559 60.3619 42.9582 60.3253 42.959 60.3124C42.9598 60.2994 42.9621 60.2628 42.9629 60.2499C42.9637 60.2369 42.966 60.2003 42.9668 60.1874C42.9676 60.1744 42.9699 60.1378 42.9707 60.1249C42.9715 60.1119 42.9738 60.0753 42.9746 60.0624C42.9754 60.0494 42.9777 60.0128 42.9785 59.9999C42.9793 59.9869 42.9816 59.9503 42.9824 59.9374C42.9832 59.9244 42.9855 59.8878 42.9863 59.8749C42.9871 59.8619 42.9894 59.8253 42.9902 59.8124C42.9911 59.7994 42.9933 59.7628 42.9941 59.7499C42.995 59.7369 42.9972 59.7003 42.9981 59.6874L41.0019 59.5626C40.9969 59.6441 40.9914 59.7311 40.9863 59.8126C40.9812 59.8941 40.9758 59.9811 40.9707 60.0626C40.9656 60.1441 40.9602 60.2311 40.9551 60.3126C40.95 60.3941 40.9445 60.4811 40.9394 60.5626C40.9386 60.5756 40.9364 60.6122 40.9355 60.6251C40.9347 60.6381 40.9324 60.6747 40.9316 60.6876C40.9308 60.7006 40.9285 60.7372 40.9277 60.7501C40.9269 60.7631 40.9246 60.7997 40.9238 60.8126C40.923 60.8256 40.9207 60.8622 40.9199 60.8751C40.9191 60.8881 40.9168 60.9247 40.916 60.9376C40.9152 60.9506 40.9129 60.9872 40.9121 61.0001C40.9113 61.0131 40.909 61.0497 40.9082 61.0626C40.9074 61.0756 40.9051 61.1122 40.9043 61.1251C40.9035 61.1381 40.9012 61.1747 40.9004 61.1876C40.8996 61.2006 40.8973 61.2372 40.8965 61.2501C40.8957 61.2631 40.8934 61.2997 40.8926 61.3126C40.8918 61.3256 40.8895 61.3622 40.8887 61.3751C40.8879 61.3881 40.8856 61.4247 40.8848 61.4376C40.8839 61.4506 40.8817 61.4872 40.8809 61.5001C40.88 61.5131 40.8778 61.5497 40.8769 61.5626L42.8731 61.6874ZM42.9975 59.6962C43.0409 59.0877 43.0625 58.4597 43.0625 57.8125H41.0625C41.0625 58.4153 41.0424 58.9957 41.0025 59.5538L42.9975 59.6962ZM43.0625 57.8125C43.0625 57.1253 43.041 56.4763 42.9975 55.8663L41.0025 56.0087C41.0423 56.5654 41.0625 57.1664 41.0625 57.8125H43.0625ZM42.04 54.9383C40.9754 54.8957 40.0071 54.8953 39.1376 54.9387L39.2374 56.9363C40.0345 56.8964 40.9413 56.896 41.96 56.9367L42.04 54.9383ZM39.1875 54.9375C38.3797 54.9375 37.6674 54.9587 37.0538 55.0025L37.1962 56.9975C37.7493 56.958 38.4119 56.9375 39.1875 56.9375V54.9375ZM37.0626 55.0019C36.3912 55.0439 35.8007 55.0861 35.292 55.1285L35.458 57.1215C35.9493 57.0806 36.5255 57.0394 37.1874 56.9981L37.0626 55.0019ZM35.2106 55.1386C34.7495 55.2155 34.2205 55.2747 33.621 55.3147L33.754 57.3103C34.4045 57.2669 35.0005 57.2012 35.5394 57.1114L35.2106 55.1386ZM33.5354 55.3241C33.035 55.4011 32.4231 55.4611 31.6945 55.5015L31.8055 57.4985C32.5769 57.4556 33.2566 57.3906 33.8396 57.3009L33.5354 55.3241ZM31.75 55.5C30.9635 55.5 30.119 55.5437 29.2177 55.6295L29.4073 57.6205C30.256 57.5397 31.0365 57.5 31.75 57.5V55.5ZM30.3089 56.5399L29.8714 51.4149L27.8786 51.5851L28.3161 56.7101L30.3089 56.5399ZM28.8011 52.4973C29.9315 52.581 30.919 52.6441 31.7626 52.6863L31.8624 50.6887C31.0393 50.6476 30.0685 50.5857 28.9489 50.5027L28.8011 52.4973ZM31.7649 52.6864C32.6488 52.7285 33.3951 52.75 34 52.75V50.75C33.4383 50.75 32.7262 50.7299 31.8601 50.6886L31.7649 52.6864ZM34 52.75H35.6875V50.75H34V52.75ZM35.6875 52.75H37.5625V50.75H35.6875V52.75ZM37.5625 52.75H42.5V50.75H37.5625V52.75ZM43.5 51.75C43.5 50.655 43.479 49.6991 43.4361 48.8849L41.4389 48.9901C41.4794 49.7592 41.5 50.6783 41.5 51.75H43.5ZM43.4375 48.9375C43.4375 48.0905 43.4164 47.3751 43.3721 46.7983L41.3779 46.9517C41.4169 47.4582 41.4375 48.1178 41.4375 48.9375H43.4375ZM43.3728 46.8085C43.3307 46.177 43.2879 45.6605 43.2439 45.2646L41.2561 45.4854C41.2955 45.8395 41.336 46.323 41.3772 46.9415L43.3728 46.8085ZM43.245 45.2755C43.1985 44.81 43.1076 44.2713 42.9778 43.6655L41.0222 44.0845C41.1424 44.6454 41.2182 45.1066 41.255 45.4745L43.245 45.2755ZM42.9864 43.7106C42.899 43.1865 42.77 42.5426 42.6012 41.7831L40.6488 42.2169C40.8134 42.9574 40.9343 43.5635 41.0136 44.0394L42.9864 43.7106ZM42.6128 41.844C42.4851 41.0354 42.3158 40.1049 42.1056 39.0539L40.1444 39.4461C40.3509 40.4784 40.5149 41.3812 40.6372 42.156L42.6128 41.844Z" fill="black" mask="url(#path-2-outside-1_3_405)"/>
<path d="M23.1446 43.6944L30.9875 27.9019L38.8304 43.6944H23.1446Z" fill="black"/>
<path d="M23.1446 43.6944L30.9875 27.9019L38.8304 43.6944H23.1446Z" fill="black"/>
<path d="M23.1446 43.6944L30.9875 27.9019L38.8304 43.6944H23.1446Z" stroke="black"/>
<path d="M38.8 25.5556C38.8 29.7007 35.3303 33.1111 30.9875 33.1111C26.6447 33.1111 23.175 29.7007 23.175 25.5556C23.175 21.4104 26.6447 18 30.9875 18C35.3303 18 38.8 21.4104 38.8 25.5556Z" fill="black" stroke="black" stroke-width="2"/>
<path d="M50.1696 43.6944L58.0125 27.9019L65.8554 43.6944H50.1696Z" fill="black"/>
<path d="M50.1696 43.6944L58.0125 27.9019L65.8554 43.6944H50.1696Z" fill="black"/>
<path d="M50.1696 43.6944L58.0125 27.9019L65.8554 43.6944H50.1696Z" stroke="black"/>
<path d="M65.825 25.5556C65.825 29.7007 62.3553 33.1111 58.0125 33.1111C53.6697 33.1111 50.2 29.7007 50.2 25.5556C50.2 21.4104 53.6697 18 58.0125 18C62.3553 18 65.825 21.4104 65.825 25.5556Z" fill="black" stroke="black" stroke-width="2"/>
</svg>
