<svg width="88" height="81" viewBox="0 0 88 81" fill="none" xmlns="http://www.w3.org/2000/svg">
<path d="M87.5 40.5C87.5 18.4468 68.0642 0.5 44 0.5C19.9358 0.5 0.5 18.4468 0.5 40.5C0.5 62.5532 19.9358 80.5 44 80.5C68.0642 80.5 87.5 62.5532 87.5 40.5Z" fill="black" stroke="white"/>
<path d="M38 54C38 54 54 46 54 34V20L38 14L22 20V34C22 46 38 54 38 54Z" stroke="white" stroke-width="4" stroke-linecap="round" stroke-linejoin="round"/>
<path d="M53 41.5L56.8625 49.325L65.5 50.5875L59.25 56.675L60.725 65.275L53 61.2125L45.275 65.275L46.75 56.675L40.5 50.5875L49.1375 49.325L53 41.5Z" stroke="white" stroke-width="4" stroke-linecap="round" stroke-linejoin="round"/>
</svg>
