<svg width="88" height="81" viewBox="0 0 88 81" fill="none" xmlns="http://www.w3.org/2000/svg">
<path d="M87.5 40.5C87.5 18.4468 68.0642 0.5 44 0.5C19.9358 0.5 0.5 18.4468 0.5 40.5C0.5 62.5532 19.9358 80.5 44 80.5C68.0642 80.5 87.5 62.5532 87.5 40.5Z" fill="black" stroke="white"/>
<path d="M34.4062 28.25C36.6146 30 38.4479 31.4375 39.9062 32.5625C41.3646 33.6458 42.5312 34.5 43.4062 35.125C44.4479 35.875 45.2396 36.4375 45.7812 36.8125C46.2812 37.1042 46.9688 37.5625 47.8438 38.1875C48.5938 38.7292 49.5938 39.4583 50.8438 40.375C52.1354 41.2917 53.7812 42.4583 55.7812 43.875C53.6562 45.4583 51.8438 46.8333 50.3438 48C48.8438 49.1667 47.5938 50.125 46.5938 50.875C45.4271 51.75 44.4271 52.4792 43.5938 53.0625C42.8021 53.6458 41.9479 54.3125 41.0312 55.0625C40.2396 55.7292 39.3229 56.5208 38.2812 57.4375C37.2396 58.3542 36.1146 59.375 34.9062 60.5C34.8646 58.375 34.8438 56.7292 34.8438 55.5625C34.8438 54.3958 34.8438 53.5208 34.8438 52.9375C34.8438 52.2708 34.8646 51.875 34.9062 51.75C34.9479 51.6667 35.2604 51.5 35.8438 51.25C36.4688 50.9583 37.1771 50.625 37.9688 50.25C38.8021 49.875 39.6562 49.4583 40.5312 49C41.4479 48.5417 42.2396 48.1042 42.9062 47.6875C43.4479 47.3542 44.0104 47 44.5938 46.625C45.0938 46.2917 45.6562 45.9167 46.2812 45.5C46.9062 45.0833 47.5729 44.625 48.2812 44.125C47.6562 43.7083 46.9688 43.2708 46.2188 42.8125C45.5104 42.3542 44.8438 41.9375 44.2188 41.5625L42.0312 40.25C41.3229 39.8333 40.5521 39.4167 39.7188 39C39.0104 38.6667 38.1771 38.3125 37.2188 37.9375C36.3021 37.5208 35.3646 37.1458 34.4062 36.8125V28.25Z" fill="white"/>
</svg>
