<svg width="88" height="81" viewBox="0 0 88 81" fill="none" xmlns="http://www.w3.org/2000/svg">
<path d="M87.5 40.5C87.5 18.4468 68.0642 0.5 44 0.5C19.9358 0.5 0.5 18.4468 0.5 40.5C0.5 62.5532 19.9358 80.5 44 80.5C68.0642 80.5 87.5 62.5532 87.5 40.5Z" fill="white" stroke="black"/>
<path d="M52.5938 28.25V36.8125C51.5938 37.1458 50.6354 37.5208 49.7188 37.9375C48.8021 38.3125 47.9896 38.6667 47.2812 39C46.4479 39.4167 45.6771 39.8333 44.9688 40.25L42.7812 41.5625C42.1562 41.9375 41.4688 42.3542 40.7188 42.8125C39.9688 43.2708 39.2812 43.7083 38.6562 44.125C39.3646 44.625 40.0312 45.0833 40.6562 45.5C41.3229 45.9167 41.9062 46.2917 42.4062 46.625C42.9896 47 43.5521 47.3542 44.0938 47.6875C44.7604 48.1042 45.5312 48.5417 46.4062 49C47.3229 49.4583 48.1771 49.875 48.9688 50.25C49.8021 50.625 50.5104 50.9583 51.0938 51.25C51.6771 51.5 51.9896 51.6667 52.0312 51.75C52.0729 51.875 52.0938 52.2708 52.0938 52.9375C52.0938 53.5208 52.0938 54.3958 52.0938 55.5625C52.0938 56.7292 52.0729 58.375 52.0312 60.5C50.8229 59.375 49.6979 58.3542 48.6562 57.4375C47.6562 56.5208 46.7604 55.7292 45.9688 55.0625C45.0521 54.3125 44.1979 53.6458 43.4062 53.0625C42.5729 52.4792 41.5729 51.75 40.4062 50.875C39.4062 50.125 38.1354 49.1667 36.5938 48C35.0938 46.8333 33.3021 45.4583 31.2188 43.875C33.1771 42.4583 34.8021 41.2917 36.0938 40.375C37.3854 39.4583 38.4062 38.7292 39.1562 38.1875C40.0312 37.5625 40.7188 37.1042 41.2188 36.8125C41.7604 36.4375 42.5521 35.875 43.5938 35.125C44.4688 34.5 45.6146 33.6458 47.0312 32.5625C48.4896 31.4375 50.3438 30 52.5938 28.25Z" fill="black"/>
</svg>
