<svg width="139" height="72" viewBox="0 0 139 72" fill="none" xmlns="http://www.w3.org/2000/svg">
<rect x="0.5" y="0.5" width="138" height="71" rx="14.5" fill="black" stroke="white"/>
<rect x="12" y="14" width="44" height="45" rx="4" fill="black" stroke="white" stroke-width="2"/>
<rect x="14" y="17" width="21" height="45" rx="4" fill="black" stroke="black" stroke-width="2"/>
<path d="M31.2929 57.2929C30.9024 57.6834 30.9024 58.3166 31.2929 58.7071L37.6569 65.0711C38.0474 65.4616 38.6805 65.4616 39.0711 65.0711C39.4616 64.6805 39.4616 64.0474 39.0711 63.6569L33.4142 58L39.0711 52.3431C39.4616 51.9526 39.4616 51.3195 39.0711 50.9289C38.6805 50.5384 38.0474 50.5384 37.6569 50.9289L31.2929 57.2929ZM54 57H32V59H54V57Z" fill="white"/>
<path d="M68.5127 31.3066C69.167 31.3848 69.7334 31.4434 70.2119 31.4824C70.6904 31.5117 71.0859 31.5361 71.3984 31.5557C71.7598 31.5752 72.0625 31.5801 72.3066 31.5703C72.5605 31.5605 72.9072 31.5361 73.3467 31.4971C73.7178 31.4678 74.2061 31.4287 74.8115 31.3799C75.417 31.3213 76.1738 31.2432 77.082 31.1455C77.0918 31.3701 77.0967 31.5898 77.0967 31.8047C77.1064 32.0098 77.1162 32.1904 77.126 32.3467C77.1357 32.5322 77.1406 32.7031 77.1406 32.8594C77.1406 33.0254 77.1309 33.2354 77.1113 33.4893C77.0918 33.7041 77.0576 33.9775 77.0088 34.3096C76.9697 34.6318 76.9062 35.0176 76.8184 35.4668C76.6816 34.9395 76.5498 34.5146 76.4229 34.1924C76.2959 33.8604 76.1787 33.5967 76.0713 33.4014C75.9541 33.1768 75.8369 33.0059 75.7197 32.8887C75.5928 32.8008 75.4414 32.7275 75.2656 32.6689C75.1094 32.6201 74.9092 32.5811 74.665 32.5518C74.4307 32.5225 74.1523 32.5273 73.8301 32.5664C73.7812 33.8555 73.7471 34.9004 73.7275 35.7012C73.708 36.502 73.6934 37.127 73.6836 37.5762C73.6738 38.1133 73.6689 38.499 73.6689 38.7334C73.6787 39.0654 73.7324 39.3926 73.8301 39.7148C73.9082 39.9883 74.0352 40.2715 74.2109 40.5645C74.3867 40.8574 74.6406 41.1162 74.9727 41.3408H73.1855C73.0195 41.3408 72.8145 41.3506 72.5703 41.3701C72.3652 41.3896 72.1016 41.4092 71.7793 41.4287C71.4668 41.4482 71.1006 41.4824 70.6807 41.5312C70.8271 41.2773 70.9443 41.0479 71.0322 40.8428C71.1201 40.6377 71.1885 40.4619 71.2373 40.3154C71.2959 40.1396 71.3398 39.9834 71.3691 39.8467C71.3789 39.6514 71.4033 39.2559 71.4424 38.6602C71.4521 38.416 71.4619 38.1133 71.4717 37.752C71.4912 37.3906 71.5107 36.9609 71.5303 36.4629C71.5596 35.9648 71.584 35.3936 71.6035 34.749C71.6328 34.0947 71.6621 33.3574 71.6914 32.5371C71.5156 32.4883 71.3496 32.4932 71.1934 32.5518C71.0371 32.6006 70.9004 32.6641 70.7832 32.7422C70.6465 32.8398 70.5146 32.957 70.3877 33.0938C70.2607 33.2598 70.1191 33.4746 69.9629 33.7383C69.8262 33.9629 69.6699 34.2607 69.4941 34.6318C69.3184 34.9932 69.1182 35.4424 68.8936 35.9795C68.8447 35.4131 68.8105 34.9492 68.791 34.5879C68.7715 34.2168 68.7568 33.9287 68.7471 33.7236C68.7373 33.4795 68.7324 33.2988 68.7324 33.1816C68.7324 33.0742 68.7227 32.9326 68.7031 32.7568C68.6836 32.6104 68.6592 32.4199 68.6299 32.1855C68.6006 31.9414 68.5615 31.6484 68.5127 31.3066ZM76.8477 31.9072C77.1797 31.9463 77.458 31.9756 77.6826 31.9951C77.917 32.0049 78.1074 32.0195 78.2539 32.0391C78.4297 32.0586 78.5664 32.0684 78.6641 32.0684C78.7715 32.0781 78.9326 32.0732 79.1475 32.0537C79.333 32.0342 79.582 32.0098 79.8945 31.9805C80.2168 31.9512 80.627 31.9072 81.125 31.8486C80.9004 32.0439 80.7197 32.2344 80.583 32.4199C80.4561 32.5957 80.3584 32.752 80.29 32.8887C80.2021 33.0547 80.1484 33.2109 80.1289 33.3574C80.0898 33.5918 80.0557 33.9141 80.0264 34.3242C80.0068 34.7246 79.9873 35.1641 79.9678 35.6426C79.9482 36.1211 79.9385 36.6143 79.9385 37.1221C79.9385 37.6299 79.9434 38.1133 79.9531 38.5723C79.9727 39.0215 80.002 39.4219 80.041 39.7734C80.0898 40.125 80.1484 40.3789 80.2168 40.5352C80.3145 40.7109 80.417 40.8867 80.5244 41.0625C80.6221 41.209 80.7393 41.3604 80.876 41.5166C81.0127 41.6729 81.1689 41.7998 81.3447 41.8975C80.7686 41.8682 80.3096 41.8535 79.9678 41.8535H79.4404C79.2842 41.8535 79.084 41.8633 78.8398 41.8828C78.6348 41.9023 78.376 41.9219 78.0635 41.9414C77.751 41.9609 77.375 41.9902 76.9355 42.0293C77.1602 41.7852 77.3359 41.5508 77.4629 41.3262C77.5898 41.1016 77.6924 40.9062 77.7705 40.7402C77.8584 40.5449 77.917 40.3594 77.9463 40.1836C77.9854 39.9297 78.0146 39.6172 78.0342 39.2461C78.0635 38.8652 78.083 38.46 78.0928 38.0303C78.1025 37.5908 78.1025 37.1465 78.0928 36.6973C78.0928 36.2383 78.083 35.7988 78.0635 35.3789C78.0439 34.959 78.0146 34.5781 77.9756 34.2363C77.9463 33.8945 77.9072 33.6211 77.8584 33.416C77.8291 33.2891 77.7705 33.1475 77.6826 32.9912C77.6045 32.8545 77.4971 32.6982 77.3604 32.5225C77.2334 32.3369 77.0625 32.1318 76.8477 31.9072ZM81.7109 31.3799C81.9941 31.4287 82.2432 31.4629 82.458 31.4824C82.6826 31.502 82.8682 31.5166 83.0146 31.5264C83.1904 31.5361 83.3418 31.541 83.4688 31.541C83.5957 31.541 83.7764 31.5312 84.0107 31.5117C84.2061 31.4922 84.46 31.4678 84.7725 31.4385C85.0947 31.4092 85.4902 31.3604 85.959 31.292C85.8223 31.3311 85.6953 31.4434 85.5781 31.6289C85.4707 31.8047 85.373 31.9951 85.2852 32.2002C85.1777 32.4443 85.085 32.7129 85.0068 33.0059C84.9385 33.2695 84.8506 33.6309 84.7432 34.0898C84.6455 34.5488 84.5479 35.0469 84.4502 35.584C84.3623 36.1211 84.2939 36.668 84.2451 37.2246C84.1963 37.7715 84.1865 38.2744 84.2158 38.7334C84.2549 39.1924 84.3477 39.5732 84.4941 39.876C84.6406 40.1689 84.8652 40.3252 85.168 40.3447C85.627 40.3838 86.0078 40.3887 86.3105 40.3594C86.623 40.3203 86.877 40.2666 87.0723 40.1982C87.2676 40.1299 87.4189 40.0518 87.5264 39.9639C87.6338 39.8662 87.7168 39.7734 87.7754 39.6855C87.9316 39.4609 88.0928 39.1729 88.2588 38.8213C88.4248 38.4697 88.5713 38.1328 88.6982 37.8105C88.835 37.4883 88.9473 37.2148 89.0352 36.9902C89.123 36.7656 89.167 36.6582 89.167 36.668C89.167 36.6875 89.1621 36.7998 89.1523 37.0049C89.1523 37.2002 89.1475 37.4395 89.1377 37.7227C89.1377 37.9961 89.1328 38.2842 89.123 38.5869C89.123 38.8896 89.1182 39.1484 89.1084 39.3633C89.0986 39.5391 89.0889 39.7344 89.0791 39.9492C89.0693 40.1348 89.0596 40.3545 89.0498 40.6084C89.0498 40.8623 89.04 41.1406 89.0205 41.4434C88.6104 41.4141 88.2197 41.3945 87.8486 41.3848C87.4775 41.375 87.1504 41.3701 86.8672 41.3701C86.5352 41.3701 86.2275 41.375 85.9443 41.3848C85.6416 41.3945 85.29 41.4092 84.8896 41.4287C84.5479 41.4482 84.123 41.4727 83.6152 41.502C83.1074 41.5215 82.5215 41.5508 81.8574 41.5898C81.9355 41.4531 81.999 41.3262 82.0479 41.209C82.1064 41.0918 82.1504 40.9941 82.1797 40.916C82.2188 40.8184 82.2432 40.7354 82.2529 40.667C82.3115 40.3545 82.3604 39.959 82.3994 39.4805C82.4385 38.9922 82.4678 38.4746 82.4873 37.9277C82.5166 37.3809 82.5312 36.8242 82.5312 36.2578C82.541 35.6816 82.541 35.1494 82.5312 34.6611C82.5215 34.1729 82.502 33.748 82.4727 33.3867C82.4531 33.0254 82.4238 32.7764 82.3848 32.6396C82.3359 32.4834 82.2773 32.3271 82.209 32.1709C82.1504 32.0342 82.0771 31.8975 81.9893 31.7607C81.9111 31.6143 81.8184 31.4873 81.7109 31.3799ZM89.2549 31.5264C89.5674 31.6045 89.8652 31.6631 90.1484 31.7021C90.4316 31.7412 90.6807 31.7705 90.8955 31.79C91.1494 31.8193 91.3838 31.8291 91.5986 31.8193C91.8721 31.8193 92.2139 31.7949 92.624 31.7461C93.0439 31.6973 93.4736 31.6533 93.9131 31.6143C94.3525 31.5654 94.7725 31.5361 95.1729 31.5264C95.583 31.5068 95.915 31.5312 96.1689 31.5996C96.4229 31.6582 96.6816 31.751 96.9453 31.8779C97.2188 31.9951 97.4678 32.1465 97.6924 32.332C97.917 32.5078 98.1025 32.7178 98.249 32.9619C98.3955 33.1963 98.4785 33.4648 98.498 33.7676C98.4883 34.1484 98.4004 34.5049 98.2344 34.8369C98.0977 35.1201 97.8682 35.4131 97.5459 35.7158C97.2236 36.0088 96.7598 36.2334 96.1543 36.3896C96.457 36.4287 96.7158 36.4971 96.9307 36.5947C97.1553 36.6826 97.3457 36.79 97.502 36.917C97.668 37.0342 97.7998 37.166 97.8975 37.3125C98.0049 37.459 98.0879 37.6055 98.1465 37.752C98.293 38.0938 98.3613 38.4746 98.3516 38.8945C98.293 39.4414 98.1807 39.876 98.0146 40.1982C97.8584 40.5205 97.6777 40.7695 97.4727 40.9453C97.2676 41.1211 97.0576 41.2432 96.8428 41.3115C96.6279 41.3799 96.4326 41.4336 96.2568 41.4727C96.0811 41.5117 95.8662 41.5312 95.6123 41.5312C95.3584 41.5312 95.085 41.5264 94.792 41.5166C94.5088 41.4971 94.2158 41.4824 93.9131 41.4727C93.6104 41.4531 93.3223 41.4531 93.0488 41.4727C92.8242 41.4922 92.5508 41.5117 92.2285 41.5312C91.9551 41.5508 91.6133 41.5752 91.2031 41.6045C90.793 41.624 90.3145 41.6484 89.7676 41.6777C89.875 41.5996 89.9629 41.5117 90.0312 41.4141C90.1094 41.3066 90.1729 41.2139 90.2217 41.1357C90.2705 41.0381 90.3145 40.9453 90.3535 40.8574C90.3828 40.7793 90.4072 40.5645 90.4268 40.2129C90.4463 39.8613 90.4609 39.4414 90.4707 38.9531C90.4805 38.4551 90.4854 37.9229 90.4854 37.3564C90.4951 36.7803 90.4902 36.2285 90.4707 35.7012C90.4609 35.1641 90.4414 34.6904 90.4121 34.2803C90.3926 33.8604 90.3633 33.5576 90.3242 33.3721C90.2656 33.167 90.1875 32.957 90.0898 32.7422C90.0117 32.5566 89.8994 32.3564 89.7529 32.1416C89.6162 31.9268 89.4502 31.7217 89.2549 31.5264ZM92.3457 33.0205C92.3457 33.0596 92.3506 33.1914 92.3604 33.416C92.3701 33.6113 92.3799 33.9141 92.3896 34.3242C92.4092 34.7246 92.4336 35.2959 92.4629 36.0381C92.707 36.1455 92.9463 36.2041 93.1807 36.2139C93.415 36.2139 93.625 36.2041 93.8105 36.1846C94.0254 36.1553 94.2305 36.1064 94.4258 36.0381C94.6895 35.9307 94.8945 35.7549 95.041 35.5107C95.1973 35.2666 95.2998 35.0127 95.3486 34.749C95.4072 34.4756 95.4219 34.2217 95.3926 33.9873C95.3633 33.7432 95.2998 33.5674 95.2021 33.46C95.0166 33.2939 94.7871 33.1572 94.5137 33.0498C94.2793 32.9619 93.9814 32.9033 93.6201 32.874C93.2686 32.835 92.8438 32.8838 92.3457 33.0205ZM92.2725 39.9639C92.6338 40.1494 92.9512 40.2715 93.2246 40.3301C93.498 40.3887 93.7275 40.418 93.9131 40.418C94.1279 40.418 94.3135 40.3887 94.4697 40.3301C94.6553 40.2422 94.8359 40.125 95.0117 39.9785C95.1973 39.8223 95.334 39.6416 95.4219 39.4365C95.5195 39.2217 95.5586 38.9873 95.5391 38.7334C95.5195 38.4697 95.4072 38.1816 95.2021 37.8691C95.0166 37.6445 94.792 37.4688 94.5283 37.3418C94.2939 37.2344 93.9961 37.166 93.6348 37.1367C93.2832 37.1074 92.8486 37.1904 92.3311 37.3857L92.2725 39.9639ZM101.179 32.083C101.667 32.1123 102.077 32.1367 102.409 32.1562C102.751 32.166 103.034 32.1758 103.259 32.1855C103.513 32.1953 103.728 32.1953 103.903 32.1855C104.079 32.1758 104.318 32.1514 104.621 32.1123C104.875 32.083 105.212 32.0391 105.632 31.9805C106.062 31.9121 106.594 31.8242 107.229 31.7168C107.004 31.9414 106.828 32.1465 106.701 32.332C106.584 32.5078 106.491 32.6592 106.423 32.7861C106.345 32.9424 106.291 33.0742 106.262 33.1816C106.242 33.2793 106.262 33.5234 106.32 33.9141C106.379 34.3047 106.462 34.7686 106.569 35.3057C106.677 35.833 106.794 36.3994 106.921 37.0049C107.048 37.6006 107.175 38.1621 107.302 38.6895C107.429 39.207 107.541 39.6514 107.639 40.0225C107.746 40.3838 107.824 40.5986 107.873 40.667C108.02 40.8721 108.112 41.0088 108.151 41.0771C108.19 41.1357 108.259 41.1895 108.356 41.2383C108.396 41.2578 108.459 41.2871 108.547 41.3262C108.625 41.3652 108.728 41.4141 108.854 41.4727C108.991 41.5312 109.162 41.5996 109.367 41.6777C108.986 41.6973 108.659 41.7119 108.386 41.7217C108.112 41.7217 107.888 41.7266 107.712 41.7363C107.507 41.7461 107.331 41.7559 107.185 41.7656C107.038 41.7656 106.862 41.7754 106.657 41.7949C106.481 41.8145 106.252 41.834 105.969 41.8535C105.695 41.873 105.373 41.8926 105.002 41.9121C105.197 41.7754 105.354 41.6533 105.471 41.5459C105.598 41.4287 105.695 41.3311 105.764 41.2529C105.842 41.1553 105.896 41.0674 105.925 40.9893C105.944 40.9014 105.959 40.7695 105.969 40.5938C105.979 40.4375 105.979 40.2324 105.969 39.9785C105.959 39.7148 105.935 39.373 105.896 38.9531L102.043 39.3486C101.945 39.5146 101.872 39.6611 101.823 39.7881C101.774 39.9053 101.74 40.0078 101.721 40.0957C101.691 40.2031 101.682 40.291 101.691 40.3594C101.711 40.4375 101.745 40.5303 101.794 40.6377C101.843 40.7354 101.911 40.8525 101.999 40.9893C102.097 41.1162 102.238 41.2676 102.424 41.4434C102.18 41.4336 101.931 41.4287 101.677 41.4287C101.423 41.4287 101.188 41.4336 100.974 41.4434C100.72 41.4531 100.471 41.4629 100.227 41.4727C99.9824 41.4824 99.7041 41.4971 99.3916 41.5166C99.1279 41.5361 98.8203 41.5605 98.4688 41.5898C98.1074 41.6094 97.7217 41.6387 97.3115 41.6777C97.5654 41.5605 97.7803 41.4434 97.9561 41.3262C98.1318 41.1992 98.2783 41.082 98.3955 40.9746C98.5322 40.8574 98.6494 40.7451 98.7471 40.6377C98.8154 40.54 98.9521 40.3154 99.1572 39.9639C99.3623 39.6025 99.5918 39.1777 99.8457 38.6895C100.109 38.2012 100.383 37.6787 100.666 37.1221C100.959 36.5654 101.223 36.043 101.457 35.5547C101.691 35.0566 101.882 34.627 102.028 34.2656C102.175 33.9043 102.248 33.6699 102.248 33.5625C102.229 33.4355 102.18 33.2939 102.102 33.1377C102.033 33.001 101.926 32.8447 101.779 32.6689C101.643 32.4932 101.442 32.2979 101.179 32.083ZM105.72 37.8691C105.661 37.5273 105.607 37.2344 105.559 36.9902C105.51 36.7363 105.471 36.5264 105.441 36.3604C105.402 36.165 105.373 35.9941 105.354 35.8477C105.324 35.7109 105.29 35.5352 105.251 35.3203C105.212 35.1348 105.163 34.9053 105.104 34.6318C105.056 34.3486 104.992 34.0117 104.914 33.6211C104.357 34.7344 103.923 35.5986 103.61 36.2139C103.308 36.8193 103.088 37.2637 102.951 37.5469C102.785 37.8789 102.692 38.0742 102.673 38.1328L105.72 37.8691ZM108.942 31.541C109.274 31.5898 109.567 31.624 109.821 31.6436C110.085 31.6631 110.305 31.6826 110.48 31.7021C110.686 31.7217 110.861 31.7314 111.008 31.7314H111.579C111.96 31.7314 112.59 31.7168 113.469 31.6875C113.254 31.7559 113.073 31.8535 112.927 31.9805C112.79 32.1074 112.678 32.2393 112.59 32.376C112.482 32.5322 112.404 32.6934 112.355 32.8594C112.297 33.0645 112.243 33.3379 112.194 33.6797C112.146 33.9824 112.097 34.3779 112.048 34.8662C112.009 35.3545 111.97 35.9648 111.931 36.6973C112.351 36.2188 112.717 35.7939 113.029 35.4229C113.352 35.0518 113.63 34.7246 113.864 34.4414C114.099 34.1582 114.294 33.9141 114.45 33.709C114.616 33.5039 114.753 33.3281 114.86 33.1816C115.114 32.8496 115.261 32.625 115.3 32.5078C115.31 32.4395 115.305 32.3564 115.285 32.2588C115.266 32.1807 115.236 32.0879 115.197 31.9805C115.158 31.8633 115.1 31.7363 115.021 31.5996C115.412 31.6191 115.744 31.6338 116.018 31.6436C116.301 31.6533 116.535 31.6631 116.721 31.6729C116.936 31.6826 117.111 31.6875 117.248 31.6875H117.863C118.088 31.6875 118.381 31.6875 118.742 31.6875C119.104 31.6777 119.558 31.668 120.104 31.6582C119.743 31.7461 119.401 31.8633 119.079 32.0098C118.757 32.1562 118.469 32.2979 118.215 32.4346C117.922 32.6006 117.648 32.7715 117.395 32.9473C117.141 33.1426 116.857 33.3721 116.545 33.6357C116.281 33.8604 115.974 34.1387 115.622 34.4707C115.271 34.793 114.89 35.1689 114.479 35.5986C114.919 36.458 115.3 37.166 115.622 37.7227C115.954 38.2695 116.232 38.709 116.457 39.041C116.711 39.4316 116.926 39.7295 117.102 39.9346C117.277 40.1201 117.482 40.3105 117.717 40.5059C117.912 40.6719 118.156 40.8574 118.449 41.0625C118.742 41.2578 119.079 41.4482 119.46 41.6338L115.285 41.8389C115.344 41.7607 115.378 41.668 115.388 41.5605C115.407 41.4434 115.417 41.3359 115.417 41.2383C115.417 41.1309 115.407 41.0137 115.388 40.8867C115.349 40.7305 115.246 40.4766 115.08 40.125C114.943 39.8223 114.733 39.3975 114.45 38.8506C114.167 38.2939 113.776 37.5615 113.278 36.6533L112.033 37.957C111.984 38.2695 111.96 38.5527 111.96 38.8066C111.96 39.0605 111.97 39.2705 111.989 39.4365C112.019 39.6416 112.058 39.8174 112.106 39.9639C112.165 40.1104 112.248 40.2764 112.355 40.4619C112.443 40.6279 112.561 40.8232 112.707 41.0479C112.854 41.2725 113.039 41.5215 113.264 41.7949C113.039 41.7363 112.814 41.6973 112.59 41.6777C112.365 41.6484 112.16 41.6289 111.975 41.6191C111.76 41.6094 111.555 41.6143 111.359 41.6338C111.154 41.6533 110.915 41.6826 110.642 41.7217C110.407 41.7607 110.119 41.8096 109.777 41.8682C109.436 41.9268 109.045 42 108.605 42.0879C108.82 41.9609 108.991 41.8242 109.118 41.6777C109.245 41.5312 109.348 41.3896 109.426 41.2529C109.514 41.0967 109.572 40.9453 109.602 40.7988C109.621 40.6719 109.636 40.3984 109.646 39.9785C109.665 39.5586 109.675 39.0703 109.675 38.5137C109.685 37.9473 109.685 37.3516 109.675 36.7266C109.665 36.1016 109.655 35.5156 109.646 34.9688C109.636 34.4219 109.621 33.958 109.602 33.5771C109.592 33.1865 109.582 32.9473 109.572 32.8594C109.543 32.7227 109.504 32.5762 109.455 32.4199C109.406 32.2832 109.338 32.1416 109.25 31.9951C109.172 31.8389 109.069 31.6875 108.942 31.541ZM117.629 31.9951C118.312 32.0146 118.879 32.0293 119.328 32.0391C119.787 32.0391 120.158 32.0391 120.441 32.0391H121.218H125.583C125.603 32.2344 125.617 32.4248 125.627 32.6104C125.646 32.7861 125.656 32.9424 125.656 33.0791C125.656 33.2451 125.651 33.3965 125.642 33.5332C125.632 33.6699 125.617 33.8164 125.598 33.9727C125.578 34.1094 125.559 34.2559 125.539 34.4121C125.52 34.5684 125.485 34.7295 125.437 34.8955C125.3 34.3682 125.114 33.9678 124.88 33.6943C124.655 33.4209 124.426 33.2207 124.191 33.0938C123.918 32.9473 123.63 32.8691 123.327 32.8594C122.927 32.8789 122.614 32.9131 122.39 32.9619C122.165 33.0107 121.989 33.0791 121.862 33.167C121.735 33.2549 121.638 33.3574 121.569 33.4746C121.511 33.582 121.447 33.7041 121.379 33.8408C121.32 33.958 121.267 34.1387 121.218 34.3828C121.169 34.5879 121.12 34.8662 121.071 35.2178C121.032 35.5693 120.988 36.0234 120.939 36.5801C121.203 36.502 121.413 36.4287 121.569 36.3604C121.735 36.292 121.867 36.2334 121.965 36.1846C122.072 36.126 122.15 36.0723 122.199 36.0234C122.238 35.9648 122.297 35.8574 122.375 35.7012C122.434 35.5645 122.512 35.3789 122.609 35.1445C122.717 34.9102 122.844 34.5879 122.99 34.1777C123.01 34.627 123.02 35.0029 123.02 35.3057C123.02 35.5986 123.024 35.8379 123.034 36.0234C123.034 36.2383 123.039 36.4092 123.049 36.5361V37.0928C123.049 37.2979 123.049 37.5762 123.049 37.9277C123.059 38.2695 123.073 38.7041 123.093 39.2314C122.976 38.8701 122.868 38.5869 122.771 38.3818C122.683 38.167 122.604 38.0059 122.536 37.8984C122.458 37.7715 122.39 37.6836 122.331 37.6348C122.263 37.6152 122.17 37.5957 122.053 37.5762C121.945 37.5664 121.809 37.5615 121.643 37.5615C121.486 37.5615 121.286 37.5859 121.042 37.6348C121.013 38.1719 121.008 38.6064 121.027 38.9385C121.057 39.2607 121.096 39.5098 121.145 39.6855C121.193 39.8906 121.252 40.0371 121.32 40.125C121.408 40.2129 121.584 40.2861 121.848 40.3447C122.111 40.3936 122.409 40.4131 122.741 40.4033C123.083 40.3838 123.43 40.3252 123.781 40.2275C124.133 40.1299 124.445 39.9688 124.719 39.7441C124.924 39.5586 125.144 39.3242 125.378 39.041C125.573 38.7969 125.788 38.4893 126.022 38.1182C126.267 37.7471 126.506 37.2979 126.74 36.7705C126.701 37.21 126.672 37.5762 126.652 37.8691C126.643 38.1523 126.628 38.3818 126.608 38.5576C126.589 38.7627 126.574 38.9189 126.564 39.0264C126.564 39.1436 126.55 39.3096 126.521 39.5244C126.501 39.71 126.467 39.9639 126.418 40.2861C126.379 40.5986 126.325 40.999 126.257 41.4873C125.798 41.4971 125.363 41.5068 124.953 41.5166C124.543 41.5166 124.182 41.5215 123.869 41.5312C123.498 41.541 123.156 41.5508 122.844 41.5605C122.521 41.5605 122.165 41.5752 121.774 41.6045C121.433 41.624 121.027 41.6533 120.559 41.6924C120.1 41.7314 119.592 41.7852 119.035 41.8535C119.084 41.1895 119.118 40.5645 119.138 39.9785C119.167 39.3828 119.187 38.8604 119.196 38.4111C119.206 37.8838 119.206 37.3955 119.196 36.9463C119.245 35.8232 119.226 34.915 119.138 34.2217C119.05 33.5283 118.947 33.084 118.83 32.8887C118.771 32.8203 118.688 32.7373 118.581 32.6396C118.493 32.5615 118.371 32.4688 118.215 32.3613C118.059 32.2539 117.863 32.1318 117.629 31.9951Z" fill="white"/>
</svg>
