<svg width="139" height="72" viewBox="0 0 139 72" fill="none" xmlns="http://www.w3.org/2000/svg">
<rect x="0.5" y="0.5" width="138" height="71" rx="14.5" fill="black" stroke="white"/>
<rect x="12" y="14" width="44" height="45" rx="4" fill="black" stroke="white" stroke-width="2"/>
<rect x="14" y="17" width="21" height="45" rx="4" fill="black" stroke="black" stroke-width="2"/>
<path d="M31.2929 57.2929C30.9024 57.6834 30.9024 58.3166 31.2929 58.7071L37.6569 65.0711C38.0474 65.4616 38.6805 65.4616 39.0711 65.0711C39.4616 64.6805 39.4616 64.0474 39.0711 63.6569L33.4142 58L39.0711 52.3431C39.4616 51.9526 39.4616 51.3195 39.0711 50.9289C38.6805 50.5384 38.0474 50.5384 37.6569 50.9289L31.2929 57.2929ZM54 57H32V59H54V57Z" fill="white"/>
<path d="M77.6875 31.8281C78.0208 31.9115 78.3385 31.974 78.6406 32.0156C78.9427 32.0573 79.2083 32.0885 79.4375 32.1094C79.7083 32.1406 79.9583 32.151 80.1875 32.1406C80.4792 32.1406 80.8438 32.1146 81.2812 32.0625C81.7292 32.0104 82.1875 31.9635 82.6562 31.9219C83.125 31.8698 83.5729 31.8385 84 31.8281C84.4375 31.8073 84.7917 31.8333 85.0625 31.9062C85.3333 31.9688 85.6094 32.0677 85.8906 32.2031C86.1823 32.3281 86.4479 32.4896 86.6875 32.6875C86.9271 32.875 87.125 33.099 87.2812 33.3594C87.4375 33.6094 87.526 33.8958 87.5469 34.2188C87.5365 34.625 87.4427 35.0052 87.2656 35.3594C87.1198 35.6615 86.875 35.974 86.5312 36.2969C86.1875 36.6094 85.6927 36.849 85.0469 37.0156C85.3698 37.0573 85.6458 37.1302 85.875 37.2344C86.1146 37.3281 86.3177 37.4427 86.4844 37.5781C86.6615 37.7031 86.8021 37.8438 86.9062 38C87.0208 38.1562 87.1094 38.3125 87.1719 38.4688C87.3281 38.8333 87.401 39.2396 87.3906 39.6875C87.3281 40.2708 87.2083 40.7344 87.0312 41.0781C86.8646 41.4219 86.6719 41.6875 86.4531 41.875C86.2344 42.0625 86.0104 42.1927 85.7812 42.2656C85.5521 42.3385 85.3438 42.3958 85.1562 42.4375C84.9688 42.4792 84.7396 42.5 84.4688 42.5C84.1979 42.5 83.9062 42.4948 83.5938 42.4844C83.2917 42.4635 82.9792 42.4479 82.6562 42.4375C82.3333 42.4167 82.026 42.4167 81.7344 42.4375C81.4948 42.4583 81.2031 42.4792 80.8594 42.5C80.5677 42.5208 80.2031 42.5469 79.7656 42.5781C79.3281 42.599 78.8177 42.625 78.2344 42.6562C78.349 42.5729 78.4427 42.4792 78.5156 42.375C78.599 42.2604 78.6667 42.1615 78.7188 42.0781C78.7708 41.974 78.8177 41.875 78.8594 41.7812C78.8906 41.6979 78.9167 41.4688 78.9375 41.0938C78.9583 40.7188 78.974 40.2708 78.9844 39.75C78.9948 39.2188 79 38.651 79 38.0469C79.0104 37.4323 79.0052 36.8438 78.9844 36.2812C78.974 35.7083 78.9531 35.2031 78.9219 34.7656C78.901 34.3177 78.8698 33.9948 78.8281 33.7969C78.7656 33.5781 78.6823 33.3542 78.5781 33.125C78.4948 32.9271 78.375 32.7135 78.2188 32.4844C78.0729 32.2552 77.8958 32.0365 77.6875 31.8281ZM80.9844 33.4219C80.9844 33.4635 80.9896 33.6042 81 33.8438C81.0104 34.0521 81.0208 34.375 81.0312 34.8125C81.0521 35.2396 81.0781 35.849 81.1094 36.6406C81.3698 36.7552 81.625 36.8177 81.875 36.8281C82.125 36.8281 82.349 36.8177 82.5469 36.7969C82.776 36.7656 82.9948 36.7135 83.2031 36.6406C83.4844 36.526 83.7031 36.3385 83.8594 36.0781C84.026 35.8177 84.1354 35.5469 84.1875 35.2656C84.25 34.974 84.2656 34.7031 84.2344 34.4531C84.2031 34.1927 84.1354 34.0052 84.0312 33.8906C83.8333 33.7135 83.5885 33.5677 83.2969 33.4531C83.0469 33.3594 82.7292 33.2969 82.3438 33.2656C81.9688 33.224 81.5156 33.276 80.9844 33.4219ZM80.9062 40.8281C81.2917 41.026 81.6302 41.1562 81.9219 41.2188C82.2135 41.2812 82.4583 41.3125 82.6562 41.3125C82.8854 41.3125 83.0833 41.2812 83.25 41.2188C83.4479 41.125 83.6406 41 83.8281 40.8438C84.026 40.6771 84.1719 40.4844 84.2656 40.2656C84.3698 40.0365 84.4115 39.7865 84.3906 39.5156C84.3698 39.2344 84.25 38.9271 84.0312 38.5938C83.8333 38.3542 83.5938 38.1667 83.3125 38.0312C83.0625 37.9167 82.7448 37.8438 82.3594 37.8125C81.9844 37.7812 81.5208 37.8698 80.9688 38.0781L80.9062 40.8281ZM90.4062 32.4219C90.9271 32.4531 91.3646 32.4792 91.7188 32.5C92.0833 32.5104 92.3854 32.5208 92.625 32.5312C92.8958 32.5417 93.125 32.5417 93.3125 32.5312C93.5 32.5208 93.7552 32.4948 94.0781 32.4531C94.349 32.4219 94.7083 32.375 95.1562 32.3125C95.6146 32.2396 96.1823 32.1458 96.8594 32.0312C96.6198 32.2708 96.4323 32.4896 96.2969 32.6875C96.1719 32.875 96.0729 33.0365 96 33.1719C95.9167 33.3385 95.8594 33.4792 95.8281 33.5938C95.8073 33.6979 95.8281 33.9583 95.8906 34.375C95.9531 34.7917 96.0417 35.2865 96.1562 35.8594C96.2708 36.4219 96.3958 37.026 96.5312 37.6719C96.6667 38.3073 96.8021 38.9062 96.9375 39.4688C97.0729 40.0208 97.1927 40.4948 97.2969 40.8906C97.4115 41.276 97.4948 41.5052 97.5469 41.5781C97.7031 41.7969 97.8021 41.9427 97.8438 42.0156C97.8854 42.0781 97.9583 42.1354 98.0625 42.1875C98.1042 42.2083 98.1719 42.2396 98.2656 42.2812C98.349 42.3229 98.4583 42.375 98.5938 42.4375C98.7396 42.5 98.9219 42.5729 99.1406 42.6562C98.7344 42.6771 98.3854 42.6927 98.0938 42.7031C97.8021 42.7031 97.5625 42.7083 97.375 42.7188C97.1562 42.7292 96.9688 42.7396 96.8125 42.75C96.6562 42.75 96.4688 42.7604 96.25 42.7812C96.0625 42.8021 95.8177 42.8229 95.5156 42.8438C95.224 42.8646 94.8802 42.8854 94.4844 42.9062C94.6927 42.7604 94.8594 42.6302 94.9844 42.5156C95.1198 42.3906 95.224 42.2865 95.2969 42.2031C95.3802 42.099 95.4375 42.0052 95.4688 41.9219C95.4896 41.8281 95.5052 41.6875 95.5156 41.5C95.526 41.3333 95.526 41.1146 95.5156 40.8438C95.5052 40.5625 95.4792 40.1979 95.4375 39.75L91.3281 40.1719C91.224 40.349 91.1458 40.5052 91.0938 40.6406C91.0417 40.7656 91.0052 40.875 90.9844 40.9688C90.9531 41.0833 90.9427 41.1771 90.9531 41.25C90.974 41.3333 91.0104 41.4323 91.0625 41.5469C91.1146 41.651 91.1875 41.776 91.2812 41.9219C91.3854 42.0573 91.5365 42.2188 91.7344 42.4062C91.474 42.3958 91.2083 42.3906 90.9375 42.3906C90.6667 42.3906 90.4167 42.3958 90.1875 42.4062C89.9167 42.4167 89.651 42.4271 89.3906 42.4375C89.1302 42.4479 88.8333 42.4635 88.5 42.4844C88.2188 42.5052 87.8906 42.5312 87.5156 42.5625C87.1302 42.5833 86.7188 42.6146 86.2812 42.6562C86.5521 42.5312 86.7812 42.4062 86.9688 42.2812C87.1562 42.1458 87.3125 42.0208 87.4375 41.9062C87.5833 41.7812 87.7083 41.6615 87.8125 41.5469C87.8854 41.4427 88.0312 41.2031 88.25 40.8281C88.4688 40.4427 88.7135 39.9896 88.9844 39.4688C89.2656 38.9479 89.5573 38.3906 89.8594 37.7969C90.1719 37.2031 90.4531 36.6458 90.7031 36.125C90.9531 35.5938 91.1562 35.1354 91.3125 34.75C91.4688 34.3646 91.5469 34.1146 91.5469 34C91.526 33.8646 91.474 33.7135 91.3906 33.5469C91.3177 33.401 91.2031 33.2344 91.0469 33.0469C90.901 32.8594 90.6875 32.651 90.4062 32.4219ZM95.25 38.5938C95.1875 38.2292 95.1302 37.9167 95.0781 37.6562C95.026 37.3854 94.9844 37.1615 94.9531 36.9844C94.9115 36.776 94.8802 36.5938 94.8594 36.4375C94.8281 36.2917 94.7917 36.1042 94.75 35.875C94.7083 35.6771 94.6562 35.4323 94.5938 35.1406C94.5417 34.8385 94.474 34.4792 94.3906 34.0625C93.7969 35.25 93.3333 36.1719 93 36.8281C92.6771 37.474 92.4427 37.9479 92.2969 38.25C92.1198 38.6042 92.0208 38.8125 92 38.875L95.25 38.5938ZM103.062 31.4531C103.427 31.4531 103.755 31.5156 104.047 31.6406C104.349 31.7552 104.625 31.8854 104.875 32.0312C105.135 32.1771 105.38 32.3125 105.609 32.4375C105.839 32.5521 106.073 32.6094 106.312 32.6094C106.5 32.599 106.714 32.5729 106.953 32.5312C107.161 32.4896 107.401 32.4271 107.672 32.3438C107.953 32.25 108.266 32.1146 108.609 31.9375C108.266 32.2708 107.984 32.5521 107.766 32.7812C107.557 33 107.396 33.1823 107.281 33.3281C107.146 33.4948 107.047 33.625 106.984 33.7188C106.922 33.8333 106.828 34.0052 106.703 34.2344C106.589 34.4427 106.432 34.724 106.234 35.0781C106.036 35.4219 105.786 35.875 105.484 36.4375C105.484 35.7188 105.411 35.1615 105.266 34.7656C105.13 34.3698 104.979 34.0677 104.812 33.8594C104.615 33.6198 104.391 33.4688 104.141 33.4062C103.911 33.375 103.682 33.4167 103.453 33.5312C103.224 33.6354 102.995 33.7917 102.766 34C102.547 34.2083 102.333 34.4583 102.125 34.75C101.927 35.0312 101.745 35.3281 101.578 35.6406C101.422 35.9531 101.292 36.2708 101.188 36.5938C101.083 36.9062 101.016 37.1979 100.984 37.4688C100.953 37.7083 100.948 37.9896 100.969 38.3125C100.99 38.625 101.036 38.9479 101.109 39.2812C101.182 39.6042 101.276 39.9219 101.391 40.2344C101.505 40.5469 101.646 40.8281 101.812 41.0781C101.99 41.3177 102.188 41.5156 102.406 41.6719C102.625 41.8177 102.875 41.8854 103.156 41.875C103.469 41.8542 103.776 41.7604 104.078 41.5938C104.339 41.4583 104.604 41.25 104.875 40.9688C105.146 40.6771 105.38 40.2656 105.578 39.7344L107.891 40.1562C107.224 40.9688 106.573 41.5781 105.938 41.9844C105.312 42.3906 104.75 42.6771 104.25 42.8438C103.667 43.0312 103.115 43.1198 102.594 43.1094C101.938 43.0365 101.323 42.8385 100.75 42.5156C100.177 42.1927 99.6823 41.8021 99.2656 41.3438C98.8594 40.875 98.5417 40.3646 98.3125 39.8125C98.0833 39.2604 97.9844 38.7188 98.0156 38.1875C98.0365 37.8333 98.1094 37.4219 98.2344 36.9531C98.3594 36.474 98.526 35.9844 98.7344 35.4844C98.9531 34.9844 99.2135 34.4948 99.5156 34.0156C99.8177 33.5365 100.151 33.1094 100.516 32.7344C100.88 32.349 101.276 32.0417 101.703 31.8125C102.141 31.5729 102.594 31.4531 103.062 31.4531ZM108.172 31.8438C108.526 31.8958 108.839 31.9323 109.109 31.9531C109.391 31.974 109.625 31.9948 109.812 32.0156C110.031 32.0365 110.219 32.0469 110.375 32.0469H110.984C111.391 32.0469 112.062 32.0312 113 32C112.771 32.0729 112.578 32.1771 112.422 32.3125C112.276 32.4479 112.156 32.5885 112.062 32.7344C111.948 32.901 111.865 33.0729 111.812 33.25C111.75 33.4688 111.693 33.7604 111.641 34.125C111.589 34.4479 111.536 34.8698 111.484 35.3906C111.443 35.9115 111.401 36.5625 111.359 37.3438C111.807 36.8333 112.198 36.3802 112.531 35.9844C112.875 35.5885 113.172 35.2396 113.422 34.9375C113.672 34.6354 113.88 34.375 114.047 34.1562C114.224 33.9375 114.37 33.75 114.484 33.5938C114.755 33.2396 114.911 33 114.953 32.875C114.964 32.8021 114.958 32.7135 114.938 32.6094C114.917 32.526 114.885 32.4271 114.844 32.3125C114.802 32.1875 114.74 32.0521 114.656 31.9062C115.073 31.9271 115.427 31.9427 115.719 31.9531C116.021 31.9635 116.271 31.974 116.469 31.9844C116.698 31.9948 116.885 32 117.031 32H117.688C117.927 32 118.24 32 118.625 32C119.01 31.9896 119.495 31.9792 120.078 31.9688C119.693 32.0625 119.328 32.1875 118.984 32.3438C118.641 32.5 118.333 32.651 118.062 32.7969C117.75 32.974 117.458 33.1562 117.188 33.3438C116.917 33.5521 116.615 33.7969 116.281 34.0781C116 34.3177 115.672 34.6146 115.297 34.9688C114.922 35.3125 114.516 35.7135 114.078 36.1719C114.547 37.0885 114.953 37.8438 115.297 38.4375C115.651 39.0208 115.948 39.4896 116.188 39.8438C116.458 40.2604 116.688 40.5781 116.875 40.7969C117.062 40.9948 117.281 41.1979 117.531 41.4062C117.74 41.5833 118 41.7812 118.312 42C118.625 42.2083 118.984 42.4115 119.391 42.6094L114.938 42.8281C115 42.7448 115.036 42.6458 115.047 42.5312C115.068 42.4062 115.078 42.2917 115.078 42.1875C115.078 42.0729 115.068 41.9479 115.047 41.8125C115.005 41.6458 114.896 41.375 114.719 41C114.573 40.6771 114.349 40.224 114.047 39.6406C113.745 39.0469 113.328 38.2656 112.797 37.2969L111.469 38.6875C111.417 39.0208 111.391 39.3229 111.391 39.5938C111.391 39.8646 111.401 40.0885 111.422 40.2656C111.453 40.4844 111.495 40.6719 111.547 40.8281C111.609 40.9844 111.698 41.1615 111.812 41.3594C111.906 41.5365 112.031 41.7448 112.188 41.9844C112.344 42.224 112.542 42.4896 112.781 42.7812C112.542 42.7188 112.302 42.6771 112.062 42.6562C111.823 42.625 111.604 42.6042 111.406 42.5938C111.177 42.5833 110.958 42.5885 110.75 42.6094C110.531 42.6302 110.276 42.6615 109.984 42.7031C109.734 42.7448 109.427 42.7969 109.062 42.8594C108.698 42.9219 108.281 43 107.812 43.0938C108.042 42.9583 108.224 42.8125 108.359 42.6562C108.495 42.5 108.604 42.349 108.688 42.2031C108.781 42.0365 108.844 41.875 108.875 41.7188C108.896 41.5833 108.911 41.2917 108.922 40.8438C108.943 40.3958 108.953 39.875 108.953 39.2812C108.964 38.6771 108.964 38.0417 108.953 37.375C108.943 36.7083 108.932 36.0833 108.922 35.5C108.911 34.9167 108.896 34.4219 108.875 34.0156C108.865 33.599 108.854 33.3438 108.844 33.25C108.812 33.1042 108.771 32.9479 108.719 32.7812C108.667 32.6354 108.594 32.4844 108.5 32.3281C108.417 32.1615 108.307 32 108.172 31.8438Z" fill="white"/>
</svg>
