<svg width="88" height="81" viewBox="0 0 88 81" fill="none" xmlns="http://www.w3.org/2000/svg">
<path d="M87.5 40.5C87.5 18.4468 68.0642 0.5 44 0.5C19.9358 0.5 0.5 18.4468 0.5 40.5C0.5 62.5532 19.9358 80.5 44 80.5C68.0642 80.5 87.5 62.5532 87.5 40.5Z" fill="white" stroke="black"/>
<path d="M60.4118 71.5C56.9926 71.5 54.0864 70.1875 51.693 67.5625C49.2996 64.9375 48.1029 61.75 48.1029 58C48.1029 54.25 49.2996 51.0625 51.693 48.4375C54.0864 45.8125 56.9926 44.5 60.4118 44.5C60.7309 44.5 61.0443 44.5125 61.352 44.5375C61.6597 44.5625 61.9618 44.6 62.2581 44.65C61.3235 45.375 60.577 46.3188 60.0186 47.4813C59.4601 48.6438 59.1809 49.9 59.1809 51.25C59.1809 53.5 59.8989 55.4125 61.3349 56.9875C62.7709 58.5625 64.5147 59.35 66.5662 59.35C67.8198 59.35 68.9709 59.0438 70.0195 58.4313C71.068 57.8188 71.9228 57 72.5838 55.975C72.6294 56.3 72.6636 56.6313 72.6864 56.9688C72.7092 57.3062 72.7206 57.65 72.7206 58C72.7206 61.75 71.5239 64.9375 69.1305 67.5625C66.7371 70.1875 63.8309 71.5 60.4118 71.5ZM60.4118 68.5C62.4176 68.5 64.2184 67.8938 65.814 66.6813C67.4096 65.4688 68.5721 63.8875 69.3015 61.9375C68.8456 62.0625 68.3897 62.1625 67.9338 62.2375C67.4779 62.3125 67.0221 62.35 66.5662 62.35C63.7625 62.35 61.3748 61.2688 59.4031 59.1063C57.4314 56.9438 56.4456 54.325 56.4456 51.25C56.4456 50.75 56.4798 50.25 56.5482 49.75C56.6165 49.25 56.7077 48.75 56.8217 48.25C55.0437 49.05 53.602 50.325 52.4965 52.075C51.391 53.825 50.8382 55.8 50.8382 58C50.8382 60.9 51.7728 63.375 53.6419 65.425C55.511 67.475 57.7676 68.5 60.4118 68.5Z" fill="#1D1B20"/>
<path d="M30 30.5C31.25 30.5 32.3125 30.0625 33.1875 29.1875C34.0625 28.3125 34.5 27.25 34.5 26C34.5 24.75 34.0625 23.6875 33.1875 22.8125C32.3125 21.9375 31.25 21.5 30 21.5C28.75 21.5 27.6875 21.9375 26.8125 22.8125C25.9375 23.6875 25.5 24.75 25.5 26C25.5 27.25 25.9375 28.3125 26.8125 29.1875C27.6875 30.0625 28.75 30.5 30 30.5ZM30 33.5C27.925 33.5 26.1562 32.7688 24.6938 31.3063C23.2312 29.8438 22.5 28.075 22.5 26C22.5 23.925 23.2312 22.1562 24.6938 20.6938C26.1562 19.2312 27.925 18.5 30 18.5C32.075 18.5 33.8438 19.2312 35.3063 20.6938C36.7688 22.1562 37.5 23.925 37.5 26C37.5 28.075 36.7688 29.8438 35.3063 31.3063C33.8438 32.7688 32.075 33.5 30 33.5ZM19.5 27.5H13.5V24.5H19.5V27.5ZM46.5 27.5H40.5V24.5H46.5V27.5ZM28.5 15.5V9.5H31.5V15.5H28.5ZM28.5 42.5V36.5H31.5V42.5H28.5ZM21.6 19.625L17.8125 15.9875L19.95 13.775L23.55 17.525L21.6 19.625ZM40.05 38.225L36.4125 34.4375L38.4 32.375L42.1875 36.0125L40.05 38.225ZM36.375 17.6L40.0125 13.8125L42.225 15.95L38.475 19.55L36.375 17.6ZM17.775 36.05L21.5625 32.4125L23.625 34.4L19.9875 38.1875L17.775 36.05Z" fill="#1D1B20"/>
<line x1="19.3365" y1="66.2518" x2="72.3365" y2="19.2518" stroke="black" stroke-width="2"/>
</svg>
