<svg width="88" height="81" viewBox="0 0 88 81" fill="none" xmlns="http://www.w3.org/2000/svg">
<path d="M87.5 40.5C87.5 18.4468 68.0642 0.5 44 0.5C19.9358 0.5 0.5 18.4468 0.5 40.5C0.5 62.5532 19.9358 80.5 44 80.5C68.0642 80.5 87.5 62.5532 87.5 40.5Z" fill="black" stroke="white"/>
<path d="M69.7698 63.1127L70.1124 62.1967L69.1692 62.4553C68.7298 62.5758 68.2909 62.672 67.8527 62.7441C67.4232 62.8148 66.9945 62.85 66.5662 62.85C63.9099 62.85 61.6542 61.8331 59.7726 59.7694C57.8894 57.704 56.9456 55.2073 56.9456 52.25C56.9456 51.7729 56.9782 51.2955 57.0435 50.8178C57.1099 50.3326 57.1984 49.847 57.3092 49.3611L57.5324 48.3819L56.6165 48.794C54.7435 49.6368 53.2283 50.9804 52.0738 52.808C50.9146 54.643 50.3382 56.7117 50.3382 59C50.3382 62.0184 51.3152 64.6153 53.2724 66.7619C55.231 68.91 57.6194 70 60.4118 70C62.5268 70 64.4338 69.358 66.1165 68.0793C67.7903 66.8074 69.0086 65.1475 69.7698 63.1127ZM60.4118 72C57.1393 72 54.3653 70.7513 52.0625 68.2256C49.7581 65.6982 48.6029 62.633 48.6029 59C48.6029 55.367 49.7581 52.3018 52.0625 49.7744C54.3653 47.2487 57.1393 46 60.4118 46C60.6453 46 60.8753 46.007 61.1017 46.0209C60.49 46.6595 59.9791 47.4088 59.5679 48.2647C58.9754 49.498 58.6809 50.8286 58.6809 52.25C58.6809 54.617 59.4405 56.6518 60.9654 58.3244C62.492 59.9987 64.368 60.85 66.5662 60.85C67.9055 60.85 69.1441 60.5217 70.2717 59.863C71.0043 59.435 71.6489 58.9117 72.2042 58.2944C72.2151 58.5263 72.2206 58.7615 72.2206 59C72.2206 62.633 71.0655 65.6982 68.761 68.2256C66.4582 70.7513 63.6842 72 60.4118 72Z" fill="white" stroke="white"/>
<path d="M30 32C31.3811 32 32.5712 31.5109 33.5411 30.5411C34.5109 29.5712 35 28.3811 35 27C35 25.6189 34.5109 24.4288 33.5411 23.4589C32.5712 22.4891 31.3811 22 30 22C28.6189 22 27.4288 22.4891 26.4589 23.4589C25.4891 24.4288 25 25.6189 25 27C25 28.3811 25.4891 29.5712 26.4589 30.5411C27.4288 31.5109 28.6189 32 30 32ZM30 34C28.0571 34 26.4157 33.3211 25.0473 31.9527C23.6789 30.5843 23 28.9429 23 27C23 25.0571 23.6789 23.4157 25.0473 22.0473C26.4157 20.6789 28.0571 20 30 20C31.9429 20 33.5843 20.6789 34.9527 22.0473C36.3211 23.4157 37 25.0571 37 27C37 28.9429 36.3211 30.5843 34.9527 31.9527C33.5843 33.3211 31.9429 34 30 34ZM19 28H14V26H19V28ZM46 28H41V26H46V28ZM29 16V11H31V16H29ZM29 43V38H31V43H29ZM22.8624 18.5307L21.5796 19.9122L18.5205 16.9742L19.9489 15.4958L22.8624 18.5307ZM38.4137 34.0814L41.4795 37.0258L40.0511 38.5043L37.1063 35.4381L38.4137 34.0814ZM38.4693 19.8624L37.0878 18.5796L40.0258 15.5205L41.5042 16.9489L38.4693 19.8624ZM22.9186 35.4137L19.9742 38.4795L18.4957 37.0511L21.5619 34.1063L22.9186 35.4137Z" fill="white" stroke="white"/>
<line x1="19.3365" y1="67.2518" x2="72.3365" y2="20.2518" stroke="white" stroke-width="2"/>
</svg>
