<svg width="88" height="81" viewBox="0 0 88 81" fill="none" xmlns="http://www.w3.org/2000/svg">
<path d="M87.5 40.5C87.5 62.5532 68.0642 80.5 44 80.5C19.9358 80.5 0.5 62.5532 0.5 40.5C0.5 18.4468 19.9358 0.5 44 0.5C68.0642 0.5 87.5 18.4468 87.5 40.5Z" fill="black" stroke="white"/>
<g clip-path="url(#clip0_22_1877)">
<path d="M48.3246 55.8358L53.2482 34.1318L65.2743 31.4992L73.5911 38.6466L71.5451 49.8559L48.3246 55.8358ZM48.3246 55.8358L60.1858 44.1686M75.2544 40.076L63.6109 30.0698L68.3016 25.4558L79.9451 35.4621L75.2544 40.076ZM62.2968 39.0264C64.079 38.9665 65.5684 40.2465 65.6236 41.8853C65.6787 43.5242 64.2786 44.9014 62.4964 44.9613C60.7143 45.0212 59.2248 43.7413 59.1697 42.1024C59.1146 40.4635 60.5147 39.0863 62.2968 39.0264Z" stroke="white" stroke-width="4" stroke-linecap="round" stroke-linejoin="round"/>
</g>
<path d="M23.5048 39.25C26.3916 34.25 33.6084 34.25 36.4952 39.25L44.2894 52.75C47.1762 57.75 43.5677 64 37.7942 64H22.2058C16.4323 64 12.8238 57.75 15.7106 52.75L23.5048 39.25Z" fill="white"/>
<path d="M23.5048 39.25C26.3916 34.25 33.6084 34.25 36.4952 39.25L44.2894 52.75C47.1762 57.75 43.5677 64 37.7942 64H22.2058C16.4323 64 12.8238 57.75 15.7106 52.75L23.5048 39.25Z" fill="white"/>
<path d="M23.5048 39.25C26.3916 34.25 33.6084 34.25 36.4952 39.25L44.2894 52.75C47.1762 57.75 43.5677 64 37.7942 64H22.2058C16.4323 64 12.8238 57.75 15.7106 52.75L23.5048 39.25Z" stroke="white"/>
<path d="M47.5294 26.5556C47.5294 34.4376 39.8522 41.1111 30 41.1111C20.1477 41.1111 12.4706 34.4376 12.4706 26.5556C12.4706 18.6735 20.1477 12 30 12C39.8522 12 47.5294 18.6735 47.5294 26.5556Z" fill="white" stroke="white" stroke-width="2"/>
<defs>
<clipPath id="clip0_22_1877">
<rect width="35.6296" height="38.7449" fill="white" transform="translate(45.1975 58.9117) rotate(-91.9261)"/>
</clipPath>
</defs>
</svg>
