<svg width="88" height="81" viewBox="0 0 88 81" fill="none" xmlns="http://www.w3.org/2000/svg">
<path d="M87.5 40.5C87.5 18.4468 68.0642 0.5 44 0.5C19.9358 0.5 0.5 18.4468 0.5 40.5C0.5 62.5532 19.9358 80.5 44 80.5C68.0642 80.5 87.5 62.5532 87.5 40.5Z" fill="white" stroke="black"/>
<path d="M34.5 24.5C34.5 26.6609 32.5361 28.5 30 28.5C27.4639 28.5 25.5 26.6609 25.5 24.5C25.5 22.3391 27.4639 20.5 30 20.5C32.5361 20.5 34.5 22.3391 34.5 24.5Z" fill="white" stroke="black"/>
<path d="M62.5 40.5C62.5 42.6609 60.5361 44.5 58 44.5C55.4639 44.5 53.5 42.6609 53.5 40.5C53.5 38.3391 55.4639 36.5 58 36.5C60.5361 36.5 62.5 38.3391 62.5 40.5Z" fill="white" stroke="black"/>
<path d="M44.5 58.5C44.5 60.6609 42.5361 62.5 40 62.5C37.4639 62.5 35.5 60.6609 35.5 58.5C35.5 56.3391 37.4639 54.5 40 54.5C42.5361 54.5 44.5 56.3391 44.5 58.5Z" fill="white" stroke="black"/>
<line x1="34.9982" y1="24.6271" x2="70.0122" y2="24.5" stroke="black"/>
<line x1="14.9999" y1="40.5" x2="52.9998" y2="40.4907" stroke="black"/>
<line x1="14.9936" y1="24.6271" x2="24.9936" y2="24.5" stroke="black"/>
<line x1="44.9975" y1="58.6271" x2="69.9975" y2="58.5" stroke="black"/>
<line x1="15" y1="58.5" x2="35" y2="58.5" stroke="black"/>
<line x1="62.9909" y1="40.6272" x2="69.9909" y2="40.5001" stroke="black"/>
<path d="M34.5 24.5C34.5 26.6609 32.5361 28.5 30 28.5C27.4639 28.5 25.5 26.6609 25.5 24.5C25.5 22.3391 27.4639 20.5 30 20.5C32.5361 20.5 34.5 22.3391 34.5 24.5Z" fill="white" stroke="black"/>
<path d="M62.5 40.5C62.5 42.6609 60.5361 44.5 58 44.5C55.4639 44.5 53.5 42.6609 53.5 40.5C53.5 38.3391 55.4639 36.5 58 36.5C60.5361 36.5 62.5 38.3391 62.5 40.5Z" fill="white" stroke="black"/>
<path d="M44.5 58.5C44.5 60.6609 42.5361 62.5 40 62.5C37.4639 62.5 35.5 60.6609 35.5 58.5C35.5 56.3391 37.4639 54.5 40 54.5C42.5361 54.5 44.5 56.3391 44.5 58.5Z" fill="white" stroke="black"/>
<line x1="34.9982" y1="24.6271" x2="70.0122" y2="24.5" stroke="black"/>
<line x1="14.9999" y1="40.5" x2="52.9998" y2="40.4907" stroke="black"/>
<line x1="14.9936" y1="24.6271" x2="24.9936" y2="24.5" stroke="black"/>
<line x1="44.9975" y1="58.6271" x2="69.9975" y2="58.5" stroke="black"/>
<line x1="15" y1="58.5" x2="35" y2="58.5" stroke="black"/>
<line x1="62.9909" y1="40.6272" x2="69.9909" y2="40.5001" stroke="black"/>
</svg>
