<svg width="88" height="81" viewBox="0 0 88 81" fill="none" xmlns="http://www.w3.org/2000/svg">
<path d="M87.5 40.5C87.5 18.4468 68.0642 0.5 44 0.5C19.9358 0.5 0.5 18.4468 0.5 40.5C0.5 62.5532 19.9358 80.5 44 80.5C68.0642 80.5 87.5 62.5532 87.5 40.5Z" fill="black" stroke="white"/>
<path d="M35.5 23.5C35.5 25.6609 33.5361 27.5 31 27.5C28.4639 27.5 26.5 25.6609 26.5 23.5C26.5 21.3391 28.4639 19.5 31 19.5C33.5361 19.5 35.5 21.3391 35.5 23.5Z" fill="black" stroke="white"/>
<path d="M63.5 39.5C63.5 41.6609 61.5361 43.5 59 43.5C56.4639 43.5 54.5 41.6609 54.5 39.5C54.5 37.3391 56.4639 35.5 59 35.5C61.5361 35.5 63.5 37.3391 63.5 39.5Z" fill="black" stroke="white"/>
<path d="M45.5 57.5C45.5 59.6609 43.5361 61.5 41 61.5C38.4639 61.5 36.5 59.6609 36.5 57.5C36.5 55.3391 38.4639 53.5 41 53.5C43.5361 53.5 45.5 55.3391 45.5 57.5Z" fill="black" stroke="white"/>
<line x1="35.9982" y1="23.6271" x2="71.0122" y2="23.5" stroke="white"/>
<line x1="15.9999" y1="39.5" x2="53.9998" y2="39.4907" stroke="white"/>
<line x1="15.9936" y1="23.6271" x2="25.9936" y2="23.5" stroke="white"/>
<line x1="45.9975" y1="57.6271" x2="70.9975" y2="57.5" stroke="white"/>
<line x1="16" y1="57.5" x2="36" y2="57.5" stroke="white"/>
<line x1="63.9909" y1="39.6272" x2="70.9909" y2="39.5001" stroke="white"/>
</svg>
