<svg width="88" height="81" viewBox="0 0 88 81" fill="none" xmlns="http://www.w3.org/2000/svg">
<path d="M87.5 40.5C87.5 18.4468 68.0642 0.5 44 0.5C19.9358 0.5 0.5 18.4468 0.5 40.5C0.5 62.5532 19.9358 80.5 44 80.5C68.0642 80.5 87.5 62.5532 87.5 40.5Z" fill="black" stroke="white"/>
<path d="M41.0469 72.0625L46.4844 72.2969C46.2344 71.5469 46.0312 70.8594 45.875 70.2344C45.75 69.6406 45.6562 69.125 45.5938 68.6875C45.5 68.1562 45.4531 67.6875 45.4531 67.2812V65.9219C45.4531 65.4844 45.4375 65 45.4062 64.4688C45.375 63.9375 45.3438 63.3594 45.3125 62.7344C46.4375 62.7656 47.3906 62.7969 48.1719 62.8281C48.9844 62.8594 49.6562 62.875 50.1875 62.875H51.6875C52.0625 62.875 52.4375 62.8906 52.8125 62.9219C53.1562 62.9531 53.5156 62.9844 53.8906 63.0156C54.2969 63.0781 54.6875 63.1719 55.0625 63.2969L55.25 59.3125C54.5625 59.375 53.9375 59.4062 53.375 59.4062C52.8438 59.4062 52.375 59.4219 51.9688 59.4531C51.5 59.4531 51.0781 59.4688 50.7031 59.5H49.2969C48.8281 59.5 48.25 59.4844 47.5625 59.4531C46.9062 59.4219 46.125 59.3906 45.2188 59.3594C45.1562 58.8281 45.1094 58.3281 45.0781 57.8594C45.0781 57.3906 45.0938 56.9688 45.125 56.5938C45.125 56.1562 45.1562 55.75 45.2188 55.375C45.25 54.9688 45.3125 54.5 45.4062 53.9688C45.4688 53.5 45.5469 52.9375 45.6406 52.2812C45.7656 51.625 45.9062 50.8438 46.0625 49.9375H40.9531C41.0781 50.7812 41.1719 51.5312 41.2344 52.1875C41.3281 52.875 41.4062 53.4375 41.4688 53.875C41.5312 54.4062 41.5781 54.875 41.6094 55.2812C41.6406 55.7812 41.6719 56.2812 41.7031 56.7812C41.7344 57.2188 41.75 57.6719 41.75 58.1406C41.75 58.6406 41.7344 59.1094 41.7031 59.5469C40.9219 59.5781 40.2188 59.5781 39.5938 59.5469C39 59.5469 38.4844 59.5312 38.0469 59.5C37.5469 59.4688 37.1094 59.4375 36.7344 59.4062C36.3594 59.3438 35.9375 59.2969 35.4688 59.2656C35.0625 59.2031 34.5781 59.1562 34.0156 59.125C33.4531 59.125 32.8438 59.0938 32.1875 59.0312L31.8594 62.875C32.7031 62.8125 33.4375 62.7656 34.0625 62.7344C34.7188 62.7031 35.2656 62.6875 35.7031 62.6875H36.9688H38.375H42.0781C42.0781 63.5 42.0625 64.2031 42.0312 64.7969C42.0312 65.4219 42.0156 65.9375 41.9844 66.3438C41.9531 66.8125 41.9219 67.1875 41.8906 67.4688C41.8594 67.7812 41.7969 68.1562 41.7031 68.5938C41.6406 68.9688 41.5469 69.4375 41.4219 70C41.3281 70.5938 41.2031 71.2812 41.0469 72.0625Z" fill="white"/>
<path d="M48.5 31.5C48.5 33.62 46.3599 35.5 43.5 35.5C40.6401 35.5 38.5 33.62 38.5 31.5C38.5 29.38 40.6401 27.5 43.5 27.5C46.3599 27.5 48.5 29.38 48.5 31.5Z" fill="black" stroke="white"/>
<path d="M53.5 35.5C53.5 37.62 51.3599 39.5 48.5 39.5C45.6401 39.5 43.5 37.62 43.5 35.5C43.5 33.38 45.6401 31.5 48.5 31.5C51.3599 31.5 53.5 33.38 53.5 35.5Z" fill="black" stroke="white"/>
<path d="M58.5 39.5C58.5 41.62 56.3599 43.5 53.5 43.5C50.6401 43.5 48.5 41.62 48.5 39.5C48.5 37.38 50.6401 35.5 53.5 35.5C56.3599 35.5 58.5 37.38 58.5 39.5Z" fill="black" stroke="white"/>
<path d="M63.5 43.5C63.5 45.62 61.3599 47.5 58.5 47.5C55.6401 47.5 53.5 45.62 53.5 43.5C53.5 41.38 55.6401 39.5 58.5 39.5C61.3599 39.5 63.5 41.38 63.5 43.5Z" fill="black" stroke="white"/>
<path d="M67.5 48.5C67.5 50.62 65.3599 52.5 62.5 52.5C59.6401 52.5 57.5 50.62 57.5 48.5C57.5 46.38 59.6401 44.5 62.5 44.5C65.3599 44.5 67.5 46.38 67.5 48.5Z" fill="black" stroke="white"/>
<path d="M72 53C72 55.12 69.8599 57 67 57C64.1401 57 62 55.12 62 53C62 50.88 64.1401 49 67 49C69.8599 49 72 50.88 72 53Z" fill="black" stroke="white"/>
<path d="M74.5 58.5C74.5 60.62 72.3599 62.5 69.5 62.5C66.6401 62.5 64.5 60.62 64.5 58.5C64.5 56.38 66.6401 54.5 69.5 54.5C72.3599 54.5 74.5 56.38 74.5 58.5Z" fill="black" stroke="white"/>
<path d="M76.5 64.5C76.5 66.62 74.3599 68.5 71.5 68.5C68.6401 68.5 66.5 66.62 66.5 64.5C66.5 62.38 68.6401 60.5 71.5 60.5C74.3599 60.5 76.5 62.38 76.5 64.5Z" fill="black" stroke="white"/>
<path d="M38.7282 29.9172C38.8007 29.8905 38.8503 29.8791 38.8822 29.8744C38.8891 29.9059 38.8959 29.9564 38.8964 30.0336C38.898 30.2517 38.846 30.5749 38.7219 31.01C38.4757 31.8736 37.9807 33.0602 37.2656 34.4943C35.8387 37.3557 33.5742 41.1259 30.8091 45.1216C28.044 49.1173 25.3135 52.5651 23.1385 54.9087C22.0484 56.0833 21.1123 56.9647 20.3909 57.4994C20.0274 57.7689 19.7433 57.9314 19.5386 58.0068C19.4661 58.0336 19.4165 58.045 19.3846 58.0496C19.3777 58.0181 19.3709 57.9677 19.3703 57.8904C19.3688 57.6723 19.4208 57.3491 19.5449 56.914C19.7911 56.0504 20.2861 54.8638 21.0012 53.4297C22.4281 50.5684 24.6926 46.7982 27.4577 42.8024C30.2228 38.8067 32.9533 35.3589 35.1283 33.0153C36.2184 31.8407 37.1545 30.9593 37.8759 30.4246C38.2394 30.1552 38.5235 29.9926 38.7282 29.9172ZM19.3369 58.0519C19.3369 58.0519 19.3372 58.0519 19.3378 58.052L19.3369 58.0519ZM19.3993 58.095C19.3993 58.095 19.3991 58.0948 19.3988 58.0943L19.3993 58.095Z" fill="black"/>
<path d="M38.7282 29.9172C38.8007 29.8905 38.8503 29.8791 38.8822 29.8744C38.8891 29.9059 38.8959 29.9564 38.8964 30.0336C38.898 30.2517 38.846 30.5749 38.7219 31.01C38.4757 31.8736 37.9807 33.0602 37.2656 34.4943C35.8387 37.3557 33.5742 41.1259 30.8091 45.1216C28.044 49.1173 25.3135 52.5651 23.1385 54.9087C22.0484 56.0833 21.1123 56.9647 20.3909 57.4994C20.0274 57.7689 19.7433 57.9314 19.5386 58.0068C19.4661 58.0336 19.4165 58.045 19.3846 58.0496C19.3777 58.0181 19.3709 57.9677 19.3703 57.8904C19.3688 57.6723 19.4208 57.3491 19.5449 56.914C19.7911 56.0504 20.2861 54.8638 21.0012 53.4297C22.4281 50.5684 24.6926 46.7982 27.4577 42.8024C30.2228 38.8067 32.9533 35.3589 35.1283 33.0153C36.2184 31.8407 37.1545 30.9593 37.8759 30.4246C38.2394 30.1552 38.5235 29.9926 38.7282 29.9172ZM19.3369 58.0519C19.3369 58.0519 19.3372 58.0519 19.3378 58.052L19.3369 58.0519ZM19.3993 58.095C19.3993 58.095 19.3991 58.0948 19.3988 58.0943L19.3993 58.095Z" fill="black"/>
<path d="M38.7282 29.9172C38.8007 29.8905 38.8503 29.8791 38.8822 29.8744C38.8891 29.9059 38.8959 29.9564 38.8964 30.0336C38.898 30.2517 38.846 30.5749 38.7219 31.01C38.4757 31.8736 37.9807 33.0602 37.2656 34.4943C35.8387 37.3557 33.5742 41.1259 30.8091 45.1216C28.044 49.1173 25.3135 52.5651 23.1385 54.9087C22.0484 56.0833 21.1123 56.9647 20.3909 57.4994C20.0274 57.7689 19.7433 57.9314 19.5386 58.0068C19.4661 58.0336 19.4165 58.045 19.3846 58.0496C19.3777 58.0181 19.3709 57.9677 19.3703 57.8904C19.3688 57.6723 19.4208 57.3491 19.5449 56.914C19.7911 56.0504 20.2861 54.8638 21.0012 53.4297C22.4281 50.5684 24.6926 46.7982 27.4577 42.8024C30.2228 38.8067 32.9533 35.3589 35.1283 33.0153C36.2184 31.8407 37.1545 30.9593 37.8759 30.4246C38.2394 30.1552 38.5235 29.9926 38.7282 29.9172ZM19.3369 58.0519C19.3369 58.0519 19.3372 58.0519 19.3378 58.052L19.3369 58.0519ZM19.3993 58.095C19.3993 58.095 19.3991 58.0948 19.3988 58.0943L19.3993 58.095Z" stroke="white"/>
<path d="M38.2101 29.431C38.287 29.4377 38.3368 29.4486 38.3676 29.4579C38.3604 29.4893 38.3451 29.5379 38.3127 29.608C38.2211 29.806 38.0364 30.0763 37.7389 30.4171C37.1482 31.0935 36.1949 31.9562 34.937 32.9491C32.4272 34.93 28.7724 37.3764 24.5687 39.8137C20.3649 42.2509 16.4259 44.2072 13.4598 45.401C11.9732 45.9994 10.7508 46.398 9.87035 46.5745C9.42673 46.6634 9.10043 46.6895 8.88313 46.6705C8.80615 46.6638 8.75637 46.653 8.72553 46.6436C8.73273 46.6122 8.74808 46.5637 8.7805 46.4935C8.87203 46.2955 9.05675 46.0253 9.35433 45.6845C9.94496 45.008 10.8983 44.1453 12.1562 43.1525C14.666 41.1715 18.3208 38.7251 22.5245 36.2879C26.7283 33.8506 30.6672 31.8944 33.6334 30.7005C35.12 30.1022 36.3423 29.7035 37.2228 29.527C37.6664 29.4381 37.9927 29.4121 38.2101 29.431ZM8.68148 46.6254C8.68149 46.6254 8.68173 46.6255 8.68217 46.6259L8.68148 46.6254ZM8.71951 46.691C8.7195 46.691 8.71946 46.6907 8.71942 46.6901L8.71951 46.691Z" fill="black"/>
<path d="M38.2101 29.431C38.287 29.4377 38.3368 29.4486 38.3676 29.4579C38.3604 29.4893 38.3451 29.5379 38.3127 29.608C38.2211 29.806 38.0364 30.0763 37.7389 30.4171C37.1482 31.0935 36.1949 31.9562 34.937 32.9491C32.4272 34.93 28.7724 37.3764 24.5687 39.8137C20.3649 42.2509 16.4259 44.2072 13.4598 45.401C11.9732 45.9994 10.7508 46.398 9.87035 46.5745C9.42673 46.6634 9.10043 46.6895 8.88313 46.6705C8.80615 46.6638 8.75637 46.653 8.72553 46.6436C8.73273 46.6122 8.74808 46.5637 8.7805 46.4935C8.87203 46.2955 9.05675 46.0253 9.35433 45.6845C9.94496 45.008 10.8983 44.1453 12.1562 43.1525C14.666 41.1715 18.3208 38.7251 22.5245 36.2879C26.7283 33.8506 30.6672 31.8944 33.6334 30.7005C35.12 30.1022 36.3423 29.7035 37.2228 29.527C37.6664 29.4381 37.9927 29.4121 38.2101 29.431ZM8.68148 46.6254C8.68149 46.6254 8.68173 46.6255 8.68217 46.6259L8.68148 46.6254ZM8.71951 46.691C8.7195 46.691 8.71946 46.6907 8.71942 46.6901L8.71951 46.691Z" fill="black"/>
<path d="M38.2101 29.431C38.287 29.4377 38.3368 29.4486 38.3676 29.4579C38.3604 29.4893 38.3451 29.5379 38.3127 29.608C38.2211 29.806 38.0364 30.0763 37.7389 30.4171C37.1482 31.0935 36.1949 31.9562 34.937 32.9491C32.4272 34.93 28.7724 37.3764 24.5687 39.8137C20.3649 42.2509 16.4259 44.2072 13.4598 45.401C11.9732 45.9994 10.7508 46.398 9.87035 46.5745C9.42673 46.6634 9.10043 46.6895 8.88313 46.6705C8.80615 46.6638 8.75637 46.653 8.72553 46.6436C8.73273 46.6122 8.74808 46.5637 8.7805 46.4935C8.87203 46.2955 9.05675 46.0253 9.35433 45.6845C9.94496 45.008 10.8983 44.1453 12.1562 43.1525C14.666 41.1715 18.3208 38.7251 22.5245 36.2879C26.7283 33.8506 30.6672 31.8944 33.6334 30.7005C35.12 30.1022 36.3423 29.7035 37.2228 29.527C37.6664 29.4381 37.9927 29.4121 38.2101 29.431ZM8.68148 46.6254C8.68149 46.6254 8.68173 46.6255 8.68217 46.6259L8.68148 46.6254ZM8.71951 46.691C8.7195 46.691 8.71946 46.6907 8.71942 46.6901L8.71951 46.691Z" stroke="white"/>
<path d="M63.5038 6.24831C63.5806 6.23942 63.6315 6.24002 63.6636 6.243C63.6629 6.27522 63.6576 6.32588 63.6399 6.40109C63.59 6.61344 63.4634 6.91527 63.2403 7.30892C62.7976 8.09023 62.0371 9.12688 61.0043 10.3522C58.9437 12.797 55.855 15.9279 52.2266 19.16C48.5982 22.3921 45.1326 25.0998 42.4668 26.8653C41.1307 27.7501 40.0134 28.3862 39.1863 28.736C38.7696 28.9122 38.4552 29.0033 38.2385 29.0284C38.1617 29.0373 38.1108 29.0367 38.0787 29.0337C38.0795 29.0015 38.0847 28.9509 38.1024 28.8756C38.1523 28.6633 38.2789 28.3614 38.502 27.9678C38.9447 27.1865 39.7052 26.1498 40.738 24.9245C42.7986 22.4797 45.8874 19.3489 49.5157 16.1168C53.1441 12.8846 56.6097 10.1769 59.2755 8.41145C60.6116 7.52662 61.7289 6.8905 62.556 6.54071C62.9727 6.36447 63.2871 6.27341 63.5038 6.24831ZM38.0319 29.0247C38.0319 29.0247 38.0322 29.0248 38.0327 29.025L38.0319 29.0247ZM38.0823 29.0813C38.0823 29.0813 38.0822 29.081 38.0821 29.0805L38.0823 29.0813Z" fill="black"/>
<path d="M63.5038 6.24831C63.5806 6.23942 63.6315 6.24002 63.6636 6.243C63.6629 6.27522 63.6576 6.32588 63.6399 6.40109C63.59 6.61344 63.4634 6.91527 63.2403 7.30892C62.7976 8.09023 62.0371 9.12688 61.0043 10.3522C58.9437 12.797 55.855 15.9279 52.2266 19.16C48.5982 22.3921 45.1326 25.0998 42.4668 26.8653C41.1307 27.7501 40.0134 28.3862 39.1863 28.736C38.7696 28.9122 38.4552 29.0033 38.2385 29.0284C38.1617 29.0373 38.1108 29.0367 38.0787 29.0337C38.0795 29.0015 38.0847 28.9509 38.1024 28.8756C38.1523 28.6633 38.2789 28.3614 38.502 27.9678C38.9447 27.1865 39.7052 26.1498 40.738 24.9245C42.7986 22.4797 45.8874 19.3489 49.5157 16.1168C53.1441 12.8846 56.6097 10.1769 59.2755 8.41145C60.6116 7.52662 61.7289 6.8905 62.556 6.54071C62.9727 6.36447 63.2871 6.27341 63.5038 6.24831ZM38.0319 29.0247C38.0319 29.0247 38.0322 29.0248 38.0327 29.025L38.0319 29.0247ZM38.0823 29.0813C38.0823 29.0813 38.0822 29.081 38.0821 29.0805L38.0823 29.0813Z" fill="black"/>
<path d="M63.5038 6.24831C63.5806 6.23942 63.6315 6.24002 63.6636 6.243C63.6629 6.27522 63.6576 6.32588 63.6399 6.40109C63.59 6.61344 63.4634 6.91527 63.2403 7.30892C62.7976 8.09023 62.0371 9.12688 61.0043 10.3522C58.9437 12.797 55.855 15.9279 52.2266 19.16C48.5982 22.3921 45.1326 25.0998 42.4668 26.8653C41.1307 27.7501 40.0134 28.3862 39.1863 28.736C38.7696 28.9122 38.4552 29.0033 38.2385 29.0284C38.1617 29.0373 38.1108 29.0367 38.0787 29.0337C38.0795 29.0015 38.0847 28.9509 38.1024 28.8756C38.1523 28.6633 38.2789 28.3614 38.502 27.9678C38.9447 27.1865 39.7052 26.1498 40.738 24.9245C42.7986 22.4797 45.8874 19.3489 49.5157 16.1168C53.1441 12.8846 56.6097 10.1769 59.2755 8.41145C60.6116 7.52662 61.7289 6.8905 62.556 6.54071C62.9727 6.36447 63.2871 6.27341 63.5038 6.24831ZM38.0319 29.0247C38.0319 29.0247 38.0322 29.0248 38.0327 29.025L38.0319 29.0247ZM38.0823 29.0813C38.0823 29.0813 38.0822 29.081 38.0821 29.0805L38.0823 29.0813Z" stroke="white"/>
<path d="M39.0565 29.1238C39.0565 29.1238 39.0564 29.1242 39.056 29.1251L39.0565 29.1238ZM38.9214 29.0325C38.9897 29.0866 39.0239 29.1255 39.0406 29.1487C39.023 29.1712 38.9873 29.2088 38.9171 29.2603C38.7554 29.3788 38.4864 29.5125 38.0925 29.6494C37.3104 29.9212 36.1531 30.1665 34.6906 30.3663C31.7734 30.7648 27.732 30.9707 23.2616 30.8853C18.7913 30.7999 14.7607 30.4396 11.8609 29.93C10.4071 29.6744 9.25996 29.3852 8.48886 29.0837C8.10047 28.9318 7.83676 28.7879 7.67973 28.6633C7.6115 28.6092 7.57725 28.5703 7.56055 28.5471C7.57812 28.5246 7.61383 28.487 7.68408 28.4355C7.84576 28.317 8.11478 28.1833 8.50868 28.0464C9.29074 27.7746 10.4481 27.5293 11.9106 27.3295C14.8278 26.931 18.8692 26.7251 23.3395 26.8105C27.8098 26.8959 31.8404 27.2562 34.7403 27.7658C36.1941 28.0213 37.3412 28.3106 38.1123 28.6121C38.5007 28.764 38.7644 28.9079 38.9214 29.0325ZM7.54466 28.572C7.54463 28.572 7.54478 28.5716 7.54517 28.5707L7.54466 28.572Z" fill="black"/>
<path d="M39.0565 29.1238C39.0565 29.1238 39.0564 29.1242 39.056 29.1251L39.0565 29.1238ZM38.9214 29.0325C38.9897 29.0866 39.0239 29.1255 39.0406 29.1487C39.023 29.1712 38.9873 29.2088 38.9171 29.2603C38.7554 29.3788 38.4864 29.5125 38.0925 29.6494C37.3104 29.9212 36.1531 30.1665 34.6906 30.3663C31.7734 30.7648 27.732 30.9707 23.2616 30.8853C18.7913 30.7999 14.7607 30.4396 11.8609 29.93C10.4071 29.6744 9.25996 29.3852 8.48886 29.0837C8.10047 28.9318 7.83676 28.7879 7.67973 28.6633C7.6115 28.6092 7.57725 28.5703 7.56055 28.5471C7.57812 28.5246 7.61383 28.487 7.68408 28.4355C7.84576 28.317 8.11478 28.1833 8.50868 28.0464C9.29074 27.7746 10.4481 27.5293 11.9106 27.3295C14.8278 26.931 18.8692 26.7251 23.3395 26.8105C27.8098 26.8959 31.8404 27.2562 34.7403 27.7658C36.1941 28.0213 37.3412 28.3106 38.1123 28.6121C38.5007 28.764 38.7644 28.9079 38.9214 29.0325ZM7.54466 28.572C7.54463 28.572 7.54478 28.5716 7.54517 28.5707L7.54466 28.572Z" fill="black"/>
<path d="M39.0565 29.1238C39.0565 29.1238 39.0564 29.1242 39.056 29.1251L39.0565 29.1238ZM38.9214 29.0325C38.9897 29.0866 39.0239 29.1255 39.0406 29.1487C39.023 29.1712 38.9873 29.2088 38.9171 29.2603C38.7554 29.3788 38.4864 29.5125 38.0925 29.6494C37.3104 29.9212 36.1531 30.1665 34.6906 30.3663C31.7734 30.7648 27.732 30.9707 23.2616 30.8853C18.7913 30.7999 14.7607 30.4396 11.8609 29.93C10.4071 29.6744 9.25996 29.3852 8.48886 29.0837C8.10047 28.9318 7.83676 28.7879 7.67973 28.6633C7.6115 28.6092 7.57725 28.5703 7.56055 28.5471C7.57812 28.5246 7.61383 28.487 7.68408 28.4355C7.84576 28.317 8.11478 28.1833 8.50868 28.0464C9.29074 27.7746 10.4481 27.5293 11.9106 27.3295C14.8278 26.931 18.8692 26.7251 23.3395 26.8105C27.8098 26.8959 31.8404 27.2562 34.7403 27.7658C36.1941 28.0213 37.3412 28.3106 38.1123 28.6121C38.5007 28.764 38.7644 28.9079 38.9214 29.0325ZM7.54466 28.572C7.54463 28.572 7.54478 28.5716 7.54517 28.5707L7.54466 28.572Z" stroke="white"/>
<path d="M50.8974 4.26161C50.8975 4.26157 50.898 4.26194 50.8989 4.26284L50.8974 4.26161ZM50.7393 4.3214C50.8328 4.27952 50.8842 4.27217 50.9064 4.27159C50.9197 4.28933 50.9459 4.33422 50.9711 4.43352C51.016 4.61008 51.0357 4.88133 51.0115 5.25944C50.9633 6.01072 50.7505 7.06198 50.3802 8.34985C49.6417 10.9177 48.3042 14.3334 46.5397 17.9824C44.7752 21.6313 42.9283 24.8007 41.374 26.974C40.5945 28.064 39.9026 28.8836 39.3436 29.3879C39.0623 29.6417 38.8374 29.7946 38.6711 29.8691C38.5776 29.911 38.5262 29.9183 38.504 29.9189C38.4907 29.9012 38.4645 29.8563 38.4393 29.757C38.3944 29.5804 38.3746 29.3091 38.3989 28.931C38.4471 28.1798 38.6599 27.1285 39.0302 25.8406C39.7687 23.2728 41.1061 19.857 42.8707 16.2081C44.6352 12.5592 46.4821 9.3898 48.0364 7.21646C48.8159 6.12645 49.5078 5.30689 50.0668 4.80261C50.3481 4.54882 50.573 4.39588 50.7393 4.3214ZM38.4906 29.9181C38.4906 29.918 38.4912 29.9181 38.4924 29.9184L38.4906 29.9181ZM38.5129 29.9289C38.5129 29.9289 38.5124 29.9286 38.5115 29.9277L38.5129 29.9289ZM50.9179 4.27202C50.9192 4.27219 50.9198 4.27236 50.9198 4.2724L50.9179 4.27202Z" fill="black"/>
<path d="M50.8974 4.26161C50.8975 4.26157 50.898 4.26194 50.8989 4.26284L50.8974 4.26161ZM50.7393 4.3214C50.8328 4.27952 50.8842 4.27217 50.9064 4.27159C50.9197 4.28933 50.9459 4.33422 50.9711 4.43352C51.016 4.61008 51.0357 4.88133 51.0115 5.25944C50.9633 6.01072 50.7505 7.06198 50.3802 8.34985C49.6417 10.9177 48.3042 14.3334 46.5397 17.9824C44.7752 21.6313 42.9283 24.8007 41.374 26.974C40.5945 28.064 39.9026 28.8836 39.3436 29.3879C39.0623 29.6417 38.8374 29.7946 38.6711 29.8691C38.5776 29.911 38.5262 29.9183 38.504 29.9189C38.4907 29.9012 38.4645 29.8563 38.4393 29.757C38.3944 29.5804 38.3746 29.3091 38.3989 28.931C38.4471 28.1798 38.6599 27.1285 39.0302 25.8406C39.7687 23.2728 41.1061 19.857 42.8707 16.2081C44.6352 12.5592 46.4821 9.3898 48.0364 7.21646C48.8159 6.12645 49.5078 5.30689 50.0668 4.80261C50.3481 4.54882 50.573 4.39588 50.7393 4.3214ZM38.4906 29.9181C38.4906 29.918 38.4912 29.9181 38.4924 29.9184L38.4906 29.9181ZM38.5129 29.9289C38.5129 29.9289 38.5124 29.9286 38.5115 29.9277L38.5129 29.9289ZM50.9179 4.27202C50.9192 4.27219 50.9198 4.27236 50.9198 4.2724L50.9179 4.27202Z" fill="black"/>
<path d="M50.8974 4.26161C50.8975 4.26157 50.898 4.26194 50.8989 4.26284L50.8974 4.26161ZM50.7393 4.3214C50.8328 4.27952 50.8842 4.27217 50.9064 4.27159C50.9197 4.28933 50.9459 4.33422 50.9711 4.43352C51.016 4.61008 51.0357 4.88133 51.0115 5.25944C50.9633 6.01072 50.7505 7.06198 50.3802 8.34985C49.6417 10.9177 48.3042 14.3334 46.5397 17.9824C44.7752 21.6313 42.9283 24.8007 41.374 26.974C40.5945 28.064 39.9026 28.8836 39.3436 29.3879C39.0623 29.6417 38.8374 29.7946 38.6711 29.8691C38.5776 29.911 38.5262 29.9183 38.504 29.9189C38.4907 29.9012 38.4645 29.8563 38.4393 29.757C38.3944 29.5804 38.3746 29.3091 38.3989 28.931C38.4471 28.1798 38.6599 27.1285 39.0302 25.8406C39.7687 23.2728 41.1061 19.857 42.8707 16.2081C44.6352 12.5592 46.4821 9.3898 48.0364 7.21646C48.8159 6.12645 49.5078 5.30689 50.0668 4.80261C50.3481 4.54882 50.573 4.39588 50.7393 4.3214ZM38.4906 29.9181C38.4906 29.918 38.4912 29.9181 38.4924 29.9184L38.4906 29.9181ZM38.5129 29.9289C38.5129 29.9289 38.5124 29.9286 38.5115 29.9277L38.5129 29.9289ZM50.9179 4.27202C50.9192 4.27219 50.9198 4.27236 50.9198 4.2724L50.9179 4.27202Z" stroke="white"/>
<path d="M35.5678 1.81162C35.5678 1.81158 35.5684 1.81161 35.5697 1.81185L35.5678 1.81162ZM35.4675 1.94782C35.5232 1.86182 35.5624 1.82768 35.5807 1.81514C35.6015 1.82278 35.6479 1.84622 35.7231 1.91583C35.8567 2.03961 36.0208 2.25651 36.2061 2.58701C36.5742 3.24369 36.9673 4.24164 37.3568 5.52384C38.1335 8.08039 38.8685 11.6742 39.3719 15.696C39.8754 19.7178 40.0489 23.382 39.9264 26.0511C39.8649 27.3898 39.7299 28.4538 39.5351 29.181C39.437 29.5469 39.3314 29.7976 39.2324 29.9505C39.1767 30.0365 39.1375 30.0706 39.1192 30.0832C39.0984 30.0755 39.052 30.0521 38.9769 29.9825C38.8432 29.8587 38.6791 29.6418 38.4938 29.3113C38.1257 28.6546 37.7326 27.6567 37.3431 26.3745C36.5664 23.8179 35.8314 20.2241 35.328 16.2023C34.8245 12.1805 34.651 8.51632 34.7735 5.84721C34.835 4.50855 34.97 3.4445 35.1649 2.71734C35.2629 2.35137 35.3685 2.10073 35.4675 1.94782ZM39.1076 30.0898C39.1076 30.0897 39.1081 30.0895 39.1093 30.0891L39.1076 30.0898ZM39.1322 30.0867C39.1322 30.0867 39.1316 30.0867 39.1303 30.0865L39.1322 30.0867ZM35.5906 1.80925C35.5917 1.80869 35.5923 1.8085 35.5923 1.80854L35.5906 1.80925Z" fill="black"/>
<path d="M35.5678 1.81162C35.5678 1.81158 35.5684 1.81161 35.5697 1.81185L35.5678 1.81162ZM35.4675 1.94782C35.5232 1.86182 35.5624 1.82768 35.5807 1.81514C35.6015 1.82278 35.6479 1.84622 35.7231 1.91583C35.8567 2.03961 36.0208 2.25651 36.2061 2.58701C36.5742 3.24369 36.9673 4.24164 37.3568 5.52384C38.1335 8.08039 38.8685 11.6742 39.3719 15.696C39.8754 19.7178 40.0489 23.382 39.9264 26.0511C39.8649 27.3898 39.7299 28.4538 39.5351 29.181C39.437 29.5469 39.3314 29.7976 39.2324 29.9505C39.1767 30.0365 39.1375 30.0706 39.1192 30.0832C39.0984 30.0755 39.052 30.0521 38.9769 29.9825C38.8432 29.8587 38.6791 29.6418 38.4938 29.3113C38.1257 28.6546 37.7326 27.6567 37.3431 26.3745C36.5664 23.8179 35.8314 20.2241 35.328 16.2023C34.8245 12.1805 34.651 8.51632 34.7735 5.84721C34.835 4.50855 34.97 3.4445 35.1649 2.71734C35.2629 2.35137 35.3685 2.10073 35.4675 1.94782ZM39.1076 30.0898C39.1076 30.0897 39.1081 30.0895 39.1093 30.0891L39.1076 30.0898ZM39.1322 30.0867C39.1322 30.0867 39.1316 30.0867 39.1303 30.0865L39.1322 30.0867ZM35.5906 1.80925C35.5917 1.80869 35.5923 1.8085 35.5923 1.80854L35.5906 1.80925Z" fill="black"/>
<path d="M35.5678 1.81162C35.5678 1.81158 35.5684 1.81161 35.5697 1.81185L35.5678 1.81162ZM35.4675 1.94782C35.5232 1.86182 35.5624 1.82768 35.5807 1.81514C35.6015 1.82278 35.6479 1.84622 35.7231 1.91583C35.8567 2.03961 36.0208 2.25651 36.2061 2.58701C36.5742 3.24369 36.9673 4.24164 37.3568 5.52384C38.1335 8.08039 38.8685 11.6742 39.3719 15.696C39.8754 19.7178 40.0489 23.382 39.9264 26.0511C39.8649 27.3898 39.7299 28.4538 39.5351 29.181C39.437 29.5469 39.3314 29.7976 39.2324 29.9505C39.1767 30.0365 39.1375 30.0706 39.1192 30.0832C39.0984 30.0755 39.052 30.0521 38.9769 29.9825C38.8432 29.8587 38.6791 29.6418 38.4938 29.3113C38.1257 28.6546 37.7326 27.6567 37.3431 26.3745C36.5664 23.8179 35.8314 20.2241 35.328 16.2023C34.8245 12.1805 34.651 8.51632 34.7735 5.84721C34.835 4.50855 34.97 3.4445 35.1649 2.71734C35.2629 2.35137 35.3685 2.10073 35.4675 1.94782ZM39.1076 30.0898C39.1076 30.0897 39.1081 30.0895 39.1093 30.0891L39.1076 30.0898ZM39.1322 30.0867C39.1322 30.0867 39.1316 30.0867 39.1303 30.0865L39.1322 30.0867ZM35.5906 1.80925C35.5917 1.80869 35.5923 1.8085 35.5923 1.80854L35.5906 1.80925Z" stroke="white"/>
<path d="M66.2876 19.5525C66.2877 19.5525 66.2878 19.5531 66.2878 19.5544L66.2876 19.5525ZM66.1342 19.4814C66.2296 19.5188 66.2708 19.5504 66.2868 19.5659C66.2834 19.5878 66.2697 19.6379 66.2164 19.7254C66.1217 19.881 65.9418 20.085 65.6547 20.3323C65.0843 20.8236 64.1845 21.4074 63.0054 22.0441C60.6544 23.3137 57.2785 24.7489 53.4372 26.0421C49.5959 27.3354 46.0394 28.2342 43.3993 28.645C42.0751 28.851 41.0055 28.9303 40.2541 28.884C39.876 28.8606 39.6093 28.807 39.4398 28.7404C39.3444 28.7029 39.3032 28.6713 39.2872 28.6559C39.2906 28.634 39.3043 28.5838 39.3576 28.4963C39.4523 28.3407 39.6322 28.1368 39.9193 27.8895C40.4897 27.3981 41.3895 26.8144 42.5686 26.1776C44.9196 24.908 48.2955 23.4729 52.1368 22.1796C55.9781 20.8864 59.5346 19.9876 62.1747 19.5768C63.4989 19.3708 64.5685 19.2914 65.3199 19.3378C65.698 19.3611 65.9647 19.4147 66.1342 19.4814ZM39.2784 28.6458C39.2785 28.6458 39.2789 28.6462 39.2794 28.6473L39.2784 28.6458ZM39.2864 28.6693C39.2863 28.6693 39.2862 28.6687 39.2862 28.6674L39.2864 28.6693ZM66.2945 19.5744C66.2953 19.5754 66.2956 19.576 66.2956 19.576L66.2945 19.5744Z" fill="black"/>
<path d="M66.2876 19.5525C66.2877 19.5525 66.2878 19.5531 66.2878 19.5544L66.2876 19.5525ZM66.1342 19.4814C66.2296 19.5188 66.2708 19.5504 66.2868 19.5659C66.2834 19.5878 66.2697 19.6379 66.2164 19.7254C66.1217 19.881 65.9418 20.085 65.6547 20.3323C65.0843 20.8236 64.1845 21.4074 63.0054 22.0441C60.6544 23.3137 57.2785 24.7489 53.4372 26.0421C49.5959 27.3354 46.0394 28.2342 43.3993 28.645C42.0751 28.851 41.0055 28.9303 40.2541 28.884C39.876 28.8606 39.6093 28.807 39.4398 28.7404C39.3444 28.7029 39.3032 28.6713 39.2872 28.6559C39.2906 28.634 39.3043 28.5838 39.3576 28.4963C39.4523 28.3407 39.6322 28.1368 39.9193 27.8895C40.4897 27.3981 41.3895 26.8144 42.5686 26.1776C44.9196 24.908 48.2955 23.4729 52.1368 22.1796C55.9781 20.8864 59.5346 19.9876 62.1747 19.5768C63.4989 19.3708 64.5685 19.2914 65.3199 19.3378C65.698 19.3611 65.9647 19.4147 66.1342 19.4814ZM39.2784 28.6458C39.2785 28.6458 39.2789 28.6462 39.2794 28.6473L39.2784 28.6458ZM39.2864 28.6693C39.2863 28.6693 39.2862 28.6687 39.2862 28.6674L39.2864 28.6693ZM66.2945 19.5744C66.2953 19.5754 66.2956 19.576 66.2956 19.576L66.2945 19.5744Z" fill="black"/>
<path d="M66.2876 19.5525C66.2877 19.5525 66.2878 19.5531 66.2878 19.5544L66.2876 19.5525ZM66.1342 19.4814C66.2296 19.5188 66.2708 19.5504 66.2868 19.5659C66.2834 19.5878 66.2697 19.6379 66.2164 19.7254C66.1217 19.881 65.9418 20.085 65.6547 20.3323C65.0843 20.8236 64.1845 21.4074 63.0054 22.0441C60.6544 23.3137 57.2785 24.7489 53.4372 26.0421C49.5959 27.3354 46.0394 28.2342 43.3993 28.645C42.0751 28.851 41.0055 28.9303 40.2541 28.884C39.876 28.8606 39.6093 28.807 39.4398 28.7404C39.3444 28.7029 39.3032 28.6713 39.2872 28.6559C39.2906 28.634 39.3043 28.5838 39.3576 28.4963C39.4523 28.3407 39.6322 28.1368 39.9193 27.8895C40.4897 27.3981 41.3895 26.8144 42.5686 26.1776C44.9196 24.908 48.2955 23.4729 52.1368 22.1796C55.9781 20.8864 59.5346 19.9876 62.1747 19.5768C63.4989 19.3708 64.5685 19.2914 65.3199 19.3378C65.698 19.3611 65.9647 19.4147 66.1342 19.4814ZM39.2784 28.6458C39.2785 28.6458 39.2789 28.6462 39.2794 28.6473L39.2784 28.6458ZM39.2864 28.6693C39.2863 28.6693 39.2862 28.6687 39.2862 28.6674L39.2864 28.6693ZM66.2945 19.5744C66.2953 19.5754 66.2956 19.576 66.2956 19.576L66.2945 19.5744Z" stroke="white"/>
<path d="M39.3185 29.2531L39.3178 29.2538L39.3149 29.2561C39.3118 29.2583 39.3049 29.2627 39.2923 29.2681C39.266 29.2792 39.2179 29.2928 39.1391 29.2983C38.9768 29.3095 38.7376 29.283 38.4133 29.1968C37.7678 29.0252 36.8985 28.649 35.8576 28.082C33.7832 26.9518 31.1181 25.1139 28.3618 22.8337C25.6054 20.5535 23.3007 18.2801 21.8018 16.4542C21.0497 15.5381 20.5173 14.7547 20.2278 14.1527C20.0824 13.8503 20.0114 13.6203 19.9921 13.4589C19.9827 13.3804 19.9871 13.3306 19.9931 13.3026C19.9959 13.2892 19.999 13.2816 20.0006 13.2782L20.0023 13.2749L20.0029 13.2741L20.0036 13.2734L20.0065 13.2711C20.0096 13.2688 20.0164 13.2644 20.0291 13.2591C20.0554 13.248 20.1035 13.2344 20.1823 13.2289C20.3446 13.2176 20.5838 13.2442 20.9081 13.3304C21.5536 13.5019 22.4229 13.8781 23.4638 14.4452C25.5382 15.5753 28.2033 17.4133 30.9596 19.6935C33.7159 21.9737 36.0207 24.2471 37.5196 26.0729C38.2717 26.9891 38.8041 27.7725 39.0936 28.3744C39.239 28.6769 39.31 28.9068 39.3293 29.0683C39.3387 29.1468 39.3343 29.1966 39.3283 29.2245C39.3255 29.2379 39.3224 29.2455 39.3208 29.249L39.3191 29.2523L39.3185 29.2531Z" fill="black"/>
<path d="M39.3185 29.2531L39.3178 29.2538L39.3149 29.2561C39.3118 29.2583 39.3049 29.2627 39.2923 29.2681C39.266 29.2792 39.2179 29.2928 39.1391 29.2983C38.9768 29.3095 38.7376 29.283 38.4133 29.1968C37.7678 29.0252 36.8985 28.649 35.8576 28.082C33.7832 26.9518 31.1181 25.1139 28.3618 22.8337C25.6054 20.5535 23.3007 18.2801 21.8018 16.4542C21.0497 15.5381 20.5173 14.7547 20.2278 14.1527C20.0824 13.8503 20.0114 13.6203 19.9921 13.4589C19.9827 13.3804 19.9871 13.3306 19.9931 13.3026C19.9959 13.2892 19.999 13.2816 20.0006 13.2782L20.0023 13.2749L20.0029 13.2741L20.0036 13.2734L20.0065 13.2711C20.0096 13.2688 20.0164 13.2644 20.0291 13.2591C20.0554 13.248 20.1035 13.2344 20.1823 13.2289C20.3446 13.2176 20.5838 13.2442 20.9081 13.3304C21.5536 13.5019 22.4229 13.8781 23.4638 14.4452C25.5382 15.5753 28.2033 17.4133 30.9596 19.6935C33.7159 21.9737 36.0207 24.2471 37.5196 26.0729C38.2717 26.9891 38.8041 27.7725 39.0936 28.3744C39.239 28.6769 39.31 28.9068 39.3293 29.0683C39.3387 29.1468 39.3343 29.1966 39.3283 29.2245C39.3255 29.2379 39.3224 29.2455 39.3208 29.249L39.3191 29.2523L39.3185 29.2531Z" fill="black"/>
<path d="M39.3185 29.2531L39.3178 29.2538L39.3149 29.2561C39.3118 29.2583 39.3049 29.2627 39.2923 29.2681C39.266 29.2792 39.2179 29.2928 39.1391 29.2983C38.9768 29.3095 38.7376 29.283 38.4133 29.1968C37.7678 29.0252 36.8985 28.649 35.8576 28.082C33.7832 26.9518 31.1181 25.1139 28.3618 22.8337C25.6054 20.5535 23.3007 18.2801 21.8018 16.4542C21.0497 15.5381 20.5173 14.7547 20.2278 14.1527C20.0824 13.8503 20.0114 13.6203 19.9921 13.4589C19.9827 13.3804 19.9871 13.3306 19.9931 13.3026C19.9959 13.2892 19.999 13.2816 20.0006 13.2782L20.0023 13.2749L20.0029 13.2741L20.0036 13.2734L20.0065 13.2711C20.0096 13.2688 20.0164 13.2644 20.0291 13.2591C20.0554 13.248 20.1035 13.2344 20.1823 13.2289C20.3446 13.2176 20.5838 13.2442 20.9081 13.3304C21.5536 13.5019 22.4229 13.8781 23.4638 14.4452C25.5382 15.5753 28.2033 17.4133 30.9596 19.6935C33.7159 21.9737 36.0207 24.2471 37.5196 26.0729C38.2717 26.9891 38.8041 27.7725 39.0936 28.3744C39.239 28.6769 39.31 28.9068 39.3293 29.0683C39.3387 29.1468 39.3343 29.1966 39.3283 29.2245C39.3255 29.2379 39.3224 29.2455 39.3208 29.249L39.3191 29.2523L39.3185 29.2531Z" stroke="white"/>
</svg>
