<svg width="88" height="81" viewBox="0 0 88 81" fill="none" xmlns="http://www.w3.org/2000/svg">
<path d="M87.5 40.5C87.5 18.4468 68.0642 0.5 44 0.5C19.9358 0.5 0.5 18.4468 0.5 40.5C0.5 62.5532 19.9358 80.5 44 80.5C68.0642 80.5 87.5 62.5532 87.5 40.5Z" fill="white" stroke="black"/>
<path d="M40.0469 72.0625L45.4844 72.2969C45.2344 71.5469 45.0312 70.8594 44.875 70.2344C44.75 69.6406 44.6562 69.125 44.5938 68.6875C44.5 68.1562 44.4531 67.6875 44.4531 67.2812V65.9219C44.4531 65.4844 44.4375 65 44.4062 64.4688C44.375 63.9375 44.3438 63.3594 44.3125 62.7344C45.4375 62.7656 46.3906 62.7969 47.1719 62.8281C47.9844 62.8594 48.6562 62.875 49.1875 62.875H50.6875C51.0625 62.875 51.4375 62.8906 51.8125 62.9219C52.1562 62.9531 52.5156 62.9844 52.8906 63.0156C53.2969 63.0781 53.6875 63.1719 54.0625 63.2969L54.25 59.3125C53.5625 59.375 52.9375 59.4062 52.375 59.4062C51.8438 59.4062 51.375 59.4219 50.9688 59.4531C50.5 59.4531 50.0781 59.4688 49.7031 59.5H48.2969C47.8281 59.5 47.25 59.4844 46.5625 59.4531C45.9062 59.4219 45.125 59.3906 44.2188 59.3594C44.1562 58.8281 44.1094 58.3281 44.0781 57.8594C44.0781 57.3906 44.0938 56.9688 44.125 56.5938C44.125 56.1562 44.1562 55.75 44.2188 55.375C44.25 54.9688 44.3125 54.5 44.4062 53.9688C44.4688 53.5 44.5469 52.9375 44.6406 52.2812C44.7656 51.625 44.9062 50.8438 45.0625 49.9375H39.9531C40.0781 50.7812 40.1719 51.5312 40.2344 52.1875C40.3281 52.875 40.4062 53.4375 40.4688 53.875C40.5312 54.4062 40.5781 54.875 40.6094 55.2812C40.6406 55.7812 40.6719 56.2812 40.7031 56.7812C40.7344 57.2188 40.75 57.6719 40.75 58.1406C40.75 58.6406 40.7344 59.1094 40.7031 59.5469C39.9219 59.5781 39.2188 59.5781 38.5938 59.5469C38 59.5469 37.4844 59.5312 37.0469 59.5C36.5469 59.4688 36.1094 59.4375 35.7344 59.4062C35.3594 59.3438 34.9375 59.2969 34.4688 59.2656C34.0625 59.2031 33.5781 59.1562 33.0156 59.125C32.4531 59.125 31.8438 59.0938 31.1875 59.0312L30.8594 62.875C31.7031 62.8125 32.4375 62.7656 33.0625 62.7344C33.7188 62.7031 34.2656 62.6875 34.7031 62.6875H35.9688H37.375H41.0781C41.0781 63.5 41.0625 64.2031 41.0312 64.7969C41.0312 65.4219 41.0156 65.9375 40.9844 66.3438C40.9531 66.8125 40.9219 67.1875 40.8906 67.4688C40.8594 67.7812 40.7969 68.1562 40.7031 68.5938C40.6406 68.9688 40.5469 69.4375 40.4219 70C40.3281 70.5938 40.2031 71.2812 40.0469 72.0625Z" fill="black"/>
<path d="M46.5 31.5C46.5 33.62 44.3599 35.5 41.5 35.5C38.6401 35.5 36.5 33.62 36.5 31.5C36.5 29.38 38.6401 27.5 41.5 27.5C44.3599 27.5 46.5 29.38 46.5 31.5Z" fill="white" stroke="black"/>
<path d="M51.5 35.5C51.5 37.62 49.3599 39.5 46.5 39.5C43.6401 39.5 41.5 37.62 41.5 35.5C41.5 33.38 43.6401 31.5 46.5 31.5C49.3599 31.5 51.5 33.38 51.5 35.5Z" fill="white" stroke="black"/>
<path d="M56.5 39.5C56.5 41.62 54.3599 43.5 51.5 43.5C48.6401 43.5 46.5 41.62 46.5 39.5C46.5 37.38 48.6401 35.5 51.5 35.5C54.3599 35.5 56.5 37.38 56.5 39.5Z" fill="white" stroke="black"/>
<path d="M61.5 43.5C61.5 45.62 59.3599 47.5 56.5 47.5C53.6401 47.5 51.5 45.62 51.5 43.5C51.5 41.38 53.6401 39.5 56.5 39.5C59.3599 39.5 61.5 41.38 61.5 43.5Z" fill="white" stroke="black"/>
<path d="M65.5 48.5C65.5 50.62 63.3599 52.5 60.5 52.5C57.6401 52.5 55.5 50.62 55.5 48.5C55.5 46.38 57.6401 44.5 60.5 44.5C63.3599 44.5 65.5 46.38 65.5 48.5Z" fill="white" stroke="black"/>
<path d="M70 53C70 55.12 67.8599 57 65 57C62.1401 57 60 55.12 60 53C60 50.88 62.1401 49 65 49C67.8599 49 70 50.88 70 53Z" fill="white" stroke="black"/>
<path d="M72.5 58.5C72.5 60.62 70.3599 62.5 67.5 62.5C64.6401 62.5 62.5 60.62 62.5 58.5C62.5 56.38 64.6401 54.5 67.5 54.5C70.3599 54.5 72.5 56.38 72.5 58.5Z" fill="white" stroke="black"/>
<path d="M74.5 64.5C74.5 66.62 72.3599 68.5 69.5 68.5C66.6401 68.5 64.5 66.62 64.5 64.5C64.5 62.38 66.6401 60.5 69.5 60.5C72.3599 60.5 74.5 62.38 74.5 64.5Z" fill="white" stroke="black"/>
<path d="M36.7282 29.9172C36.8007 29.8905 36.8503 29.8791 36.8822 29.8744C36.8891 29.9059 36.8959 29.9564 36.8964 30.0336C36.898 30.2517 36.846 30.5749 36.7219 31.01C36.4757 31.8736 35.9807 33.0602 35.2656 34.4943C33.8387 37.3557 31.5742 41.1259 28.8091 45.1216C26.044 49.1173 23.3135 52.5651 21.1385 54.9087C20.0484 56.0833 19.1123 56.9647 18.3909 57.4994C18.0274 57.7689 17.7433 57.9314 17.5386 58.0068C17.4661 58.0336 17.4165 58.045 17.3846 58.0496C17.3777 58.0181 17.3709 57.9677 17.3703 57.8904C17.3688 57.6723 17.4208 57.3491 17.5449 56.914C17.7911 56.0504 18.2861 54.8638 19.0012 53.4297C20.4281 50.5684 22.6926 46.7982 25.4577 42.8024C28.2228 38.8067 30.9533 35.3589 33.1283 33.0153C34.2184 31.8407 35.1545 30.9593 35.8759 30.4246C36.2394 30.1552 36.5235 29.9926 36.7282 29.9172ZM17.3369 58.0519C17.3369 58.0519 17.3372 58.0519 17.3378 58.052L17.3369 58.0519ZM17.3993 58.095C17.3993 58.095 17.3991 58.0948 17.3988 58.0943L17.3993 58.095Z" fill="white"/>
<path d="M36.7282 29.9172C36.8007 29.8905 36.8503 29.8791 36.8822 29.8744C36.8891 29.9059 36.8959 29.9564 36.8964 30.0336C36.898 30.2517 36.846 30.5749 36.7219 31.01C36.4757 31.8736 35.9807 33.0602 35.2656 34.4943C33.8387 37.3557 31.5742 41.1259 28.8091 45.1216C26.044 49.1173 23.3135 52.5651 21.1385 54.9087C20.0484 56.0833 19.1123 56.9647 18.3909 57.4994C18.0274 57.7689 17.7433 57.9314 17.5386 58.0068C17.4661 58.0336 17.4165 58.045 17.3846 58.0496C17.3777 58.0181 17.3709 57.9677 17.3703 57.8904C17.3688 57.6723 17.4208 57.3491 17.5449 56.914C17.7911 56.0504 18.2861 54.8638 19.0012 53.4297C20.4281 50.5684 22.6926 46.7982 25.4577 42.8024C28.2228 38.8067 30.9533 35.3589 33.1283 33.0153C34.2184 31.8407 35.1545 30.9593 35.8759 30.4246C36.2394 30.1552 36.5235 29.9926 36.7282 29.9172ZM17.3369 58.0519C17.3369 58.0519 17.3372 58.0519 17.3378 58.052L17.3369 58.0519ZM17.3993 58.095C17.3993 58.095 17.3991 58.0948 17.3988 58.0943L17.3993 58.095Z" fill="white"/>
<path d="M36.7282 29.9172C36.8007 29.8905 36.8503 29.8791 36.8822 29.8744C36.8891 29.9059 36.8959 29.9564 36.8964 30.0336C36.898 30.2517 36.846 30.5749 36.7219 31.01C36.4757 31.8736 35.9807 33.0602 35.2656 34.4943C33.8387 37.3557 31.5742 41.1259 28.8091 45.1216C26.044 49.1173 23.3135 52.5651 21.1385 54.9087C20.0484 56.0833 19.1123 56.9647 18.3909 57.4994C18.0274 57.7689 17.7433 57.9314 17.5386 58.0068C17.4661 58.0336 17.4165 58.045 17.3846 58.0496C17.3777 58.0181 17.3709 57.9677 17.3703 57.8904C17.3688 57.6723 17.4208 57.3491 17.5449 56.914C17.7911 56.0504 18.2861 54.8638 19.0012 53.4297C20.4281 50.5684 22.6926 46.7982 25.4577 42.8024C28.2228 38.8067 30.9533 35.3589 33.1283 33.0153C34.2184 31.8407 35.1545 30.9593 35.8759 30.4246C36.2394 30.1552 36.5235 29.9926 36.7282 29.9172ZM17.3369 58.0519C17.3369 58.0519 17.3372 58.0519 17.3378 58.052L17.3369 58.0519ZM17.3993 58.095C17.3993 58.095 17.3991 58.0948 17.3988 58.0943L17.3993 58.095Z" stroke="black"/>
<path d="M36.2101 29.431C36.287 29.4377 36.3368 29.4486 36.3676 29.4579C36.3604 29.4893 36.3451 29.5379 36.3127 29.608C36.2211 29.806 36.0364 30.0763 35.7389 30.4171C35.1482 31.0935 34.1949 31.9562 32.937 32.9491C30.4272 34.93 26.7724 37.3764 22.5687 39.8137C18.3649 42.2509 14.4259 44.2072 11.4598 45.401C9.97318 45.9994 8.75084 46.398 7.87035 46.5745C7.42673 46.6634 7.10043 46.6895 6.88313 46.6705C6.80615 46.6638 6.75637 46.653 6.72553 46.6436C6.73273 46.6122 6.74808 46.5637 6.7805 46.4935C6.87203 46.2955 7.05675 46.0253 7.35433 45.6845C7.94496 45.008 8.89826 44.1453 10.1562 43.1525C12.666 41.1715 16.3208 38.7251 20.5245 36.2879C24.7283 33.8506 28.6672 31.8944 31.6334 30.7005C33.12 30.1022 34.3423 29.7035 35.2228 29.527C35.6664 29.4381 35.9927 29.4121 36.2101 29.431ZM6.68148 46.6254C6.68149 46.6254 6.68173 46.6255 6.68217 46.6259L6.68148 46.6254ZM6.71951 46.691C6.7195 46.691 6.71946 46.6907 6.71942 46.6901L6.71951 46.691Z" fill="white"/>
<path d="M36.2101 29.431C36.287 29.4377 36.3368 29.4486 36.3676 29.4579C36.3604 29.4893 36.3451 29.5379 36.3127 29.608C36.2211 29.806 36.0364 30.0763 35.7389 30.4171C35.1482 31.0935 34.1949 31.9562 32.937 32.9491C30.4272 34.93 26.7724 37.3764 22.5687 39.8137C18.3649 42.2509 14.4259 44.2072 11.4598 45.401C9.97318 45.9994 8.75084 46.398 7.87035 46.5745C7.42673 46.6634 7.10043 46.6895 6.88313 46.6705C6.80615 46.6638 6.75637 46.653 6.72553 46.6436C6.73273 46.6122 6.74808 46.5637 6.7805 46.4935C6.87203 46.2955 7.05675 46.0253 7.35433 45.6845C7.94496 45.008 8.89826 44.1453 10.1562 43.1525C12.666 41.1715 16.3208 38.7251 20.5245 36.2879C24.7283 33.8506 28.6672 31.8944 31.6334 30.7005C33.12 30.1022 34.3423 29.7035 35.2228 29.527C35.6664 29.4381 35.9927 29.4121 36.2101 29.431ZM6.68148 46.6254C6.68149 46.6254 6.68173 46.6255 6.68217 46.6259L6.68148 46.6254ZM6.71951 46.691C6.7195 46.691 6.71946 46.6907 6.71942 46.6901L6.71951 46.691Z" fill="white"/>
<path d="M36.2101 29.431C36.287 29.4377 36.3368 29.4486 36.3676 29.4579C36.3604 29.4893 36.3451 29.5379 36.3127 29.608C36.2211 29.806 36.0364 30.0763 35.7389 30.4171C35.1482 31.0935 34.1949 31.9562 32.937 32.9491C30.4272 34.93 26.7724 37.3764 22.5687 39.8137C18.3649 42.2509 14.4259 44.2072 11.4598 45.401C9.97318 45.9994 8.75084 46.398 7.87035 46.5745C7.42673 46.6634 7.10043 46.6895 6.88313 46.6705C6.80615 46.6638 6.75637 46.653 6.72553 46.6436C6.73273 46.6122 6.74808 46.5637 6.7805 46.4935C6.87203 46.2955 7.05675 46.0253 7.35433 45.6845C7.94496 45.008 8.89826 44.1453 10.1562 43.1525C12.666 41.1715 16.3208 38.7251 20.5245 36.2879C24.7283 33.8506 28.6672 31.8944 31.6334 30.7005C33.12 30.1022 34.3423 29.7035 35.2228 29.527C35.6664 29.4381 35.9927 29.4121 36.2101 29.431ZM6.68148 46.6254C6.68149 46.6254 6.68173 46.6255 6.68217 46.6259L6.68148 46.6254ZM6.71951 46.691C6.7195 46.691 6.71946 46.6907 6.71942 46.6901L6.71951 46.691Z" stroke="black"/>
<path d="M61.5038 6.24831C61.5806 6.23942 61.6315 6.24002 61.6636 6.243C61.6629 6.27522 61.6576 6.32588 61.6399 6.40109C61.59 6.61344 61.4634 6.91527 61.2403 7.30892C60.7976 8.09023 60.0371 9.12688 59.0043 10.3522C56.9437 12.797 53.855 15.9279 50.2266 19.16C46.5982 22.3921 43.1326 25.0998 40.4668 26.8653C39.1307 27.7501 38.0134 28.3862 37.1863 28.736C36.7696 28.9122 36.4552 29.0033 36.2385 29.0284C36.1617 29.0373 36.1108 29.0367 36.0787 29.0337C36.0795 29.0015 36.0847 28.9509 36.1024 28.8756C36.1523 28.6633 36.2789 28.3614 36.502 27.9678C36.9447 27.1865 37.7052 26.1498 38.738 24.9245C40.7986 22.4797 43.8874 19.3489 47.5157 16.1168C51.1441 12.8846 54.6097 10.1769 57.2755 8.41145C58.6116 7.52662 59.7289 6.8905 60.556 6.54071C60.9727 6.36447 61.2871 6.27341 61.5038 6.24831ZM36.0319 29.0247C36.0319 29.0247 36.0322 29.0248 36.0327 29.025L36.0319 29.0247ZM36.0823 29.0813C36.0823 29.0813 36.0822 29.081 36.0821 29.0805L36.0823 29.0813Z" fill="white"/>
<path d="M61.5038 6.24831C61.5806 6.23942 61.6315 6.24002 61.6636 6.243C61.6629 6.27522 61.6576 6.32588 61.6399 6.40109C61.59 6.61344 61.4634 6.91527 61.2403 7.30892C60.7976 8.09023 60.0371 9.12688 59.0043 10.3522C56.9437 12.797 53.855 15.9279 50.2266 19.16C46.5982 22.3921 43.1326 25.0998 40.4668 26.8653C39.1307 27.7501 38.0134 28.3862 37.1863 28.736C36.7696 28.9122 36.4552 29.0033 36.2385 29.0284C36.1617 29.0373 36.1108 29.0367 36.0787 29.0337C36.0795 29.0015 36.0847 28.9509 36.1024 28.8756C36.1523 28.6633 36.2789 28.3614 36.502 27.9678C36.9447 27.1865 37.7052 26.1498 38.738 24.9245C40.7986 22.4797 43.8874 19.3489 47.5157 16.1168C51.1441 12.8846 54.6097 10.1769 57.2755 8.41145C58.6116 7.52662 59.7289 6.8905 60.556 6.54071C60.9727 6.36447 61.2871 6.27341 61.5038 6.24831ZM36.0319 29.0247C36.0319 29.0247 36.0322 29.0248 36.0327 29.025L36.0319 29.0247ZM36.0823 29.0813C36.0823 29.0813 36.0822 29.081 36.0821 29.0805L36.0823 29.0813Z" fill="white"/>
<path d="M61.5038 6.24831C61.5806 6.23942 61.6315 6.24002 61.6636 6.243C61.6629 6.27522 61.6576 6.32588 61.6399 6.40109C61.59 6.61344 61.4634 6.91527 61.2403 7.30892C60.7976 8.09023 60.0371 9.12688 59.0043 10.3522C56.9437 12.797 53.855 15.9279 50.2266 19.16C46.5982 22.3921 43.1326 25.0998 40.4668 26.8653C39.1307 27.7501 38.0134 28.3862 37.1863 28.736C36.7696 28.9122 36.4552 29.0033 36.2385 29.0284C36.1617 29.0373 36.1108 29.0367 36.0787 29.0337C36.0795 29.0015 36.0847 28.9509 36.1024 28.8756C36.1523 28.6633 36.2789 28.3614 36.502 27.9678C36.9447 27.1865 37.7052 26.1498 38.738 24.9245C40.7986 22.4797 43.8874 19.3489 47.5157 16.1168C51.1441 12.8846 54.6097 10.1769 57.2755 8.41145C58.6116 7.52662 59.7289 6.8905 60.556 6.54071C60.9727 6.36447 61.2871 6.27341 61.5038 6.24831ZM36.0319 29.0247C36.0319 29.0247 36.0322 29.0248 36.0327 29.025L36.0319 29.0247ZM36.0823 29.0813C36.0823 29.0813 36.0822 29.081 36.0821 29.0805L36.0823 29.0813Z" stroke="black"/>
<path d="M37.0565 29.1238C37.0565 29.1238 37.0564 29.1242 37.056 29.1251L37.0565 29.1238ZM36.9214 29.0325C36.9897 29.0866 37.0239 29.1255 37.0406 29.1487C37.023 29.1712 36.9873 29.2088 36.9171 29.2603C36.7554 29.3788 36.4864 29.5125 36.0925 29.6494C35.3104 29.9212 34.1531 30.1665 32.6906 30.3663C29.7734 30.7648 25.732 30.9707 21.2616 30.8853C16.7913 30.7999 12.7607 30.4396 9.86088 29.93C8.40706 29.6744 7.25996 29.3852 6.48886 29.0837C6.10047 28.9318 5.83676 28.7879 5.67973 28.6633C5.6115 28.6092 5.57725 28.5703 5.56055 28.5471C5.57812 28.5246 5.61383 28.487 5.68408 28.4355C5.84576 28.317 6.11478 28.1833 6.50868 28.0464C7.29074 27.7746 8.44805 27.5293 9.91058 27.3295C12.8278 26.931 16.8692 26.7251 21.3395 26.8105C25.8098 26.8959 29.8404 27.2562 32.7403 27.7658C34.1941 28.0213 35.3412 28.3106 36.1123 28.6121C36.5007 28.764 36.7644 28.9079 36.9214 29.0325ZM5.54466 28.572C5.54463 28.572 5.54478 28.5716 5.54517 28.5707L5.54466 28.572Z" fill="white"/>
<path d="M37.0565 29.1238C37.0565 29.1238 37.0564 29.1242 37.056 29.1251L37.0565 29.1238ZM36.9214 29.0325C36.9897 29.0866 37.0239 29.1255 37.0406 29.1487C37.023 29.1712 36.9873 29.2088 36.9171 29.2603C36.7554 29.3788 36.4864 29.5125 36.0925 29.6494C35.3104 29.9212 34.1531 30.1665 32.6906 30.3663C29.7734 30.7648 25.732 30.9707 21.2616 30.8853C16.7913 30.7999 12.7607 30.4396 9.86088 29.93C8.40706 29.6744 7.25996 29.3852 6.48886 29.0837C6.10047 28.9318 5.83676 28.7879 5.67973 28.6633C5.6115 28.6092 5.57725 28.5703 5.56055 28.5471C5.57812 28.5246 5.61383 28.487 5.68408 28.4355C5.84576 28.317 6.11478 28.1833 6.50868 28.0464C7.29074 27.7746 8.44805 27.5293 9.91058 27.3295C12.8278 26.931 16.8692 26.7251 21.3395 26.8105C25.8098 26.8959 29.8404 27.2562 32.7403 27.7658C34.1941 28.0213 35.3412 28.3106 36.1123 28.6121C36.5007 28.764 36.7644 28.9079 36.9214 29.0325ZM5.54466 28.572C5.54463 28.572 5.54478 28.5716 5.54517 28.5707L5.54466 28.572Z" fill="white"/>
<path d="M37.0565 29.1238C37.0565 29.1238 37.0564 29.1242 37.056 29.1251L37.0565 29.1238ZM36.9214 29.0325C36.9897 29.0866 37.0239 29.1255 37.0406 29.1487C37.023 29.1712 36.9873 29.2088 36.9171 29.2603C36.7554 29.3788 36.4864 29.5125 36.0925 29.6494C35.3104 29.9212 34.1531 30.1665 32.6906 30.3663C29.7734 30.7648 25.732 30.9707 21.2616 30.8853C16.7913 30.7999 12.7607 30.4396 9.86088 29.93C8.40706 29.6744 7.25996 29.3852 6.48886 29.0837C6.10047 28.9318 5.83676 28.7879 5.67973 28.6633C5.6115 28.6092 5.57725 28.5703 5.56055 28.5471C5.57812 28.5246 5.61383 28.487 5.68408 28.4355C5.84576 28.317 6.11478 28.1833 6.50868 28.0464C7.29074 27.7746 8.44805 27.5293 9.91058 27.3295C12.8278 26.931 16.8692 26.7251 21.3395 26.8105C25.8098 26.8959 29.8404 27.2562 32.7403 27.7658C34.1941 28.0213 35.3412 28.3106 36.1123 28.6121C36.5007 28.764 36.7644 28.9079 36.9214 29.0325ZM5.54466 28.572C5.54463 28.572 5.54478 28.5716 5.54517 28.5707L5.54466 28.572Z" stroke="black"/>
<path d="M48.8974 4.26161C48.8975 4.26157 48.898 4.26194 48.8989 4.26284L48.8974 4.26161ZM48.7393 4.3214C48.8328 4.27952 48.8842 4.27217 48.9064 4.27159C48.9197 4.28933 48.9459 4.33422 48.9711 4.43352C49.016 4.61008 49.0357 4.88133 49.0115 5.25944C48.9633 6.01072 48.7505 7.06198 48.3802 8.34985C47.6417 10.9177 46.3042 14.3334 44.5397 17.9824C42.7752 21.6313 40.9283 24.8007 39.374 26.974C38.5945 28.064 37.9026 28.8836 37.3436 29.3879C37.0623 29.6417 36.8374 29.7946 36.6711 29.8691C36.5776 29.911 36.5262 29.9183 36.504 29.9189C36.4907 29.9012 36.4645 29.8563 36.4393 29.757C36.3944 29.5804 36.3746 29.3091 36.3989 28.931C36.4471 28.1798 36.6599 27.1285 37.0302 25.8406C37.7687 23.2728 39.1061 19.857 40.8707 16.2081C42.6352 12.5592 44.4821 9.3898 46.0364 7.21646C46.8159 6.12645 47.5078 5.30689 48.0668 4.80261C48.3481 4.54882 48.573 4.39588 48.7393 4.3214ZM36.4906 29.9181C36.4906 29.918 36.4912 29.9181 36.4924 29.9184L36.4906 29.9181ZM36.5129 29.9289C36.5129 29.9289 36.5124 29.9286 36.5115 29.9277L36.5129 29.9289ZM48.9179 4.27202C48.9192 4.27219 48.9198 4.27236 48.9198 4.2724L48.9179 4.27202Z" fill="white"/>
<path d="M48.8974 4.26161C48.8975 4.26157 48.898 4.26194 48.8989 4.26284L48.8974 4.26161ZM48.7393 4.3214C48.8328 4.27952 48.8842 4.27217 48.9064 4.27159C48.9197 4.28933 48.9459 4.33422 48.9711 4.43352C49.016 4.61008 49.0357 4.88133 49.0115 5.25944C48.9633 6.01072 48.7505 7.06198 48.3802 8.34985C47.6417 10.9177 46.3042 14.3334 44.5397 17.9824C42.7752 21.6313 40.9283 24.8007 39.374 26.974C38.5945 28.064 37.9026 28.8836 37.3436 29.3879C37.0623 29.6417 36.8374 29.7946 36.6711 29.8691C36.5776 29.911 36.5262 29.9183 36.504 29.9189C36.4907 29.9012 36.4645 29.8563 36.4393 29.757C36.3944 29.5804 36.3746 29.3091 36.3989 28.931C36.4471 28.1798 36.6599 27.1285 37.0302 25.8406C37.7687 23.2728 39.1061 19.857 40.8707 16.2081C42.6352 12.5592 44.4821 9.3898 46.0364 7.21646C46.8159 6.12645 47.5078 5.30689 48.0668 4.80261C48.3481 4.54882 48.573 4.39588 48.7393 4.3214ZM36.4906 29.9181C36.4906 29.918 36.4912 29.9181 36.4924 29.9184L36.4906 29.9181ZM36.5129 29.9289C36.5129 29.9289 36.5124 29.9286 36.5115 29.9277L36.5129 29.9289ZM48.9179 4.27202C48.9192 4.27219 48.9198 4.27236 48.9198 4.2724L48.9179 4.27202Z" fill="white"/>
<path d="M48.8974 4.26161C48.8975 4.26157 48.898 4.26194 48.8989 4.26284L48.8974 4.26161ZM48.7393 4.3214C48.8328 4.27952 48.8842 4.27217 48.9064 4.27159C48.9197 4.28933 48.9459 4.33422 48.9711 4.43352C49.016 4.61008 49.0357 4.88133 49.0115 5.25944C48.9633 6.01072 48.7505 7.06198 48.3802 8.34985C47.6417 10.9177 46.3042 14.3334 44.5397 17.9824C42.7752 21.6313 40.9283 24.8007 39.374 26.974C38.5945 28.064 37.9026 28.8836 37.3436 29.3879C37.0623 29.6417 36.8374 29.7946 36.6711 29.8691C36.5776 29.911 36.5262 29.9183 36.504 29.9189C36.4907 29.9012 36.4645 29.8563 36.4393 29.757C36.3944 29.5804 36.3746 29.3091 36.3989 28.931C36.4471 28.1798 36.6599 27.1285 37.0302 25.8406C37.7687 23.2728 39.1061 19.857 40.8707 16.2081C42.6352 12.5592 44.4821 9.3898 46.0364 7.21646C46.8159 6.12645 47.5078 5.30689 48.0668 4.80261C48.3481 4.54882 48.573 4.39588 48.7393 4.3214ZM36.4906 29.9181C36.4906 29.918 36.4912 29.9181 36.4924 29.9184L36.4906 29.9181ZM36.5129 29.9289C36.5129 29.9289 36.5124 29.9286 36.5115 29.9277L36.5129 29.9289ZM48.9179 4.27202C48.9192 4.27219 48.9198 4.27236 48.9198 4.2724L48.9179 4.27202Z" stroke="black"/>
<path d="M33.5678 1.81162C33.5678 1.81158 33.5684 1.81161 33.5697 1.81185L33.5678 1.81162ZM33.4675 1.94782C33.5232 1.86182 33.5624 1.82768 33.5807 1.81514C33.6015 1.82278 33.6479 1.84622 33.7231 1.91583C33.8567 2.03961 34.0208 2.25651 34.2061 2.58701C34.5742 3.24369 34.9673 4.24164 35.3568 5.52384C36.1335 8.08039 36.8685 11.6742 37.3719 15.696C37.8754 19.7178 38.0489 23.382 37.9264 26.0511C37.8649 27.3898 37.7299 28.4538 37.5351 29.181C37.437 29.5469 37.3314 29.7976 37.2324 29.9505C37.1767 30.0365 37.1375 30.0706 37.1192 30.0832C37.0984 30.0755 37.052 30.0521 36.9769 29.9825C36.8432 29.8587 36.6791 29.6418 36.4938 29.3113C36.1257 28.6546 35.7326 27.6567 35.3431 26.3745C34.5664 23.8179 33.8314 20.2241 33.328 16.2023C32.8245 12.1805 32.651 8.51632 32.7735 5.84721C32.835 4.50855 32.97 3.4445 33.1649 2.71734C33.2629 2.35137 33.3685 2.10073 33.4675 1.94782ZM37.1076 30.0898C37.1076 30.0897 37.1081 30.0895 37.1093 30.0891L37.1076 30.0898ZM37.1322 30.0867C37.1322 30.0867 37.1316 30.0867 37.1303 30.0865L37.1322 30.0867ZM33.5906 1.80925C33.5917 1.80869 33.5923 1.8085 33.5923 1.80854L33.5906 1.80925Z" fill="white"/>
<path d="M33.5678 1.81162C33.5678 1.81158 33.5684 1.81161 33.5697 1.81185L33.5678 1.81162ZM33.4675 1.94782C33.5232 1.86182 33.5624 1.82768 33.5807 1.81514C33.6015 1.82278 33.6479 1.84622 33.7231 1.91583C33.8567 2.03961 34.0208 2.25651 34.2061 2.58701C34.5742 3.24369 34.9673 4.24164 35.3568 5.52384C36.1335 8.08039 36.8685 11.6742 37.3719 15.696C37.8754 19.7178 38.0489 23.382 37.9264 26.0511C37.8649 27.3898 37.7299 28.4538 37.5351 29.181C37.437 29.5469 37.3314 29.7976 37.2324 29.9505C37.1767 30.0365 37.1375 30.0706 37.1192 30.0832C37.0984 30.0755 37.052 30.0521 36.9769 29.9825C36.8432 29.8587 36.6791 29.6418 36.4938 29.3113C36.1257 28.6546 35.7326 27.6567 35.3431 26.3745C34.5664 23.8179 33.8314 20.2241 33.328 16.2023C32.8245 12.1805 32.651 8.51632 32.7735 5.84721C32.835 4.50855 32.97 3.4445 33.1649 2.71734C33.2629 2.35137 33.3685 2.10073 33.4675 1.94782ZM37.1076 30.0898C37.1076 30.0897 37.1081 30.0895 37.1093 30.0891L37.1076 30.0898ZM37.1322 30.0867C37.1322 30.0867 37.1316 30.0867 37.1303 30.0865L37.1322 30.0867ZM33.5906 1.80925C33.5917 1.80869 33.5923 1.8085 33.5923 1.80854L33.5906 1.80925Z" fill="white"/>
<path d="M33.5678 1.81162C33.5678 1.81158 33.5684 1.81161 33.5697 1.81185L33.5678 1.81162ZM33.4675 1.94782C33.5232 1.86182 33.5624 1.82768 33.5807 1.81514C33.6015 1.82278 33.6479 1.84622 33.7231 1.91583C33.8567 2.03961 34.0208 2.25651 34.2061 2.58701C34.5742 3.24369 34.9673 4.24164 35.3568 5.52384C36.1335 8.08039 36.8685 11.6742 37.3719 15.696C37.8754 19.7178 38.0489 23.382 37.9264 26.0511C37.8649 27.3898 37.7299 28.4538 37.5351 29.181C37.437 29.5469 37.3314 29.7976 37.2324 29.9505C37.1767 30.0365 37.1375 30.0706 37.1192 30.0832C37.0984 30.0755 37.052 30.0521 36.9769 29.9825C36.8432 29.8587 36.6791 29.6418 36.4938 29.3113C36.1257 28.6546 35.7326 27.6567 35.3431 26.3745C34.5664 23.8179 33.8314 20.2241 33.328 16.2023C32.8245 12.1805 32.651 8.51632 32.7735 5.84721C32.835 4.50855 32.97 3.4445 33.1649 2.71734C33.2629 2.35137 33.3685 2.10073 33.4675 1.94782ZM37.1076 30.0898C37.1076 30.0897 37.1081 30.0895 37.1093 30.0891L37.1076 30.0898ZM37.1322 30.0867C37.1322 30.0867 37.1316 30.0867 37.1303 30.0865L37.1322 30.0867ZM33.5906 1.80925C33.5917 1.80869 33.5923 1.8085 33.5923 1.80854L33.5906 1.80925Z" stroke="black"/>
<path d="M64.2876 19.5525C64.2877 19.5525 64.2878 19.5531 64.2878 19.5544L64.2876 19.5525ZM64.1342 19.4814C64.2296 19.5188 64.2708 19.5504 64.2868 19.5659C64.2834 19.5878 64.2697 19.6379 64.2164 19.7254C64.1217 19.881 63.9418 20.085 63.6547 20.3323C63.0843 20.8236 62.1845 21.4074 61.0054 22.0441C58.6544 23.3137 55.2785 24.7489 51.4372 26.0421C47.5959 27.3354 44.0394 28.2342 41.3993 28.645C40.0751 28.851 39.0055 28.9303 38.2541 28.884C37.876 28.8606 37.6093 28.807 37.4398 28.7404C37.3444 28.7029 37.3032 28.6713 37.2872 28.6559C37.2906 28.634 37.3043 28.5838 37.3576 28.4963C37.4523 28.3407 37.6322 28.1368 37.9193 27.8895C38.4897 27.3981 39.3895 26.8144 40.5686 26.1776C42.9196 24.908 46.2955 23.4729 50.1368 22.1796C53.9781 20.8864 57.5346 19.9876 60.1747 19.5768C61.4989 19.3708 62.5685 19.2914 63.3199 19.3378C63.698 19.3611 63.9647 19.4147 64.1342 19.4814ZM37.2784 28.6458C37.2785 28.6458 37.2789 28.6462 37.2794 28.6473L37.2784 28.6458ZM37.2864 28.6693C37.2863 28.6693 37.2862 28.6687 37.2862 28.6674L37.2864 28.6693ZM64.2945 19.5744C64.2953 19.5754 64.2956 19.576 64.2956 19.576L64.2945 19.5744Z" fill="white"/>
<path d="M64.2876 19.5525C64.2877 19.5525 64.2878 19.5531 64.2878 19.5544L64.2876 19.5525ZM64.1342 19.4814C64.2296 19.5188 64.2708 19.5504 64.2868 19.5659C64.2834 19.5878 64.2697 19.6379 64.2164 19.7254C64.1217 19.881 63.9418 20.085 63.6547 20.3323C63.0843 20.8236 62.1845 21.4074 61.0054 22.0441C58.6544 23.3137 55.2785 24.7489 51.4372 26.0421C47.5959 27.3354 44.0394 28.2342 41.3993 28.645C40.0751 28.851 39.0055 28.9303 38.2541 28.884C37.876 28.8606 37.6093 28.807 37.4398 28.7404C37.3444 28.7029 37.3032 28.6713 37.2872 28.6559C37.2906 28.634 37.3043 28.5838 37.3576 28.4963C37.4523 28.3407 37.6322 28.1368 37.9193 27.8895C38.4897 27.3981 39.3895 26.8144 40.5686 26.1776C42.9196 24.908 46.2955 23.4729 50.1368 22.1796C53.9781 20.8864 57.5346 19.9876 60.1747 19.5768C61.4989 19.3708 62.5685 19.2914 63.3199 19.3378C63.698 19.3611 63.9647 19.4147 64.1342 19.4814ZM37.2784 28.6458C37.2785 28.6458 37.2789 28.6462 37.2794 28.6473L37.2784 28.6458ZM37.2864 28.6693C37.2863 28.6693 37.2862 28.6687 37.2862 28.6674L37.2864 28.6693ZM64.2945 19.5744C64.2953 19.5754 64.2956 19.576 64.2956 19.576L64.2945 19.5744Z" fill="white"/>
<path d="M64.2876 19.5525C64.2877 19.5525 64.2878 19.5531 64.2878 19.5544L64.2876 19.5525ZM64.1342 19.4814C64.2296 19.5188 64.2708 19.5504 64.2868 19.5659C64.2834 19.5878 64.2697 19.6379 64.2164 19.7254C64.1217 19.881 63.9418 20.085 63.6547 20.3323C63.0843 20.8236 62.1845 21.4074 61.0054 22.0441C58.6544 23.3137 55.2785 24.7489 51.4372 26.0421C47.5959 27.3354 44.0394 28.2342 41.3993 28.645C40.0751 28.851 39.0055 28.9303 38.2541 28.884C37.876 28.8606 37.6093 28.807 37.4398 28.7404C37.3444 28.7029 37.3032 28.6713 37.2872 28.6559C37.2906 28.634 37.3043 28.5838 37.3576 28.4963C37.4523 28.3407 37.6322 28.1368 37.9193 27.8895C38.4897 27.3981 39.3895 26.8144 40.5686 26.1776C42.9196 24.908 46.2955 23.4729 50.1368 22.1796C53.9781 20.8864 57.5346 19.9876 60.1747 19.5768C61.4989 19.3708 62.5685 19.2914 63.3199 19.3378C63.698 19.3611 63.9647 19.4147 64.1342 19.4814ZM37.2784 28.6458C37.2785 28.6458 37.2789 28.6462 37.2794 28.6473L37.2784 28.6458ZM37.2864 28.6693C37.2863 28.6693 37.2862 28.6687 37.2862 28.6674L37.2864 28.6693ZM64.2945 19.5744C64.2953 19.5754 64.2956 19.576 64.2956 19.576L64.2945 19.5744Z" stroke="black"/>
<path d="M37.3185 29.2531L37.3178 29.2538L37.3149 29.2561C37.3118 29.2583 37.3049 29.2627 37.2923 29.2681C37.266 29.2792 37.2179 29.2928 37.1391 29.2983C36.9768 29.3095 36.7376 29.283 36.4133 29.1968C35.7678 29.0252 34.8985 28.649 33.8576 28.082C31.7832 26.9518 29.1181 25.1139 26.3618 22.8337C23.6054 20.5535 21.3007 18.2801 19.8018 16.4542C19.0497 15.5381 18.5173 14.7547 18.2278 14.1527C18.0824 13.8503 18.0114 13.6203 17.9921 13.4589C17.9827 13.3804 17.9871 13.3306 17.9931 13.3026C17.9959 13.2892 17.999 13.2816 18.0006 13.2782L18.0023 13.2749L18.0029 13.2741L18.0036 13.2734L18.0065 13.2711C18.0096 13.2688 18.0164 13.2644 18.0291 13.2591C18.0554 13.248 18.1035 13.2344 18.1823 13.2289C18.3446 13.2176 18.5838 13.2442 18.9081 13.3304C19.5536 13.5019 20.4229 13.8781 21.4638 14.4452C23.5382 15.5753 26.2033 17.4133 28.9596 19.6935C31.7159 21.9737 34.0207 24.2471 35.5196 26.0729C36.2717 26.9891 36.8041 27.7725 37.0936 28.3744C37.239 28.6769 37.31 28.9068 37.3293 29.0683C37.3387 29.1468 37.3343 29.1966 37.3283 29.2245C37.3255 29.2379 37.3224 29.2455 37.3208 29.249L37.3191 29.2523L37.3185 29.2531Z" fill="white"/>
<path d="M37.3185 29.2531L37.3178 29.2538L37.3149 29.2561C37.3118 29.2583 37.3049 29.2627 37.2923 29.2681C37.266 29.2792 37.2179 29.2928 37.1391 29.2983C36.9768 29.3095 36.7376 29.283 36.4133 29.1968C35.7678 29.0252 34.8985 28.649 33.8576 28.082C31.7832 26.9518 29.1181 25.1139 26.3618 22.8337C23.6054 20.5535 21.3007 18.2801 19.8018 16.4542C19.0497 15.5381 18.5173 14.7547 18.2278 14.1527C18.0824 13.8503 18.0114 13.6203 17.9921 13.4589C17.9827 13.3804 17.9871 13.3306 17.9931 13.3026C17.9959 13.2892 17.999 13.2816 18.0006 13.2782L18.0023 13.2749L18.0029 13.2741L18.0036 13.2734L18.0065 13.2711C18.0096 13.2688 18.0164 13.2644 18.0291 13.2591C18.0554 13.248 18.1035 13.2344 18.1823 13.2289C18.3446 13.2176 18.5838 13.2442 18.9081 13.3304C19.5536 13.5019 20.4229 13.8781 21.4638 14.4452C23.5382 15.5753 26.2033 17.4133 28.9596 19.6935C31.7159 21.9737 34.0207 24.2471 35.5196 26.0729C36.2717 26.9891 36.8041 27.7725 37.0936 28.3744C37.239 28.6769 37.31 28.9068 37.3293 29.0683C37.3387 29.1468 37.3343 29.1966 37.3283 29.2245C37.3255 29.2379 37.3224 29.2455 37.3208 29.249L37.3191 29.2523L37.3185 29.2531Z" fill="white"/>
<path d="M37.3185 29.2531L37.3178 29.2538L37.3149 29.2561C37.3118 29.2583 37.3049 29.2627 37.2923 29.2681C37.266 29.2792 37.2179 29.2928 37.1391 29.2983C36.9768 29.3095 36.7376 29.283 36.4133 29.1968C35.7678 29.0252 34.8985 28.649 33.8576 28.082C31.7832 26.9518 29.1181 25.1139 26.3618 22.8337C23.6054 20.5535 21.3007 18.2801 19.8018 16.4542C19.0497 15.5381 18.5173 14.7547 18.2278 14.1527C18.0824 13.8503 18.0114 13.6203 17.9921 13.4589C17.9827 13.3804 17.9871 13.3306 17.9931 13.3026C17.9959 13.2892 17.999 13.2816 18.0006 13.2782L18.0023 13.2749L18.0029 13.2741L18.0036 13.2734L18.0065 13.2711C18.0096 13.2688 18.0164 13.2644 18.0291 13.2591C18.0554 13.248 18.1035 13.2344 18.1823 13.2289C18.3446 13.2176 18.5838 13.2442 18.9081 13.3304C19.5536 13.5019 20.4229 13.8781 21.4638 14.4452C23.5382 15.5753 26.2033 17.4133 28.9596 19.6935C31.7159 21.9737 34.0207 24.2471 35.5196 26.0729C36.2717 26.9891 36.8041 27.7725 37.0936 28.3744C37.239 28.6769 37.31 28.9068 37.3293 29.0683C37.3387 29.1468 37.3343 29.1966 37.3283 29.2245C37.3255 29.2379 37.3224 29.2455 37.3208 29.249L37.3191 29.2523L37.3185 29.2531Z" stroke="black"/>
</svg>
