<svg width="88" height="81" viewBox="0 0 88 81" fill="none" xmlns="http://www.w3.org/2000/svg">
<path d="M87.5 40.5C87.5 18.4468 68.0642 0.5 44 0.5C19.9358 0.5 0.5 18.4468 0.5 40.5C0.5 62.5532 19.9358 80.5 44 80.5C68.0642 80.5 87.5 62.5532 87.5 40.5Z" fill="white" stroke="black"/>
<path d="M43.5469 48.2031C42.9531 48.3594 42.3906 48.4844 41.8594 48.5781C41.3281 48.6406 40.8594 48.7031 40.4531 48.7656C39.9844 48.8281 39.5469 48.875 39.1406 48.9062C38.7031 48.9375 38.1875 48.9688 37.5938 49C37.0625 49.0312 36.4219 49.0469 35.6719 49.0469C34.9219 49.0469 34.0312 49.0469 33 49.0469C33.9062 51.2031 34.6406 53.0312 35.2031 54.5312C35.7656 56 36.2031 57.2188 36.5156 58.1875C36.8594 59.3125 37.1094 60.2344 37.2656 60.9531C37.3906 61.6719 37.5469 62.5469 37.7344 63.5781C37.8906 64.4844 38.1094 65.5938 38.3906 66.9062C38.6719 68.2188 38.9844 69.7812 39.3281 71.5938L43.4531 71.4062C43.2031 69.75 43.0312 68.3438 42.9375 67.1875C42.8438 66 42.7656 65.0156 42.7031 64.2344C42.6406 63.3281 42.6094 62.5781 42.6094 61.9844C42.6094 61.3594 42.6562 60.4219 42.75 59.1719C42.8125 58.1406 42.9062 56.75 43.0312 55C43.1562 53.2188 43.3281 50.9531 43.5469 48.2031ZM38.3906 75.1562C38.1719 75.5 38.0469 75.8906 38.0156 76.3281C37.9531 76.7344 37.9844 77.1562 38.1094 77.5938C38.2031 78 38.4062 78.3906 38.7188 78.7656C39 79.1406 39.3906 79.4375 39.8906 79.6562C40.8906 80.125 41.7812 80.25 42.5625 80.0312C43.3438 79.7812 43.9219 79.375 44.2969 78.8125C44.5156 78.5 44.6406 78.1562 44.6719 77.7812C44.6719 77.375 44.5938 76.9844 44.4375 76.6094C44.2812 76.2031 44.0312 75.8281 43.6875 75.4844C43.3438 75.1406 42.9062 74.8594 42.375 74.6406C41.3438 74.2031 40.5 74.0469 39.8438 74.1719C39.1562 74.2969 38.6719 74.625 38.3906 75.1562Z" fill="black"/>
<path d="M45.5 33.5C45.5 35.62 43.3599 37.5 40.5 37.5C37.6401 37.5 35.5 35.62 35.5 33.5C35.5 31.38 37.6401 29.5 40.5 29.5C43.3599 29.5 45.5 31.38 45.5 33.5Z" fill="white" stroke="black"/>
<path d="M50.5 37.5C50.5 39.62 48.3599 41.5 45.5 41.5C42.6401 41.5 40.5 39.62 40.5 37.5C40.5 35.38 42.6401 33.5 45.5 33.5C48.3599 33.5 50.5 35.38 50.5 37.5Z" fill="white" stroke="black"/>
<path d="M55.5 41.5C55.5 43.62 53.3599 45.5 50.5 45.5C47.6401 45.5 45.5 43.62 45.5 41.5C45.5 39.38 47.6401 37.5 50.5 37.5C53.3599 37.5 55.5 39.38 55.5 41.5Z" fill="white" stroke="black"/>
<path d="M60.5 45.5C60.5 47.62 58.3599 49.5 55.5 49.5C52.6401 49.5 50.5 47.62 50.5 45.5C50.5 43.38 52.6401 41.5 55.5 41.5C58.3599 41.5 60.5 43.38 60.5 45.5Z" fill="white" stroke="black"/>
<path d="M64.5 50.5C64.5 52.62 62.3599 54.5 59.5 54.5C56.6401 54.5 54.5 52.62 54.5 50.5C54.5 48.38 56.6401 46.5 59.5 46.5C62.3599 46.5 64.5 48.38 64.5 50.5Z" fill="white" stroke="black"/>
<path d="M69 55C69 57.12 66.8599 59 64 59C61.1401 59 59 57.12 59 55C59 52.88 61.1401 51 64 51C66.8599 51 69 52.88 69 55Z" fill="white" stroke="black"/>
<path d="M71.5 60.5C71.5 62.62 69.3599 64.5 66.5 64.5C63.6401 64.5 61.5 62.62 61.5 60.5C61.5 58.38 63.6401 56.5 66.5 56.5C69.3599 56.5 71.5 58.38 71.5 60.5Z" fill="white" stroke="black"/>
<path d="M73.5 66.5C73.5 68.62 71.3599 70.5 68.5 70.5C65.6401 70.5 63.5 68.62 63.5 66.5C63.5 64.38 65.6401 62.5 68.5 62.5C71.3599 62.5 73.5 64.38 73.5 66.5Z" fill="white" stroke="black"/>
<path d="M35.7282 31.9172C35.8007 31.8905 35.8503 31.8791 35.8822 31.8744C35.8891 31.9059 35.8959 31.9564 35.8964 32.0336C35.898 32.2517 35.846 32.5749 35.7219 33.01C35.4757 33.8736 34.9807 35.0602 34.2656 36.4943C32.8387 39.3557 30.5742 43.1259 27.8091 47.1216C25.044 51.1173 22.3135 54.5651 20.1385 56.9087C19.0484 58.0833 18.1123 58.9647 17.3909 59.4994C17.0274 59.7689 16.7433 59.9314 16.5386 60.0068C16.4661 60.0336 16.4165 60.045 16.3846 60.0496C16.3777 60.0181 16.3709 59.9677 16.3703 59.8904C16.3688 59.6723 16.4208 59.3491 16.5449 58.914C16.7911 58.0504 17.2861 56.8638 18.0012 55.4297C19.4281 52.5684 21.6926 48.7982 24.4577 44.8024C27.2228 40.8067 29.9533 37.3589 32.1283 35.0153C33.2184 33.8407 34.1545 32.9593 34.8759 32.4246C35.2394 32.1552 35.5235 31.9926 35.7282 31.9172ZM16.3369 60.0519C16.3369 60.0519 16.3372 60.0519 16.3378 60.052L16.3369 60.0519ZM16.3993 60.095C16.3993 60.095 16.3991 60.0948 16.3988 60.0943L16.3993 60.095Z" fill="white"/>
<path d="M35.7282 31.9172C35.8007 31.8905 35.8503 31.8791 35.8822 31.8744C35.8891 31.9059 35.8959 31.9564 35.8964 32.0336C35.898 32.2517 35.846 32.5749 35.7219 33.01C35.4757 33.8736 34.9807 35.0602 34.2656 36.4943C32.8387 39.3557 30.5742 43.1259 27.8091 47.1216C25.044 51.1173 22.3135 54.5651 20.1385 56.9087C19.0484 58.0833 18.1123 58.9647 17.3909 59.4994C17.0274 59.7689 16.7433 59.9314 16.5386 60.0068C16.4661 60.0336 16.4165 60.045 16.3846 60.0496C16.3777 60.0181 16.3709 59.9677 16.3703 59.8904C16.3688 59.6723 16.4208 59.3491 16.5449 58.914C16.7911 58.0504 17.2861 56.8638 18.0012 55.4297C19.4281 52.5684 21.6926 48.7982 24.4577 44.8024C27.2228 40.8067 29.9533 37.3589 32.1283 35.0153C33.2184 33.8407 34.1545 32.9593 34.8759 32.4246C35.2394 32.1552 35.5235 31.9926 35.7282 31.9172ZM16.3369 60.0519C16.3369 60.0519 16.3372 60.0519 16.3378 60.052L16.3369 60.0519ZM16.3993 60.095C16.3993 60.095 16.3991 60.0948 16.3988 60.0943L16.3993 60.095Z" fill="white"/>
<path d="M35.7282 31.9172C35.8007 31.8905 35.8503 31.8791 35.8822 31.8744C35.8891 31.9059 35.8959 31.9564 35.8964 32.0336C35.898 32.2517 35.846 32.5749 35.7219 33.01C35.4757 33.8736 34.9807 35.0602 34.2656 36.4943C32.8387 39.3557 30.5742 43.1259 27.8091 47.1216C25.044 51.1173 22.3135 54.5651 20.1385 56.9087C19.0484 58.0833 18.1123 58.9647 17.3909 59.4994C17.0274 59.7689 16.7433 59.9314 16.5386 60.0068C16.4661 60.0336 16.4165 60.045 16.3846 60.0496C16.3777 60.0181 16.3709 59.9677 16.3703 59.8904C16.3688 59.6723 16.4208 59.3491 16.5449 58.914C16.7911 58.0504 17.2861 56.8638 18.0012 55.4297C19.4281 52.5684 21.6926 48.7982 24.4577 44.8024C27.2228 40.8067 29.9533 37.3589 32.1283 35.0153C33.2184 33.8407 34.1545 32.9593 34.8759 32.4246C35.2394 32.1552 35.5235 31.9926 35.7282 31.9172ZM16.3369 60.0519C16.3369 60.0519 16.3372 60.0519 16.3378 60.052L16.3369 60.0519ZM16.3993 60.095C16.3993 60.095 16.3991 60.0948 16.3988 60.0943L16.3993 60.095Z" stroke="black"/>
<path d="M35.2101 31.431C35.287 31.4377 35.3368 31.4486 35.3676 31.4579C35.3604 31.4893 35.3451 31.5379 35.3127 31.608C35.2211 31.806 35.0364 32.0763 34.7389 32.4171C34.1482 33.0935 33.1949 33.9562 31.937 34.9491C29.4272 36.93 25.7724 39.3764 21.5687 41.8137C17.3649 44.2509 13.4259 46.2072 10.4598 47.401C8.97318 47.9994 7.75084 48.398 6.87035 48.5745C6.42673 48.6634 6.10043 48.6895 5.88313 48.6705C5.80615 48.6638 5.75637 48.653 5.72553 48.6436C5.73273 48.6122 5.74808 48.5637 5.7805 48.4935C5.87203 48.2955 6.05675 48.0253 6.35433 47.6845C6.94496 47.008 7.89826 46.1453 9.15616 45.1525C11.666 43.1715 15.3208 40.7251 19.5245 38.2879C23.7283 35.8506 27.6672 33.8944 30.6334 32.7005C32.12 32.1022 33.3423 31.7035 34.2228 31.527C34.6664 31.4381 34.9927 31.4121 35.2101 31.431ZM5.68148 48.6254C5.68149 48.6254 5.68173 48.6255 5.68217 48.6259L5.68148 48.6254ZM5.71951 48.691C5.7195 48.691 5.71946 48.6907 5.71942 48.6901L5.71951 48.691Z" fill="white"/>
<path d="M35.2101 31.431C35.287 31.4377 35.3368 31.4486 35.3676 31.4579C35.3604 31.4893 35.3451 31.5379 35.3127 31.608C35.2211 31.806 35.0364 32.0763 34.7389 32.4171C34.1482 33.0935 33.1949 33.9562 31.937 34.9491C29.4272 36.93 25.7724 39.3764 21.5687 41.8137C17.3649 44.2509 13.4259 46.2072 10.4598 47.401C8.97318 47.9994 7.75084 48.398 6.87035 48.5745C6.42673 48.6634 6.10043 48.6895 5.88313 48.6705C5.80615 48.6638 5.75637 48.653 5.72553 48.6436C5.73273 48.6122 5.74808 48.5637 5.7805 48.4935C5.87203 48.2955 6.05675 48.0253 6.35433 47.6845C6.94496 47.008 7.89826 46.1453 9.15616 45.1525C11.666 43.1715 15.3208 40.7251 19.5245 38.2879C23.7283 35.8506 27.6672 33.8944 30.6334 32.7005C32.12 32.1022 33.3423 31.7035 34.2228 31.527C34.6664 31.4381 34.9927 31.4121 35.2101 31.431ZM5.68148 48.6254C5.68149 48.6254 5.68173 48.6255 5.68217 48.6259L5.68148 48.6254ZM5.71951 48.691C5.7195 48.691 5.71946 48.6907 5.71942 48.6901L5.71951 48.691Z" fill="white"/>
<path d="M35.2101 31.431C35.287 31.4377 35.3368 31.4486 35.3676 31.4579C35.3604 31.4893 35.3451 31.5379 35.3127 31.608C35.2211 31.806 35.0364 32.0763 34.7389 32.4171C34.1482 33.0935 33.1949 33.9562 31.937 34.9491C29.4272 36.93 25.7724 39.3764 21.5687 41.8137C17.3649 44.2509 13.4259 46.2072 10.4598 47.401C8.97318 47.9994 7.75084 48.398 6.87035 48.5745C6.42673 48.6634 6.10043 48.6895 5.88313 48.6705C5.80615 48.6638 5.75637 48.653 5.72553 48.6436C5.73273 48.6122 5.74808 48.5637 5.7805 48.4935C5.87203 48.2955 6.05675 48.0253 6.35433 47.6845C6.94496 47.008 7.89826 46.1453 9.15616 45.1525C11.666 43.1715 15.3208 40.7251 19.5245 38.2879C23.7283 35.8506 27.6672 33.8944 30.6334 32.7005C32.12 32.1022 33.3423 31.7035 34.2228 31.527C34.6664 31.4381 34.9927 31.4121 35.2101 31.431ZM5.68148 48.6254C5.68149 48.6254 5.68173 48.6255 5.68217 48.6259L5.68148 48.6254ZM5.71951 48.691C5.7195 48.691 5.71946 48.6907 5.71942 48.6901L5.71951 48.691Z" stroke="black"/>
<path d="M60.5038 8.24831C60.5806 8.23942 60.6315 8.24002 60.6636 8.243C60.6629 8.27522 60.6576 8.32588 60.6399 8.40109C60.59 8.61344 60.4634 8.91527 60.2403 9.30892C59.7976 10.0902 59.0371 11.1269 58.0043 12.3522C55.9437 14.797 52.855 17.9279 49.2266 21.16C45.5982 24.3921 42.1326 27.0998 39.4668 28.8653C38.1307 29.7501 37.0134 30.3862 36.1863 30.736C35.7696 30.9122 35.4552 31.0033 35.2385 31.0284C35.1617 31.0373 35.1108 31.0367 35.0787 31.0337C35.0795 31.0015 35.0847 30.9509 35.1024 30.8756C35.1523 30.6633 35.2789 30.3614 35.502 29.9678C35.9447 29.1865 36.7052 28.1498 37.738 26.9245C39.7986 24.4797 42.8874 21.3489 46.5157 18.1168C50.1441 14.8846 53.6097 12.1769 56.2755 10.4114C57.6116 9.52662 58.7289 8.8905 59.556 8.54071C59.9727 8.36447 60.2871 8.27341 60.5038 8.24831ZM35.0319 31.0247C35.0319 31.0247 35.0322 31.0248 35.0327 31.025L35.0319 31.0247ZM35.0823 31.0813C35.0823 31.0813 35.0822 31.081 35.0821 31.0805L35.0823 31.0813Z" fill="white"/>
<path d="M60.5038 8.24831C60.5806 8.23942 60.6315 8.24002 60.6636 8.243C60.6629 8.27522 60.6576 8.32588 60.6399 8.40109C60.59 8.61344 60.4634 8.91527 60.2403 9.30892C59.7976 10.0902 59.0371 11.1269 58.0043 12.3522C55.9437 14.797 52.855 17.9279 49.2266 21.16C45.5982 24.3921 42.1326 27.0998 39.4668 28.8653C38.1307 29.7501 37.0134 30.3862 36.1863 30.736C35.7696 30.9122 35.4552 31.0033 35.2385 31.0284C35.1617 31.0373 35.1108 31.0367 35.0787 31.0337C35.0795 31.0015 35.0847 30.9509 35.1024 30.8756C35.1523 30.6633 35.2789 30.3614 35.502 29.9678C35.9447 29.1865 36.7052 28.1498 37.738 26.9245C39.7986 24.4797 42.8874 21.3489 46.5157 18.1168C50.1441 14.8846 53.6097 12.1769 56.2755 10.4114C57.6116 9.52662 58.7289 8.8905 59.556 8.54071C59.9727 8.36447 60.2871 8.27341 60.5038 8.24831ZM35.0319 31.0247C35.0319 31.0247 35.0322 31.0248 35.0327 31.025L35.0319 31.0247ZM35.0823 31.0813C35.0823 31.0813 35.0822 31.081 35.0821 31.0805L35.0823 31.0813Z" fill="white"/>
<path d="M60.5038 8.24831C60.5806 8.23942 60.6315 8.24002 60.6636 8.243C60.6629 8.27522 60.6576 8.32588 60.6399 8.40109C60.59 8.61344 60.4634 8.91527 60.2403 9.30892C59.7976 10.0902 59.0371 11.1269 58.0043 12.3522C55.9437 14.797 52.855 17.9279 49.2266 21.16C45.5982 24.3921 42.1326 27.0998 39.4668 28.8653C38.1307 29.7501 37.0134 30.3862 36.1863 30.736C35.7696 30.9122 35.4552 31.0033 35.2385 31.0284C35.1617 31.0373 35.1108 31.0367 35.0787 31.0337C35.0795 31.0015 35.0847 30.9509 35.1024 30.8756C35.1523 30.6633 35.2789 30.3614 35.502 29.9678C35.9447 29.1865 36.7052 28.1498 37.738 26.9245C39.7986 24.4797 42.8874 21.3489 46.5157 18.1168C50.1441 14.8846 53.6097 12.1769 56.2755 10.4114C57.6116 9.52662 58.7289 8.8905 59.556 8.54071C59.9727 8.36447 60.2871 8.27341 60.5038 8.24831ZM35.0319 31.0247C35.0319 31.0247 35.0322 31.0248 35.0327 31.025L35.0319 31.0247ZM35.0823 31.0813C35.0823 31.0813 35.0822 31.081 35.0821 31.0805L35.0823 31.0813Z" stroke="black"/>
<path d="M36.0565 31.1238C36.0565 31.1238 36.0564 31.1242 36.056 31.1251L36.0565 31.1238ZM35.9214 31.0325C35.9897 31.0866 36.0239 31.1255 36.0406 31.1487C36.023 31.1712 35.9873 31.2088 35.9171 31.2603C35.7554 31.3788 35.4864 31.5125 35.0925 31.6494C34.3104 31.9212 33.1531 32.1665 31.6906 32.3663C28.7734 32.7648 24.732 32.9707 20.2616 32.8853C15.7913 32.7999 11.7607 32.4396 8.86088 31.93C7.40706 31.6744 6.25996 31.3852 5.48886 31.0837C5.10047 30.9318 4.83676 30.7879 4.67973 30.6633C4.6115 30.6092 4.57725 30.5703 4.56055 30.5471C4.57812 30.5246 4.61383 30.487 4.68408 30.4355C4.84576 30.317 5.11478 30.1833 5.50868 30.0464C6.29074 29.7746 7.44805 29.5293 8.91058 29.3295C11.8278 28.931 15.8692 28.7251 20.3395 28.8105C24.8098 28.8959 28.8404 29.2562 31.7403 29.7658C33.1941 30.0213 34.3412 30.3106 35.1123 30.6121C35.5007 30.764 35.7644 30.9079 35.9214 31.0325ZM4.54466 30.572C4.54463 30.572 4.54478 30.5716 4.54517 30.5707L4.54466 30.572Z" fill="white"/>
<path d="M36.0565 31.1238C36.0565 31.1238 36.0564 31.1242 36.056 31.1251L36.0565 31.1238ZM35.9214 31.0325C35.9897 31.0866 36.0239 31.1255 36.0406 31.1487C36.023 31.1712 35.9873 31.2088 35.9171 31.2603C35.7554 31.3788 35.4864 31.5125 35.0925 31.6494C34.3104 31.9212 33.1531 32.1665 31.6906 32.3663C28.7734 32.7648 24.732 32.9707 20.2616 32.8853C15.7913 32.7999 11.7607 32.4396 8.86088 31.93C7.40706 31.6744 6.25996 31.3852 5.48886 31.0837C5.10047 30.9318 4.83676 30.7879 4.67973 30.6633C4.6115 30.6092 4.57725 30.5703 4.56055 30.5471C4.57812 30.5246 4.61383 30.487 4.68408 30.4355C4.84576 30.317 5.11478 30.1833 5.50868 30.0464C6.29074 29.7746 7.44805 29.5293 8.91058 29.3295C11.8278 28.931 15.8692 28.7251 20.3395 28.8105C24.8098 28.8959 28.8404 29.2562 31.7403 29.7658C33.1941 30.0213 34.3412 30.3106 35.1123 30.6121C35.5007 30.764 35.7644 30.9079 35.9214 31.0325ZM4.54466 30.572C4.54463 30.572 4.54478 30.5716 4.54517 30.5707L4.54466 30.572Z" fill="white"/>
<path d="M36.0565 31.1238C36.0565 31.1238 36.0564 31.1242 36.056 31.1251L36.0565 31.1238ZM35.9214 31.0325C35.9897 31.0866 36.0239 31.1255 36.0406 31.1487C36.023 31.1712 35.9873 31.2088 35.9171 31.2603C35.7554 31.3788 35.4864 31.5125 35.0925 31.6494C34.3104 31.9212 33.1531 32.1665 31.6906 32.3663C28.7734 32.7648 24.732 32.9707 20.2616 32.8853C15.7913 32.7999 11.7607 32.4396 8.86088 31.93C7.40706 31.6744 6.25996 31.3852 5.48886 31.0837C5.10047 30.9318 4.83676 30.7879 4.67973 30.6633C4.6115 30.6092 4.57725 30.5703 4.56055 30.5471C4.57812 30.5246 4.61383 30.487 4.68408 30.4355C4.84576 30.317 5.11478 30.1833 5.50868 30.0464C6.29074 29.7746 7.44805 29.5293 8.91058 29.3295C11.8278 28.931 15.8692 28.7251 20.3395 28.8105C24.8098 28.8959 28.8404 29.2562 31.7403 29.7658C33.1941 30.0213 34.3412 30.3106 35.1123 30.6121C35.5007 30.764 35.7644 30.9079 35.9214 31.0325ZM4.54466 30.572C4.54463 30.572 4.54478 30.5716 4.54517 30.5707L4.54466 30.572Z" stroke="black"/>
<path d="M47.8974 6.26161C47.8975 6.26157 47.898 6.26194 47.8989 6.26284L47.8974 6.26161ZM47.7393 6.3214C47.8328 6.27952 47.8842 6.27217 47.9064 6.27159C47.9197 6.28933 47.9459 6.33422 47.9711 6.43352C48.016 6.61008 48.0357 6.88133 48.0115 7.25944C47.9633 8.01072 47.7505 9.06198 47.3802 10.3498C46.6417 12.9177 45.3042 16.3334 43.5397 19.9824C41.7752 23.6313 39.9283 26.8007 38.374 28.974C37.5945 30.064 36.9026 30.8836 36.3436 31.3879C36.0623 31.6417 35.8374 31.7946 35.6711 31.8691C35.5776 31.911 35.5262 31.9183 35.504 31.9189C35.4907 31.9012 35.4645 31.8563 35.4393 31.757C35.3944 31.5804 35.3746 31.3091 35.3989 30.931C35.4471 30.1798 35.6599 29.1285 36.0302 27.8406C36.7687 25.2728 38.1061 21.857 39.8707 18.2081C41.6352 14.5592 43.4821 11.3898 45.0364 9.21646C45.8159 8.12645 46.5078 7.30689 47.0668 6.80261C47.3481 6.54882 47.573 6.39588 47.7393 6.3214ZM35.4906 31.9181C35.4906 31.918 35.4912 31.9181 35.4924 31.9184L35.4906 31.9181ZM35.5129 31.9289C35.5129 31.9289 35.5124 31.9286 35.5115 31.9277L35.5129 31.9289ZM47.9179 6.27202C47.9192 6.27219 47.9198 6.27236 47.9198 6.2724L47.9179 6.27202Z" fill="white"/>
<path d="M47.8974 6.26161C47.8975 6.26157 47.898 6.26194 47.8989 6.26284L47.8974 6.26161ZM47.7393 6.3214C47.8328 6.27952 47.8842 6.27217 47.9064 6.27159C47.9197 6.28933 47.9459 6.33422 47.9711 6.43352C48.016 6.61008 48.0357 6.88133 48.0115 7.25944C47.9633 8.01072 47.7505 9.06198 47.3802 10.3498C46.6417 12.9177 45.3042 16.3334 43.5397 19.9824C41.7752 23.6313 39.9283 26.8007 38.374 28.974C37.5945 30.064 36.9026 30.8836 36.3436 31.3879C36.0623 31.6417 35.8374 31.7946 35.6711 31.8691C35.5776 31.911 35.5262 31.9183 35.504 31.9189C35.4907 31.9012 35.4645 31.8563 35.4393 31.757C35.3944 31.5804 35.3746 31.3091 35.3989 30.931C35.4471 30.1798 35.6599 29.1285 36.0302 27.8406C36.7687 25.2728 38.1061 21.857 39.8707 18.2081C41.6352 14.5592 43.4821 11.3898 45.0364 9.21646C45.8159 8.12645 46.5078 7.30689 47.0668 6.80261C47.3481 6.54882 47.573 6.39588 47.7393 6.3214ZM35.4906 31.9181C35.4906 31.918 35.4912 31.9181 35.4924 31.9184L35.4906 31.9181ZM35.5129 31.9289C35.5129 31.9289 35.5124 31.9286 35.5115 31.9277L35.5129 31.9289ZM47.9179 6.27202C47.9192 6.27219 47.9198 6.27236 47.9198 6.2724L47.9179 6.27202Z" fill="white"/>
<path d="M47.8974 6.26161C47.8975 6.26157 47.898 6.26194 47.8989 6.26284L47.8974 6.26161ZM47.7393 6.3214C47.8328 6.27952 47.8842 6.27217 47.9064 6.27159C47.9197 6.28933 47.9459 6.33422 47.9711 6.43352C48.016 6.61008 48.0357 6.88133 48.0115 7.25944C47.9633 8.01072 47.7505 9.06198 47.3802 10.3498C46.6417 12.9177 45.3042 16.3334 43.5397 19.9824C41.7752 23.6313 39.9283 26.8007 38.374 28.974C37.5945 30.064 36.9026 30.8836 36.3436 31.3879C36.0623 31.6417 35.8374 31.7946 35.6711 31.8691C35.5776 31.911 35.5262 31.9183 35.504 31.9189C35.4907 31.9012 35.4645 31.8563 35.4393 31.757C35.3944 31.5804 35.3746 31.3091 35.3989 30.931C35.4471 30.1798 35.6599 29.1285 36.0302 27.8406C36.7687 25.2728 38.1061 21.857 39.8707 18.2081C41.6352 14.5592 43.4821 11.3898 45.0364 9.21646C45.8159 8.12645 46.5078 7.30689 47.0668 6.80261C47.3481 6.54882 47.573 6.39588 47.7393 6.3214ZM35.4906 31.9181C35.4906 31.918 35.4912 31.9181 35.4924 31.9184L35.4906 31.9181ZM35.5129 31.9289C35.5129 31.9289 35.5124 31.9286 35.5115 31.9277L35.5129 31.9289ZM47.9179 6.27202C47.9192 6.27219 47.9198 6.27236 47.9198 6.2724L47.9179 6.27202Z" stroke="black"/>
<path d="M32.5678 3.81162C32.5678 3.81158 32.5684 3.81161 32.5697 3.81185L32.5678 3.81162ZM32.4675 3.94782C32.5232 3.86182 32.5624 3.82768 32.5807 3.81514C32.6015 3.82278 32.6479 3.84622 32.7231 3.91583C32.8567 4.03961 33.0208 4.25651 33.2061 4.58701C33.5742 5.24369 33.9673 6.24164 34.3568 7.52384C35.1335 10.0804 35.8685 13.6742 36.3719 17.696C36.8754 21.7178 37.0489 25.382 36.9264 28.0511C36.8649 29.3898 36.7299 30.4538 36.5351 31.181C36.437 31.5469 36.3314 31.7976 36.2324 31.9505C36.1767 32.0365 36.1375 32.0706 36.1192 32.0832C36.0984 32.0755 36.052 32.0521 35.9769 31.9825C35.8432 31.8587 35.6791 31.6418 35.4938 31.3113C35.1257 30.6546 34.7326 29.6567 34.3431 28.3745C33.5664 25.8179 32.8314 22.2241 32.328 18.2023C31.8245 14.1805 31.651 10.5163 31.7735 7.84721C31.835 6.50855 31.97 5.4445 32.1649 4.71734C32.2629 4.35137 32.3685 4.10073 32.4675 3.94782ZM36.1076 32.0898C36.1076 32.0897 36.1081 32.0895 36.1093 32.0891L36.1076 32.0898ZM36.1322 32.0867C36.1322 32.0867 36.1316 32.0867 36.1303 32.0865L36.1322 32.0867ZM32.5906 3.80925C32.5917 3.80869 32.5923 3.8085 32.5923 3.80854L32.5906 3.80925Z" fill="white"/>
<path d="M32.5678 3.81162C32.5678 3.81158 32.5684 3.81161 32.5697 3.81185L32.5678 3.81162ZM32.4675 3.94782C32.5232 3.86182 32.5624 3.82768 32.5807 3.81514C32.6015 3.82278 32.6479 3.84622 32.7231 3.91583C32.8567 4.03961 33.0208 4.25651 33.2061 4.58701C33.5742 5.24369 33.9673 6.24164 34.3568 7.52384C35.1335 10.0804 35.8685 13.6742 36.3719 17.696C36.8754 21.7178 37.0489 25.382 36.9264 28.0511C36.8649 29.3898 36.7299 30.4538 36.5351 31.181C36.437 31.5469 36.3314 31.7976 36.2324 31.9505C36.1767 32.0365 36.1375 32.0706 36.1192 32.0832C36.0984 32.0755 36.052 32.0521 35.9769 31.9825C35.8432 31.8587 35.6791 31.6418 35.4938 31.3113C35.1257 30.6546 34.7326 29.6567 34.3431 28.3745C33.5664 25.8179 32.8314 22.2241 32.328 18.2023C31.8245 14.1805 31.651 10.5163 31.7735 7.84721C31.835 6.50855 31.97 5.4445 32.1649 4.71734C32.2629 4.35137 32.3685 4.10073 32.4675 3.94782ZM36.1076 32.0898C36.1076 32.0897 36.1081 32.0895 36.1093 32.0891L36.1076 32.0898ZM36.1322 32.0867C36.1322 32.0867 36.1316 32.0867 36.1303 32.0865L36.1322 32.0867ZM32.5906 3.80925C32.5917 3.80869 32.5923 3.8085 32.5923 3.80854L32.5906 3.80925Z" fill="white"/>
<path d="M32.5678 3.81162C32.5678 3.81158 32.5684 3.81161 32.5697 3.81185L32.5678 3.81162ZM32.4675 3.94782C32.5232 3.86182 32.5624 3.82768 32.5807 3.81514C32.6015 3.82278 32.6479 3.84622 32.7231 3.91583C32.8567 4.03961 33.0208 4.25651 33.2061 4.58701C33.5742 5.24369 33.9673 6.24164 34.3568 7.52384C35.1335 10.0804 35.8685 13.6742 36.3719 17.696C36.8754 21.7178 37.0489 25.382 36.9264 28.0511C36.8649 29.3898 36.7299 30.4538 36.5351 31.181C36.437 31.5469 36.3314 31.7976 36.2324 31.9505C36.1767 32.0365 36.1375 32.0706 36.1192 32.0832C36.0984 32.0755 36.052 32.0521 35.9769 31.9825C35.8432 31.8587 35.6791 31.6418 35.4938 31.3113C35.1257 30.6546 34.7326 29.6567 34.3431 28.3745C33.5664 25.8179 32.8314 22.2241 32.328 18.2023C31.8245 14.1805 31.651 10.5163 31.7735 7.84721C31.835 6.50855 31.97 5.4445 32.1649 4.71734C32.2629 4.35137 32.3685 4.10073 32.4675 3.94782ZM36.1076 32.0898C36.1076 32.0897 36.1081 32.0895 36.1093 32.0891L36.1076 32.0898ZM36.1322 32.0867C36.1322 32.0867 36.1316 32.0867 36.1303 32.0865L36.1322 32.0867ZM32.5906 3.80925C32.5917 3.80869 32.5923 3.8085 32.5923 3.80854L32.5906 3.80925Z" stroke="black"/>
<path d="M63.2876 21.5525C63.2877 21.5525 63.2878 21.5531 63.2878 21.5544L63.2876 21.5525ZM63.1342 21.4814C63.2296 21.5188 63.2708 21.5504 63.2868 21.5659C63.2834 21.5878 63.2697 21.6379 63.2164 21.7254C63.1217 21.881 62.9418 22.085 62.6547 22.3323C62.0843 22.8236 61.1845 23.4074 60.0054 24.0441C57.6544 25.3137 54.2785 26.7489 50.4372 28.0421C46.5959 29.3354 43.0394 30.2342 40.3993 30.645C39.0751 30.851 38.0055 30.9303 37.2541 30.884C36.876 30.8606 36.6093 30.807 36.4398 30.7404C36.3444 30.7029 36.3032 30.6713 36.2872 30.6559C36.2906 30.634 36.3043 30.5838 36.3576 30.4963C36.4523 30.3407 36.6322 30.1368 36.9193 29.8895C37.4897 29.3981 38.3895 28.8144 39.5686 28.1776C41.9196 26.908 45.2955 25.4729 49.1368 24.1796C52.9781 22.8864 56.5346 21.9876 59.1747 21.5768C60.4989 21.3708 61.5685 21.2914 62.3199 21.3378C62.698 21.3611 62.9647 21.4147 63.1342 21.4814ZM36.2784 30.6458C36.2785 30.6458 36.2789 30.6462 36.2794 30.6473L36.2784 30.6458ZM36.2864 30.6693C36.2863 30.6693 36.2862 30.6687 36.2862 30.6674L36.2864 30.6693ZM63.2945 21.5744C63.2953 21.5754 63.2956 21.576 63.2956 21.576L63.2945 21.5744Z" fill="white"/>
<path d="M63.2876 21.5525C63.2877 21.5525 63.2878 21.5531 63.2878 21.5544L63.2876 21.5525ZM63.1342 21.4814C63.2296 21.5188 63.2708 21.5504 63.2868 21.5659C63.2834 21.5878 63.2697 21.6379 63.2164 21.7254C63.1217 21.881 62.9418 22.085 62.6547 22.3323C62.0843 22.8236 61.1845 23.4074 60.0054 24.0441C57.6544 25.3137 54.2785 26.7489 50.4372 28.0421C46.5959 29.3354 43.0394 30.2342 40.3993 30.645C39.0751 30.851 38.0055 30.9303 37.2541 30.884C36.876 30.8606 36.6093 30.807 36.4398 30.7404C36.3444 30.7029 36.3032 30.6713 36.2872 30.6559C36.2906 30.634 36.3043 30.5838 36.3576 30.4963C36.4523 30.3407 36.6322 30.1368 36.9193 29.8895C37.4897 29.3981 38.3895 28.8144 39.5686 28.1776C41.9196 26.908 45.2955 25.4729 49.1368 24.1796C52.9781 22.8864 56.5346 21.9876 59.1747 21.5768C60.4989 21.3708 61.5685 21.2914 62.3199 21.3378C62.698 21.3611 62.9647 21.4147 63.1342 21.4814ZM36.2784 30.6458C36.2785 30.6458 36.2789 30.6462 36.2794 30.6473L36.2784 30.6458ZM36.2864 30.6693C36.2863 30.6693 36.2862 30.6687 36.2862 30.6674L36.2864 30.6693ZM63.2945 21.5744C63.2953 21.5754 63.2956 21.576 63.2956 21.576L63.2945 21.5744Z" fill="white"/>
<path d="M63.2876 21.5525C63.2877 21.5525 63.2878 21.5531 63.2878 21.5544L63.2876 21.5525ZM63.1342 21.4814C63.2296 21.5188 63.2708 21.5504 63.2868 21.5659C63.2834 21.5878 63.2697 21.6379 63.2164 21.7254C63.1217 21.881 62.9418 22.085 62.6547 22.3323C62.0843 22.8236 61.1845 23.4074 60.0054 24.0441C57.6544 25.3137 54.2785 26.7489 50.4372 28.0421C46.5959 29.3354 43.0394 30.2342 40.3993 30.645C39.0751 30.851 38.0055 30.9303 37.2541 30.884C36.876 30.8606 36.6093 30.807 36.4398 30.7404C36.3444 30.7029 36.3032 30.6713 36.2872 30.6559C36.2906 30.634 36.3043 30.5838 36.3576 30.4963C36.4523 30.3407 36.6322 30.1368 36.9193 29.8895C37.4897 29.3981 38.3895 28.8144 39.5686 28.1776C41.9196 26.908 45.2955 25.4729 49.1368 24.1796C52.9781 22.8864 56.5346 21.9876 59.1747 21.5768C60.4989 21.3708 61.5685 21.2914 62.3199 21.3378C62.698 21.3611 62.9647 21.4147 63.1342 21.4814ZM36.2784 30.6458C36.2785 30.6458 36.2789 30.6462 36.2794 30.6473L36.2784 30.6458ZM36.2864 30.6693C36.2863 30.6693 36.2862 30.6687 36.2862 30.6674L36.2864 30.6693ZM63.2945 21.5744C63.2953 21.5754 63.2956 21.576 63.2956 21.576L63.2945 21.5744Z" stroke="black"/>
<path d="M36.3185 31.2531L36.3178 31.2538L36.3149 31.2561C36.3118 31.2583 36.3049 31.2627 36.2923 31.2681C36.266 31.2792 36.2179 31.2928 36.1391 31.2983C35.9768 31.3095 35.7376 31.283 35.4133 31.1968C34.7678 31.0252 33.8985 30.649 32.8576 30.082C30.7832 28.9518 28.1181 27.1139 25.3618 24.8337C22.6054 22.5535 20.3007 20.2801 18.8018 18.4542C18.0497 17.5381 17.5173 16.7547 17.2278 16.1527C17.0824 15.8503 17.0114 15.6203 16.9921 15.4589C16.9827 15.3804 16.9871 15.3306 16.9931 15.3026C16.9959 15.2892 16.999 15.2816 17.0006 15.2782L17.0023 15.2749L17.0029 15.2741L17.0036 15.2734L17.0065 15.2711C17.0096 15.2688 17.0164 15.2644 17.0291 15.2591C17.0554 15.248 17.1035 15.2344 17.1823 15.2289C17.3446 15.2176 17.5838 15.2442 17.9081 15.3304C18.5536 15.5019 19.4229 15.8781 20.4638 16.4452C22.5382 17.5753 25.2033 19.4133 27.9596 21.6935C30.7159 23.9737 33.0207 26.2471 34.5196 28.0729C35.2717 28.9891 35.8041 29.7725 36.0936 30.3744C36.239 30.6769 36.31 30.9068 36.3293 31.0683C36.3387 31.1468 36.3343 31.1966 36.3283 31.2245C36.3255 31.2379 36.3224 31.2455 36.3208 31.249L36.3191 31.2523L36.3185 31.2531Z" fill="white"/>
<path d="M36.3185 31.2531L36.3178 31.2538L36.3149 31.2561C36.3118 31.2583 36.3049 31.2627 36.2923 31.2681C36.266 31.2792 36.2179 31.2928 36.1391 31.2983C35.9768 31.3095 35.7376 31.283 35.4133 31.1968C34.7678 31.0252 33.8985 30.649 32.8576 30.082C30.7832 28.9518 28.1181 27.1139 25.3618 24.8337C22.6054 22.5535 20.3007 20.2801 18.8018 18.4542C18.0497 17.5381 17.5173 16.7547 17.2278 16.1527C17.0824 15.8503 17.0114 15.6203 16.9921 15.4589C16.9827 15.3804 16.9871 15.3306 16.9931 15.3026C16.9959 15.2892 16.999 15.2816 17.0006 15.2782L17.0023 15.2749L17.0029 15.2741L17.0036 15.2734L17.0065 15.2711C17.0096 15.2688 17.0164 15.2644 17.0291 15.2591C17.0554 15.248 17.1035 15.2344 17.1823 15.2289C17.3446 15.2176 17.5838 15.2442 17.9081 15.3304C18.5536 15.5019 19.4229 15.8781 20.4638 16.4452C22.5382 17.5753 25.2033 19.4133 27.9596 21.6935C30.7159 23.9737 33.0207 26.2471 34.5196 28.0729C35.2717 28.9891 35.8041 29.7725 36.0936 30.3744C36.239 30.6769 36.31 30.9068 36.3293 31.0683C36.3387 31.1468 36.3343 31.1966 36.3283 31.2245C36.3255 31.2379 36.3224 31.2455 36.3208 31.249L36.3191 31.2523L36.3185 31.2531Z" fill="white"/>
<path d="M36.3185 31.2531L36.3178 31.2538L36.3149 31.2561C36.3118 31.2583 36.3049 31.2627 36.2923 31.2681C36.266 31.2792 36.2179 31.2928 36.1391 31.2983C35.9768 31.3095 35.7376 31.283 35.4133 31.1968C34.7678 31.0252 33.8985 30.649 32.8576 30.082C30.7832 28.9518 28.1181 27.1139 25.3618 24.8337C22.6054 22.5535 20.3007 20.2801 18.8018 18.4542C18.0497 17.5381 17.5173 16.7547 17.2278 16.1527C17.0824 15.8503 17.0114 15.6203 16.9921 15.4589C16.9827 15.3804 16.9871 15.3306 16.9931 15.3026C16.9959 15.2892 16.999 15.2816 17.0006 15.2782L17.0023 15.2749L17.0029 15.2741L17.0036 15.2734L17.0065 15.2711C17.0096 15.2688 17.0164 15.2644 17.0291 15.2591C17.0554 15.248 17.1035 15.2344 17.1823 15.2289C17.3446 15.2176 17.5838 15.2442 17.9081 15.3304C18.5536 15.5019 19.4229 15.8781 20.4638 16.4452C22.5382 17.5753 25.2033 19.4133 27.9596 21.6935C30.7159 23.9737 33.0207 26.2471 34.5196 28.0729C35.2717 28.9891 35.8041 29.7725 36.0936 30.3744C36.239 30.6769 36.31 30.9068 36.3293 31.0683C36.3387 31.1468 36.3343 31.1966 36.3283 31.2245C36.3255 31.2379 36.3224 31.2455 36.3208 31.249L36.3191 31.2523L36.3185 31.2531Z" stroke="black"/>
</svg>
