<svg width="88" height="81" viewBox="0 0 88 81" fill="none" xmlns="http://www.w3.org/2000/svg">
<path d="M87.5 40.5C87.5 18.4468 68.0642 0.5 44 0.5C19.9358 0.5 0.5 18.4468 0.5 40.5C0.5 62.5532 19.9358 80.5 44 80.5C68.0642 80.5 87.5 62.5532 87.5 40.5Z" fill="black" stroke="white"/>
<path d="M44.5469 48.2031C43.9531 48.3594 43.3906 48.4844 42.8594 48.5781C42.3281 48.6406 41.8594 48.7031 41.4531 48.7656C40.9844 48.8281 40.5469 48.875 40.1406 48.9062C39.7031 48.9375 39.1875 48.9688 38.5938 49C38.0625 49.0312 37.4219 49.0469 36.6719 49.0469C35.9219 49.0469 35.0312 49.0469 34 49.0469C34.9062 51.2031 35.6406 53.0312 36.2031 54.5312C36.7656 56 37.2031 57.2188 37.5156 58.1875C37.8594 59.3125 38.1094 60.2344 38.2656 60.9531C38.3906 61.6719 38.5469 62.5469 38.7344 63.5781C38.8906 64.4844 39.1094 65.5938 39.3906 66.9062C39.6719 68.2188 39.9844 69.7812 40.3281 71.5938L44.4531 71.4062C44.2031 69.75 44.0312 68.3438 43.9375 67.1875C43.8438 66 43.7656 65.0156 43.7031 64.2344C43.6406 63.3281 43.6094 62.5781 43.6094 61.9844C43.6094 61.3594 43.6562 60.4219 43.75 59.1719C43.8125 58.1406 43.9062 56.75 44.0312 55C44.1562 53.2188 44.3281 50.9531 44.5469 48.2031ZM39.3906 75.1562C39.1719 75.5 39.0469 75.8906 39.0156 76.3281C38.9531 76.7344 38.9844 77.1562 39.1094 77.5938C39.2031 78 39.4062 78.3906 39.7188 78.7656C40 79.1406 40.3906 79.4375 40.8906 79.6562C41.8906 80.125 42.7812 80.25 43.5625 80.0312C44.3438 79.7812 44.9219 79.375 45.2969 78.8125C45.5156 78.5 45.6406 78.1562 45.6719 77.7812C45.6719 77.375 45.5938 76.9844 45.4375 76.6094C45.2812 76.2031 45.0312 75.8281 44.6875 75.4844C44.3438 75.1406 43.9062 74.8594 43.375 74.6406C42.3438 74.2031 41.5 74.0469 40.8438 74.1719C40.1562 74.2969 39.6719 74.625 39.3906 75.1562Z" fill="white"/>
<path d="M47.5 33.5C47.5 35.62 45.3599 37.5 42.5 37.5C39.6401 37.5 37.5 35.62 37.5 33.5C37.5 31.38 39.6401 29.5 42.5 29.5C45.3599 29.5 47.5 31.38 47.5 33.5Z" fill="black" stroke="white"/>
<path d="M52.5 37.5C52.5 39.62 50.3599 41.5 47.5 41.5C44.6401 41.5 42.5 39.62 42.5 37.5C42.5 35.38 44.6401 33.5 47.5 33.5C50.3599 33.5 52.5 35.38 52.5 37.5Z" fill="black" stroke="white"/>
<path d="M57.5 41.5C57.5 43.62 55.3599 45.5 52.5 45.5C49.6401 45.5 47.5 43.62 47.5 41.5C47.5 39.38 49.6401 37.5 52.5 37.5C55.3599 37.5 57.5 39.38 57.5 41.5Z" fill="black" stroke="white"/>
<path d="M62.5 45.5C62.5 47.62 60.3599 49.5 57.5 49.5C54.6401 49.5 52.5 47.62 52.5 45.5C52.5 43.38 54.6401 41.5 57.5 41.5C60.3599 41.5 62.5 43.38 62.5 45.5Z" fill="black" stroke="white"/>
<path d="M66.5 50.5C66.5 52.62 64.3599 54.5 61.5 54.5C58.6401 54.5 56.5 52.62 56.5 50.5C56.5 48.38 58.6401 46.5 61.5 46.5C64.3599 46.5 66.5 48.38 66.5 50.5Z" fill="black" stroke="white"/>
<path d="M71 55C71 57.12 68.8599 59 66 59C63.1401 59 61 57.12 61 55C61 52.88 63.1401 51 66 51C68.8599 51 71 52.88 71 55Z" fill="black" stroke="white"/>
<path d="M73.5 60.5C73.5 62.62 71.3599 64.5 68.5 64.5C65.6401 64.5 63.5 62.62 63.5 60.5C63.5 58.38 65.6401 56.5 68.5 56.5C71.3599 56.5 73.5 58.38 73.5 60.5Z" fill="black" stroke="white"/>
<path d="M75.5 66.5C75.5 68.62 73.3599 70.5 70.5 70.5C67.6401 70.5 65.5 68.62 65.5 66.5C65.5 64.38 67.6401 62.5 70.5 62.5C73.3599 62.5 75.5 64.38 75.5 66.5Z" fill="black" stroke="white"/>
<path d="M37.7282 31.9172C37.8007 31.8905 37.8503 31.8791 37.8822 31.8744C37.8891 31.9059 37.8959 31.9564 37.8964 32.0336C37.898 32.2517 37.846 32.5749 37.7219 33.01C37.4757 33.8736 36.9807 35.0602 36.2656 36.4943C34.8387 39.3557 32.5742 43.1259 29.8091 47.1216C27.044 51.1173 24.3135 54.5651 22.1385 56.9087C21.0484 58.0833 20.1123 58.9647 19.3909 59.4994C19.0274 59.7689 18.7433 59.9314 18.5386 60.0068C18.4661 60.0336 18.4165 60.045 18.3846 60.0496C18.3777 60.0181 18.3709 59.9677 18.3703 59.8904C18.3688 59.6723 18.4208 59.3491 18.5449 58.914C18.7911 58.0504 19.2861 56.8638 20.0012 55.4297C21.4281 52.5684 23.6926 48.7982 26.4577 44.8024C29.2228 40.8067 31.9533 37.3589 34.1283 35.0153C35.2184 33.8407 36.1545 32.9593 36.8759 32.4246C37.2394 32.1552 37.5235 31.9926 37.7282 31.9172ZM18.3369 60.0519C18.3369 60.0519 18.3372 60.0519 18.3378 60.052L18.3369 60.0519ZM18.3993 60.095C18.3993 60.095 18.3991 60.0948 18.3988 60.0943L18.3993 60.095Z" fill="black"/>
<path d="M37.7282 31.9172C37.8007 31.8905 37.8503 31.8791 37.8822 31.8744C37.8891 31.9059 37.8959 31.9564 37.8964 32.0336C37.898 32.2517 37.846 32.5749 37.7219 33.01C37.4757 33.8736 36.9807 35.0602 36.2656 36.4943C34.8387 39.3557 32.5742 43.1259 29.8091 47.1216C27.044 51.1173 24.3135 54.5651 22.1385 56.9087C21.0484 58.0833 20.1123 58.9647 19.3909 59.4994C19.0274 59.7689 18.7433 59.9314 18.5386 60.0068C18.4661 60.0336 18.4165 60.045 18.3846 60.0496C18.3777 60.0181 18.3709 59.9677 18.3703 59.8904C18.3688 59.6723 18.4208 59.3491 18.5449 58.914C18.7911 58.0504 19.2861 56.8638 20.0012 55.4297C21.4281 52.5684 23.6926 48.7982 26.4577 44.8024C29.2228 40.8067 31.9533 37.3589 34.1283 35.0153C35.2184 33.8407 36.1545 32.9593 36.8759 32.4246C37.2394 32.1552 37.5235 31.9926 37.7282 31.9172ZM18.3369 60.0519C18.3369 60.0519 18.3372 60.0519 18.3378 60.052L18.3369 60.0519ZM18.3993 60.095C18.3993 60.095 18.3991 60.0948 18.3988 60.0943L18.3993 60.095Z" fill="black"/>
<path d="M37.7282 31.9172C37.8007 31.8905 37.8503 31.8791 37.8822 31.8744C37.8891 31.9059 37.8959 31.9564 37.8964 32.0336C37.898 32.2517 37.846 32.5749 37.7219 33.01C37.4757 33.8736 36.9807 35.0602 36.2656 36.4943C34.8387 39.3557 32.5742 43.1259 29.8091 47.1216C27.044 51.1173 24.3135 54.5651 22.1385 56.9087C21.0484 58.0833 20.1123 58.9647 19.3909 59.4994C19.0274 59.7689 18.7433 59.9314 18.5386 60.0068C18.4661 60.0336 18.4165 60.045 18.3846 60.0496C18.3777 60.0181 18.3709 59.9677 18.3703 59.8904C18.3688 59.6723 18.4208 59.3491 18.5449 58.914C18.7911 58.0504 19.2861 56.8638 20.0012 55.4297C21.4281 52.5684 23.6926 48.7982 26.4577 44.8024C29.2228 40.8067 31.9533 37.3589 34.1283 35.0153C35.2184 33.8407 36.1545 32.9593 36.8759 32.4246C37.2394 32.1552 37.5235 31.9926 37.7282 31.9172ZM18.3369 60.0519C18.3369 60.0519 18.3372 60.0519 18.3378 60.052L18.3369 60.0519ZM18.3993 60.095C18.3993 60.095 18.3991 60.0948 18.3988 60.0943L18.3993 60.095Z" stroke="white"/>
<path d="M37.2101 31.431C37.287 31.4377 37.3368 31.4486 37.3676 31.4579C37.3604 31.4893 37.3451 31.5379 37.3127 31.608C37.2211 31.806 37.0364 32.0763 36.7389 32.4171C36.1482 33.0935 35.1949 33.9562 33.937 34.9491C31.4272 36.93 27.7724 39.3764 23.5687 41.8137C19.3649 44.2509 15.4259 46.2072 12.4598 47.401C10.9732 47.9994 9.75084 48.398 8.87035 48.5745C8.42673 48.6634 8.10043 48.6895 7.88313 48.6705C7.80615 48.6638 7.75637 48.653 7.72553 48.6436C7.73273 48.6122 7.74808 48.5637 7.7805 48.4935C7.87203 48.2955 8.05675 48.0253 8.35433 47.6845C8.94496 47.008 9.89826 46.1453 11.1562 45.1525C13.666 43.1715 17.3208 40.7251 21.5245 38.2879C25.7283 35.8506 29.6672 33.8944 32.6334 32.7005C34.12 32.1022 35.3423 31.7035 36.2228 31.527C36.6664 31.4381 36.9927 31.4121 37.2101 31.431ZM7.68148 48.6254C7.68149 48.6254 7.68173 48.6255 7.68217 48.6259L7.68148 48.6254ZM7.71951 48.691C7.7195 48.691 7.71946 48.6907 7.71942 48.6901L7.71951 48.691Z" fill="black"/>
<path d="M37.2101 31.431C37.287 31.4377 37.3368 31.4486 37.3676 31.4579C37.3604 31.4893 37.3451 31.5379 37.3127 31.608C37.2211 31.806 37.0364 32.0763 36.7389 32.4171C36.1482 33.0935 35.1949 33.9562 33.937 34.9491C31.4272 36.93 27.7724 39.3764 23.5687 41.8137C19.3649 44.2509 15.4259 46.2072 12.4598 47.401C10.9732 47.9994 9.75084 48.398 8.87035 48.5745C8.42673 48.6634 8.10043 48.6895 7.88313 48.6705C7.80615 48.6638 7.75637 48.653 7.72553 48.6436C7.73273 48.6122 7.74808 48.5637 7.7805 48.4935C7.87203 48.2955 8.05675 48.0253 8.35433 47.6845C8.94496 47.008 9.89826 46.1453 11.1562 45.1525C13.666 43.1715 17.3208 40.7251 21.5245 38.2879C25.7283 35.8506 29.6672 33.8944 32.6334 32.7005C34.12 32.1022 35.3423 31.7035 36.2228 31.527C36.6664 31.4381 36.9927 31.4121 37.2101 31.431ZM7.68148 48.6254C7.68149 48.6254 7.68173 48.6255 7.68217 48.6259L7.68148 48.6254ZM7.71951 48.691C7.7195 48.691 7.71946 48.6907 7.71942 48.6901L7.71951 48.691Z" fill="black"/>
<path d="M37.2101 31.431C37.287 31.4377 37.3368 31.4486 37.3676 31.4579C37.3604 31.4893 37.3451 31.5379 37.3127 31.608C37.2211 31.806 37.0364 32.0763 36.7389 32.4171C36.1482 33.0935 35.1949 33.9562 33.937 34.9491C31.4272 36.93 27.7724 39.3764 23.5687 41.8137C19.3649 44.2509 15.4259 46.2072 12.4598 47.401C10.9732 47.9994 9.75084 48.398 8.87035 48.5745C8.42673 48.6634 8.10043 48.6895 7.88313 48.6705C7.80615 48.6638 7.75637 48.653 7.72553 48.6436C7.73273 48.6122 7.74808 48.5637 7.7805 48.4935C7.87203 48.2955 8.05675 48.0253 8.35433 47.6845C8.94496 47.008 9.89826 46.1453 11.1562 45.1525C13.666 43.1715 17.3208 40.7251 21.5245 38.2879C25.7283 35.8506 29.6672 33.8944 32.6334 32.7005C34.12 32.1022 35.3423 31.7035 36.2228 31.527C36.6664 31.4381 36.9927 31.4121 37.2101 31.431ZM7.68148 48.6254C7.68149 48.6254 7.68173 48.6255 7.68217 48.6259L7.68148 48.6254ZM7.71951 48.691C7.7195 48.691 7.71946 48.6907 7.71942 48.6901L7.71951 48.691Z" stroke="white"/>
<path d="M62.5038 8.24831C62.5806 8.23942 62.6315 8.24002 62.6636 8.243C62.6629 8.27522 62.6576 8.32588 62.6399 8.40109C62.59 8.61344 62.4634 8.91527 62.2403 9.30892C61.7976 10.0902 61.0371 11.1269 60.0043 12.3522C57.9437 14.797 54.855 17.9279 51.2266 21.16C47.5982 24.3921 44.1326 27.0998 41.4668 28.8653C40.1307 29.7501 39.0134 30.3862 38.1863 30.736C37.7696 30.9122 37.4552 31.0033 37.2385 31.0284C37.1617 31.0373 37.1108 31.0367 37.0787 31.0337C37.0795 31.0015 37.0847 30.9509 37.1024 30.8756C37.1523 30.6633 37.2789 30.3614 37.502 29.9678C37.9447 29.1865 38.7052 28.1498 39.738 26.9245C41.7986 24.4797 44.8874 21.3489 48.5157 18.1168C52.1441 14.8846 55.6097 12.1769 58.2755 10.4114C59.6116 9.52662 60.7289 8.8905 61.556 8.54071C61.9727 8.36447 62.2871 8.27341 62.5038 8.24831ZM37.0319 31.0247C37.0319 31.0247 37.0322 31.0248 37.0327 31.025L37.0319 31.0247ZM37.0823 31.0813C37.0823 31.0813 37.0822 31.081 37.0821 31.0805L37.0823 31.0813Z" fill="black"/>
<path d="M62.5038 8.24831C62.5806 8.23942 62.6315 8.24002 62.6636 8.243C62.6629 8.27522 62.6576 8.32588 62.6399 8.40109C62.59 8.61344 62.4634 8.91527 62.2403 9.30892C61.7976 10.0902 61.0371 11.1269 60.0043 12.3522C57.9437 14.797 54.855 17.9279 51.2266 21.16C47.5982 24.3921 44.1326 27.0998 41.4668 28.8653C40.1307 29.7501 39.0134 30.3862 38.1863 30.736C37.7696 30.9122 37.4552 31.0033 37.2385 31.0284C37.1617 31.0373 37.1108 31.0367 37.0787 31.0337C37.0795 31.0015 37.0847 30.9509 37.1024 30.8756C37.1523 30.6633 37.2789 30.3614 37.502 29.9678C37.9447 29.1865 38.7052 28.1498 39.738 26.9245C41.7986 24.4797 44.8874 21.3489 48.5157 18.1168C52.1441 14.8846 55.6097 12.1769 58.2755 10.4114C59.6116 9.52662 60.7289 8.8905 61.556 8.54071C61.9727 8.36447 62.2871 8.27341 62.5038 8.24831ZM37.0319 31.0247C37.0319 31.0247 37.0322 31.0248 37.0327 31.025L37.0319 31.0247ZM37.0823 31.0813C37.0823 31.0813 37.0822 31.081 37.0821 31.0805L37.0823 31.0813Z" fill="black"/>
<path d="M62.5038 8.24831C62.5806 8.23942 62.6315 8.24002 62.6636 8.243C62.6629 8.27522 62.6576 8.32588 62.6399 8.40109C62.59 8.61344 62.4634 8.91527 62.2403 9.30892C61.7976 10.0902 61.0371 11.1269 60.0043 12.3522C57.9437 14.797 54.855 17.9279 51.2266 21.16C47.5982 24.3921 44.1326 27.0998 41.4668 28.8653C40.1307 29.7501 39.0134 30.3862 38.1863 30.736C37.7696 30.9122 37.4552 31.0033 37.2385 31.0284C37.1617 31.0373 37.1108 31.0367 37.0787 31.0337C37.0795 31.0015 37.0847 30.9509 37.1024 30.8756C37.1523 30.6633 37.2789 30.3614 37.502 29.9678C37.9447 29.1865 38.7052 28.1498 39.738 26.9245C41.7986 24.4797 44.8874 21.3489 48.5157 18.1168C52.1441 14.8846 55.6097 12.1769 58.2755 10.4114C59.6116 9.52662 60.7289 8.8905 61.556 8.54071C61.9727 8.36447 62.2871 8.27341 62.5038 8.24831ZM37.0319 31.0247C37.0319 31.0247 37.0322 31.0248 37.0327 31.025L37.0319 31.0247ZM37.0823 31.0813C37.0823 31.0813 37.0822 31.081 37.0821 31.0805L37.0823 31.0813Z" stroke="white"/>
<path d="M38.0565 31.1238C38.0565 31.1238 38.0564 31.1242 38.056 31.1251L38.0565 31.1238ZM37.9214 31.0325C37.9897 31.0866 38.0239 31.1255 38.0406 31.1487C38.023 31.1712 37.9873 31.2088 37.9171 31.2603C37.7554 31.3788 37.4864 31.5125 37.0925 31.6494C36.3104 31.9212 35.1531 32.1665 33.6906 32.3663C30.7734 32.7648 26.732 32.9707 22.2616 32.8853C17.7913 32.7999 13.7607 32.4396 10.8609 31.93C9.40706 31.6744 8.25996 31.3852 7.48886 31.0837C7.10047 30.9318 6.83676 30.7879 6.67973 30.6633C6.6115 30.6092 6.57725 30.5703 6.56055 30.5471C6.57812 30.5246 6.61383 30.487 6.68408 30.4355C6.84576 30.317 7.11478 30.1833 7.50868 30.0464C8.29074 29.7746 9.44805 29.5293 10.9106 29.3295C13.8278 28.931 17.8692 28.7251 22.3395 28.8105C26.8098 28.8959 30.8404 29.2562 33.7403 29.7658C35.1941 30.0213 36.3412 30.3106 37.1123 30.6121C37.5007 30.764 37.7644 30.9079 37.9214 31.0325ZM6.54466 30.572C6.54463 30.572 6.54478 30.5716 6.54517 30.5707L6.54466 30.572Z" fill="black"/>
<path d="M38.0565 31.1238C38.0565 31.1238 38.0564 31.1242 38.056 31.1251L38.0565 31.1238ZM37.9214 31.0325C37.9897 31.0866 38.0239 31.1255 38.0406 31.1487C38.023 31.1712 37.9873 31.2088 37.9171 31.2603C37.7554 31.3788 37.4864 31.5125 37.0925 31.6494C36.3104 31.9212 35.1531 32.1665 33.6906 32.3663C30.7734 32.7648 26.732 32.9707 22.2616 32.8853C17.7913 32.7999 13.7607 32.4396 10.8609 31.93C9.40706 31.6744 8.25996 31.3852 7.48886 31.0837C7.10047 30.9318 6.83676 30.7879 6.67973 30.6633C6.6115 30.6092 6.57725 30.5703 6.56055 30.5471C6.57812 30.5246 6.61383 30.487 6.68408 30.4355C6.84576 30.317 7.11478 30.1833 7.50868 30.0464C8.29074 29.7746 9.44805 29.5293 10.9106 29.3295C13.8278 28.931 17.8692 28.7251 22.3395 28.8105C26.8098 28.8959 30.8404 29.2562 33.7403 29.7658C35.1941 30.0213 36.3412 30.3106 37.1123 30.6121C37.5007 30.764 37.7644 30.9079 37.9214 31.0325ZM6.54466 30.572C6.54463 30.572 6.54478 30.5716 6.54517 30.5707L6.54466 30.572Z" fill="black"/>
<path d="M38.0565 31.1238C38.0565 31.1238 38.0564 31.1242 38.056 31.1251L38.0565 31.1238ZM37.9214 31.0325C37.9897 31.0866 38.0239 31.1255 38.0406 31.1487C38.023 31.1712 37.9873 31.2088 37.9171 31.2603C37.7554 31.3788 37.4864 31.5125 37.0925 31.6494C36.3104 31.9212 35.1531 32.1665 33.6906 32.3663C30.7734 32.7648 26.732 32.9707 22.2616 32.8853C17.7913 32.7999 13.7607 32.4396 10.8609 31.93C9.40706 31.6744 8.25996 31.3852 7.48886 31.0837C7.10047 30.9318 6.83676 30.7879 6.67973 30.6633C6.6115 30.6092 6.57725 30.5703 6.56055 30.5471C6.57812 30.5246 6.61383 30.487 6.68408 30.4355C6.84576 30.317 7.11478 30.1833 7.50868 30.0464C8.29074 29.7746 9.44805 29.5293 10.9106 29.3295C13.8278 28.931 17.8692 28.7251 22.3395 28.8105C26.8098 28.8959 30.8404 29.2562 33.7403 29.7658C35.1941 30.0213 36.3412 30.3106 37.1123 30.6121C37.5007 30.764 37.7644 30.9079 37.9214 31.0325ZM6.54466 30.572C6.54463 30.572 6.54478 30.5716 6.54517 30.5707L6.54466 30.572Z" stroke="white"/>
<path d="M49.8974 6.26161C49.8975 6.26157 49.898 6.26194 49.8989 6.26284L49.8974 6.26161ZM49.7393 6.3214C49.8328 6.27952 49.8842 6.27217 49.9064 6.27159C49.9197 6.28933 49.9459 6.33422 49.9711 6.43352C50.016 6.61008 50.0357 6.88133 50.0115 7.25944C49.9633 8.01072 49.7505 9.06198 49.3802 10.3498C48.6417 12.9177 47.3042 16.3334 45.5397 19.9824C43.7752 23.6313 41.9283 26.8007 40.374 28.974C39.5945 30.064 38.9026 30.8836 38.3436 31.3879C38.0623 31.6417 37.8374 31.7946 37.6711 31.8691C37.5776 31.911 37.5262 31.9183 37.504 31.9189C37.4907 31.9012 37.4645 31.8563 37.4393 31.757C37.3944 31.5804 37.3746 31.3091 37.3989 30.931C37.4471 30.1798 37.6599 29.1285 38.0302 27.8406C38.7687 25.2728 40.1061 21.857 41.8707 18.2081C43.6352 14.5592 45.4821 11.3898 47.0364 9.21646C47.8159 8.12645 48.5078 7.30689 49.0668 6.80261C49.3481 6.54882 49.573 6.39588 49.7393 6.3214ZM37.4906 31.9181C37.4906 31.918 37.4912 31.9181 37.4924 31.9184L37.4906 31.9181ZM37.5129 31.9289C37.5129 31.9289 37.5124 31.9286 37.5115 31.9277L37.5129 31.9289ZM49.9179 6.27202C49.9192 6.27219 49.9198 6.27236 49.9198 6.2724L49.9179 6.27202Z" fill="black"/>
<path d="M49.8974 6.26161C49.8975 6.26157 49.898 6.26194 49.8989 6.26284L49.8974 6.26161ZM49.7393 6.3214C49.8328 6.27952 49.8842 6.27217 49.9064 6.27159C49.9197 6.28933 49.9459 6.33422 49.9711 6.43352C50.016 6.61008 50.0357 6.88133 50.0115 7.25944C49.9633 8.01072 49.7505 9.06198 49.3802 10.3498C48.6417 12.9177 47.3042 16.3334 45.5397 19.9824C43.7752 23.6313 41.9283 26.8007 40.374 28.974C39.5945 30.064 38.9026 30.8836 38.3436 31.3879C38.0623 31.6417 37.8374 31.7946 37.6711 31.8691C37.5776 31.911 37.5262 31.9183 37.504 31.9189C37.4907 31.9012 37.4645 31.8563 37.4393 31.757C37.3944 31.5804 37.3746 31.3091 37.3989 30.931C37.4471 30.1798 37.6599 29.1285 38.0302 27.8406C38.7687 25.2728 40.1061 21.857 41.8707 18.2081C43.6352 14.5592 45.4821 11.3898 47.0364 9.21646C47.8159 8.12645 48.5078 7.30689 49.0668 6.80261C49.3481 6.54882 49.573 6.39588 49.7393 6.3214ZM37.4906 31.9181C37.4906 31.918 37.4912 31.9181 37.4924 31.9184L37.4906 31.9181ZM37.5129 31.9289C37.5129 31.9289 37.5124 31.9286 37.5115 31.9277L37.5129 31.9289ZM49.9179 6.27202C49.9192 6.27219 49.9198 6.27236 49.9198 6.2724L49.9179 6.27202Z" fill="black"/>
<path d="M49.8974 6.26161C49.8975 6.26157 49.898 6.26194 49.8989 6.26284L49.8974 6.26161ZM49.7393 6.3214C49.8328 6.27952 49.8842 6.27217 49.9064 6.27159C49.9197 6.28933 49.9459 6.33422 49.9711 6.43352C50.016 6.61008 50.0357 6.88133 50.0115 7.25944C49.9633 8.01072 49.7505 9.06198 49.3802 10.3498C48.6417 12.9177 47.3042 16.3334 45.5397 19.9824C43.7752 23.6313 41.9283 26.8007 40.374 28.974C39.5945 30.064 38.9026 30.8836 38.3436 31.3879C38.0623 31.6417 37.8374 31.7946 37.6711 31.8691C37.5776 31.911 37.5262 31.9183 37.504 31.9189C37.4907 31.9012 37.4645 31.8563 37.4393 31.757C37.3944 31.5804 37.3746 31.3091 37.3989 30.931C37.4471 30.1798 37.6599 29.1285 38.0302 27.8406C38.7687 25.2728 40.1061 21.857 41.8707 18.2081C43.6352 14.5592 45.4821 11.3898 47.0364 9.21646C47.8159 8.12645 48.5078 7.30689 49.0668 6.80261C49.3481 6.54882 49.573 6.39588 49.7393 6.3214ZM37.4906 31.9181C37.4906 31.918 37.4912 31.9181 37.4924 31.9184L37.4906 31.9181ZM37.5129 31.9289C37.5129 31.9289 37.5124 31.9286 37.5115 31.9277L37.5129 31.9289ZM49.9179 6.27202C49.9192 6.27219 49.9198 6.27236 49.9198 6.2724L49.9179 6.27202Z" stroke="white"/>
<path d="M34.5678 3.81162C34.5678 3.81158 34.5684 3.81161 34.5697 3.81185L34.5678 3.81162ZM34.4675 3.94782C34.5232 3.86182 34.5624 3.82768 34.5807 3.81514C34.6015 3.82278 34.6479 3.84622 34.7231 3.91583C34.8567 4.03961 35.0208 4.25651 35.2061 4.58701C35.5742 5.24369 35.9673 6.24164 36.3568 7.52384C37.1335 10.0804 37.8685 13.6742 38.3719 17.696C38.8754 21.7178 39.0489 25.382 38.9264 28.0511C38.8649 29.3898 38.7299 30.4538 38.5351 31.181C38.437 31.5469 38.3314 31.7976 38.2324 31.9505C38.1767 32.0365 38.1375 32.0706 38.1192 32.0832C38.0984 32.0755 38.052 32.0521 37.9769 31.9825C37.8432 31.8587 37.6791 31.6418 37.4938 31.3113C37.1257 30.6546 36.7326 29.6567 36.3431 28.3745C35.5664 25.8179 34.8314 22.2241 34.328 18.2023C33.8245 14.1805 33.651 10.5163 33.7735 7.84721C33.835 6.50855 33.97 5.4445 34.1649 4.71734C34.2629 4.35137 34.3685 4.10073 34.4675 3.94782ZM38.1076 32.0898C38.1076 32.0897 38.1081 32.0895 38.1093 32.0891L38.1076 32.0898ZM38.1322 32.0867C38.1322 32.0867 38.1316 32.0867 38.1303 32.0865L38.1322 32.0867ZM34.5906 3.80925C34.5917 3.80869 34.5923 3.8085 34.5923 3.80854L34.5906 3.80925Z" fill="black"/>
<path d="M34.5678 3.81162C34.5678 3.81158 34.5684 3.81161 34.5697 3.81185L34.5678 3.81162ZM34.4675 3.94782C34.5232 3.86182 34.5624 3.82768 34.5807 3.81514C34.6015 3.82278 34.6479 3.84622 34.7231 3.91583C34.8567 4.03961 35.0208 4.25651 35.2061 4.58701C35.5742 5.24369 35.9673 6.24164 36.3568 7.52384C37.1335 10.0804 37.8685 13.6742 38.3719 17.696C38.8754 21.7178 39.0489 25.382 38.9264 28.0511C38.8649 29.3898 38.7299 30.4538 38.5351 31.181C38.437 31.5469 38.3314 31.7976 38.2324 31.9505C38.1767 32.0365 38.1375 32.0706 38.1192 32.0832C38.0984 32.0755 38.052 32.0521 37.9769 31.9825C37.8432 31.8587 37.6791 31.6418 37.4938 31.3113C37.1257 30.6546 36.7326 29.6567 36.3431 28.3745C35.5664 25.8179 34.8314 22.2241 34.328 18.2023C33.8245 14.1805 33.651 10.5163 33.7735 7.84721C33.835 6.50855 33.97 5.4445 34.1649 4.71734C34.2629 4.35137 34.3685 4.10073 34.4675 3.94782ZM38.1076 32.0898C38.1076 32.0897 38.1081 32.0895 38.1093 32.0891L38.1076 32.0898ZM38.1322 32.0867C38.1322 32.0867 38.1316 32.0867 38.1303 32.0865L38.1322 32.0867ZM34.5906 3.80925C34.5917 3.80869 34.5923 3.8085 34.5923 3.80854L34.5906 3.80925Z" fill="black"/>
<path d="M34.5678 3.81162C34.5678 3.81158 34.5684 3.81161 34.5697 3.81185L34.5678 3.81162ZM34.4675 3.94782C34.5232 3.86182 34.5624 3.82768 34.5807 3.81514C34.6015 3.82278 34.6479 3.84622 34.7231 3.91583C34.8567 4.03961 35.0208 4.25651 35.2061 4.58701C35.5742 5.24369 35.9673 6.24164 36.3568 7.52384C37.1335 10.0804 37.8685 13.6742 38.3719 17.696C38.8754 21.7178 39.0489 25.382 38.9264 28.0511C38.8649 29.3898 38.7299 30.4538 38.5351 31.181C38.437 31.5469 38.3314 31.7976 38.2324 31.9505C38.1767 32.0365 38.1375 32.0706 38.1192 32.0832C38.0984 32.0755 38.052 32.0521 37.9769 31.9825C37.8432 31.8587 37.6791 31.6418 37.4938 31.3113C37.1257 30.6546 36.7326 29.6567 36.3431 28.3745C35.5664 25.8179 34.8314 22.2241 34.328 18.2023C33.8245 14.1805 33.651 10.5163 33.7735 7.84721C33.835 6.50855 33.97 5.4445 34.1649 4.71734C34.2629 4.35137 34.3685 4.10073 34.4675 3.94782ZM38.1076 32.0898C38.1076 32.0897 38.1081 32.0895 38.1093 32.0891L38.1076 32.0898ZM38.1322 32.0867C38.1322 32.0867 38.1316 32.0867 38.1303 32.0865L38.1322 32.0867ZM34.5906 3.80925C34.5917 3.80869 34.5923 3.8085 34.5923 3.80854L34.5906 3.80925Z" stroke="white"/>
<path d="M65.2876 21.5525C65.2877 21.5525 65.2878 21.5531 65.2878 21.5544L65.2876 21.5525ZM65.1342 21.4814C65.2296 21.5188 65.2708 21.5504 65.2868 21.5659C65.2834 21.5878 65.2697 21.6379 65.2164 21.7254C65.1217 21.881 64.9418 22.085 64.6547 22.3323C64.0843 22.8236 63.1845 23.4074 62.0054 24.0441C59.6544 25.3137 56.2785 26.7489 52.4372 28.0421C48.5959 29.3354 45.0394 30.2342 42.3993 30.645C41.0751 30.851 40.0055 30.9303 39.2541 30.884C38.876 30.8606 38.6093 30.807 38.4398 30.7404C38.3444 30.7029 38.3032 30.6713 38.2872 30.6559C38.2906 30.634 38.3043 30.5838 38.3576 30.4963C38.4523 30.3407 38.6322 30.1368 38.9193 29.8895C39.4897 29.3981 40.3895 28.8144 41.5686 28.1776C43.9196 26.908 47.2955 25.4729 51.1368 24.1796C54.9781 22.8864 58.5346 21.9876 61.1747 21.5768C62.4989 21.3708 63.5685 21.2914 64.3199 21.3378C64.698 21.3611 64.9647 21.4147 65.1342 21.4814ZM38.2784 30.6458C38.2785 30.6458 38.2789 30.6462 38.2794 30.6473L38.2784 30.6458ZM38.2864 30.6693C38.2863 30.6693 38.2862 30.6687 38.2862 30.6674L38.2864 30.6693ZM65.2945 21.5744C65.2953 21.5754 65.2956 21.576 65.2956 21.576L65.2945 21.5744Z" fill="black"/>
<path d="M65.2876 21.5525C65.2877 21.5525 65.2878 21.5531 65.2878 21.5544L65.2876 21.5525ZM65.1342 21.4814C65.2296 21.5188 65.2708 21.5504 65.2868 21.5659C65.2834 21.5878 65.2697 21.6379 65.2164 21.7254C65.1217 21.881 64.9418 22.085 64.6547 22.3323C64.0843 22.8236 63.1845 23.4074 62.0054 24.0441C59.6544 25.3137 56.2785 26.7489 52.4372 28.0421C48.5959 29.3354 45.0394 30.2342 42.3993 30.645C41.0751 30.851 40.0055 30.9303 39.2541 30.884C38.876 30.8606 38.6093 30.807 38.4398 30.7404C38.3444 30.7029 38.3032 30.6713 38.2872 30.6559C38.2906 30.634 38.3043 30.5838 38.3576 30.4963C38.4523 30.3407 38.6322 30.1368 38.9193 29.8895C39.4897 29.3981 40.3895 28.8144 41.5686 28.1776C43.9196 26.908 47.2955 25.4729 51.1368 24.1796C54.9781 22.8864 58.5346 21.9876 61.1747 21.5768C62.4989 21.3708 63.5685 21.2914 64.3199 21.3378C64.698 21.3611 64.9647 21.4147 65.1342 21.4814ZM38.2784 30.6458C38.2785 30.6458 38.2789 30.6462 38.2794 30.6473L38.2784 30.6458ZM38.2864 30.6693C38.2863 30.6693 38.2862 30.6687 38.2862 30.6674L38.2864 30.6693ZM65.2945 21.5744C65.2953 21.5754 65.2956 21.576 65.2956 21.576L65.2945 21.5744Z" fill="black"/>
<path d="M65.2876 21.5525C65.2877 21.5525 65.2878 21.5531 65.2878 21.5544L65.2876 21.5525ZM65.1342 21.4814C65.2296 21.5188 65.2708 21.5504 65.2868 21.5659C65.2834 21.5878 65.2697 21.6379 65.2164 21.7254C65.1217 21.881 64.9418 22.085 64.6547 22.3323C64.0843 22.8236 63.1845 23.4074 62.0054 24.0441C59.6544 25.3137 56.2785 26.7489 52.4372 28.0421C48.5959 29.3354 45.0394 30.2342 42.3993 30.645C41.0751 30.851 40.0055 30.9303 39.2541 30.884C38.876 30.8606 38.6093 30.807 38.4398 30.7404C38.3444 30.7029 38.3032 30.6713 38.2872 30.6559C38.2906 30.634 38.3043 30.5838 38.3576 30.4963C38.4523 30.3407 38.6322 30.1368 38.9193 29.8895C39.4897 29.3981 40.3895 28.8144 41.5686 28.1776C43.9196 26.908 47.2955 25.4729 51.1368 24.1796C54.9781 22.8864 58.5346 21.9876 61.1747 21.5768C62.4989 21.3708 63.5685 21.2914 64.3199 21.3378C64.698 21.3611 64.9647 21.4147 65.1342 21.4814ZM38.2784 30.6458C38.2785 30.6458 38.2789 30.6462 38.2794 30.6473L38.2784 30.6458ZM38.2864 30.6693C38.2863 30.6693 38.2862 30.6687 38.2862 30.6674L38.2864 30.6693ZM65.2945 21.5744C65.2953 21.5754 65.2956 21.576 65.2956 21.576L65.2945 21.5744Z" stroke="white"/>
<path d="M38.3185 31.2531L38.3178 31.2538L38.3149 31.2561C38.3118 31.2583 38.3049 31.2627 38.2923 31.2681C38.266 31.2792 38.2179 31.2928 38.1391 31.2983C37.9768 31.3095 37.7376 31.283 37.4133 31.1968C36.7678 31.0252 35.8985 30.649 34.8576 30.082C32.7832 28.9518 30.1181 27.1139 27.3618 24.8337C24.6054 22.5535 22.3007 20.2801 20.8018 18.4542C20.0497 17.5381 19.5173 16.7547 19.2278 16.1527C19.0824 15.8503 19.0114 15.6203 18.9921 15.4589C18.9827 15.3804 18.9871 15.3306 18.9931 15.3026C18.9959 15.2892 18.999 15.2816 19.0006 15.2782L19.0023 15.2749L19.0029 15.2741L19.0036 15.2734L19.0065 15.2711C19.0096 15.2688 19.0164 15.2644 19.0291 15.2591C19.0554 15.248 19.1035 15.2344 19.1823 15.2289C19.3446 15.2176 19.5838 15.2442 19.9081 15.3304C20.5536 15.5019 21.4229 15.8781 22.4638 16.4452C24.5382 17.5753 27.2033 19.4133 29.9596 21.6935C32.7159 23.9737 35.0207 26.2471 36.5196 28.0729C37.2717 28.9891 37.8041 29.7725 38.0936 30.3744C38.239 30.6769 38.31 30.9068 38.3293 31.0683C38.3387 31.1468 38.3343 31.1966 38.3283 31.2245C38.3255 31.2379 38.3224 31.2455 38.3208 31.249L38.3191 31.2523L38.3185 31.2531Z" fill="black"/>
<path d="M38.3185 31.2531L38.3178 31.2538L38.3149 31.2561C38.3118 31.2583 38.3049 31.2627 38.2923 31.2681C38.266 31.2792 38.2179 31.2928 38.1391 31.2983C37.9768 31.3095 37.7376 31.283 37.4133 31.1968C36.7678 31.0252 35.8985 30.649 34.8576 30.082C32.7832 28.9518 30.1181 27.1139 27.3618 24.8337C24.6054 22.5535 22.3007 20.2801 20.8018 18.4542C20.0497 17.5381 19.5173 16.7547 19.2278 16.1527C19.0824 15.8503 19.0114 15.6203 18.9921 15.4589C18.9827 15.3804 18.9871 15.3306 18.9931 15.3026C18.9959 15.2892 18.999 15.2816 19.0006 15.2782L19.0023 15.2749L19.0029 15.2741L19.0036 15.2734L19.0065 15.2711C19.0096 15.2688 19.0164 15.2644 19.0291 15.2591C19.0554 15.248 19.1035 15.2344 19.1823 15.2289C19.3446 15.2176 19.5838 15.2442 19.9081 15.3304C20.5536 15.5019 21.4229 15.8781 22.4638 16.4452C24.5382 17.5753 27.2033 19.4133 29.9596 21.6935C32.7159 23.9737 35.0207 26.2471 36.5196 28.0729C37.2717 28.9891 37.8041 29.7725 38.0936 30.3744C38.239 30.6769 38.31 30.9068 38.3293 31.0683C38.3387 31.1468 38.3343 31.1966 38.3283 31.2245C38.3255 31.2379 38.3224 31.2455 38.3208 31.249L38.3191 31.2523L38.3185 31.2531Z" fill="black"/>
<path d="M38.3185 31.2531L38.3178 31.2538L38.3149 31.2561C38.3118 31.2583 38.3049 31.2627 38.2923 31.2681C38.266 31.2792 38.2179 31.2928 38.1391 31.2983C37.9768 31.3095 37.7376 31.283 37.4133 31.1968C36.7678 31.0252 35.8985 30.649 34.8576 30.082C32.7832 28.9518 30.1181 27.1139 27.3618 24.8337C24.6054 22.5535 22.3007 20.2801 20.8018 18.4542C20.0497 17.5381 19.5173 16.7547 19.2278 16.1527C19.0824 15.8503 19.0114 15.6203 18.9921 15.4589C18.9827 15.3804 18.9871 15.3306 18.9931 15.3026C18.9959 15.2892 18.999 15.2816 19.0006 15.2782L19.0023 15.2749L19.0029 15.2741L19.0036 15.2734L19.0065 15.2711C19.0096 15.2688 19.0164 15.2644 19.0291 15.2591C19.0554 15.248 19.1035 15.2344 19.1823 15.2289C19.3446 15.2176 19.5838 15.2442 19.9081 15.3304C20.5536 15.5019 21.4229 15.8781 22.4638 16.4452C24.5382 17.5753 27.2033 19.4133 29.9596 21.6935C32.7159 23.9737 35.0207 26.2471 36.5196 28.0729C37.2717 28.9891 37.8041 29.7725 38.0936 30.3744C38.239 30.6769 38.31 30.9068 38.3293 31.0683C38.3387 31.1468 38.3343 31.1966 38.3283 31.2245C38.3255 31.2379 38.3224 31.2455 38.3208 31.249L38.3191 31.2523L38.3185 31.2531Z" stroke="white"/>
</svg>
