<svg width="88" height="81" viewBox="0 0 88 81" fill="none" xmlns="http://www.w3.org/2000/svg">
<path d="M87.5 40.5C87.5 62.5532 68.0642 80.5 44 80.5C19.9358 80.5 0.5 62.5532 0.5 40.5C0.5 18.4468 19.9358 0.5 44 0.5C68.0642 0.5 87.5 18.4468 87.5 40.5Z" fill="black" stroke="white"/>
<path d="M37.7812 35.0625L49.2812 35.1875C48.6146 37.7292 48.1146 39.8958 47.7812 41.6875C47.4896 43.4792 47.3021 44.9792 47.2188 46.1875C47.0521 47.5625 47.0104 48.7292 47.0938 49.6875C47.2188 50.5625 47.4271 51.5 47.7188 52.5C47.9688 53.3333 48.3438 54.2917 48.8438 55.375C49.3438 56.4583 50.0104 57.5417 50.8438 58.625C50.3438 58.4583 49.8021 58.3333 49.2188 58.25C48.6354 58.1667 48.0938 58.1042 47.5938 58.0625C47.0104 58.0208 46.4271 58.0208 45.8438 58.0625C45.2604 58.1042 44.6146 58.1667 43.9062 58.25C43.3229 58.3333 42.6146 58.4375 41.7812 58.5625C40.9479 58.6875 40.0729 58.8542 39.1562 59.0625C39.7812 57.1875 40.2604 55.5625 40.5938 54.1875C40.9688 52.8125 41.2396 51.6667 41.4062 50.75C41.5729 49.6667 41.6771 48.7917 41.7188 48.125C41.7188 47.2917 41.7188 46.3542 41.7188 45.3125C41.7188 44.2292 41.7188 43.1875 41.7188 42.1875C41.7188 41.1875 41.6979 40.3125 41.6562 39.5625C41.6146 38.7708 41.5312 38.2708 41.4062 38.0625L40.7812 37.4375C40.5312 37.2292 40.1562 36.9375 39.6562 36.5625C39.1979 36.1458 38.5729 35.6458 37.7812 35.0625ZM42.2188 25.4375C43.0938 24.9792 43.9688 24.8542 44.8438 25.0625C45.7604 25.2708 46.4688 25.6667 46.9688 26.25C47.4688 26.8333 47.6354 27.5208 47.4688 28.3125C47.3438 29.1042 46.6771 29.875 45.4688 30.625C44.2604 31.3333 43.1979 31.5833 42.2812 31.375C41.3646 31.1667 40.7188 30.7292 40.3438 30.0625C39.9688 29.3958 39.9062 28.625 40.1562 27.75C40.4062 26.8333 41.0938 26.0625 42.2188 25.4375Z" fill="white"/>
</svg>
