<svg width="88" height="81" viewBox="0 0 88 81" fill="none" xmlns="http://www.w3.org/2000/svg">
<path d="M87.5 40.5C87.5 62.5532 68.0642 80.5 44 80.5C19.9358 80.5 0.5 62.5532 0.5 40.5C0.5 18.4468 19.9358 0.5 44 0.5C68.0642 0.5 87.5 18.4468 87.5 40.5Z" fill="white" stroke="black"/>
<path d="M36.7812 35.0625L48.2812 35.1875C47.6146 37.7292 47.1146 39.8958 46.7812 41.6875C46.4896 43.4792 46.3021 44.9792 46.2188 46.1875C46.0521 47.5625 46.0104 48.7292 46.0938 49.6875C46.2188 50.5625 46.4271 51.5 46.7188 52.5C46.9688 53.3333 47.3438 54.2917 47.8438 55.375C48.3438 56.4583 49.0104 57.5417 49.8438 58.625C49.3438 58.4583 48.8021 58.3333 48.2188 58.25C47.6354 58.1667 47.0938 58.1042 46.5938 58.0625C46.0104 58.0208 45.4271 58.0208 44.8438 58.0625C44.2604 58.1042 43.6146 58.1667 42.9062 58.25C42.3229 58.3333 41.6146 58.4375 40.7812 58.5625C39.9479 58.6875 39.0729 58.8542 38.1562 59.0625C38.7812 57.1875 39.2604 55.5625 39.5938 54.1875C39.9688 52.8125 40.2396 51.6667 40.4062 50.75C40.5729 49.6667 40.6771 48.7917 40.7188 48.125C40.7188 47.2917 40.7188 46.3542 40.7188 45.3125C40.7188 44.2292 40.7188 43.1875 40.7188 42.1875C40.7188 41.1875 40.6979 40.3125 40.6562 39.5625C40.6146 38.7708 40.5312 38.2708 40.4062 38.0625L39.7812 37.4375C39.5312 37.2292 39.1562 36.9375 38.6562 36.5625C38.1979 36.1458 37.5729 35.6458 36.7812 35.0625ZM41.2188 25.4375C42.0938 24.9792 42.9688 24.8542 43.8438 25.0625C44.7604 25.2708 45.4688 25.6667 45.9688 26.25C46.4688 26.8333 46.6354 27.5208 46.4688 28.3125C46.3438 29.1042 45.6771 29.875 44.4688 30.625C43.2604 31.3333 42.1979 31.5833 41.2812 31.375C40.3646 31.1667 39.7188 30.7292 39.3438 30.0625C38.9688 29.3958 38.9062 28.625 39.1562 27.75C39.4062 26.8333 40.0938 26.0625 41.2188 25.4375Z" fill="black"/>
</svg>
