<svg width="139" height="72" viewBox="0 0 139 72" fill="none" xmlns="http://www.w3.org/2000/svg">
<rect x="0.5" y="0.5" width="138" height="71" rx="14.5" fill="white" stroke="black"/>
<rect x="12" y="14" width="44" height="45" rx="4" fill="white" stroke="black" stroke-width="2"/>
<path d="M34.7071 36.7071C35.0976 36.3166 35.0976 35.6834 34.7071 35.2929L28.3431 28.9289C27.9526 28.5384 27.3195 28.5384 26.9289 28.9289C26.5384 29.3195 26.5384 29.9526 26.9289 30.3431L32.5858 36L26.9289 41.6569C26.5384 42.0474 26.5384 42.6805 26.9289 43.0711C27.3195 43.4616 27.9526 43.4616 28.3431 43.0711L34.7071 36.7071ZM12 37H34V35H12V37Z" fill="black"/>
<path d="M78.3516 21.6719C78.6536 21.724 78.9193 21.7604 79.1484 21.7812C79.388 21.8021 79.5859 21.8177 79.7422 21.8281C79.9297 21.8385 80.0911 21.8438 80.2266 21.8438C80.362 21.8438 80.5547 21.8333 80.8047 21.8125C81.013 21.7917 81.2839 21.7656 81.6172 21.7344C81.9609 21.7031 82.3828 21.651 82.8828 21.5781C82.737 21.6198 82.6016 21.7396 82.4766 21.9375C82.362 22.125 82.2578 22.3281 82.1641 22.5469C82.0495 22.8073 81.9505 23.0938 81.8672 23.4062C81.7943 23.6875 81.7005 24.0729 81.5859 24.5625C81.4818 25.0521 81.3776 25.5833 81.2734 26.1562C81.1797 26.7292 81.1068 27.3125 81.0547 27.9062C81.0026 28.4896 80.9922 29.026 81.0234 29.5156C81.0651 30.0052 81.1641 30.4115 81.3203 30.7344C81.4766 31.0469 81.7161 31.2135 82.0391 31.2344C82.5286 31.276 82.9349 31.2812 83.2578 31.25C83.5911 31.2083 83.862 31.151 84.0703 31.0781C84.2786 31.0052 84.4401 30.9219 84.5547 30.8281C84.6693 30.724 84.7578 30.625 84.8203 30.5312C84.987 30.2917 85.1589 29.9844 85.3359 29.6094C85.513 29.2344 85.6693 28.875 85.8047 28.5312C85.9505 28.1875 86.0703 27.8958 86.1641 27.6562C86.2578 27.4167 86.3047 27.3021 86.3047 27.3125C86.3047 27.3333 86.2995 27.4531 86.2891 27.6719C86.2891 27.8802 86.2839 28.1354 86.2734 28.4375C86.2734 28.7292 86.2682 29.0365 86.2578 29.3594C86.2578 29.6823 86.2526 29.9583 86.2422 30.1875C86.2318 30.375 86.2214 30.5833 86.2109 30.8125C86.2005 31.0104 86.1901 31.2448 86.1797 31.5156C86.1797 31.7865 86.1693 32.0833 86.1484 32.4062C85.7109 32.375 85.2943 32.3542 84.8984 32.3438C84.5026 32.3333 84.1536 32.3281 83.8516 32.3281C83.4974 32.3281 83.1693 32.3333 82.8672 32.3438C82.5443 32.3542 82.1693 32.3698 81.7422 32.3906C81.3776 32.4115 80.9245 32.4375 80.3828 32.4688C79.8411 32.4896 79.2161 32.5208 78.5078 32.5625C78.5911 32.4167 78.6589 32.2812 78.7109 32.1562C78.7734 32.0312 78.8203 31.9271 78.8516 31.8438C78.8932 31.7396 78.9193 31.651 78.9297 31.5781C78.9922 31.2448 79.0443 30.8229 79.0859 30.3125C79.1276 29.7917 79.1589 29.2396 79.1797 28.6562C79.2109 28.0729 79.2266 27.4792 79.2266 26.875C79.237 26.2604 79.237 25.6927 79.2266 25.1719C79.2161 24.651 79.1953 24.1979 79.1641 23.8125C79.1432 23.4271 79.112 23.1615 79.0703 23.0156C79.0182 22.849 78.9557 22.6823 78.8828 22.5156C78.8203 22.3698 78.7422 22.224 78.6484 22.0781C78.5651 21.9219 78.4661 21.7865 78.3516 21.6719ZM91.8516 21.2188C92.4141 21.2396 92.9818 21.3438 93.5547 21.5312C94.138 21.7083 94.6745 22 95.1641 22.4062C95.6536 22.8021 96.0703 23.3177 96.4141 23.9531C96.7578 24.5781 96.9714 25.3438 97.0547 26.25C97.1276 26.9896 97.0339 27.724 96.7734 28.4531C96.5234 29.1719 96.1745 29.8333 95.7266 30.4375C95.2786 31.0417 94.763 31.5573 94.1797 31.9844C93.5964 32.401 93.013 32.6771 92.4297 32.8125C92.0755 32.8958 91.6849 32.9062 91.2578 32.8438C90.8411 32.7708 90.4141 32.6406 89.9766 32.4531C89.5495 32.2552 89.1276 32.0052 88.7109 31.7031C88.3047 31.401 87.9349 31.0573 87.6016 30.6719C87.2682 30.276 86.987 29.849 86.7578 29.3906C86.5391 28.9323 86.4036 28.4531 86.3516 27.9531C86.2995 27.5365 86.2943 27.0781 86.3359 26.5781C86.388 26.0677 86.487 25.5625 86.6328 25.0625C86.7891 24.5521 87.0026 24.0625 87.2734 23.5938C87.5547 23.1146 87.9089 22.6979 88.3359 22.3438C88.763 21.9792 89.263 21.6979 89.8359 21.5C90.4193 21.2917 91.0911 21.1979 91.8516 21.2188ZM89.0547 27.5469C88.9089 28.6615 89.013 29.5573 89.3672 30.2344C89.7318 30.9115 90.2786 31.3229 91.0078 31.4688C91.362 31.5417 91.7005 31.4688 92.0234 31.25C92.3568 31.0208 92.6589 30.6927 92.9297 30.2656C93.2005 29.8385 93.4349 29.3385 93.6328 28.7656C93.8307 28.1927 93.9766 27.5938 94.0703 26.9688C94.1641 26.3438 94.1693 25.7812 94.0859 25.2812C94.013 24.7708 93.8828 24.3385 93.6953 23.9844C93.5078 23.6198 93.2786 23.3385 93.0078 23.1406C92.7474 22.9427 92.4766 22.8333 92.1953 22.8125C91.7057 22.7812 91.2786 22.9115 90.9141 23.2031C90.5495 23.4844 90.2422 23.8542 89.9922 24.3125C89.7422 24.7708 89.5391 25.2865 89.3828 25.8594C89.237 26.4323 89.1276 26.9948 89.0547 27.5469ZM103.508 21.7188C104.174 21.7083 104.721 21.8281 105.148 22.0781C105.586 22.3281 105.94 22.625 106.211 22.9688C106.482 23.3125 106.69 23.6615 106.836 24.0156C106.982 24.3594 107.096 24.6302 107.18 24.8281C107.201 24.8802 107.242 24.9479 107.305 25.0312C107.357 25.1042 107.43 25.1927 107.523 25.2969C107.628 25.3906 107.758 25.5 107.914 25.625C107.591 25.6354 107.305 25.6458 107.055 25.6562C106.805 25.6562 106.591 25.6615 106.414 25.6719C106.216 25.6823 106.039 25.6927 105.883 25.7031C105.727 25.7135 105.534 25.7292 105.305 25.75C105.096 25.7708 104.841 25.7917 104.539 25.8125C104.237 25.8333 103.867 25.8646 103.43 25.9062C103.69 25.5938 103.893 25.3177 104.039 25.0781C104.195 24.8281 104.31 24.6094 104.383 24.4219C104.466 24.224 104.513 24.0521 104.523 23.9062C104.544 23.7604 104.539 23.6354 104.508 23.5312C104.445 23.2917 104.284 23.1198 104.023 23.0156C103.273 22.8073 102.617 22.974 102.055 23.5156C101.503 24.0469 101.107 24.9219 100.867 26.1406C100.753 26.7448 100.643 27.375 100.539 28.0312C100.445 28.6771 100.409 29.2708 100.43 29.8125C100.451 30.3438 100.555 30.776 100.742 31.1094C100.93 31.4427 101.253 31.599 101.711 31.5781C102.159 31.5573 102.539 31.4844 102.852 31.3594C103.164 31.224 103.414 31.0677 103.602 30.8906C103.789 30.7031 103.919 30.5052 103.992 30.2969C104.076 30.0781 104.107 29.875 104.086 29.6875C104.044 29.5417 103.935 29.3854 103.758 29.2188C103.602 29.0729 103.367 28.9115 103.055 28.7344C102.742 28.5469 102.294 28.3542 101.711 28.1562C102.263 28.125 102.716 28.1042 103.07 28.0938C103.435 28.0729 103.721 28.0521 103.93 28.0312C104.18 28.0104 104.372 27.9948 104.508 27.9844C104.633 27.974 104.815 27.9635 105.055 27.9531C105.263 27.9427 105.529 27.9375 105.852 27.9375C106.185 27.9375 106.602 27.9323 107.102 27.9219C106.914 28.1094 106.768 28.2812 106.664 28.4375C106.612 28.5208 106.565 28.5938 106.523 28.6562C106.482 28.7604 106.466 28.974 106.477 29.2969C106.477 29.5677 106.497 29.9688 106.539 30.5C106.581 31.0208 106.659 31.7344 106.773 32.6406L104.695 32.9219L104.789 30.8125C104.549 31.3854 104.247 31.8125 103.883 32.0938C103.529 32.375 103.19 32.5729 102.867 32.6875C102.482 32.8229 102.081 32.8854 101.664 32.875C101.122 32.8229 100.581 32.6979 100.039 32.5C99.4974 32.3021 99.0182 32 98.6016 31.5938C98.1849 31.1771 97.862 30.6406 97.6328 29.9844C97.4141 29.3281 97.3464 28.5156 97.4297 27.5469C97.5234 26.5781 97.7526 25.7344 98.1172 25.0156C98.4922 24.2865 98.9557 23.6823 99.5078 23.2031C100.06 22.724 100.68 22.3646 101.367 22.125C102.065 21.875 102.779 21.7396 103.508 21.7188ZM113.789 21.7188C114.456 21.7083 115.003 21.8281 115.43 22.0781C115.867 22.3281 116.221 22.625 116.492 22.9688C116.763 23.3125 116.971 23.6615 117.117 24.0156C117.263 24.3594 117.378 24.6302 117.461 24.8281C117.482 24.8802 117.523 24.9479 117.586 25.0312C117.638 25.1042 117.711 25.1927 117.805 25.2969C117.909 25.3906 118.039 25.5 118.195 25.625C117.872 25.6354 117.586 25.6458 117.336 25.6562C117.086 25.6562 116.872 25.6615 116.695 25.6719C116.497 25.6823 116.32 25.6927 116.164 25.7031C116.008 25.7135 115.815 25.7292 115.586 25.75C115.378 25.7708 115.122 25.7917 114.82 25.8125C114.518 25.8333 114.148 25.8646 113.711 25.9062C113.971 25.5938 114.174 25.3177 114.32 25.0781C114.477 24.8281 114.591 24.6094 114.664 24.4219C114.747 24.224 114.794 24.0521 114.805 23.9062C114.826 23.7604 114.82 23.6354 114.789 23.5312C114.727 23.2917 114.565 23.1198 114.305 23.0156C113.555 22.8073 112.898 22.974 112.336 23.5156C111.784 24.0469 111.388 24.9219 111.148 26.1406C111.034 26.7448 110.924 27.375 110.82 28.0312C110.727 28.6771 110.69 29.2708 110.711 29.8125C110.732 30.3438 110.836 30.776 111.023 31.1094C111.211 31.4427 111.534 31.599 111.992 31.5781C112.44 31.5573 112.82 31.4844 113.133 31.3594C113.445 31.224 113.695 31.0677 113.883 30.8906C114.07 30.7031 114.201 30.5052 114.273 30.2969C114.357 30.0781 114.388 29.875 114.367 29.6875C114.326 29.5417 114.216 29.3854 114.039 29.2188C113.883 29.0729 113.648 28.9115 113.336 28.7344C113.023 28.5469 112.576 28.3542 111.992 28.1562C112.544 28.125 112.997 28.1042 113.352 28.0938C113.716 28.0729 114.003 28.0521 114.211 28.0312C114.461 28.0104 114.654 27.9948 114.789 27.9844C114.914 27.974 115.096 27.9635 115.336 27.9531C115.544 27.9427 115.81 27.9375 116.133 27.9375C116.466 27.9375 116.883 27.9323 117.383 27.9219C117.195 28.1094 117.049 28.2812 116.945 28.4375C116.893 28.5208 116.846 28.5938 116.805 28.6562C116.763 28.7604 116.747 28.974 116.758 29.2969C116.758 29.5677 116.779 29.9688 116.82 30.5C116.862 31.0208 116.94 31.7344 117.055 32.6406L114.977 32.9219L115.07 30.8125C114.831 31.3854 114.529 31.8125 114.164 32.0938C113.81 32.375 113.471 32.5729 113.148 32.6875C112.763 32.8229 112.362 32.8854 111.945 32.875C111.404 32.8229 110.862 32.6979 110.32 32.5C109.779 32.3021 109.299 32 108.883 31.5938C108.466 31.1771 108.143 30.6406 107.914 29.9844C107.695 29.3281 107.628 28.5156 107.711 27.5469C107.805 26.5781 108.034 25.7344 108.398 25.0156C108.773 24.2865 109.237 23.6823 109.789 23.2031C110.341 22.724 110.961 22.3646 111.648 22.125C112.346 21.875 113.06 21.7396 113.789 21.7188ZM85.3438 41.2344C85.6979 41.276 85.9948 41.3073 86.2344 41.3281C86.4844 41.3385 86.6875 41.3542 86.8438 41.375C87.0312 41.3958 87.1771 41.4062 87.2812 41.4062C87.3958 41.4167 87.5677 41.4115 87.7969 41.3906C87.9948 41.3698 88.2604 41.3438 88.5938 41.3125C88.9375 41.2812 89.375 41.2344 89.9062 41.1719C89.6667 41.3802 89.474 41.5833 89.3281 41.7812C89.1927 41.9688 89.0885 42.1354 89.0156 42.2812C88.9219 42.4583 88.8646 42.625 88.8438 42.7812C88.8021 43.0312 88.7656 43.375 88.7344 43.8125C88.7135 44.2396 88.6927 44.7083 88.6719 45.2188C88.651 45.7292 88.6406 46.2552 88.6406 46.7969C88.6406 47.3385 88.6458 47.8542 88.6562 48.3438C88.6771 48.8229 88.7083 49.25 88.75 49.625C88.8021 50 88.8646 50.2708 88.9375 50.4375C89.0417 50.625 89.151 50.8125 89.2656 51C89.3698 51.1562 89.4948 51.3177 89.6406 51.4844C89.7865 51.651 89.9531 51.7865 90.1406 51.8906C89.526 51.8594 89.0365 51.8438 88.6719 51.8438H88.1094C87.9427 51.8438 87.7292 51.8542 87.4688 51.875C87.25 51.8958 86.974 51.9167 86.6406 51.9375C86.3073 51.9583 85.9062 51.9896 85.4375 52.0312C85.6771 51.7708 85.8646 51.5208 86 51.2812C86.1354 51.0417 86.2448 50.8333 86.3281 50.6562C86.4219 50.4479 86.4844 50.25 86.5156 50.0625C86.5573 49.7917 86.5885 49.4583 86.6094 49.0625C86.6406 48.6562 86.6615 48.224 86.6719 47.7656C86.6823 47.2969 86.6823 46.8229 86.6719 46.3438C86.6719 45.8542 86.6615 45.3854 86.6406 44.9375C86.6198 44.4896 86.5885 44.0833 86.5469 43.7188C86.5156 43.3542 86.474 43.0625 86.4219 42.8438C86.3906 42.7083 86.3281 42.5573 86.2344 42.3906C86.151 42.2448 86.0365 42.0781 85.8906 41.8906C85.7552 41.6927 85.5729 41.474 85.3438 41.2344ZM90.1406 40.9219C90.6094 41.0052 90.9948 41.0625 91.2969 41.0938C91.599 41.125 91.8438 41.151 92.0312 41.1719C92.25 41.1927 92.4219 41.1979 92.5469 41.1875H93.0156C93.1823 41.1875 93.3906 41.1875 93.6406 41.1875C93.901 41.1771 94.224 41.1719 94.6094 41.1719C94.8281 41.6823 95.026 42.151 95.2031 42.5781C95.3906 43.0052 95.5469 43.3698 95.6719 43.6719C95.8177 44.0365 95.9531 44.3646 96.0781 44.6562C96.224 45.0208 96.3802 45.4219 96.5469 45.8594C96.7135 46.2969 96.8646 46.7083 97 47.0938C97.1458 47.4792 97.2656 47.7969 97.3594 48.0469C97.4531 48.2969 97.5 48.4115 97.5 48.3906C97.5 48.3802 97.5052 48.276 97.5156 48.0781C97.526 47.8698 97.5365 47.6146 97.5469 47.3125C97.5573 47 97.5677 46.6615 97.5781 46.2969C97.599 45.9219 97.6094 45.5625 97.6094 45.2188C97.6198 44.8646 97.625 44.5417 97.625 44.25C97.625 43.9583 97.6146 43.7396 97.5938 43.5938C97.5625 43.4167 97.5 43.2135 97.4062 42.9844C97.3229 42.7865 97.2083 42.5521 97.0625 42.2812C96.9167 42 96.7135 41.6823 96.4531 41.3281C96.8802 41.3385 97.2292 41.3438 97.5 41.3438C97.7708 41.3438 97.9896 41.3438 98.1562 41.3438C98.3438 41.3438 98.4896 41.3385 98.5938 41.3281C98.7292 41.3281 98.8958 41.3177 99.0938 41.2969C99.2708 41.276 99.4896 41.2604 99.75 41.25C100.021 41.2292 100.354 41.2031 100.75 41.1719C100.521 41.3802 100.339 41.5781 100.203 41.7656C100.068 41.9531 99.9583 42.1198 99.875 42.2656C99.7812 42.4323 99.7188 42.5885 99.6875 42.7344C99.6458 42.9219 99.6094 43.2292 99.5781 43.6562C99.5573 44.0729 99.5312 44.5417 99.5 45.0625C99.4792 45.5833 99.4583 46.125 99.4375 46.6875C99.4167 47.25 99.3958 47.7656 99.375 48.2344C99.375 48.5885 99.3646 48.9688 99.3438 49.375C99.3229 49.7188 99.3021 50.1094 99.2812 50.5469C99.2604 50.974 99.2344 51.4062 99.2031 51.8438L97.8125 51.875C97.4062 51.1562 97.0625 50.5417 96.7812 50.0312C96.5104 49.5104 96.2865 49.0833 96.1094 48.75C95.9115 48.3646 95.7448 48.0417 95.6094 47.7812C95.4948 47.5312 95.3438 47.2448 95.1562 46.9219C95 46.651 94.8021 46.3177 94.5625 45.9219C94.3333 45.526 94.0573 45.0729 93.7344 44.5625C93.7031 45.2812 93.6875 45.8958 93.6875 46.4062C93.6979 46.9062 93.7135 47.3229 93.7344 47.6562C93.7656 48.0417 93.8021 48.3646 93.8438 48.625C93.8958 48.875 93.9688 49.1562 94.0625 49.4688C94.1458 49.7396 94.2448 50.0573 94.3594 50.4219C94.4844 50.7865 94.6354 51.1979 94.8125 51.6562C94.1979 51.625 93.7396 51.6094 93.4375 51.6094H92.9688C92.8229 51.6094 92.625 51.625 92.375 51.6562C92.1667 51.6771 91.8802 51.7083 91.5156 51.75C91.1615 51.7917 90.7188 51.849 90.1875 51.9219C90.4375 51.6198 90.6354 51.3438 90.7812 51.0938C90.9375 50.8333 91.0573 50.6146 91.1406 50.4375C91.2448 50.2292 91.3177 50.0469 91.3594 49.8906C91.3906 49.724 91.4115 49.4375 91.4219 49.0312C91.4323 48.6146 91.4323 48.1458 91.4219 47.625C91.4219 47.0938 91.4115 46.5365 91.3906 45.9531C91.3802 45.3698 91.3646 44.8281 91.3438 44.3281C91.3229 43.8281 91.2969 43.401 91.2656 43.0469C91.2448 42.6927 91.2292 42.474 91.2188 42.3906C91.1875 42.2552 91.125 42.1094 91.0312 41.9531C90.9479 41.8177 90.8385 41.6667 90.7031 41.5C90.5677 41.3229 90.3802 41.1302 90.1406 40.9219ZM100.438 40.9219C100.906 41.0052 101.292 41.0625 101.594 41.0938C101.896 41.125 102.141 41.151 102.328 41.1719C102.547 41.1927 102.719 41.1979 102.844 41.1875H103.312C103.479 41.1875 103.688 41.1875 103.938 41.1875C104.198 41.1771 104.521 41.1719 104.906 41.1719C105.125 41.6823 105.323 42.151 105.5 42.5781C105.688 43.0052 105.844 43.3698 105.969 43.6719C106.115 44.0365 106.25 44.3646 106.375 44.6562C106.521 45.0208 106.677 45.4219 106.844 45.8594C107.01 46.2969 107.161 46.7083 107.297 47.0938C107.443 47.4792 107.562 47.7969 107.656 48.0469C107.75 48.2969 107.797 48.4115 107.797 48.3906C107.797 48.3802 107.802 48.276 107.812 48.0781C107.823 47.8698 107.833 47.6146 107.844 47.3125C107.854 47 107.865 46.6615 107.875 46.2969C107.896 45.9219 107.906 45.5625 107.906 45.2188C107.917 44.8646 107.922 44.5417 107.922 44.25C107.922 43.9583 107.911 43.7396 107.891 43.5938C107.859 43.4167 107.797 43.2135 107.703 42.9844C107.62 42.7865 107.505 42.5521 107.359 42.2812C107.214 42 107.01 41.6823 106.75 41.3281C107.177 41.3385 107.526 41.3438 107.797 41.3438C108.068 41.3438 108.286 41.3438 108.453 41.3438C108.641 41.3438 108.786 41.3385 108.891 41.3281C109.026 41.3281 109.193 41.3177 109.391 41.2969C109.568 41.276 109.786 41.2604 110.047 41.25C110.318 41.2292 110.651 41.2031 111.047 41.1719C110.818 41.3802 110.635 41.5781 110.5 41.7656C110.365 41.9531 110.255 42.1198 110.172 42.2656C110.078 42.4323 110.016 42.5885 109.984 42.7344C109.943 42.9219 109.906 43.2292 109.875 43.6562C109.854 44.0729 109.828 44.5417 109.797 45.0625C109.776 45.5833 109.755 46.125 109.734 46.6875C109.714 47.25 109.693 47.7656 109.672 48.2344C109.672 48.5885 109.661 48.9688 109.641 49.375C109.62 49.7188 109.599 50.1094 109.578 50.5469C109.557 50.974 109.531 51.4062 109.5 51.8438L108.109 51.875C107.703 51.1562 107.359 50.5417 107.078 50.0312C106.807 49.5104 106.583 49.0833 106.406 48.75C106.208 48.3646 106.042 48.0417 105.906 47.7812C105.792 47.5312 105.641 47.2448 105.453 46.9219C105.297 46.651 105.099 46.3177 104.859 45.9219C104.63 45.526 104.354 45.0729 104.031 44.5625C104 45.2812 103.984 45.8958 103.984 46.4062C103.995 46.9062 104.01 47.3229 104.031 47.6562C104.062 48.0417 104.099 48.3646 104.141 48.625C104.193 48.875 104.266 49.1562 104.359 49.4688C104.443 49.7396 104.542 50.0573 104.656 50.4219C104.781 50.7865 104.932 51.1979 105.109 51.6562C104.495 51.625 104.036 51.6094 103.734 51.6094H103.266C103.12 51.6094 102.922 51.625 102.672 51.6562C102.464 51.6771 102.177 51.7083 101.812 51.75C101.458 51.7917 101.016 51.849 100.484 51.9219C100.734 51.6198 100.932 51.3438 101.078 51.0938C101.234 50.8333 101.354 50.6146 101.438 50.4375C101.542 50.2292 101.615 50.0469 101.656 49.8906C101.688 49.724 101.708 49.4375 101.719 49.0312C101.729 48.6146 101.729 48.1458 101.719 47.625C101.719 47.0938 101.708 46.5365 101.688 45.9531C101.677 45.3698 101.661 44.8281 101.641 44.3281C101.62 43.8281 101.594 43.401 101.562 43.0469C101.542 42.6927 101.526 42.474 101.516 42.3906C101.484 42.2552 101.422 42.1094 101.328 41.9531C101.245 41.8177 101.135 41.6667 101 41.5C100.865 41.3229 100.677 41.1302 100.438 40.9219Z" fill="black"/>
</svg>
