<svg width="139" height="72" viewBox="0 0 139 72" fill="none" xmlns="http://www.w3.org/2000/svg">
<rect x="0.5" y="0.5" width="138" height="71" rx="14.5" fill="black" stroke="white"/>
<rect x="12" y="14" width="44" height="45" rx="4" fill="black" stroke="white" stroke-width="2"/>
<path d="M34.7071 36.7071C35.0976 36.3166 35.0976 35.6834 34.7071 35.2929L28.3431 28.9289C27.9526 28.5384 27.3195 28.5384 26.9289 28.9289C26.5384 29.3195 26.5384 29.9526 26.9289 30.3431L32.5858 36L26.9289 41.6569C26.5384 42.0474 26.5384 42.6805 26.9289 43.0711C27.3195 43.4616 27.9526 43.4616 28.3431 43.0711L34.7071 36.7071ZM12 37H34V35H12V37Z" fill="white"/>
<path d="M75.8281 31.6719C76.1302 31.724 76.3958 31.7604 76.625 31.7812C76.8646 31.8021 77.0625 31.8177 77.2188 31.8281C77.4062 31.8385 77.5677 31.8438 77.7031 31.8438C77.8385 31.8438 78.0312 31.8333 78.2812 31.8125C78.4896 31.7917 78.7604 31.7656 79.0938 31.7344C79.4375 31.7031 79.8594 31.651 80.3594 31.5781C80.2135 31.6198 80.0781 31.7396 79.9531 31.9375C79.8385 32.125 79.7344 32.3281 79.6406 32.5469C79.526 32.8073 79.4271 33.0938 79.3438 33.4062C79.2708 33.6875 79.1771 34.0729 79.0625 34.5625C78.9583 35.0521 78.8542 35.5833 78.75 36.1562C78.6562 36.7292 78.5833 37.3125 78.5312 37.9062C78.4792 38.4896 78.4688 39.026 78.5 39.5156C78.5417 40.0052 78.6406 40.4115 78.7969 40.7344C78.9531 41.0469 79.1927 41.2135 79.5156 41.2344C80.0052 41.276 80.4115 41.2812 80.7344 41.25C81.0677 41.2083 81.3385 41.151 81.5469 41.0781C81.7552 41.0052 81.9167 40.9219 82.0312 40.8281C82.1458 40.724 82.2344 40.625 82.2969 40.5312C82.4635 40.2917 82.6354 39.9844 82.8125 39.6094C82.9896 39.2344 83.1458 38.875 83.2812 38.5312C83.4271 38.1875 83.5469 37.8958 83.6406 37.6562C83.7344 37.4167 83.7812 37.3021 83.7812 37.3125C83.7812 37.3333 83.776 37.4531 83.7656 37.6719C83.7656 37.8802 83.7604 38.1354 83.75 38.4375C83.75 38.7292 83.7448 39.0365 83.7344 39.3594C83.7344 39.6823 83.7292 39.9583 83.7188 40.1875C83.7083 40.375 83.6979 40.5833 83.6875 40.8125C83.6771 41.0104 83.6667 41.2448 83.6562 41.5156C83.6562 41.7865 83.6458 42.0833 83.625 42.4062C83.1875 42.375 82.7708 42.3542 82.375 42.3438C81.9792 42.3333 81.6302 42.3281 81.3281 42.3281C80.974 42.3281 80.6458 42.3333 80.3438 42.3438C80.0208 42.3542 79.6458 42.3698 79.2188 42.3906C78.8542 42.4115 78.401 42.4375 77.8594 42.4688C77.3177 42.4896 76.6927 42.5208 75.9844 42.5625C76.0677 42.4167 76.1354 42.2812 76.1875 42.1562C76.25 42.0312 76.2969 41.9271 76.3281 41.8438C76.3698 41.7396 76.3958 41.651 76.4062 41.5781C76.4688 41.2448 76.5208 40.8229 76.5625 40.3125C76.6042 39.7917 76.6354 39.2396 76.6562 38.6562C76.6875 38.0729 76.7031 37.4792 76.7031 36.875C76.7135 36.2604 76.7135 35.6927 76.7031 35.1719C76.6927 34.651 76.6719 34.1979 76.6406 33.8125C76.6198 33.4271 76.5885 33.1615 76.5469 33.0156C76.4948 32.849 76.4323 32.6823 76.3594 32.5156C76.2969 32.3698 76.2188 32.224 76.125 32.0781C76.0417 31.9219 75.9427 31.7865 75.8281 31.6719ZM89.3281 31.2188C89.8906 31.2396 90.4583 31.3438 91.0312 31.5312C91.6146 31.7083 92.151 32 92.6406 32.4062C93.1302 32.8021 93.5469 33.3177 93.8906 33.9531C94.2344 34.5781 94.4479 35.3438 94.5312 36.25C94.6042 36.9896 94.5104 37.724 94.25 38.4531C94 39.1719 93.651 39.8333 93.2031 40.4375C92.7552 41.0417 92.2396 41.5573 91.6562 41.9844C91.0729 42.401 90.4896 42.6771 89.9062 42.8125C89.5521 42.8958 89.1615 42.9062 88.7344 42.8438C88.3177 42.7708 87.8906 42.6406 87.4531 42.4531C87.026 42.2552 86.6042 42.0052 86.1875 41.7031C85.7812 41.401 85.4115 41.0573 85.0781 40.6719C84.7448 40.276 84.4635 39.849 84.2344 39.3906C84.0156 38.9323 83.8802 38.4531 83.8281 37.9531C83.776 37.5365 83.7708 37.0781 83.8125 36.5781C83.8646 36.0677 83.9635 35.5625 84.1094 35.0625C84.2656 34.5521 84.4792 34.0625 84.75 33.5938C85.0312 33.1146 85.3854 32.6979 85.8125 32.3438C86.2396 31.9792 86.7396 31.6979 87.3125 31.5C87.8958 31.2917 88.5677 31.1979 89.3281 31.2188ZM86.5312 37.5469C86.3854 38.6615 86.4896 39.5573 86.8438 40.2344C87.2083 40.9115 87.7552 41.3229 88.4844 41.4688C88.8385 41.5417 89.1771 41.4688 89.5 41.25C89.8333 41.0208 90.1354 40.6927 90.4062 40.2656C90.6771 39.8385 90.9115 39.3385 91.1094 38.7656C91.3073 38.1927 91.4531 37.5938 91.5469 36.9688C91.6406 36.3438 91.6458 35.7812 91.5625 35.2812C91.4896 34.7708 91.3594 34.3385 91.1719 33.9844C90.9844 33.6198 90.7552 33.3385 90.4844 33.1406C90.224 32.9427 89.9531 32.8333 89.6719 32.8125C89.1823 32.7812 88.7552 32.9115 88.3906 33.2031C88.026 33.4844 87.7188 33.8542 87.4688 34.3125C87.2188 34.7708 87.0156 35.2865 86.8594 35.8594C86.7135 36.4323 86.6042 36.9948 86.5312 37.5469ZM100.984 31.7188C101.651 31.7083 102.198 31.8281 102.625 32.0781C103.062 32.3281 103.417 32.625 103.688 32.9688C103.958 33.3125 104.167 33.6615 104.312 34.0156C104.458 34.3594 104.573 34.6302 104.656 34.8281C104.677 34.8802 104.719 34.9479 104.781 35.0312C104.833 35.1042 104.906 35.1927 105 35.2969C105.104 35.3906 105.234 35.5 105.391 35.625C105.068 35.6354 104.781 35.6458 104.531 35.6562C104.281 35.6562 104.068 35.6615 103.891 35.6719C103.693 35.6823 103.516 35.6927 103.359 35.7031C103.203 35.7135 103.01 35.7292 102.781 35.75C102.573 35.7708 102.318 35.7917 102.016 35.8125C101.714 35.8333 101.344 35.8646 100.906 35.9062C101.167 35.5938 101.37 35.3177 101.516 35.0781C101.672 34.8281 101.786 34.6094 101.859 34.4219C101.943 34.224 101.99 34.0521 102 33.9062C102.021 33.7604 102.016 33.6354 101.984 33.5312C101.922 33.2917 101.76 33.1198 101.5 33.0156C100.75 32.8073 100.094 32.974 99.5312 33.5156C98.9792 34.0469 98.5833 34.9219 98.3438 36.1406C98.2292 36.7448 98.1198 37.375 98.0156 38.0312C97.9219 38.6771 97.8854 39.2708 97.9062 39.8125C97.9271 40.3438 98.0312 40.776 98.2188 41.1094C98.4062 41.4427 98.7292 41.599 99.1875 41.5781C99.6354 41.5573 100.016 41.4844 100.328 41.3594C100.641 41.224 100.891 41.0677 101.078 40.8906C101.266 40.7031 101.396 40.5052 101.469 40.2969C101.552 40.0781 101.583 39.875 101.562 39.6875C101.521 39.5417 101.411 39.3854 101.234 39.2188C101.078 39.0729 100.844 38.9115 100.531 38.7344C100.219 38.5469 99.7708 38.3542 99.1875 38.1562C99.7396 38.125 100.193 38.1042 100.547 38.0938C100.911 38.0729 101.198 38.0521 101.406 38.0312C101.656 38.0104 101.849 37.9948 101.984 37.9844C102.109 37.974 102.292 37.9635 102.531 37.9531C102.74 37.9427 103.005 37.9375 103.328 37.9375C103.661 37.9375 104.078 37.9323 104.578 37.9219C104.391 38.1094 104.245 38.2812 104.141 38.4375C104.089 38.5208 104.042 38.5938 104 38.6562C103.958 38.7604 103.943 38.974 103.953 39.2969C103.953 39.5677 103.974 39.9688 104.016 40.5C104.057 41.0208 104.135 41.7344 104.25 42.6406L102.172 42.9219L102.266 40.8125C102.026 41.3854 101.724 41.8125 101.359 42.0938C101.005 42.375 100.667 42.5729 100.344 42.6875C99.9583 42.8229 99.5573 42.8854 99.1406 42.875C98.599 42.8229 98.0573 42.6979 97.5156 42.5C96.974 42.3021 96.4948 42 96.0781 41.5938C95.6615 41.1771 95.3385 40.6406 95.1094 39.9844C94.8906 39.3281 94.8229 38.5156 94.9062 37.5469C95 36.5781 95.2292 35.7344 95.5938 35.0156C95.9688 34.2865 96.4323 33.6823 96.9844 33.2031C97.5365 32.724 98.1562 32.3646 98.8438 32.125C99.5417 31.875 100.255 31.7396 100.984 31.7188ZM105.312 32.2344C105.667 32.276 105.964 32.3073 106.203 32.3281C106.453 32.3385 106.656 32.3542 106.812 32.375C107 32.3958 107.146 32.4062 107.25 32.4062C107.365 32.4167 107.536 32.4115 107.766 32.3906C107.964 32.3698 108.229 32.3438 108.562 32.3125C108.906 32.2812 109.344 32.2344 109.875 32.1719C109.635 32.3802 109.443 32.5833 109.297 32.7812C109.161 32.9688 109.057 33.1354 108.984 33.2812C108.891 33.4583 108.833 33.625 108.812 33.7812C108.771 34.0312 108.734 34.375 108.703 34.8125C108.682 35.2396 108.661 35.7083 108.641 36.2188C108.62 36.7292 108.609 37.2552 108.609 37.7969C108.609 38.3385 108.615 38.8542 108.625 39.3438C108.646 39.8229 108.677 40.25 108.719 40.625C108.771 41 108.833 41.2708 108.906 41.4375C109.01 41.625 109.12 41.8125 109.234 42C109.339 42.1562 109.464 42.3177 109.609 42.4844C109.755 42.651 109.922 42.7865 110.109 42.8906C109.495 42.8594 109.005 42.8438 108.641 42.8438H108.078C107.911 42.8438 107.698 42.8542 107.438 42.875C107.219 42.8958 106.943 42.9167 106.609 42.9375C106.276 42.9583 105.875 42.9896 105.406 43.0312C105.646 42.7708 105.833 42.5208 105.969 42.2812C106.104 42.0417 106.214 41.8333 106.297 41.6562C106.391 41.4479 106.453 41.25 106.484 41.0625C106.526 40.7917 106.557 40.4583 106.578 40.0625C106.609 39.6562 106.63 39.224 106.641 38.7656C106.651 38.2969 106.651 37.8229 106.641 37.3438C106.641 36.8542 106.63 36.3854 106.609 35.9375C106.589 35.4896 106.557 35.0833 106.516 34.7188C106.484 34.3542 106.443 34.0625 106.391 33.8438C106.359 33.7083 106.297 33.5573 106.203 33.3906C106.12 33.2448 106.005 33.0781 105.859 32.8906C105.724 32.6927 105.542 32.474 105.312 32.2344ZM110.109 31.9219C110.578 32.0052 110.964 32.0625 111.266 32.0938C111.568 32.125 111.812 32.151 112 32.1719C112.219 32.1927 112.391 32.1979 112.516 32.1875H112.984C113.151 32.1875 113.359 32.1875 113.609 32.1875C113.87 32.1771 114.193 32.1719 114.578 32.1719C114.797 32.6823 114.995 33.151 115.172 33.5781C115.359 34.0052 115.516 34.3698 115.641 34.6719C115.786 35.0365 115.922 35.3646 116.047 35.6562C116.193 36.0208 116.349 36.4219 116.516 36.8594C116.682 37.2969 116.833 37.7083 116.969 38.0938C117.115 38.4792 117.234 38.7969 117.328 39.0469C117.422 39.2969 117.469 39.4115 117.469 39.3906C117.469 39.3802 117.474 39.276 117.484 39.0781C117.495 38.8698 117.505 38.6146 117.516 38.3125C117.526 38 117.536 37.6615 117.547 37.2969C117.568 36.9219 117.578 36.5625 117.578 36.2188C117.589 35.8646 117.594 35.5417 117.594 35.25C117.594 34.9583 117.583 34.7396 117.562 34.5938C117.531 34.4167 117.469 34.2135 117.375 33.9844C117.292 33.7865 117.177 33.5521 117.031 33.2812C116.885 33 116.682 32.6823 116.422 32.3281C116.849 32.3385 117.198 32.3438 117.469 32.3438C117.74 32.3438 117.958 32.3438 118.125 32.3438C118.312 32.3438 118.458 32.3385 118.562 32.3281C118.698 32.3281 118.865 32.3177 119.062 32.2969C119.24 32.276 119.458 32.2604 119.719 32.25C119.99 32.2292 120.323 32.2031 120.719 32.1719C120.49 32.3802 120.307 32.5781 120.172 32.7656C120.036 32.9531 119.927 33.1198 119.844 33.2656C119.75 33.4323 119.688 33.5885 119.656 33.7344C119.615 33.9219 119.578 34.2292 119.547 34.6562C119.526 35.0729 119.5 35.5417 119.469 36.0625C119.448 36.5833 119.427 37.125 119.406 37.6875C119.385 38.25 119.365 38.7656 119.344 39.2344C119.344 39.5885 119.333 39.9688 119.312 40.375C119.292 40.7188 119.271 41.1094 119.25 41.5469C119.229 41.974 119.203 42.4062 119.172 42.8438L117.781 42.875C117.375 42.1562 117.031 41.5417 116.75 41.0312C116.479 40.5104 116.255 40.0833 116.078 39.75C115.88 39.3646 115.714 39.0417 115.578 38.7812C115.464 38.5312 115.312 38.2448 115.125 37.9219C114.969 37.651 114.771 37.3177 114.531 36.9219C114.302 36.526 114.026 36.0729 113.703 35.5625C113.672 36.2812 113.656 36.8958 113.656 37.4062C113.667 37.9062 113.682 38.3229 113.703 38.6562C113.734 39.0417 113.771 39.3646 113.812 39.625C113.865 39.875 113.938 40.1562 114.031 40.4688C114.115 40.7396 114.214 41.0573 114.328 41.4219C114.453 41.7865 114.604 42.1979 114.781 42.6562C114.167 42.625 113.708 42.6094 113.406 42.6094H112.938C112.792 42.6094 112.594 42.625 112.344 42.6562C112.135 42.6771 111.849 42.7083 111.484 42.75C111.13 42.7917 110.688 42.849 110.156 42.9219C110.406 42.6198 110.604 42.3438 110.75 42.0938C110.906 41.8333 111.026 41.6146 111.109 41.4375C111.214 41.2292 111.286 41.0469 111.328 40.8906C111.359 40.724 111.38 40.4375 111.391 40.0312C111.401 39.6146 111.401 39.1458 111.391 38.625C111.391 38.0938 111.38 37.5365 111.359 36.9531C111.349 36.3698 111.333 35.8281 111.312 35.3281C111.292 34.8281 111.266 34.401 111.234 34.0469C111.214 33.6927 111.198 33.474 111.188 33.3906C111.156 33.2552 111.094 33.1094 111 32.9531C110.917 32.8177 110.807 32.6667 110.672 32.5C110.536 32.3229 110.349 32.1302 110.109 31.9219Z" fill="white"/>
</svg>
