<svg width="88" height="81" viewBox="0 0 88 81" fill="none" xmlns="http://www.w3.org/2000/svg">
<path d="M87.5 40.5C87.5 18.4468 68.0642 0.5 44 0.5C19.9358 0.5 0.5 18.4468 0.5 40.5C0.5 62.5532 19.9358 80.5 44 80.5C68.0642 80.5 87.5 62.5532 87.5 40.5Z" fill="white" stroke="black"/>
<path d="M74.5 45C74.5 49.6249 70.0979 53.5 64.5 53.5C58.9021 53.5 54.5 49.6249 54.5 45C54.5 40.3751 58.9021 36.5 64.5 36.5C70.0979 36.5 74.5 40.3751 74.5 45Z" stroke="black"/>
<path d="M42.5 10.618L43.9328 15.0279L44.0451 15.3734H44.4084L49.0451 15.3734L45.2939 18.0988L45 18.3123L45.1123 18.6578L46.5451 23.0676L42.7939 20.3422L42.5 20.1287L42.2061 20.3422L38.4549 23.0676L39.8877 18.6578L40 18.3123L39.7061 18.0988L35.9549 15.3734L40.5916 15.3734H40.9549L41.0672 15.0279L42.5 10.618Z" stroke="black"/>
<line x1="66.2379" y1="19.3853" x2="18.3186" y2="59.0053" stroke="black"/>
<path d="M21.8692 40.5604L20.3174 29.52L31.2254 31.8253L21.8692 40.5604Z" stroke="black"/>
<rect x="35.707" y="62.3478" width="12" height="11" transform="rotate(-46.06 35.707 62.3478)" stroke="black"/>
</svg>
