<svg width="139" height="72" viewBox="0 0 139 72" fill="none" xmlns="http://www.w3.org/2000/svg">
<rect x="0.5" y="0.5" width="138" height="71" rx="14.5" fill="black" stroke="white"/>
<rect x="12" y="14" width="44" height="45" rx="4" fill="black" stroke="white" stroke-width="2"/>
<path d="M33.2929 36.2929C32.9024 36.6834 32.9024 37.3166 33.2929 37.7071L39.6569 44.0711C40.0474 44.4616 40.6805 44.4616 41.0711 44.0711C41.4616 43.6805 41.4616 43.0474 41.0711 42.6569L35.4142 37L41.0711 31.3431C41.4616 30.9526 41.4616 30.3195 41.0711 29.9289C40.6805 29.5384 40.0474 29.5384 39.6569 29.9289L33.2929 36.2929ZM56 36H34V38H56V36Z" fill="white"/>
<path d="M78.3516 21.6719C78.6536 21.724 78.9193 21.7604 79.1484 21.7812C79.388 21.8021 79.5859 21.8177 79.7422 21.8281C79.9297 21.8385 80.0911 21.8438 80.2266 21.8438C80.362 21.8438 80.5547 21.8333 80.8047 21.8125C81.013 21.7917 81.2839 21.7656 81.6172 21.7344C81.9609 21.7031 82.3828 21.651 82.8828 21.5781C82.737 21.6198 82.6016 21.7396 82.4766 21.9375C82.362 22.125 82.2578 22.3281 82.1641 22.5469C82.0495 22.8073 81.9505 23.0938 81.8672 23.4062C81.7943 23.6875 81.7005 24.0729 81.5859 24.5625C81.4818 25.0521 81.3776 25.5833 81.2734 26.1562C81.1797 26.7292 81.1068 27.3125 81.0547 27.9062C81.0026 28.4896 80.9922 29.026 81.0234 29.5156C81.0651 30.0052 81.1641 30.4115 81.3203 30.7344C81.4766 31.0469 81.7161 31.2135 82.0391 31.2344C82.5286 31.276 82.9349 31.2812 83.2578 31.25C83.5911 31.2083 83.862 31.151 84.0703 31.0781C84.2786 31.0052 84.4401 30.9219 84.5547 30.8281C84.6693 30.724 84.7578 30.625 84.8203 30.5312C84.987 30.2917 85.1589 29.9844 85.3359 29.6094C85.513 29.2344 85.6693 28.875 85.8047 28.5312C85.9505 28.1875 86.0703 27.8958 86.1641 27.6562C86.2578 27.4167 86.3047 27.3021 86.3047 27.3125C86.3047 27.3333 86.2995 27.4531 86.2891 27.6719C86.2891 27.8802 86.2839 28.1354 86.2734 28.4375C86.2734 28.7292 86.2682 29.0365 86.2578 29.3594C86.2578 29.6823 86.2526 29.9583 86.2422 30.1875C86.2318 30.375 86.2214 30.5833 86.2109 30.8125C86.2005 31.0104 86.1901 31.2448 86.1797 31.5156C86.1797 31.7865 86.1693 32.0833 86.1484 32.4062C85.7109 32.375 85.2943 32.3542 84.8984 32.3438C84.5026 32.3333 84.1536 32.3281 83.8516 32.3281C83.4974 32.3281 83.1693 32.3333 82.8672 32.3438C82.5443 32.3542 82.1693 32.3698 81.7422 32.3906C81.3776 32.4115 80.9245 32.4375 80.3828 32.4688C79.8411 32.4896 79.2161 32.5208 78.5078 32.5625C78.5911 32.4167 78.6589 32.2812 78.7109 32.1562C78.7734 32.0312 78.8203 31.9271 78.8516 31.8438C78.8932 31.7396 78.9193 31.651 78.9297 31.5781C78.9922 31.2448 79.0443 30.8229 79.0859 30.3125C79.1276 29.7917 79.1589 29.2396 79.1797 28.6562C79.2109 28.0729 79.2266 27.4792 79.2266 26.875C79.237 26.2604 79.237 25.6927 79.2266 25.1719C79.2161 24.651 79.1953 24.1979 79.1641 23.8125C79.1432 23.4271 79.112 23.1615 79.0703 23.0156C79.0182 22.849 78.9557 22.6823 78.8828 22.5156C78.8203 22.3698 78.7422 22.224 78.6484 22.0781C78.5651 21.9219 78.4661 21.7865 78.3516 21.6719ZM91.8516 21.2188C92.4141 21.2396 92.9818 21.3438 93.5547 21.5312C94.138 21.7083 94.6745 22 95.1641 22.4062C95.6536 22.8021 96.0703 23.3177 96.4141 23.9531C96.7578 24.5781 96.9714 25.3438 97.0547 26.25C97.1276 26.9896 97.0339 27.724 96.7734 28.4531C96.5234 29.1719 96.1745 29.8333 95.7266 30.4375C95.2786 31.0417 94.763 31.5573 94.1797 31.9844C93.5964 32.401 93.013 32.6771 92.4297 32.8125C92.0755 32.8958 91.6849 32.9062 91.2578 32.8438C90.8411 32.7708 90.4141 32.6406 89.9766 32.4531C89.5495 32.2552 89.1276 32.0052 88.7109 31.7031C88.3047 31.401 87.9349 31.0573 87.6016 30.6719C87.2682 30.276 86.987 29.849 86.7578 29.3906C86.5391 28.9323 86.4036 28.4531 86.3516 27.9531C86.2995 27.5365 86.2943 27.0781 86.3359 26.5781C86.388 26.0677 86.487 25.5625 86.6328 25.0625C86.7891 24.5521 87.0026 24.0625 87.2734 23.5938C87.5547 23.1146 87.9089 22.6979 88.3359 22.3438C88.763 21.9792 89.263 21.6979 89.8359 21.5C90.4193 21.2917 91.0911 21.1979 91.8516 21.2188ZM89.0547 27.5469C88.9089 28.6615 89.013 29.5573 89.3672 30.2344C89.7318 30.9115 90.2786 31.3229 91.0078 31.4688C91.362 31.5417 91.7005 31.4688 92.0234 31.25C92.3568 31.0208 92.6589 30.6927 92.9297 30.2656C93.2005 29.8385 93.4349 29.3385 93.6328 28.7656C93.8307 28.1927 93.9766 27.5938 94.0703 26.9688C94.1641 26.3438 94.1693 25.7812 94.0859 25.2812C94.013 24.7708 93.8828 24.3385 93.6953 23.9844C93.5078 23.6198 93.2786 23.3385 93.0078 23.1406C92.7474 22.9427 92.4766 22.8333 92.1953 22.8125C91.7057 22.7812 91.2786 22.9115 90.9141 23.2031C90.5495 23.4844 90.2422 23.8542 89.9922 24.3125C89.7422 24.7708 89.5391 25.2865 89.3828 25.8594C89.237 26.4323 89.1276 26.9948 89.0547 27.5469ZM103.508 21.7188C104.174 21.7083 104.721 21.8281 105.148 22.0781C105.586 22.3281 105.94 22.625 106.211 22.9688C106.482 23.3125 106.69 23.6615 106.836 24.0156C106.982 24.3594 107.096 24.6302 107.18 24.8281C107.201 24.8802 107.242 24.9479 107.305 25.0312C107.357 25.1042 107.43 25.1927 107.523 25.2969C107.628 25.3906 107.758 25.5 107.914 25.625C107.591 25.6354 107.305 25.6458 107.055 25.6562C106.805 25.6562 106.591 25.6615 106.414 25.6719C106.216 25.6823 106.039 25.6927 105.883 25.7031C105.727 25.7135 105.534 25.7292 105.305 25.75C105.096 25.7708 104.841 25.7917 104.539 25.8125C104.237 25.8333 103.867 25.8646 103.43 25.9062C103.69 25.5938 103.893 25.3177 104.039 25.0781C104.195 24.8281 104.31 24.6094 104.383 24.4219C104.466 24.224 104.513 24.0521 104.523 23.9062C104.544 23.7604 104.539 23.6354 104.508 23.5312C104.445 23.2917 104.284 23.1198 104.023 23.0156C103.273 22.8073 102.617 22.974 102.055 23.5156C101.503 24.0469 101.107 24.9219 100.867 26.1406C100.753 26.7448 100.643 27.375 100.539 28.0312C100.445 28.6771 100.409 29.2708 100.43 29.8125C100.451 30.3438 100.555 30.776 100.742 31.1094C100.93 31.4427 101.253 31.599 101.711 31.5781C102.159 31.5573 102.539 31.4844 102.852 31.3594C103.164 31.224 103.414 31.0677 103.602 30.8906C103.789 30.7031 103.919 30.5052 103.992 30.2969C104.076 30.0781 104.107 29.875 104.086 29.6875C104.044 29.5417 103.935 29.3854 103.758 29.2188C103.602 29.0729 103.367 28.9115 103.055 28.7344C102.742 28.5469 102.294 28.3542 101.711 28.1562C102.263 28.125 102.716 28.1042 103.07 28.0938C103.435 28.0729 103.721 28.0521 103.93 28.0312C104.18 28.0104 104.372 27.9948 104.508 27.9844C104.633 27.974 104.815 27.9635 105.055 27.9531C105.263 27.9427 105.529 27.9375 105.852 27.9375C106.185 27.9375 106.602 27.9323 107.102 27.9219C106.914 28.1094 106.768 28.2812 106.664 28.4375C106.612 28.5208 106.565 28.5938 106.523 28.6562C106.482 28.7604 106.466 28.974 106.477 29.2969C106.477 29.5677 106.497 29.9688 106.539 30.5C106.581 31.0208 106.659 31.7344 106.773 32.6406L104.695 32.9219L104.789 30.8125C104.549 31.3854 104.247 31.8125 103.883 32.0938C103.529 32.375 103.19 32.5729 102.867 32.6875C102.482 32.8229 102.081 32.8854 101.664 32.875C101.122 32.8229 100.581 32.6979 100.039 32.5C99.4974 32.3021 99.0182 32 98.6016 31.5938C98.1849 31.1771 97.862 30.6406 97.6328 29.9844C97.4141 29.3281 97.3464 28.5156 97.4297 27.5469C97.5234 26.5781 97.7526 25.7344 98.1172 25.0156C98.4922 24.2865 98.9557 23.6823 99.5078 23.2031C100.06 22.724 100.68 22.3646 101.367 22.125C102.065 21.875 102.779 21.7396 103.508 21.7188ZM113.789 21.7188C114.456 21.7083 115.003 21.8281 115.43 22.0781C115.867 22.3281 116.221 22.625 116.492 22.9688C116.763 23.3125 116.971 23.6615 117.117 24.0156C117.263 24.3594 117.378 24.6302 117.461 24.8281C117.482 24.8802 117.523 24.9479 117.586 25.0312C117.638 25.1042 117.711 25.1927 117.805 25.2969C117.909 25.3906 118.039 25.5 118.195 25.625C117.872 25.6354 117.586 25.6458 117.336 25.6562C117.086 25.6562 116.872 25.6615 116.695 25.6719C116.497 25.6823 116.32 25.6927 116.164 25.7031C116.008 25.7135 115.815 25.7292 115.586 25.75C115.378 25.7708 115.122 25.7917 114.82 25.8125C114.518 25.8333 114.148 25.8646 113.711 25.9062C113.971 25.5938 114.174 25.3177 114.32 25.0781C114.477 24.8281 114.591 24.6094 114.664 24.4219C114.747 24.224 114.794 24.0521 114.805 23.9062C114.826 23.7604 114.82 23.6354 114.789 23.5312C114.727 23.2917 114.565 23.1198 114.305 23.0156C113.555 22.8073 112.898 22.974 112.336 23.5156C111.784 24.0469 111.388 24.9219 111.148 26.1406C111.034 26.7448 110.924 27.375 110.82 28.0312C110.727 28.6771 110.69 29.2708 110.711 29.8125C110.732 30.3438 110.836 30.776 111.023 31.1094C111.211 31.4427 111.534 31.599 111.992 31.5781C112.44 31.5573 112.82 31.4844 113.133 31.3594C113.445 31.224 113.695 31.0677 113.883 30.8906C114.07 30.7031 114.201 30.5052 114.273 30.2969C114.357 30.0781 114.388 29.875 114.367 29.6875C114.326 29.5417 114.216 29.3854 114.039 29.2188C113.883 29.0729 113.648 28.9115 113.336 28.7344C113.023 28.5469 112.576 28.3542 111.992 28.1562C112.544 28.125 112.997 28.1042 113.352 28.0938C113.716 28.0729 114.003 28.0521 114.211 28.0312C114.461 28.0104 114.654 27.9948 114.789 27.9844C114.914 27.974 115.096 27.9635 115.336 27.9531C115.544 27.9427 115.81 27.9375 116.133 27.9375C116.466 27.9375 116.883 27.9323 117.383 27.9219C117.195 28.1094 117.049 28.2812 116.945 28.4375C116.893 28.5208 116.846 28.5938 116.805 28.6562C116.763 28.7604 116.747 28.974 116.758 29.2969C116.758 29.5677 116.779 29.9688 116.82 30.5C116.862 31.0208 116.94 31.7344 117.055 32.6406L114.977 32.9219L115.07 30.8125C114.831 31.3854 114.529 31.8125 114.164 32.0938C113.81 32.375 113.471 32.5729 113.148 32.6875C112.763 32.8229 112.362 32.8854 111.945 32.875C111.404 32.8229 110.862 32.6979 110.32 32.5C109.779 32.3021 109.299 32 108.883 31.5938C108.466 31.1771 108.143 30.6406 107.914 29.9844C107.695 29.3281 107.628 28.5156 107.711 27.5469C107.805 26.5781 108.034 25.7344 108.398 25.0156C108.773 24.2865 109.237 23.6823 109.789 23.2031C110.341 22.724 110.961 22.3646 111.648 22.125C112.346 21.875 113.06 21.7396 113.789 21.7188ZM88.8281 41.0156C89.1406 41.0781 89.4062 41.125 89.625 41.1562C89.8438 41.1875 90.026 41.2135 90.1719 41.2344C90.3385 41.2552 90.4792 41.2656 90.5938 41.2656C90.7083 41.2656 90.8646 41.2604 91.0625 41.25C91.2396 41.2396 91.4635 41.2344 91.7344 41.2344C92.0052 41.224 92.349 41.2083 92.7656 41.1875C92.526 41.3542 92.3333 41.4948 92.1875 41.6094C92.0417 41.724 91.9323 41.8229 91.8594 41.9062C91.7656 42 91.7083 42.0781 91.6875 42.1406C91.6667 42.1823 91.6458 42.3385 91.625 42.6094C91.6042 42.8698 91.5833 43.2031 91.5625 43.6094C91.5521 44.0052 91.5521 44.4531 91.5625 44.9531C91.5729 45.4427 91.599 45.9427 91.6406 46.4531C91.6927 46.9635 91.7656 47.4583 91.8594 47.9375C91.9531 48.4062 92.0781 48.8177 92.2344 49.1719C92.401 49.526 92.599 49.8021 92.8281 50C93.0677 50.1979 93.3542 50.2708 93.6875 50.2188C94.125 50.1562 94.4792 49.9427 94.75 49.5781C95.0208 49.2135 95.224 48.7708 95.3594 48.25C95.5052 47.7292 95.5938 47.1719 95.625 46.5781C95.6667 45.974 95.6719 45.4115 95.6406 44.8906C95.6198 44.3594 95.5781 43.901 95.5156 43.5156C95.4531 43.1302 95.3958 42.8906 95.3438 42.7969C95.2812 42.6927 95.1979 42.5729 95.0938 42.4375C95.0104 42.3229 94.901 42.1927 94.7656 42.0469C94.6302 41.8906 94.474 41.724 94.2969 41.5469C94.6198 41.5573 94.9115 41.5677 95.1719 41.5781C95.4323 41.5781 95.651 41.5833 95.8281 41.5938C96.0365 41.6042 96.224 41.6146 96.3906 41.625C96.5573 41.6354 96.7656 41.651 97.0156 41.6719C97.224 41.6927 97.4896 41.7135 97.8125 41.7344C98.1458 41.7552 98.5417 41.7865 99 41.8281C98.8229 41.8698 98.6771 41.9271 98.5625 42C98.4583 42.0729 98.375 42.151 98.3125 42.2344C98.2396 42.3281 98.1875 42.4219 98.1562 42.5156C98.125 42.599 98.099 42.849 98.0781 43.2656C98.0677 43.6719 98.0469 44.1667 98.0156 44.75C97.9948 45.3229 97.9583 45.9479 97.9062 46.625C97.8542 47.2917 97.7708 47.9271 97.6562 48.5312C97.5521 49.1354 97.4115 49.6719 97.2344 50.1406C97.0677 50.6094 96.849 50.9323 96.5781 51.1094C96.1823 51.3698 95.7656 51.5573 95.3281 51.6719C94.8906 51.776 94.4479 51.8333 94 51.8438C93.5521 51.8438 93.1094 51.8073 92.6719 51.7344C92.2448 51.651 91.8333 51.5521 91.4375 51.4375C91.0312 51.3125 90.6927 51.0312 90.4219 50.5938C90.1615 50.1562 89.9531 49.6406 89.7969 49.0469C89.651 48.4427 89.5417 47.7969 89.4688 47.1094C89.4062 46.4115 89.3646 45.7396 89.3438 45.0938C89.3333 44.4479 89.3333 43.8646 89.3438 43.3438C89.3646 42.8125 89.3802 42.4115 89.3906 42.1406C89.3906 42.0052 89.3698 41.875 89.3281 41.75C89.2969 41.6354 89.2396 41.5156 89.1562 41.3906C89.0833 41.2552 88.974 41.1302 88.8281 41.0156ZM98.4375 40.5938C99.1354 40.6771 99.7396 40.7396 100.25 40.7812C100.76 40.8125 101.182 40.8385 101.516 40.8594C101.901 40.8802 102.224 40.8854 102.484 40.875C102.755 40.8646 103.125 40.8385 103.594 40.7969C103.99 40.7656 104.51 40.724 105.156 40.6719C105.802 40.6094 106.609 40.526 107.578 40.4219C107.589 40.6615 107.594 40.8958 107.594 41.125C107.604 41.3438 107.615 41.5365 107.625 41.7031C107.635 41.901 107.641 42.0833 107.641 42.25C107.641 42.4271 107.63 42.651 107.609 42.9219C107.589 43.151 107.552 43.4427 107.5 43.7969C107.458 44.1406 107.391 44.5521 107.297 45.0312C107.151 44.4688 107.01 44.0156 106.875 43.6719C106.74 43.3177 106.615 43.0365 106.5 42.8281C106.375 42.5885 106.25 42.4062 106.125 42.2812C105.99 42.1875 105.828 42.1094 105.641 42.0469C105.474 41.9948 105.26 41.9531 105 41.9219C104.75 41.8906 104.453 41.8958 104.109 41.9375C104.057 43.3125 104.021 44.4271 104 45.2812C103.979 46.1354 103.964 46.8021 103.953 47.2812C103.943 47.8542 103.938 48.2656 103.938 48.5156C103.948 48.8698 104.005 49.2188 104.109 49.5625C104.193 49.8542 104.328 50.1562 104.516 50.4688C104.703 50.7812 104.974 51.0573 105.328 51.2969H103.422C103.245 51.2969 103.026 51.3073 102.766 51.3281C102.547 51.349 102.266 51.3698 101.922 51.3906C101.589 51.4115 101.198 51.4479 100.75 51.5C100.906 51.2292 101.031 50.9844 101.125 50.7656C101.219 50.5469 101.292 50.3594 101.344 50.2031C101.406 50.0156 101.453 49.849 101.484 49.7031C101.495 49.4948 101.521 49.0729 101.562 48.4375C101.573 48.1771 101.583 47.8542 101.594 47.4688C101.615 47.0833 101.635 46.625 101.656 46.0938C101.688 45.5625 101.714 44.9531 101.734 44.2656C101.766 43.5677 101.797 42.7812 101.828 41.9062C101.641 41.8542 101.464 41.8594 101.297 41.9219C101.13 41.974 100.984 42.0417 100.859 42.125C100.714 42.2292 100.573 42.3542 100.438 42.5C100.302 42.6771 100.151 42.9062 99.9844 43.1875C99.8385 43.4271 99.6719 43.7448 99.4844 44.1406C99.2969 44.526 99.0833 45.0052 98.8438 45.5781C98.7917 44.974 98.7552 44.4792 98.7344 44.0938C98.7135 43.6979 98.6979 43.3906 98.6875 43.1719C98.6771 42.9115 98.6719 42.7188 98.6719 42.5938C98.6719 42.4792 98.6615 42.3281 98.6406 42.1406C98.6198 41.9844 98.5938 41.7812 98.5625 41.5312C98.5312 41.2708 98.4896 40.9583 98.4375 40.5938Z" fill="white"/>
</svg>
