<svg width="88" height="81" viewBox="0 0 88 81" fill="none" xmlns="http://www.w3.org/2000/svg">
<path d="M87.5 40.5C87.5 18.4468 68.0642 0.5 44 0.5C19.9358 0.5 0.5 18.4468 0.5 40.5C0.5 62.5532 19.9358 80.5 44 80.5C68.0642 80.5 87.5 62.5532 87.5 40.5Z" fill="black" stroke="white"/>
<path d="M74.9901 45C74.9901 49.6249 70.588 53.5 64.9901 53.5C59.3922 53.5 54.9901 49.6249 54.9901 45C54.9901 40.3751 59.3922 36.5 64.9901 36.5C70.588 36.5 74.9901 40.3751 74.9901 45Z" stroke="white"/>
<path d="M42.9901 10.618L44.423 15.0279L44.5352 15.3734H44.8985L49.5353 15.3734L45.784 18.0988L45.4901 18.3123L45.6024 18.6578L47.0352 23.0676L43.284 20.3422L42.9901 20.1287L42.6962 20.3422L38.945 23.0676L40.3778 18.6578L40.4901 18.3123L40.1962 18.0988L36.445 15.3734L41.0817 15.3734H41.445L41.5573 15.0279L42.9901 10.618Z" stroke="white"/>
<line x1="66.728" y1="19.3853" x2="18.8087" y2="59.0053" stroke="white"/>
<path d="M22.3593 40.5604L20.8075 29.52L31.7155 31.8253L22.3593 40.5604Z" stroke="white"/>
<rect x="36.1971" y="62.3478" width="12" height="11" transform="rotate(-46.06 36.1971 62.3478)" stroke="white"/>
</svg>
