<svg width="139" height="72" viewBox="0 0 139 72" fill="none" xmlns="http://www.w3.org/2000/svg">
<rect x="0.5" y="0.5" width="138" height="71" stroke="black"/>
<rect width="139" height="72" rx="15" fill="white"/>
<rect x="12" y="14" width="44" height="45" rx="4" fill="white" stroke="black" stroke-width="2"/>
<path d="M33.2929 36.2929C32.9024 36.6834 32.9024 37.3166 33.2929 37.7071L39.6569 44.0711C40.0474 44.4616 40.6805 44.4616 41.0711 44.0711C41.4616 43.6805 41.4616 43.0474 41.0711 42.6569L35.4142 37L41.0711 31.3431C41.4616 30.9526 41.4616 30.3195 41.0711 29.9289C40.6805 29.5384 40.0474 29.5384 39.6569 29.9289L33.2929 36.2929ZM56 36H34V38H56V36Z" fill="black"/>
<path d="M68.8594 31.6719C69.1615 31.724 69.4271 31.7604 69.6562 31.7812C69.8958 31.8021 70.0938 31.8177 70.25 31.8281C70.4375 31.8385 70.599 31.8438 70.7344 31.8438C70.8698 31.8438 71.0625 31.8333 71.3125 31.8125C71.5208 31.7917 71.7917 31.7656 72.125 31.7344C72.4688 31.7031 72.8906 31.651 73.3906 31.5781C73.2448 31.6198 73.1094 31.7396 72.9844 31.9375C72.8698 32.125 72.7656 32.3281 72.6719 32.5469C72.5573 32.8073 72.4583 33.0938 72.375 33.4062C72.3021 33.6875 72.2083 34.0729 72.0938 34.5625C71.9896 35.0521 71.8854 35.5833 71.7812 36.1562C71.6875 36.7292 71.6146 37.3125 71.5625 37.9062C71.5104 38.4896 71.5 39.026 71.5312 39.5156C71.5729 40.0052 71.6719 40.4115 71.8281 40.7344C71.9844 41.0469 72.224 41.2135 72.5469 41.2344C73.0365 41.276 73.4427 41.2812 73.7656 41.25C74.099 41.2083 74.3698 41.151 74.5781 41.0781C74.7865 41.0052 74.9479 40.9219 75.0625 40.8281C75.1771 40.724 75.2656 40.625 75.3281 40.5312C75.4948 40.2917 75.6667 39.9844 75.8438 39.6094C76.0208 39.2344 76.1771 38.875 76.3125 38.5312C76.4583 38.1875 76.5781 37.8958 76.6719 37.6562C76.7656 37.4167 76.8125 37.3021 76.8125 37.3125C76.8125 37.3333 76.8073 37.4531 76.7969 37.6719C76.7969 37.8802 76.7917 38.1354 76.7812 38.4375C76.7812 38.7292 76.776 39.0365 76.7656 39.3594C76.7656 39.6823 76.7604 39.9583 76.75 40.1875C76.7396 40.375 76.7292 40.5833 76.7188 40.8125C76.7083 41.0104 76.6979 41.2448 76.6875 41.5156C76.6875 41.7865 76.6771 42.0833 76.6562 42.4062C76.2188 42.375 75.8021 42.3542 75.4062 42.3438C75.0104 42.3333 74.6615 42.3281 74.3594 42.3281C74.0052 42.3281 73.6771 42.3333 73.375 42.3438C73.0521 42.3542 72.6771 42.3698 72.25 42.3906C71.8854 42.4115 71.4323 42.4375 70.8906 42.4688C70.349 42.4896 69.724 42.5208 69.0156 42.5625C69.099 42.4167 69.1667 42.2812 69.2188 42.1562C69.2812 42.0312 69.3281 41.9271 69.3594 41.8438C69.401 41.7396 69.4271 41.651 69.4375 41.5781C69.5 41.2448 69.5521 40.8229 69.5938 40.3125C69.6354 39.7917 69.6667 39.2396 69.6875 38.6562C69.7188 38.0729 69.7344 37.4792 69.7344 36.875C69.7448 36.2604 69.7448 35.6927 69.7344 35.1719C69.724 34.651 69.7031 34.1979 69.6719 33.8125C69.651 33.4271 69.6198 33.1615 69.5781 33.0156C69.526 32.849 69.4635 32.6823 69.3906 32.5156C69.3281 32.3698 69.25 32.224 69.1562 32.0781C69.0729 31.9219 68.974 31.7865 68.8594 31.6719ZM82.3594 31.2188C82.9219 31.2396 83.4896 31.3438 84.0625 31.5312C84.6458 31.7083 85.1823 32 85.6719 32.4062C86.1615 32.8021 86.5781 33.3177 86.9219 33.9531C87.2656 34.5781 87.4792 35.3438 87.5625 36.25C87.6354 36.9896 87.5417 37.724 87.2812 38.4531C87.0312 39.1719 86.6823 39.8333 86.2344 40.4375C85.7865 41.0417 85.2708 41.5573 84.6875 41.9844C84.1042 42.401 83.5208 42.6771 82.9375 42.8125C82.5833 42.8958 82.1927 42.9062 81.7656 42.8438C81.349 42.7708 80.9219 42.6406 80.4844 42.4531C80.0573 42.2552 79.6354 42.0052 79.2188 41.7031C78.8125 41.401 78.4427 41.0573 78.1094 40.6719C77.776 40.276 77.4948 39.849 77.2656 39.3906C77.0469 38.9323 76.9115 38.4531 76.8594 37.9531C76.8073 37.5365 76.8021 37.0781 76.8438 36.5781C76.8958 36.0677 76.9948 35.5625 77.1406 35.0625C77.2969 34.5521 77.5104 34.0625 77.7812 33.5938C78.0625 33.1146 78.4167 32.6979 78.8438 32.3438C79.2708 31.9792 79.7708 31.6979 80.3438 31.5C80.9271 31.2917 81.599 31.1979 82.3594 31.2188ZM79.5625 37.5469C79.4167 38.6615 79.5208 39.5573 79.875 40.2344C80.2396 40.9115 80.7865 41.3229 81.5156 41.4688C81.8698 41.5417 82.2083 41.4688 82.5312 41.25C82.8646 41.0208 83.1667 40.6927 83.4375 40.2656C83.7083 39.8385 83.9427 39.3385 84.1406 38.7656C84.3385 38.1927 84.4844 37.5938 84.5781 36.9688C84.6719 36.3438 84.6771 35.7812 84.5938 35.2812C84.5208 34.7708 84.3906 34.3385 84.2031 33.9844C84.0156 33.6198 83.7865 33.3385 83.5156 33.1406C83.2552 32.9427 82.9844 32.8333 82.7031 32.8125C82.2135 32.7812 81.7865 32.9115 81.4219 33.2031C81.0573 33.4844 80.75 33.8542 80.5 34.3125C80.25 34.7708 80.0469 35.2865 79.8906 35.8594C79.7448 36.4323 79.6354 36.9948 79.5625 37.5469ZM94.0156 31.7188C94.6823 31.7083 95.2292 31.8281 95.6562 32.0781C96.0938 32.3281 96.4479 32.625 96.7188 32.9688C96.9896 33.3125 97.1979 33.6615 97.3438 34.0156C97.4896 34.3594 97.6042 34.6302 97.6875 34.8281C97.7083 34.8802 97.75 34.9479 97.8125 35.0312C97.8646 35.1042 97.9375 35.1927 98.0312 35.2969C98.1354 35.3906 98.2656 35.5 98.4219 35.625C98.099 35.6354 97.8125 35.6458 97.5625 35.6562C97.3125 35.6562 97.099 35.6615 96.9219 35.6719C96.724 35.6823 96.5469 35.6927 96.3906 35.7031C96.2344 35.7135 96.0417 35.7292 95.8125 35.75C95.6042 35.7708 95.349 35.7917 95.0469 35.8125C94.7448 35.8333 94.375 35.8646 93.9375 35.9062C94.1979 35.5938 94.401 35.3177 94.5469 35.0781C94.7031 34.8281 94.8177 34.6094 94.8906 34.4219C94.974 34.224 95.0208 34.0521 95.0312 33.9062C95.0521 33.7604 95.0469 33.6354 95.0156 33.5312C94.9531 33.2917 94.7917 33.1198 94.5312 33.0156C93.7812 32.8073 93.125 32.974 92.5625 33.5156C92.0104 34.0469 91.6146 34.9219 91.375 36.1406C91.2604 36.7448 91.151 37.375 91.0469 38.0312C90.9531 38.6771 90.9167 39.2708 90.9375 39.8125C90.9583 40.3438 91.0625 40.776 91.25 41.1094C91.4375 41.4427 91.7604 41.599 92.2188 41.5781C92.6667 41.5573 93.0469 41.4844 93.3594 41.3594C93.6719 41.224 93.9219 41.0677 94.1094 40.8906C94.2969 40.7031 94.4271 40.5052 94.5 40.2969C94.5833 40.0781 94.6146 39.875 94.5938 39.6875C94.5521 39.5417 94.4427 39.3854 94.2656 39.2188C94.1094 39.0729 93.875 38.9115 93.5625 38.7344C93.25 38.5469 92.8021 38.3542 92.2188 38.1562C92.7708 38.125 93.224 38.1042 93.5781 38.0938C93.9427 38.0729 94.2292 38.0521 94.4375 38.0312C94.6875 38.0104 94.8802 37.9948 95.0156 37.9844C95.1406 37.974 95.3229 37.9635 95.5625 37.9531C95.7708 37.9427 96.0365 37.9375 96.3594 37.9375C96.6927 37.9375 97.1094 37.9323 97.6094 37.9219C97.4219 38.1094 97.276 38.2812 97.1719 38.4375C97.1198 38.5208 97.0729 38.5938 97.0312 38.6562C96.9896 38.7604 96.974 38.974 96.9844 39.2969C96.9844 39.5677 97.0052 39.9688 97.0469 40.5C97.0885 41.0208 97.1667 41.7344 97.2812 42.6406L95.2031 42.9219L95.2969 40.8125C95.0573 41.3854 94.7552 41.8125 94.3906 42.0938C94.0365 42.375 93.6979 42.5729 93.375 42.6875C92.9896 42.8229 92.5885 42.8854 92.1719 42.875C91.6302 42.8229 91.0885 42.6979 90.5469 42.5C90.0052 42.3021 89.526 42 89.1094 41.5938C88.6927 41.1771 88.3698 40.6406 88.1406 39.9844C87.9219 39.3281 87.8542 38.5156 87.9375 37.5469C88.0312 36.5781 88.2604 35.7344 88.625 35.0156C89 34.2865 89.4635 33.6823 90.0156 33.2031C90.5677 32.724 91.1875 32.3646 91.875 32.125C92.5729 31.875 93.2865 31.7396 94.0156 31.7188ZM103.562 31.2188C104.125 31.2396 104.693 31.3438 105.266 31.5312C105.849 31.7083 106.385 32 106.875 32.4062C107.365 32.8021 107.781 33.3177 108.125 33.9531C108.469 34.5781 108.682 35.3438 108.766 36.25C108.839 36.9896 108.745 37.724 108.484 38.4531C108.234 39.1719 107.885 39.8333 107.438 40.4375C106.99 41.0417 106.474 41.5573 105.891 41.9844C105.307 42.401 104.724 42.6771 104.141 42.8125C103.786 42.8958 103.396 42.9062 102.969 42.8438C102.552 42.7708 102.125 42.6406 101.688 42.4531C101.26 42.2552 100.839 42.0052 100.422 41.7031C100.016 41.401 99.6458 41.0573 99.3125 40.6719C98.9792 40.276 98.6979 39.849 98.4688 39.3906C98.25 38.9323 98.1146 38.4531 98.0625 37.9531C98.0104 37.5365 98.0052 37.0781 98.0469 36.5781C98.099 36.0677 98.1979 35.5625 98.3438 35.0625C98.5 34.5521 98.7135 34.0625 98.9844 33.5938C99.2656 33.1146 99.6198 32.6979 100.047 32.3438C100.474 31.9792 100.974 31.6979 101.547 31.5C102.13 31.2917 102.802 31.1979 103.562 31.2188ZM100.766 37.5469C100.62 38.6615 100.724 39.5573 101.078 40.2344C101.443 40.9115 101.99 41.3229 102.719 41.4688C103.073 41.5417 103.411 41.4688 103.734 41.25C104.068 41.0208 104.37 40.6927 104.641 40.2656C104.911 39.8385 105.146 39.3385 105.344 38.7656C105.542 38.1927 105.688 37.5938 105.781 36.9688C105.875 36.3438 105.88 35.7812 105.797 35.2812C105.724 34.7708 105.594 34.3385 105.406 33.9844C105.219 33.6198 104.99 33.3385 104.719 33.1406C104.458 32.9427 104.188 32.8333 103.906 32.8125C103.417 32.7812 102.99 32.9115 102.625 33.2031C102.26 33.4844 101.953 33.8542 101.703 34.3125C101.453 34.7708 101.25 35.2865 101.094 35.8594C100.948 36.4323 100.839 36.9948 100.766 37.5469ZM109.109 32.0156C109.422 32.0781 109.688 32.125 109.906 32.1562C110.125 32.1875 110.307 32.2135 110.453 32.2344C110.62 32.2552 110.76 32.2656 110.875 32.2656C110.99 32.2656 111.146 32.2604 111.344 32.25C111.521 32.2396 111.745 32.2344 112.016 32.2344C112.286 32.224 112.63 32.2083 113.047 32.1875C112.807 32.3542 112.615 32.4948 112.469 32.6094C112.323 32.724 112.214 32.8229 112.141 32.9062C112.047 33 111.99 33.0781 111.969 33.1406C111.948 33.1823 111.927 33.3385 111.906 33.6094C111.885 33.8698 111.865 34.2031 111.844 34.6094C111.833 35.0052 111.833 35.4531 111.844 35.9531C111.854 36.4427 111.88 36.9427 111.922 37.4531C111.974 37.9635 112.047 38.4583 112.141 38.9375C112.234 39.4062 112.359 39.8177 112.516 40.1719C112.682 40.526 112.88 40.8021 113.109 41C113.349 41.1979 113.635 41.2708 113.969 41.2188C114.406 41.1562 114.76 40.9427 115.031 40.5781C115.302 40.2135 115.505 39.7708 115.641 39.25C115.786 38.7292 115.875 38.1719 115.906 37.5781C115.948 36.974 115.953 36.4115 115.922 35.8906C115.901 35.3594 115.859 34.901 115.797 34.5156C115.734 34.1302 115.677 33.8906 115.625 33.7969C115.562 33.6927 115.479 33.5729 115.375 33.4375C115.292 33.3229 115.182 33.1927 115.047 33.0469C114.911 32.8906 114.755 32.724 114.578 32.5469C114.901 32.5573 115.193 32.5677 115.453 32.5781C115.714 32.5781 115.932 32.5833 116.109 32.5938C116.318 32.6042 116.505 32.6146 116.672 32.625C116.839 32.6354 117.047 32.651 117.297 32.6719C117.505 32.6927 117.771 32.7135 118.094 32.7344C118.427 32.7552 118.823 32.7865 119.281 32.8281C119.104 32.8698 118.958 32.9271 118.844 33C118.74 33.0729 118.656 33.151 118.594 33.2344C118.521 33.3281 118.469 33.4219 118.438 33.5156C118.406 33.599 118.38 33.849 118.359 34.2656C118.349 34.6719 118.328 35.1667 118.297 35.75C118.276 36.3229 118.24 36.9479 118.188 37.625C118.135 38.2917 118.052 38.9271 117.938 39.5312C117.833 40.1354 117.693 40.6719 117.516 41.1406C117.349 41.6094 117.13 41.9323 116.859 42.1094C116.464 42.3698 116.047 42.5573 115.609 42.6719C115.172 42.776 114.729 42.8333 114.281 42.8438C113.833 42.8438 113.391 42.8073 112.953 42.7344C112.526 42.651 112.115 42.5521 111.719 42.4375C111.312 42.3125 110.974 42.0312 110.703 41.5938C110.443 41.1562 110.234 40.6406 110.078 40.0469C109.932 39.4427 109.823 38.7969 109.75 38.1094C109.688 37.4115 109.646 36.7396 109.625 36.0938C109.615 35.4479 109.615 34.8646 109.625 34.3438C109.646 33.8125 109.661 33.4115 109.672 33.1406C109.672 33.0052 109.651 32.875 109.609 32.75C109.578 32.6354 109.521 32.5156 109.438 32.3906C109.365 32.2552 109.255 32.1302 109.109 32.0156ZM118.719 31.5938C119.417 31.6771 120.021 31.7396 120.531 31.7812C121.042 31.8125 121.464 31.8385 121.797 31.8594C122.182 31.8802 122.505 31.8854 122.766 31.875C123.036 31.8646 123.406 31.8385 123.875 31.7969C124.271 31.7656 124.792 31.724 125.438 31.6719C126.083 31.6094 126.891 31.526 127.859 31.4219C127.87 31.6615 127.875 31.8958 127.875 32.125C127.885 32.3438 127.896 32.5365 127.906 32.7031C127.917 32.901 127.922 33.0833 127.922 33.25C127.922 33.4271 127.911 33.651 127.891 33.9219C127.87 34.151 127.833 34.4427 127.781 34.7969C127.74 35.1406 127.672 35.5521 127.578 36.0312C127.432 35.4688 127.292 35.0156 127.156 34.6719C127.021 34.3177 126.896 34.0365 126.781 33.8281C126.656 33.5885 126.531 33.4062 126.406 33.2812C126.271 33.1875 126.109 33.1094 125.922 33.0469C125.755 32.9948 125.542 32.9531 125.281 32.9219C125.031 32.8906 124.734 32.8958 124.391 32.9375C124.339 34.3125 124.302 35.4271 124.281 36.2812C124.26 37.1354 124.245 37.8021 124.234 38.2812C124.224 38.8542 124.219 39.2656 124.219 39.5156C124.229 39.8698 124.286 40.2188 124.391 40.5625C124.474 40.8542 124.609 41.1562 124.797 41.4688C124.984 41.7812 125.255 42.0573 125.609 42.2969H123.703C123.526 42.2969 123.307 42.3073 123.047 42.3281C122.828 42.349 122.547 42.3698 122.203 42.3906C121.87 42.4115 121.479 42.4479 121.031 42.5C121.188 42.2292 121.312 41.9844 121.406 41.7656C121.5 41.5469 121.573 41.3594 121.625 41.2031C121.688 41.0156 121.734 40.849 121.766 40.7031C121.776 40.4948 121.802 40.0729 121.844 39.4375C121.854 39.1771 121.865 38.8542 121.875 38.4688C121.896 38.0833 121.917 37.625 121.938 37.0938C121.969 36.5625 121.995 35.9531 122.016 35.2656C122.047 34.5677 122.078 33.7812 122.109 32.9062C121.922 32.8542 121.745 32.8594 121.578 32.9219C121.411 32.974 121.266 33.0417 121.141 33.125C120.995 33.2292 120.854 33.3542 120.719 33.5C120.583 33.6771 120.432 33.9062 120.266 34.1875C120.12 34.4271 119.953 34.7448 119.766 35.1406C119.578 35.526 119.365 36.0052 119.125 36.5781C119.073 35.974 119.036 35.4792 119.016 35.0938C118.995 34.6979 118.979 34.3906 118.969 34.1719C118.958 33.9115 118.953 33.7188 118.953 33.5938C118.953 33.4792 118.943 33.3281 118.922 33.1406C118.901 32.9844 118.875 32.7812 118.844 32.5312C118.812 32.2708 118.771 31.9583 118.719 31.5938Z" fill="black"/>
</svg>
