<svg width="88" height="81" viewBox="0 0 88 81" fill="none" xmlns="http://www.w3.org/2000/svg">
<ellipse cx="44" cy="40.5" rx="44" ry="40.5" transform="matrix(1 0 0 -1 0 81)" fill="white"/>
<rect x="15" y="11" width="57" height="59" rx="9" fill="white" stroke="black" stroke-width="2"/>
<path d="M48.1875 20.5625C47.3542 20.7292 46.5833 20.8542 45.875 20.9375C45.2083 21.0625 44.6042 21.1667 44.0625 21.25C43.4375 21.3333 42.8542 21.3958 42.3125 21.4375C41.7292 21.4792 41.0417 21.5208 40.25 21.5625C39.5417 21.6042 38.6667 21.625 37.625 21.625C36.625 21.6667 35.4583 21.6875 34.125 21.6875C35.3333 24.5208 36.3125 26.9167 37.0625 28.875C37.8125 30.875 38.3958 32.5208 38.8125 33.8125C39.2708 35.3125 39.6042 36.5417 39.8125 37.5C39.9792 38.4583 40.1875 39.625 40.4375 41C40.6458 42.1667 40.9167 43.625 41.25 45.375C41.5833 47.1667 42 49.2708 42.5 51.6875L48.0625 51.4375C47.7292 49.2292 47.4792 47.3333 47.3125 45.75C47.1875 44.2083 47.0833 42.9167 47 41.875C46.9167 40.6667 46.8958 39.6667 46.9375 38.875C46.9375 38 47 36.75 47.125 35.125C47.2083 33.75 47.3333 31.8958 47.5 29.5625C47.6667 27.2292 47.8958 24.2292 48.1875 20.5625ZM41.25 56.4375C41 56.8958 40.8333 57.3958 40.75 57.9375C40.7083 58.5208 40.75 59.0833 40.875 59.625C41.0417 60.2083 41.3125 60.7292 41.6875 61.1875C42.1042 61.6875 42.6458 62.1042 43.3125 62.4375C44.6458 63.0625 45.8333 63.2292 46.875 62.9375C47.9167 62.6458 48.6875 62.1042 49.1875 61.3125C49.7292 60.4792 49.7708 59.4792 49.3125 58.3125C48.8542 57.1875 47.9375 56.3333 46.5625 55.75C45.2292 55.1667 44.1042 54.9583 43.1875 55.125C42.3125 55.2917 41.6667 55.7292 41.25 56.4375Z" fill="black"/>
</svg>
