<svg width="88" height="81" viewBox="0 0 88 81" fill="none" xmlns="http://www.w3.org/2000/svg">
<path d="M87.5 40.5C87.5 18.4468 68.0642 0.5 44 0.5C19.9358 0.5 0.5 18.4468 0.5 40.5C0.5 62.5532 19.9358 80.5 44 80.5C68.0642 80.5 87.5 62.5532 87.5 40.5Z" fill="black" stroke="white"/>
<rect x="16" y="11" width="57" height="59" rx="9" fill="black" stroke="white" stroke-width="2"/>
<path d="M49.1875 20.5625C48.3542 20.7292 47.5833 20.8542 46.875 20.9375C46.2083 21.0625 45.6042 21.1667 45.0625 21.25C44.4375 21.3333 43.8542 21.3958 43.3125 21.4375C42.7292 21.4792 42.0417 21.5208 41.25 21.5625C40.5417 21.6042 39.6667 21.625 38.625 21.625C37.625 21.6667 36.4583 21.6875 35.125 21.6875C36.3333 24.5208 37.3125 26.9167 38.0625 28.875C38.8125 30.875 39.3958 32.5208 39.8125 33.8125C40.2708 35.3125 40.6042 36.5417 40.8125 37.5C40.9792 38.4583 41.1875 39.625 41.4375 41C41.6458 42.1667 41.9167 43.625 42.25 45.375C42.5833 47.1667 43 49.2708 43.5 51.6875L49.0625 51.4375C48.7292 49.2292 48.4792 47.3333 48.3125 45.75C48.1875 44.2083 48.0833 42.9167 48 41.875C47.9167 40.6667 47.8958 39.6667 47.9375 38.875C47.9375 38 48 36.75 48.125 35.125C48.2083 33.75 48.3333 31.8958 48.5 29.5625C48.6667 27.2292 48.8958 24.2292 49.1875 20.5625ZM42.25 56.4375C42 56.8958 41.8333 57.3958 41.75 57.9375C41.7083 58.5208 41.75 59.0833 41.875 59.625C42.0417 60.2083 42.3125 60.7292 42.6875 61.1875C43.1042 61.6875 43.6458 62.1042 44.3125 62.4375C45.6458 63.0625 46.8333 63.2292 47.875 62.9375C48.9167 62.6458 49.6875 62.1042 50.1875 61.3125C50.7292 60.4792 50.7708 59.4792 50.3125 58.3125C49.8542 57.1875 48.9375 56.3333 47.5625 55.75C46.2292 55.1667 45.1042 54.9583 44.1875 55.125C43.3125 55.2917 42.6667 55.7292 42.25 56.4375Z" fill="white"/>
</svg>
