<svg width="88" height="81" viewBox="0 0 88 81" fill="none" xmlns="http://www.w3.org/2000/svg">
<path d="M87.5 40.5C87.5 18.4468 68.0642 0.5 44 0.5C19.9358 0.5 0.5 18.4468 0.5 40.5C0.5 62.5532 19.9358 80.5 44 80.5C68.0642 80.5 87.5 62.5532 87.5 40.5Z" fill="white" stroke="black"/>
<rect x="10.5" y="14.5" width="68" height="53" fill="white" stroke="black"/>
<line x1="11" y1="17" x2="78" y2="17" stroke="#BD0909" stroke-width="4"/>
<line x1="11" y1="25" x2="78" y2="25" stroke="#BD0909" stroke-width="4"/>
<line x1="11" y1="33" x2="78" y2="33" stroke="#BD0909" stroke-width="4"/>
<line x1="11" y1="41" x2="78" y2="41" stroke="#BD0909" stroke-width="4"/>
<line x1="11" y1="49" x2="78" y2="49" stroke="#BD0909" stroke-width="4"/>
<line x1="11" y1="57" x2="78" y2="57" stroke="#BD0909" stroke-width="4"/>
<line x1="11" y1="65" x2="78" y2="65" stroke="#BD0909" stroke-width="4"/>
<rect x="11" y="15" width="35" height="28" fill="#100884"/>
<path d="M13.5 16L13.8368 17.0365H14.9266L14.0449 17.6771L14.3817 18.7135L13.5 18.0729L12.6183 18.7135L12.9551 17.6771L12.0734 17.0365H13.1632L13.5 16Z" fill="white"/>
<path d="M13.5 16L13.8368 17.0365H14.9266L14.0449 17.6771L14.3817 18.7135L13.5 18.0729L12.6183 18.7135L12.9551 17.6771L12.0734 17.0365H13.1632L13.5 16Z" fill="white"/>
<path d="M13.5 16L13.8368 17.0365H14.9266L14.0449 17.6771L14.3817 18.7135L13.5 18.0729L12.6183 18.7135L12.9551 17.6771L12.0734 17.0365H13.1632L13.5 16Z" fill="white"/>
<path d="M19.5 16L19.8368 17.0365H20.9266L20.0449 17.6771L20.3817 18.7135L19.5 18.0729L18.6183 18.7135L18.9551 17.6771L18.0734 17.0365H19.1632L19.5 16Z" fill="white"/>
<path d="M19.5 16L19.8368 17.0365H20.9266L20.0449 17.6771L20.3817 18.7135L19.5 18.0729L18.6183 18.7135L18.9551 17.6771L18.0734 17.0365H19.1632L19.5 16Z" fill="white"/>
<path d="M19.5 16L19.8368 17.0365H20.9266L20.0449 17.6771L20.3817 18.7135L19.5 18.0729L18.6183 18.7135L18.9551 17.6771L18.0734 17.0365H19.1632L19.5 16Z" fill="white"/>
<path d="M16.5 19L16.8368 20.0365H17.9266L17.0449 20.6771L17.3817 21.7135L16.5 21.0729L15.6183 21.7135L15.9551 20.6771L15.0734 20.0365H16.1632L16.5 19Z" fill="white"/>
<path d="M16.5 19L16.8368 20.0365H17.9266L17.0449 20.6771L17.3817 21.7135L16.5 21.0729L15.6183 21.7135L15.9551 20.6771L15.0734 20.0365H16.1632L16.5 19Z" fill="white"/>
<path d="M16.5 19L16.8368 20.0365H17.9266L17.0449 20.6771L17.3817 21.7135L16.5 21.0729L15.6183 21.7135L15.9551 20.6771L15.0734 20.0365H16.1632L16.5 19Z" fill="white"/>
<path d="M25.5 16L25.8368 17.0365H26.9266L26.0449 17.6771L26.3817 18.7135L25.5 18.0729L24.6183 18.7135L24.9551 17.6771L24.0734 17.0365H25.1632L25.5 16Z" fill="white"/>
<path d="M25.5 16L25.8368 17.0365H26.9266L26.0449 17.6771L26.3817 18.7135L25.5 18.0729L24.6183 18.7135L24.9551 17.6771L24.0734 17.0365H25.1632L25.5 16Z" fill="white"/>
<path d="M25.5 16L25.8368 17.0365H26.9266L26.0449 17.6771L26.3817 18.7135L25.5 18.0729L24.6183 18.7135L24.9551 17.6771L24.0734 17.0365H25.1632L25.5 16Z" fill="white"/>
<path d="M22.5 19L22.8368 20.0365H23.9266L23.0449 20.6771L23.3817 21.7135L22.5 21.0729L21.6183 21.7135L21.9551 20.6771L21.0734 20.0365H22.1632L22.5 19Z" fill="white"/>
<path d="M22.5 19L22.8368 20.0365H23.9266L23.0449 20.6771L23.3817 21.7135L22.5 21.0729L21.6183 21.7135L21.9551 20.6771L21.0734 20.0365H22.1632L22.5 19Z" fill="white"/>
<path d="M22.5 19L22.8368 20.0365H23.9266L23.0449 20.6771L23.3817 21.7135L22.5 21.0729L21.6183 21.7135L21.9551 20.6771L21.0734 20.0365H22.1632L22.5 19Z" fill="white"/>
<path d="M31.5 16L31.8368 17.0365H32.9266L32.0449 17.6771L32.3817 18.7135L31.5 18.0729L30.6183 18.7135L30.9551 17.6771L30.0734 17.0365H31.1632L31.5 16Z" fill="white"/>
<path d="M31.5 16L31.8368 17.0365H32.9266L32.0449 17.6771L32.3817 18.7135L31.5 18.0729L30.6183 18.7135L30.9551 17.6771L30.0734 17.0365H31.1632L31.5 16Z" fill="white"/>
<path d="M31.5 16L31.8368 17.0365H32.9266L32.0449 17.6771L32.3817 18.7135L31.5 18.0729L30.6183 18.7135L30.9551 17.6771L30.0734 17.0365H31.1632L31.5 16Z" fill="white"/>
<path d="M28.5 19L28.8368 20.0365H29.9266L29.0449 20.6771L29.3817 21.7135L28.5 21.0729L27.6183 21.7135L27.9551 20.6771L27.0734 20.0365H28.1632L28.5 19Z" fill="white"/>
<path d="M28.5 19L28.8368 20.0365H29.9266L29.0449 20.6771L29.3817 21.7135L28.5 21.0729L27.6183 21.7135L27.9551 20.6771L27.0734 20.0365H28.1632L28.5 19Z" fill="white"/>
<path d="M28.5 19L28.8368 20.0365H29.9266L29.0449 20.6771L29.3817 21.7135L28.5 21.0729L27.6183 21.7135L27.9551 20.6771L27.0734 20.0365H28.1632L28.5 19Z" fill="white"/>
<path d="M37.5 16L37.8368 17.0365H38.9266L38.0449 17.6771L38.3817 18.7135L37.5 18.0729L36.6183 18.7135L36.9551 17.6771L36.0734 17.0365H37.1632L37.5 16Z" fill="white"/>
<path d="M37.5 16L37.8368 17.0365H38.9266L38.0449 17.6771L38.3817 18.7135L37.5 18.0729L36.6183 18.7135L36.9551 17.6771L36.0734 17.0365H37.1632L37.5 16Z" fill="white"/>
<path d="M37.5 16L37.8368 17.0365H38.9266L38.0449 17.6771L38.3817 18.7135L37.5 18.0729L36.6183 18.7135L36.9551 17.6771L36.0734 17.0365H37.1632L37.5 16Z" fill="white"/>
<path d="M34.5 19L34.8368 20.0365H35.9266L35.0449 20.6771L35.3817 21.7135L34.5 21.0729L33.6183 21.7135L33.9551 20.6771L33.0734 20.0365H34.1632L34.5 19Z" fill="white"/>
<path d="M34.5 19L34.8368 20.0365H35.9266L35.0449 20.6771L35.3817 21.7135L34.5 21.0729L33.6183 21.7135L33.9551 20.6771L33.0734 20.0365H34.1632L34.5 19Z" fill="white"/>
<path d="M34.5 19L34.8368 20.0365H35.9266L35.0449 20.6771L35.3817 21.7135L34.5 21.0729L33.6183 21.7135L33.9551 20.6771L33.0734 20.0365H34.1632L34.5 19Z" fill="white"/>
<path d="M43.5 16L43.8368 17.0365H44.9266L44.0449 17.6771L44.3817 18.7135L43.5 18.0729L42.6183 18.7135L42.9551 17.6771L42.0734 17.0365H43.1632L43.5 16Z" fill="white"/>
<path d="M43.5 16L43.8368 17.0365H44.9266L44.0449 17.6771L44.3817 18.7135L43.5 18.0729L42.6183 18.7135L42.9551 17.6771L42.0734 17.0365H43.1632L43.5 16Z" fill="white"/>
<path d="M43.5 16L43.8368 17.0365H44.9266L44.0449 17.6771L44.3817 18.7135L43.5 18.0729L42.6183 18.7135L42.9551 17.6771L42.0734 17.0365H43.1632L43.5 16Z" fill="white"/>
<path d="M13.5 40L13.8368 41.0365H14.9266L14.0449 41.6771L14.3817 42.7135L13.5 42.0729L12.6183 42.7135L12.9551 41.6771L12.0734 41.0365H13.1632L13.5 40Z" fill="white"/>
<path d="M13.5 40L13.8368 41.0365H14.9266L14.0449 41.6771L14.3817 42.7135L13.5 42.0729L12.6183 42.7135L12.9551 41.6771L12.0734 41.0365H13.1632L13.5 40Z" fill="white"/>
<path d="M13.5 40L13.8368 41.0365H14.9266L14.0449 41.6771L14.3817 42.7135L13.5 42.0729L12.6183 42.7135L12.9551 41.6771L12.0734 41.0365H13.1632L13.5 40Z" fill="white"/>
<path d="M19.5 40L19.8368 41.0365H20.9266L20.0449 41.6771L20.3817 42.7135L19.5 42.0729L18.6183 42.7135L18.9551 41.6771L18.0734 41.0365H19.1632L19.5 40Z" fill="white"/>
<path d="M19.5 40L19.8368 41.0365H20.9266L20.0449 41.6771L20.3817 42.7135L19.5 42.0729L18.6183 42.7135L18.9551 41.6771L18.0734 41.0365H19.1632L19.5 40Z" fill="white"/>
<path d="M19.5 40L19.8368 41.0365H20.9266L20.0449 41.6771L20.3817 42.7135L19.5 42.0729L18.6183 42.7135L18.9551 41.6771L18.0734 41.0365H19.1632L19.5 40Z" fill="white"/>
<path d="M25.5 40L25.8368 41.0365H26.9266L26.0449 41.6771L26.3817 42.7135L25.5 42.0729L24.6183 42.7135L24.9551 41.6771L24.0734 41.0365H25.1632L25.5 40Z" fill="white"/>
<path d="M25.5 40L25.8368 41.0365H26.9266L26.0449 41.6771L26.3817 42.7135L25.5 42.0729L24.6183 42.7135L24.9551 41.6771L24.0734 41.0365H25.1632L25.5 40Z" fill="white"/>
<path d="M25.5 40L25.8368 41.0365H26.9266L26.0449 41.6771L26.3817 42.7135L25.5 42.0729L24.6183 42.7135L24.9551 41.6771L24.0734 41.0365H25.1632L25.5 40Z" fill="white"/>
<path d="M31.5 40L31.8368 41.0365H32.9266L32.0449 41.6771L32.3817 42.7135L31.5 42.0729L30.6183 42.7135L30.9551 41.6771L30.0734 41.0365H31.1632L31.5 40Z" fill="white"/>
<path d="M31.5 40L31.8368 41.0365H32.9266L32.0449 41.6771L32.3817 42.7135L31.5 42.0729L30.6183 42.7135L30.9551 41.6771L30.0734 41.0365H31.1632L31.5 40Z" fill="white"/>
<path d="M31.5 40L31.8368 41.0365H32.9266L32.0449 41.6771L32.3817 42.7135L31.5 42.0729L30.6183 42.7135L30.9551 41.6771L30.0734 41.0365H31.1632L31.5 40Z" fill="white"/>
<path d="M37.5 40L37.8368 41.0365H38.9266L38.0449 41.6771L38.3817 42.7135L37.5 42.0729L36.6183 42.7135L36.9551 41.6771L36.0734 41.0365H37.1632L37.5 40Z" fill="white"/>
<path d="M37.5 40L37.8368 41.0365H38.9266L38.0449 41.6771L38.3817 42.7135L37.5 42.0729L36.6183 42.7135L36.9551 41.6771L36.0734 41.0365H37.1632L37.5 40Z" fill="white"/>
<path d="M37.5 40L37.8368 41.0365H38.9266L38.0449 41.6771L38.3817 42.7135L37.5 42.0729L36.6183 42.7135L36.9551 41.6771L36.0734 41.0365H37.1632L37.5 40Z" fill="white"/>
<path d="M43.5 40L43.8368 41.0365H44.9266L44.0449 41.6771L44.3817 42.7135L43.5 42.0729L42.6183 42.7135L42.9551 41.6771L42.0734 41.0365H43.1632L43.5 40Z" fill="white"/>
<path d="M43.5 40L43.8368 41.0365H44.9266L44.0449 41.6771L44.3817 42.7135L43.5 42.0729L42.6183 42.7135L42.9551 41.6771L42.0734 41.0365H43.1632L43.5 40Z" fill="white"/>
<path d="M43.5 40L43.8368 41.0365H44.9266L44.0449 41.6771L44.3817 42.7135L43.5 42.0729L42.6183 42.7135L42.9551 41.6771L42.0734 41.0365H43.1632L43.5 40Z" fill="white"/>
<path d="M40.5 19L40.8368 20.0365H41.9266L41.0449 20.6771L41.3817 21.7135L40.5 21.0729L39.6183 21.7135L39.9551 20.6771L39.0734 20.0365H40.1632L40.5 19Z" fill="white"/>
<path d="M40.5 19L40.8368 20.0365H41.9266L41.0449 20.6771L41.3817 21.7135L40.5 21.0729L39.6183 21.7135L39.9551 20.6771L39.0734 20.0365H40.1632L40.5 19Z" fill="white"/>
<path d="M40.5 19L40.8368 20.0365H41.9266L41.0449 20.6771L41.3817 21.7135L40.5 21.0729L39.6183 21.7135L39.9551 20.6771L39.0734 20.0365H40.1632L40.5 19Z" fill="white"/>
<path d="M13.5 22L13.8368 23.0365H14.9266L14.0449 23.6771L14.3817 24.7135L13.5 24.0729L12.6183 24.7135L12.9551 23.6771L12.0734 23.0365H13.1632L13.5 22Z" fill="white"/>
<path d="M13.5 22L13.8368 23.0365H14.9266L14.0449 23.6771L14.3817 24.7135L13.5 24.0729L12.6183 24.7135L12.9551 23.6771L12.0734 23.0365H13.1632L13.5 22Z" fill="white"/>
<path d="M13.5 22L13.8368 23.0365H14.9266L14.0449 23.6771L14.3817 24.7135L13.5 24.0729L12.6183 24.7135L12.9551 23.6771L12.0734 23.0365H13.1632L13.5 22Z" fill="white"/>
<path d="M19.5 22L19.8368 23.0365H20.9266L20.0449 23.6771L20.3817 24.7135L19.5 24.0729L18.6183 24.7135L18.9551 23.6771L18.0734 23.0365H19.1632L19.5 22Z" fill="white"/>
<path d="M19.5 22L19.8368 23.0365H20.9266L20.0449 23.6771L20.3817 24.7135L19.5 24.0729L18.6183 24.7135L18.9551 23.6771L18.0734 23.0365H19.1632L19.5 22Z" fill="white"/>
<path d="M19.5 22L19.8368 23.0365H20.9266L20.0449 23.6771L20.3817 24.7135L19.5 24.0729L18.6183 24.7135L18.9551 23.6771L18.0734 23.0365H19.1632L19.5 22Z" fill="white"/>
<path d="M16.5 25L16.8368 26.0365H17.9266L17.0449 26.6771L17.3817 27.7135L16.5 27.0729L15.6183 27.7135L15.9551 26.6771L15.0734 26.0365H16.1632L16.5 25Z" fill="white"/>
<path d="M16.5 25L16.8368 26.0365H17.9266L17.0449 26.6771L17.3817 27.7135L16.5 27.0729L15.6183 27.7135L15.9551 26.6771L15.0734 26.0365H16.1632L16.5 25Z" fill="white"/>
<path d="M16.5 25L16.8368 26.0365H17.9266L17.0449 26.6771L17.3817 27.7135L16.5 27.0729L15.6183 27.7135L15.9551 26.6771L15.0734 26.0365H16.1632L16.5 25Z" fill="white"/>
<path d="M25.5 22L25.8368 23.0365H26.9266L26.0449 23.6771L26.3817 24.7135L25.5 24.0729L24.6183 24.7135L24.9551 23.6771L24.0734 23.0365H25.1632L25.5 22Z" fill="white"/>
<path d="M25.5 22L25.8368 23.0365H26.9266L26.0449 23.6771L26.3817 24.7135L25.5 24.0729L24.6183 24.7135L24.9551 23.6771L24.0734 23.0365H25.1632L25.5 22Z" fill="white"/>
<path d="M25.5 22L25.8368 23.0365H26.9266L26.0449 23.6771L26.3817 24.7135L25.5 24.0729L24.6183 24.7135L24.9551 23.6771L24.0734 23.0365H25.1632L25.5 22Z" fill="white"/>
<path d="M22.5 25L22.8368 26.0365H23.9266L23.0449 26.6771L23.3817 27.7135L22.5 27.0729L21.6183 27.7135L21.9551 26.6771L21.0734 26.0365H22.1632L22.5 25Z" fill="white"/>
<path d="M22.5 25L22.8368 26.0365H23.9266L23.0449 26.6771L23.3817 27.7135L22.5 27.0729L21.6183 27.7135L21.9551 26.6771L21.0734 26.0365H22.1632L22.5 25Z" fill="white"/>
<path d="M22.5 25L22.8368 26.0365H23.9266L23.0449 26.6771L23.3817 27.7135L22.5 27.0729L21.6183 27.7135L21.9551 26.6771L21.0734 26.0365H22.1632L22.5 25Z" fill="white"/>
<path d="M31.5 22L31.8368 23.0365H32.9266L32.0449 23.6771L32.3817 24.7135L31.5 24.0729L30.6183 24.7135L30.9551 23.6771L30.0734 23.0365H31.1632L31.5 22Z" fill="white"/>
<path d="M31.5 22L31.8368 23.0365H32.9266L32.0449 23.6771L32.3817 24.7135L31.5 24.0729L30.6183 24.7135L30.9551 23.6771L30.0734 23.0365H31.1632L31.5 22Z" fill="white"/>
<path d="M31.5 22L31.8368 23.0365H32.9266L32.0449 23.6771L32.3817 24.7135L31.5 24.0729L30.6183 24.7135L30.9551 23.6771L30.0734 23.0365H31.1632L31.5 22Z" fill="white"/>
<path d="M28.5 25L28.8368 26.0365H29.9266L29.0449 26.6771L29.3817 27.7135L28.5 27.0729L27.6183 27.7135L27.9551 26.6771L27.0734 26.0365H28.1632L28.5 25Z" fill="white"/>
<path d="M28.5 25L28.8368 26.0365H29.9266L29.0449 26.6771L29.3817 27.7135L28.5 27.0729L27.6183 27.7135L27.9551 26.6771L27.0734 26.0365H28.1632L28.5 25Z" fill="white"/>
<path d="M28.5 25L28.8368 26.0365H29.9266L29.0449 26.6771L29.3817 27.7135L28.5 27.0729L27.6183 27.7135L27.9551 26.6771L27.0734 26.0365H28.1632L28.5 25Z" fill="white"/>
<path d="M37.5 22L37.8368 23.0365H38.9266L38.0449 23.6771L38.3817 24.7135L37.5 24.0729L36.6183 24.7135L36.9551 23.6771L36.0734 23.0365H37.1632L37.5 22Z" fill="white"/>
<path d="M37.5 22L37.8368 23.0365H38.9266L38.0449 23.6771L38.3817 24.7135L37.5 24.0729L36.6183 24.7135L36.9551 23.6771L36.0734 23.0365H37.1632L37.5 22Z" fill="white"/>
<path d="M37.5 22L37.8368 23.0365H38.9266L38.0449 23.6771L38.3817 24.7135L37.5 24.0729L36.6183 24.7135L36.9551 23.6771L36.0734 23.0365H37.1632L37.5 22Z" fill="white"/>
<path d="M34.5 25L34.8368 26.0365H35.9266L35.0449 26.6771L35.3817 27.7135L34.5 27.0729L33.6183 27.7135L33.9551 26.6771L33.0734 26.0365H34.1632L34.5 25Z" fill="white"/>
<path d="M34.5 25L34.8368 26.0365H35.9266L35.0449 26.6771L35.3817 27.7135L34.5 27.0729L33.6183 27.7135L33.9551 26.6771L33.0734 26.0365H34.1632L34.5 25Z" fill="white"/>
<path d="M34.5 25L34.8368 26.0365H35.9266L35.0449 26.6771L35.3817 27.7135L34.5 27.0729L33.6183 27.7135L33.9551 26.6771L33.0734 26.0365H34.1632L34.5 25Z" fill="white"/>
<path d="M43.5 22L43.8368 23.0365H44.9266L44.0449 23.6771L44.3817 24.7135L43.5 24.0729L42.6183 24.7135L42.9551 23.6771L42.0734 23.0365H43.1632L43.5 22Z" fill="white"/>
<path d="M43.5 22L43.8368 23.0365H44.9266L44.0449 23.6771L44.3817 24.7135L43.5 24.0729L42.6183 24.7135L42.9551 23.6771L42.0734 23.0365H43.1632L43.5 22Z" fill="white"/>
<path d="M43.5 22L43.8368 23.0365H44.9266L44.0449 23.6771L44.3817 24.7135L43.5 24.0729L42.6183 24.7135L42.9551 23.6771L42.0734 23.0365H43.1632L43.5 22Z" fill="white"/>
<path d="M40.5 25L40.8368 26.0365H41.9266L41.0449 26.6771L41.3817 27.7135L40.5 27.0729L39.6183 27.7135L39.9551 26.6771L39.0734 26.0365H40.1632L40.5 25Z" fill="white"/>
<path d="M40.5 25L40.8368 26.0365H41.9266L41.0449 26.6771L41.3817 27.7135L40.5 27.0729L39.6183 27.7135L39.9551 26.6771L39.0734 26.0365H40.1632L40.5 25Z" fill="white"/>
<path d="M40.5 25L40.8368 26.0365H41.9266L41.0449 26.6771L41.3817 27.7135L40.5 27.0729L39.6183 27.7135L39.9551 26.6771L39.0734 26.0365H40.1632L40.5 25Z" fill="white"/>
<path d="M13.5 28L13.8368 29.0365H14.9266L14.0449 29.6771L14.3817 30.7135L13.5 30.0729L12.6183 30.7135L12.9551 29.6771L12.0734 29.0365H13.1632L13.5 28Z" fill="white"/>
<path d="M13.5 28L13.8368 29.0365H14.9266L14.0449 29.6771L14.3817 30.7135L13.5 30.0729L12.6183 30.7135L12.9551 29.6771L12.0734 29.0365H13.1632L13.5 28Z" fill="white"/>
<path d="M13.5 28L13.8368 29.0365H14.9266L14.0449 29.6771L14.3817 30.7135L13.5 30.0729L12.6183 30.7135L12.9551 29.6771L12.0734 29.0365H13.1632L13.5 28Z" fill="white"/>
<path d="M19.5 28L19.8368 29.0365H20.9266L20.0449 29.6771L20.3817 30.7135L19.5 30.0729L18.6183 30.7135L18.9551 29.6771L18.0734 29.0365H19.1632L19.5 28Z" fill="white"/>
<path d="M19.5 28L19.8368 29.0365H20.9266L20.0449 29.6771L20.3817 30.7135L19.5 30.0729L18.6183 30.7135L18.9551 29.6771L18.0734 29.0365H19.1632L19.5 28Z" fill="white"/>
<path d="M19.5 28L19.8368 29.0365H20.9266L20.0449 29.6771L20.3817 30.7135L19.5 30.0729L18.6183 30.7135L18.9551 29.6771L18.0734 29.0365H19.1632L19.5 28Z" fill="white"/>
<path d="M16.5 31L16.8368 32.0365H17.9266L17.0449 32.6771L17.3817 33.7135L16.5 33.0729L15.6183 33.7135L15.9551 32.6771L15.0734 32.0365H16.1632L16.5 31Z" fill="white"/>
<path d="M16.5 31L16.8368 32.0365H17.9266L17.0449 32.6771L17.3817 33.7135L16.5 33.0729L15.6183 33.7135L15.9551 32.6771L15.0734 32.0365H16.1632L16.5 31Z" fill="white"/>
<path d="M16.5 31L16.8368 32.0365H17.9266L17.0449 32.6771L17.3817 33.7135L16.5 33.0729L15.6183 33.7135L15.9551 32.6771L15.0734 32.0365H16.1632L16.5 31Z" fill="white"/>
<path d="M25.5 28L25.8368 29.0365H26.9266L26.0449 29.6771L26.3817 30.7135L25.5 30.0729L24.6183 30.7135L24.9551 29.6771L24.0734 29.0365H25.1632L25.5 28Z" fill="white"/>
<path d="M25.5 28L25.8368 29.0365H26.9266L26.0449 29.6771L26.3817 30.7135L25.5 30.0729L24.6183 30.7135L24.9551 29.6771L24.0734 29.0365H25.1632L25.5 28Z" fill="white"/>
<path d="M25.5 28L25.8368 29.0365H26.9266L26.0449 29.6771L26.3817 30.7135L25.5 30.0729L24.6183 30.7135L24.9551 29.6771L24.0734 29.0365H25.1632L25.5 28Z" fill="white"/>
<path d="M22.5 31L22.8368 32.0365H23.9266L23.0449 32.6771L23.3817 33.7135L22.5 33.0729L21.6183 33.7135L21.9551 32.6771L21.0734 32.0365H22.1632L22.5 31Z" fill="white"/>
<path d="M22.5 31L22.8368 32.0365H23.9266L23.0449 32.6771L23.3817 33.7135L22.5 33.0729L21.6183 33.7135L21.9551 32.6771L21.0734 32.0365H22.1632L22.5 31Z" fill="white"/>
<path d="M22.5 31L22.8368 32.0365H23.9266L23.0449 32.6771L23.3817 33.7135L22.5 33.0729L21.6183 33.7135L21.9551 32.6771L21.0734 32.0365H22.1632L22.5 31Z" fill="white"/>
<path d="M31.5 28L31.8368 29.0365H32.9266L32.0449 29.6771L32.3817 30.7135L31.5 30.0729L30.6183 30.7135L30.9551 29.6771L30.0734 29.0365H31.1632L31.5 28Z" fill="white"/>
<path d="M31.5 28L31.8368 29.0365H32.9266L32.0449 29.6771L32.3817 30.7135L31.5 30.0729L30.6183 30.7135L30.9551 29.6771L30.0734 29.0365H31.1632L31.5 28Z" fill="white"/>
<path d="M31.5 28L31.8368 29.0365H32.9266L32.0449 29.6771L32.3817 30.7135L31.5 30.0729L30.6183 30.7135L30.9551 29.6771L30.0734 29.0365H31.1632L31.5 28Z" fill="white"/>
<path d="M28.5 31L28.8368 32.0365H29.9266L29.0449 32.6771L29.3817 33.7135L28.5 33.0729L27.6183 33.7135L27.9551 32.6771L27.0734 32.0365H28.1632L28.5 31Z" fill="white"/>
<path d="M28.5 31L28.8368 32.0365H29.9266L29.0449 32.6771L29.3817 33.7135L28.5 33.0729L27.6183 33.7135L27.9551 32.6771L27.0734 32.0365H28.1632L28.5 31Z" fill="white"/>
<path d="M28.5 31L28.8368 32.0365H29.9266L29.0449 32.6771L29.3817 33.7135L28.5 33.0729L27.6183 33.7135L27.9551 32.6771L27.0734 32.0365H28.1632L28.5 31Z" fill="white"/>
<path d="M37.5 28L37.8368 29.0365H38.9266L38.0449 29.6771L38.3817 30.7135L37.5 30.0729L36.6183 30.7135L36.9551 29.6771L36.0734 29.0365H37.1632L37.5 28Z" fill="white"/>
<path d="M37.5 28L37.8368 29.0365H38.9266L38.0449 29.6771L38.3817 30.7135L37.5 30.0729L36.6183 30.7135L36.9551 29.6771L36.0734 29.0365H37.1632L37.5 28Z" fill="white"/>
<path d="M37.5 28L37.8368 29.0365H38.9266L38.0449 29.6771L38.3817 30.7135L37.5 30.0729L36.6183 30.7135L36.9551 29.6771L36.0734 29.0365H37.1632L37.5 28Z" fill="white"/>
<path d="M34.5 31L34.8368 32.0365H35.9266L35.0449 32.6771L35.3817 33.7135L34.5 33.0729L33.6183 33.7135L33.9551 32.6771L33.0734 32.0365H34.1632L34.5 31Z" fill="white"/>
<path d="M34.5 31L34.8368 32.0365H35.9266L35.0449 32.6771L35.3817 33.7135L34.5 33.0729L33.6183 33.7135L33.9551 32.6771L33.0734 32.0365H34.1632L34.5 31Z" fill="white"/>
<path d="M34.5 31L34.8368 32.0365H35.9266L35.0449 32.6771L35.3817 33.7135L34.5 33.0729L33.6183 33.7135L33.9551 32.6771L33.0734 32.0365H34.1632L34.5 31Z" fill="white"/>
<path d="M43.5 28L43.8368 29.0365H44.9266L44.0449 29.6771L44.3817 30.7135L43.5 30.0729L42.6183 30.7135L42.9551 29.6771L42.0734 29.0365H43.1632L43.5 28Z" fill="white"/>
<path d="M43.5 28L43.8368 29.0365H44.9266L44.0449 29.6771L44.3817 30.7135L43.5 30.0729L42.6183 30.7135L42.9551 29.6771L42.0734 29.0365H43.1632L43.5 28Z" fill="white"/>
<path d="M43.5 28L43.8368 29.0365H44.9266L44.0449 29.6771L44.3817 30.7135L43.5 30.0729L42.6183 30.7135L42.9551 29.6771L42.0734 29.0365H43.1632L43.5 28Z" fill="white"/>
<path d="M40.5 31L40.8368 32.0365H41.9266L41.0449 32.6771L41.3817 33.7135L40.5 33.0729L39.6183 33.7135L39.9551 32.6771L39.0734 32.0365H40.1632L40.5 31Z" fill="white"/>
<path d="M40.5 31L40.8368 32.0365H41.9266L41.0449 32.6771L41.3817 33.7135L40.5 33.0729L39.6183 33.7135L39.9551 32.6771L39.0734 32.0365H40.1632L40.5 31Z" fill="white"/>
<path d="M40.5 31L40.8368 32.0365H41.9266L41.0449 32.6771L41.3817 33.7135L40.5 33.0729L39.6183 33.7135L39.9551 32.6771L39.0734 32.0365H40.1632L40.5 31Z" fill="white"/>
<path d="M13.5 34L13.8368 35.0365H14.9266L14.0449 35.6771L14.3817 36.7135L13.5 36.0729L12.6183 36.7135L12.9551 35.6771L12.0734 35.0365H13.1632L13.5 34Z" fill="white"/>
<path d="M13.5 34L13.8368 35.0365H14.9266L14.0449 35.6771L14.3817 36.7135L13.5 36.0729L12.6183 36.7135L12.9551 35.6771L12.0734 35.0365H13.1632L13.5 34Z" fill="white"/>
<path d="M13.5 34L13.8368 35.0365H14.9266L14.0449 35.6771L14.3817 36.7135L13.5 36.0729L12.6183 36.7135L12.9551 35.6771L12.0734 35.0365H13.1632L13.5 34Z" fill="white"/>
<path d="M19.5 34L19.8368 35.0365H20.9266L20.0449 35.6771L20.3817 36.7135L19.5 36.0729L18.6183 36.7135L18.9551 35.6771L18.0734 35.0365H19.1632L19.5 34Z" fill="white"/>
<path d="M19.5 34L19.8368 35.0365H20.9266L20.0449 35.6771L20.3817 36.7135L19.5 36.0729L18.6183 36.7135L18.9551 35.6771L18.0734 35.0365H19.1632L19.5 34Z" fill="white"/>
<path d="M19.5 34L19.8368 35.0365H20.9266L20.0449 35.6771L20.3817 36.7135L19.5 36.0729L18.6183 36.7135L18.9551 35.6771L18.0734 35.0365H19.1632L19.5 34Z" fill="white"/>
<path d="M16.5 37L16.8368 38.0365H17.9266L17.0449 38.6771L17.3817 39.7135L16.5 39.0729L15.6183 39.7135L15.9551 38.6771L15.0734 38.0365H16.1632L16.5 37Z" fill="white"/>
<path d="M16.5 37L16.8368 38.0365H17.9266L17.0449 38.6771L17.3817 39.7135L16.5 39.0729L15.6183 39.7135L15.9551 38.6771L15.0734 38.0365H16.1632L16.5 37Z" fill="white"/>
<path d="M16.5 37L16.8368 38.0365H17.9266L17.0449 38.6771L17.3817 39.7135L16.5 39.0729L15.6183 39.7135L15.9551 38.6771L15.0734 38.0365H16.1632L16.5 37Z" fill="white"/>
<path d="M25.5 34L25.8368 35.0365H26.9266L26.0449 35.6771L26.3817 36.7135L25.5 36.0729L24.6183 36.7135L24.9551 35.6771L24.0734 35.0365H25.1632L25.5 34Z" fill="white"/>
<path d="M25.5 34L25.8368 35.0365H26.9266L26.0449 35.6771L26.3817 36.7135L25.5 36.0729L24.6183 36.7135L24.9551 35.6771L24.0734 35.0365H25.1632L25.5 34Z" fill="white"/>
<path d="M25.5 34L25.8368 35.0365H26.9266L26.0449 35.6771L26.3817 36.7135L25.5 36.0729L24.6183 36.7135L24.9551 35.6771L24.0734 35.0365H25.1632L25.5 34Z" fill="white"/>
<path d="M22.5 37L22.8368 38.0365H23.9266L23.0449 38.6771L23.3817 39.7135L22.5 39.0729L21.6183 39.7135L21.9551 38.6771L21.0734 38.0365H22.1632L22.5 37Z" fill="white"/>
<path d="M22.5 37L22.8368 38.0365H23.9266L23.0449 38.6771L23.3817 39.7135L22.5 39.0729L21.6183 39.7135L21.9551 38.6771L21.0734 38.0365H22.1632L22.5 37Z" fill="white"/>
<path d="M22.5 37L22.8368 38.0365H23.9266L23.0449 38.6771L23.3817 39.7135L22.5 39.0729L21.6183 39.7135L21.9551 38.6771L21.0734 38.0365H22.1632L22.5 37Z" fill="white"/>
<path d="M31.5 34L31.8368 35.0365H32.9266L32.0449 35.6771L32.3817 36.7135L31.5 36.0729L30.6183 36.7135L30.9551 35.6771L30.0734 35.0365H31.1632L31.5 34Z" fill="white"/>
<path d="M31.5 34L31.8368 35.0365H32.9266L32.0449 35.6771L32.3817 36.7135L31.5 36.0729L30.6183 36.7135L30.9551 35.6771L30.0734 35.0365H31.1632L31.5 34Z" fill="white"/>
<path d="M31.5 34L31.8368 35.0365H32.9266L32.0449 35.6771L32.3817 36.7135L31.5 36.0729L30.6183 36.7135L30.9551 35.6771L30.0734 35.0365H31.1632L31.5 34Z" fill="white"/>
<path d="M28.5 37L28.8368 38.0365H29.9266L29.0449 38.6771L29.3817 39.7135L28.5 39.0729L27.6183 39.7135L27.9551 38.6771L27.0734 38.0365H28.1632L28.5 37Z" fill="white"/>
<path d="M28.5 37L28.8368 38.0365H29.9266L29.0449 38.6771L29.3817 39.7135L28.5 39.0729L27.6183 39.7135L27.9551 38.6771L27.0734 38.0365H28.1632L28.5 37Z" fill="white"/>
<path d="M28.5 37L28.8368 38.0365H29.9266L29.0449 38.6771L29.3817 39.7135L28.5 39.0729L27.6183 39.7135L27.9551 38.6771L27.0734 38.0365H28.1632L28.5 37Z" fill="white"/>
<path d="M37.5 34L37.8368 35.0365H38.9266L38.0449 35.6771L38.3817 36.7135L37.5 36.0729L36.6183 36.7135L36.9551 35.6771L36.0734 35.0365H37.1632L37.5 34Z" fill="white"/>
<path d="M37.5 34L37.8368 35.0365H38.9266L38.0449 35.6771L38.3817 36.7135L37.5 36.0729L36.6183 36.7135L36.9551 35.6771L36.0734 35.0365H37.1632L37.5 34Z" fill="white"/>
<path d="M37.5 34L37.8368 35.0365H38.9266L38.0449 35.6771L38.3817 36.7135L37.5 36.0729L36.6183 36.7135L36.9551 35.6771L36.0734 35.0365H37.1632L37.5 34Z" fill="white"/>
<path d="M34.5 37L34.8368 38.0365H35.9266L35.0449 38.6771L35.3817 39.7135L34.5 39.0729L33.6183 39.7135L33.9551 38.6771L33.0734 38.0365H34.1632L34.5 37Z" fill="white"/>
<path d="M34.5 37L34.8368 38.0365H35.9266L35.0449 38.6771L35.3817 39.7135L34.5 39.0729L33.6183 39.7135L33.9551 38.6771L33.0734 38.0365H34.1632L34.5 37Z" fill="white"/>
<path d="M34.5 37L34.8368 38.0365H35.9266L35.0449 38.6771L35.3817 39.7135L34.5 39.0729L33.6183 39.7135L33.9551 38.6771L33.0734 38.0365H34.1632L34.5 37Z" fill="white"/>
<path d="M43.5 34L43.8368 35.0365H44.9266L44.0449 35.6771L44.3817 36.7135L43.5 36.0729L42.6183 36.7135L42.9551 35.6771L42.0734 35.0365H43.1632L43.5 34Z" fill="white"/>
<path d="M43.5 34L43.8368 35.0365H44.9266L44.0449 35.6771L44.3817 36.7135L43.5 36.0729L42.6183 36.7135L42.9551 35.6771L42.0734 35.0365H43.1632L43.5 34Z" fill="white"/>
<path d="M43.5 34L43.8368 35.0365H44.9266L44.0449 35.6771L44.3817 36.7135L43.5 36.0729L42.6183 36.7135L42.9551 35.6771L42.0734 35.0365H43.1632L43.5 34Z" fill="white"/>
<path d="M40.5 37L40.8368 38.0365H41.9266L41.0449 38.6771L41.3817 39.7135L40.5 39.0729L39.6183 39.7135L39.9551 38.6771L39.0734 38.0365H40.1632L40.5 37Z" fill="white"/>
<path d="M40.5 37L40.8368 38.0365H41.9266L41.0449 38.6771L41.3817 39.7135L40.5 39.0729L39.6183 39.7135L39.9551 38.6771L39.0734 38.0365H40.1632L40.5 37Z" fill="white"/>
<path d="M40.5 37L40.8368 38.0365H41.9266L41.0449 38.6771L41.3817 39.7135L40.5 39.0729L39.6183 39.7135L39.9551 38.6771L39.0734 38.0365H40.1632L40.5 37Z" fill="white"/>
</svg>
