<svg width="88" height="81" viewBox="0 0 88 81" fill="none" xmlns="http://www.w3.org/2000/svg">
<path d="M87.5 40.5C87.5 18.4468 68.0642 0.5 44 0.5C19.9358 0.5 0.5 18.4468 0.5 40.5C0.5 62.5532 19.9358 80.5 44 80.5C68.0642 80.5 87.5 62.5532 87.5 40.5Z" fill="black" stroke="white"/>
<rect x="9.5" y="14.5" width="68" height="53" fill="white" stroke="black"/>
<line x1="10" y1="17" x2="77" y2="17" stroke="#BD0909" stroke-width="4"/>
<line x1="10" y1="25" x2="77" y2="25" stroke="#BD0909" stroke-width="4"/>
<line x1="10" y1="33" x2="77" y2="33" stroke="#BD0909" stroke-width="4"/>
<line x1="10" y1="41" x2="77" y2="41" stroke="#BD0909" stroke-width="4"/>
<line x1="10" y1="49" x2="77" y2="49" stroke="#BD0909" stroke-width="4"/>
<line x1="10" y1="57" x2="77" y2="57" stroke="#BD0909" stroke-width="4"/>
<line x1="10" y1="65" x2="77" y2="65" stroke="#BD0909" stroke-width="4"/>
<rect x="10" y="15" width="35" height="28" fill="#100884"/>
<path d="M12.5 16L12.8368 17.0365H13.9266L13.0449 17.6771L13.3817 18.7135L12.5 18.0729L11.6183 18.7135L11.9551 17.6771L11.0734 17.0365H12.1632L12.5 16Z" fill="white"/>
<path d="M12.5 16L12.8368 17.0365H13.9266L13.0449 17.6771L13.3817 18.7135L12.5 18.0729L11.6183 18.7135L11.9551 17.6771L11.0734 17.0365H12.1632L12.5 16Z" fill="white"/>
<path d="M12.5 16L12.8368 17.0365H13.9266L13.0449 17.6771L13.3817 18.7135L12.5 18.0729L11.6183 18.7135L11.9551 17.6771L11.0734 17.0365H12.1632L12.5 16Z" fill="white"/>
<path d="M18.5 16L18.8368 17.0365H19.9266L19.0449 17.6771L19.3817 18.7135L18.5 18.0729L17.6183 18.7135L17.9551 17.6771L17.0734 17.0365H18.1632L18.5 16Z" fill="white"/>
<path d="M18.5 16L18.8368 17.0365H19.9266L19.0449 17.6771L19.3817 18.7135L18.5 18.0729L17.6183 18.7135L17.9551 17.6771L17.0734 17.0365H18.1632L18.5 16Z" fill="white"/>
<path d="M18.5 16L18.8368 17.0365H19.9266L19.0449 17.6771L19.3817 18.7135L18.5 18.0729L17.6183 18.7135L17.9551 17.6771L17.0734 17.0365H18.1632L18.5 16Z" fill="white"/>
<path d="M15.5 19L15.8368 20.0365H16.9266L16.0449 20.6771L16.3817 21.7135L15.5 21.0729L14.6183 21.7135L14.9551 20.6771L14.0734 20.0365H15.1632L15.5 19Z" fill="white"/>
<path d="M15.5 19L15.8368 20.0365H16.9266L16.0449 20.6771L16.3817 21.7135L15.5 21.0729L14.6183 21.7135L14.9551 20.6771L14.0734 20.0365H15.1632L15.5 19Z" fill="white"/>
<path d="M15.5 19L15.8368 20.0365H16.9266L16.0449 20.6771L16.3817 21.7135L15.5 21.0729L14.6183 21.7135L14.9551 20.6771L14.0734 20.0365H15.1632L15.5 19Z" fill="white"/>
<path d="M24.5 16L24.8368 17.0365H25.9266L25.0449 17.6771L25.3817 18.7135L24.5 18.0729L23.6183 18.7135L23.9551 17.6771L23.0734 17.0365H24.1632L24.5 16Z" fill="white"/>
<path d="M24.5 16L24.8368 17.0365H25.9266L25.0449 17.6771L25.3817 18.7135L24.5 18.0729L23.6183 18.7135L23.9551 17.6771L23.0734 17.0365H24.1632L24.5 16Z" fill="white"/>
<path d="M24.5 16L24.8368 17.0365H25.9266L25.0449 17.6771L25.3817 18.7135L24.5 18.0729L23.6183 18.7135L23.9551 17.6771L23.0734 17.0365H24.1632L24.5 16Z" fill="white"/>
<path d="M21.5 19L21.8368 20.0365H22.9266L22.0449 20.6771L22.3817 21.7135L21.5 21.0729L20.6183 21.7135L20.9551 20.6771L20.0734 20.0365H21.1632L21.5 19Z" fill="white"/>
<path d="M21.5 19L21.8368 20.0365H22.9266L22.0449 20.6771L22.3817 21.7135L21.5 21.0729L20.6183 21.7135L20.9551 20.6771L20.0734 20.0365H21.1632L21.5 19Z" fill="white"/>
<path d="M21.5 19L21.8368 20.0365H22.9266L22.0449 20.6771L22.3817 21.7135L21.5 21.0729L20.6183 21.7135L20.9551 20.6771L20.0734 20.0365H21.1632L21.5 19Z" fill="white"/>
<path d="M30.5 16L30.8368 17.0365H31.9266L31.0449 17.6771L31.3817 18.7135L30.5 18.0729L29.6183 18.7135L29.9551 17.6771L29.0734 17.0365H30.1632L30.5 16Z" fill="white"/>
<path d="M30.5 16L30.8368 17.0365H31.9266L31.0449 17.6771L31.3817 18.7135L30.5 18.0729L29.6183 18.7135L29.9551 17.6771L29.0734 17.0365H30.1632L30.5 16Z" fill="white"/>
<path d="M30.5 16L30.8368 17.0365H31.9266L31.0449 17.6771L31.3817 18.7135L30.5 18.0729L29.6183 18.7135L29.9551 17.6771L29.0734 17.0365H30.1632L30.5 16Z" fill="white"/>
<path d="M27.5 19L27.8368 20.0365H28.9266L28.0449 20.6771L28.3817 21.7135L27.5 21.0729L26.6183 21.7135L26.9551 20.6771L26.0734 20.0365H27.1632L27.5 19Z" fill="white"/>
<path d="M27.5 19L27.8368 20.0365H28.9266L28.0449 20.6771L28.3817 21.7135L27.5 21.0729L26.6183 21.7135L26.9551 20.6771L26.0734 20.0365H27.1632L27.5 19Z" fill="white"/>
<path d="M27.5 19L27.8368 20.0365H28.9266L28.0449 20.6771L28.3817 21.7135L27.5 21.0729L26.6183 21.7135L26.9551 20.6771L26.0734 20.0365H27.1632L27.5 19Z" fill="white"/>
<path d="M36.5 16L36.8368 17.0365H37.9266L37.0449 17.6771L37.3817 18.7135L36.5 18.0729L35.6183 18.7135L35.9551 17.6771L35.0734 17.0365H36.1632L36.5 16Z" fill="white"/>
<path d="M36.5 16L36.8368 17.0365H37.9266L37.0449 17.6771L37.3817 18.7135L36.5 18.0729L35.6183 18.7135L35.9551 17.6771L35.0734 17.0365H36.1632L36.5 16Z" fill="white"/>
<path d="M36.5 16L36.8368 17.0365H37.9266L37.0449 17.6771L37.3817 18.7135L36.5 18.0729L35.6183 18.7135L35.9551 17.6771L35.0734 17.0365H36.1632L36.5 16Z" fill="white"/>
<path d="M33.5 19L33.8368 20.0365H34.9266L34.0449 20.6771L34.3817 21.7135L33.5 21.0729L32.6183 21.7135L32.9551 20.6771L32.0734 20.0365H33.1632L33.5 19Z" fill="white"/>
<path d="M33.5 19L33.8368 20.0365H34.9266L34.0449 20.6771L34.3817 21.7135L33.5 21.0729L32.6183 21.7135L32.9551 20.6771L32.0734 20.0365H33.1632L33.5 19Z" fill="white"/>
<path d="M33.5 19L33.8368 20.0365H34.9266L34.0449 20.6771L34.3817 21.7135L33.5 21.0729L32.6183 21.7135L32.9551 20.6771L32.0734 20.0365H33.1632L33.5 19Z" fill="white"/>
<path d="M42.5 16L42.8368 17.0365H43.9266L43.0449 17.6771L43.3817 18.7135L42.5 18.0729L41.6183 18.7135L41.9551 17.6771L41.0734 17.0365H42.1632L42.5 16Z" fill="white"/>
<path d="M42.5 16L42.8368 17.0365H43.9266L43.0449 17.6771L43.3817 18.7135L42.5 18.0729L41.6183 18.7135L41.9551 17.6771L41.0734 17.0365H42.1632L42.5 16Z" fill="white"/>
<path d="M42.5 16L42.8368 17.0365H43.9266L43.0449 17.6771L43.3817 18.7135L42.5 18.0729L41.6183 18.7135L41.9551 17.6771L41.0734 17.0365H42.1632L42.5 16Z" fill="white"/>
<path d="M12.5 40L12.8368 41.0365H13.9266L13.0449 41.6771L13.3817 42.7135L12.5 42.0729L11.6183 42.7135L11.9551 41.6771L11.0734 41.0365H12.1632L12.5 40Z" fill="white"/>
<path d="M12.5 40L12.8368 41.0365H13.9266L13.0449 41.6771L13.3817 42.7135L12.5 42.0729L11.6183 42.7135L11.9551 41.6771L11.0734 41.0365H12.1632L12.5 40Z" fill="white"/>
<path d="M12.5 40L12.8368 41.0365H13.9266L13.0449 41.6771L13.3817 42.7135L12.5 42.0729L11.6183 42.7135L11.9551 41.6771L11.0734 41.0365H12.1632L12.5 40Z" fill="white"/>
<path d="M18.5 40L18.8368 41.0365H19.9266L19.0449 41.6771L19.3817 42.7135L18.5 42.0729L17.6183 42.7135L17.9551 41.6771L17.0734 41.0365H18.1632L18.5 40Z" fill="white"/>
<path d="M18.5 40L18.8368 41.0365H19.9266L19.0449 41.6771L19.3817 42.7135L18.5 42.0729L17.6183 42.7135L17.9551 41.6771L17.0734 41.0365H18.1632L18.5 40Z" fill="white"/>
<path d="M18.5 40L18.8368 41.0365H19.9266L19.0449 41.6771L19.3817 42.7135L18.5 42.0729L17.6183 42.7135L17.9551 41.6771L17.0734 41.0365H18.1632L18.5 40Z" fill="white"/>
<path d="M24.5 40L24.8368 41.0365H25.9266L25.0449 41.6771L25.3817 42.7135L24.5 42.0729L23.6183 42.7135L23.9551 41.6771L23.0734 41.0365H24.1632L24.5 40Z" fill="white"/>
<path d="M24.5 40L24.8368 41.0365H25.9266L25.0449 41.6771L25.3817 42.7135L24.5 42.0729L23.6183 42.7135L23.9551 41.6771L23.0734 41.0365H24.1632L24.5 40Z" fill="white"/>
<path d="M24.5 40L24.8368 41.0365H25.9266L25.0449 41.6771L25.3817 42.7135L24.5 42.0729L23.6183 42.7135L23.9551 41.6771L23.0734 41.0365H24.1632L24.5 40Z" fill="white"/>
<path d="M30.5 40L30.8368 41.0365H31.9266L31.0449 41.6771L31.3817 42.7135L30.5 42.0729L29.6183 42.7135L29.9551 41.6771L29.0734 41.0365H30.1632L30.5 40Z" fill="white"/>
<path d="M30.5 40L30.8368 41.0365H31.9266L31.0449 41.6771L31.3817 42.7135L30.5 42.0729L29.6183 42.7135L29.9551 41.6771L29.0734 41.0365H30.1632L30.5 40Z" fill="white"/>
<path d="M30.5 40L30.8368 41.0365H31.9266L31.0449 41.6771L31.3817 42.7135L30.5 42.0729L29.6183 42.7135L29.9551 41.6771L29.0734 41.0365H30.1632L30.5 40Z" fill="white"/>
<path d="M36.5 40L36.8368 41.0365H37.9266L37.0449 41.6771L37.3817 42.7135L36.5 42.0729L35.6183 42.7135L35.9551 41.6771L35.0734 41.0365H36.1632L36.5 40Z" fill="white"/>
<path d="M36.5 40L36.8368 41.0365H37.9266L37.0449 41.6771L37.3817 42.7135L36.5 42.0729L35.6183 42.7135L35.9551 41.6771L35.0734 41.0365H36.1632L36.5 40Z" fill="white"/>
<path d="M36.5 40L36.8368 41.0365H37.9266L37.0449 41.6771L37.3817 42.7135L36.5 42.0729L35.6183 42.7135L35.9551 41.6771L35.0734 41.0365H36.1632L36.5 40Z" fill="white"/>
<path d="M42.5 40L42.8368 41.0365H43.9266L43.0449 41.6771L43.3817 42.7135L42.5 42.0729L41.6183 42.7135L41.9551 41.6771L41.0734 41.0365H42.1632L42.5 40Z" fill="white"/>
<path d="M42.5 40L42.8368 41.0365H43.9266L43.0449 41.6771L43.3817 42.7135L42.5 42.0729L41.6183 42.7135L41.9551 41.6771L41.0734 41.0365H42.1632L42.5 40Z" fill="white"/>
<path d="M42.5 40L42.8368 41.0365H43.9266L43.0449 41.6771L43.3817 42.7135L42.5 42.0729L41.6183 42.7135L41.9551 41.6771L41.0734 41.0365H42.1632L42.5 40Z" fill="white"/>
<path d="M39.5 19L39.8368 20.0365H40.9266L40.0449 20.6771L40.3817 21.7135L39.5 21.0729L38.6183 21.7135L38.9551 20.6771L38.0734 20.0365H39.1632L39.5 19Z" fill="white"/>
<path d="M39.5 19L39.8368 20.0365H40.9266L40.0449 20.6771L40.3817 21.7135L39.5 21.0729L38.6183 21.7135L38.9551 20.6771L38.0734 20.0365H39.1632L39.5 19Z" fill="white"/>
<path d="M39.5 19L39.8368 20.0365H40.9266L40.0449 20.6771L40.3817 21.7135L39.5 21.0729L38.6183 21.7135L38.9551 20.6771L38.0734 20.0365H39.1632L39.5 19Z" fill="white"/>
<path d="M12.5 22L12.8368 23.0365H13.9266L13.0449 23.6771L13.3817 24.7135L12.5 24.0729L11.6183 24.7135L11.9551 23.6771L11.0734 23.0365H12.1632L12.5 22Z" fill="white"/>
<path d="M12.5 22L12.8368 23.0365H13.9266L13.0449 23.6771L13.3817 24.7135L12.5 24.0729L11.6183 24.7135L11.9551 23.6771L11.0734 23.0365H12.1632L12.5 22Z" fill="white"/>
<path d="M12.5 22L12.8368 23.0365H13.9266L13.0449 23.6771L13.3817 24.7135L12.5 24.0729L11.6183 24.7135L11.9551 23.6771L11.0734 23.0365H12.1632L12.5 22Z" fill="white"/>
<path d="M18.5 22L18.8368 23.0365H19.9266L19.0449 23.6771L19.3817 24.7135L18.5 24.0729L17.6183 24.7135L17.9551 23.6771L17.0734 23.0365H18.1632L18.5 22Z" fill="white"/>
<path d="M18.5 22L18.8368 23.0365H19.9266L19.0449 23.6771L19.3817 24.7135L18.5 24.0729L17.6183 24.7135L17.9551 23.6771L17.0734 23.0365H18.1632L18.5 22Z" fill="white"/>
<path d="M18.5 22L18.8368 23.0365H19.9266L19.0449 23.6771L19.3817 24.7135L18.5 24.0729L17.6183 24.7135L17.9551 23.6771L17.0734 23.0365H18.1632L18.5 22Z" fill="white"/>
<path d="M15.5 25L15.8368 26.0365H16.9266L16.0449 26.6771L16.3817 27.7135L15.5 27.0729L14.6183 27.7135L14.9551 26.6771L14.0734 26.0365H15.1632L15.5 25Z" fill="white"/>
<path d="M15.5 25L15.8368 26.0365H16.9266L16.0449 26.6771L16.3817 27.7135L15.5 27.0729L14.6183 27.7135L14.9551 26.6771L14.0734 26.0365H15.1632L15.5 25Z" fill="white"/>
<path d="M15.5 25L15.8368 26.0365H16.9266L16.0449 26.6771L16.3817 27.7135L15.5 27.0729L14.6183 27.7135L14.9551 26.6771L14.0734 26.0365H15.1632L15.5 25Z" fill="white"/>
<path d="M24.5 22L24.8368 23.0365H25.9266L25.0449 23.6771L25.3817 24.7135L24.5 24.0729L23.6183 24.7135L23.9551 23.6771L23.0734 23.0365H24.1632L24.5 22Z" fill="white"/>
<path d="M24.5 22L24.8368 23.0365H25.9266L25.0449 23.6771L25.3817 24.7135L24.5 24.0729L23.6183 24.7135L23.9551 23.6771L23.0734 23.0365H24.1632L24.5 22Z" fill="white"/>
<path d="M24.5 22L24.8368 23.0365H25.9266L25.0449 23.6771L25.3817 24.7135L24.5 24.0729L23.6183 24.7135L23.9551 23.6771L23.0734 23.0365H24.1632L24.5 22Z" fill="white"/>
<path d="M21.5 25L21.8368 26.0365H22.9266L22.0449 26.6771L22.3817 27.7135L21.5 27.0729L20.6183 27.7135L20.9551 26.6771L20.0734 26.0365H21.1632L21.5 25Z" fill="white"/>
<path d="M21.5 25L21.8368 26.0365H22.9266L22.0449 26.6771L22.3817 27.7135L21.5 27.0729L20.6183 27.7135L20.9551 26.6771L20.0734 26.0365H21.1632L21.5 25Z" fill="white"/>
<path d="M21.5 25L21.8368 26.0365H22.9266L22.0449 26.6771L22.3817 27.7135L21.5 27.0729L20.6183 27.7135L20.9551 26.6771L20.0734 26.0365H21.1632L21.5 25Z" fill="white"/>
<path d="M30.5 22L30.8368 23.0365H31.9266L31.0449 23.6771L31.3817 24.7135L30.5 24.0729L29.6183 24.7135L29.9551 23.6771L29.0734 23.0365H30.1632L30.5 22Z" fill="white"/>
<path d="M30.5 22L30.8368 23.0365H31.9266L31.0449 23.6771L31.3817 24.7135L30.5 24.0729L29.6183 24.7135L29.9551 23.6771L29.0734 23.0365H30.1632L30.5 22Z" fill="white"/>
<path d="M30.5 22L30.8368 23.0365H31.9266L31.0449 23.6771L31.3817 24.7135L30.5 24.0729L29.6183 24.7135L29.9551 23.6771L29.0734 23.0365H30.1632L30.5 22Z" fill="white"/>
<path d="M27.5 25L27.8368 26.0365H28.9266L28.0449 26.6771L28.3817 27.7135L27.5 27.0729L26.6183 27.7135L26.9551 26.6771L26.0734 26.0365H27.1632L27.5 25Z" fill="white"/>
<path d="M27.5 25L27.8368 26.0365H28.9266L28.0449 26.6771L28.3817 27.7135L27.5 27.0729L26.6183 27.7135L26.9551 26.6771L26.0734 26.0365H27.1632L27.5 25Z" fill="white"/>
<path d="M27.5 25L27.8368 26.0365H28.9266L28.0449 26.6771L28.3817 27.7135L27.5 27.0729L26.6183 27.7135L26.9551 26.6771L26.0734 26.0365H27.1632L27.5 25Z" fill="white"/>
<path d="M36.5 22L36.8368 23.0365H37.9266L37.0449 23.6771L37.3817 24.7135L36.5 24.0729L35.6183 24.7135L35.9551 23.6771L35.0734 23.0365H36.1632L36.5 22Z" fill="white"/>
<path d="M36.5 22L36.8368 23.0365H37.9266L37.0449 23.6771L37.3817 24.7135L36.5 24.0729L35.6183 24.7135L35.9551 23.6771L35.0734 23.0365H36.1632L36.5 22Z" fill="white"/>
<path d="M36.5 22L36.8368 23.0365H37.9266L37.0449 23.6771L37.3817 24.7135L36.5 24.0729L35.6183 24.7135L35.9551 23.6771L35.0734 23.0365H36.1632L36.5 22Z" fill="white"/>
<path d="M33.5 25L33.8368 26.0365H34.9266L34.0449 26.6771L34.3817 27.7135L33.5 27.0729L32.6183 27.7135L32.9551 26.6771L32.0734 26.0365H33.1632L33.5 25Z" fill="white"/>
<path d="M33.5 25L33.8368 26.0365H34.9266L34.0449 26.6771L34.3817 27.7135L33.5 27.0729L32.6183 27.7135L32.9551 26.6771L32.0734 26.0365H33.1632L33.5 25Z" fill="white"/>
<path d="M33.5 25L33.8368 26.0365H34.9266L34.0449 26.6771L34.3817 27.7135L33.5 27.0729L32.6183 27.7135L32.9551 26.6771L32.0734 26.0365H33.1632L33.5 25Z" fill="white"/>
<path d="M42.5 22L42.8368 23.0365H43.9266L43.0449 23.6771L43.3817 24.7135L42.5 24.0729L41.6183 24.7135L41.9551 23.6771L41.0734 23.0365H42.1632L42.5 22Z" fill="white"/>
<path d="M42.5 22L42.8368 23.0365H43.9266L43.0449 23.6771L43.3817 24.7135L42.5 24.0729L41.6183 24.7135L41.9551 23.6771L41.0734 23.0365H42.1632L42.5 22Z" fill="white"/>
<path d="M42.5 22L42.8368 23.0365H43.9266L43.0449 23.6771L43.3817 24.7135L42.5 24.0729L41.6183 24.7135L41.9551 23.6771L41.0734 23.0365H42.1632L42.5 22Z" fill="white"/>
<path d="M39.5 25L39.8368 26.0365H40.9266L40.0449 26.6771L40.3817 27.7135L39.5 27.0729L38.6183 27.7135L38.9551 26.6771L38.0734 26.0365H39.1632L39.5 25Z" fill="white"/>
<path d="M39.5 25L39.8368 26.0365H40.9266L40.0449 26.6771L40.3817 27.7135L39.5 27.0729L38.6183 27.7135L38.9551 26.6771L38.0734 26.0365H39.1632L39.5 25Z" fill="white"/>
<path d="M39.5 25L39.8368 26.0365H40.9266L40.0449 26.6771L40.3817 27.7135L39.5 27.0729L38.6183 27.7135L38.9551 26.6771L38.0734 26.0365H39.1632L39.5 25Z" fill="white"/>
<path d="M12.5 28L12.8368 29.0365H13.9266L13.0449 29.6771L13.3817 30.7135L12.5 30.0729L11.6183 30.7135L11.9551 29.6771L11.0734 29.0365H12.1632L12.5 28Z" fill="white"/>
<path d="M12.5 28L12.8368 29.0365H13.9266L13.0449 29.6771L13.3817 30.7135L12.5 30.0729L11.6183 30.7135L11.9551 29.6771L11.0734 29.0365H12.1632L12.5 28Z" fill="white"/>
<path d="M12.5 28L12.8368 29.0365H13.9266L13.0449 29.6771L13.3817 30.7135L12.5 30.0729L11.6183 30.7135L11.9551 29.6771L11.0734 29.0365H12.1632L12.5 28Z" fill="white"/>
<path d="M18.5 28L18.8368 29.0365H19.9266L19.0449 29.6771L19.3817 30.7135L18.5 30.0729L17.6183 30.7135L17.9551 29.6771L17.0734 29.0365H18.1632L18.5 28Z" fill="white"/>
<path d="M18.5 28L18.8368 29.0365H19.9266L19.0449 29.6771L19.3817 30.7135L18.5 30.0729L17.6183 30.7135L17.9551 29.6771L17.0734 29.0365H18.1632L18.5 28Z" fill="white"/>
<path d="M18.5 28L18.8368 29.0365H19.9266L19.0449 29.6771L19.3817 30.7135L18.5 30.0729L17.6183 30.7135L17.9551 29.6771L17.0734 29.0365H18.1632L18.5 28Z" fill="white"/>
<path d="M15.5 31L15.8368 32.0365H16.9266L16.0449 32.6771L16.3817 33.7135L15.5 33.0729L14.6183 33.7135L14.9551 32.6771L14.0734 32.0365H15.1632L15.5 31Z" fill="white"/>
<path d="M15.5 31L15.8368 32.0365H16.9266L16.0449 32.6771L16.3817 33.7135L15.5 33.0729L14.6183 33.7135L14.9551 32.6771L14.0734 32.0365H15.1632L15.5 31Z" fill="white"/>
<path d="M15.5 31L15.8368 32.0365H16.9266L16.0449 32.6771L16.3817 33.7135L15.5 33.0729L14.6183 33.7135L14.9551 32.6771L14.0734 32.0365H15.1632L15.5 31Z" fill="white"/>
<path d="M24.5 28L24.8368 29.0365H25.9266L25.0449 29.6771L25.3817 30.7135L24.5 30.0729L23.6183 30.7135L23.9551 29.6771L23.0734 29.0365H24.1632L24.5 28Z" fill="white"/>
<path d="M24.5 28L24.8368 29.0365H25.9266L25.0449 29.6771L25.3817 30.7135L24.5 30.0729L23.6183 30.7135L23.9551 29.6771L23.0734 29.0365H24.1632L24.5 28Z" fill="white"/>
<path d="M24.5 28L24.8368 29.0365H25.9266L25.0449 29.6771L25.3817 30.7135L24.5 30.0729L23.6183 30.7135L23.9551 29.6771L23.0734 29.0365H24.1632L24.5 28Z" fill="white"/>
<path d="M21.5 31L21.8368 32.0365H22.9266L22.0449 32.6771L22.3817 33.7135L21.5 33.0729L20.6183 33.7135L20.9551 32.6771L20.0734 32.0365H21.1632L21.5 31Z" fill="white"/>
<path d="M21.5 31L21.8368 32.0365H22.9266L22.0449 32.6771L22.3817 33.7135L21.5 33.0729L20.6183 33.7135L20.9551 32.6771L20.0734 32.0365H21.1632L21.5 31Z" fill="white"/>
<path d="M21.5 31L21.8368 32.0365H22.9266L22.0449 32.6771L22.3817 33.7135L21.5 33.0729L20.6183 33.7135L20.9551 32.6771L20.0734 32.0365H21.1632L21.5 31Z" fill="white"/>
<path d="M30.5 28L30.8368 29.0365H31.9266L31.0449 29.6771L31.3817 30.7135L30.5 30.0729L29.6183 30.7135L29.9551 29.6771L29.0734 29.0365H30.1632L30.5 28Z" fill="white"/>
<path d="M30.5 28L30.8368 29.0365H31.9266L31.0449 29.6771L31.3817 30.7135L30.5 30.0729L29.6183 30.7135L29.9551 29.6771L29.0734 29.0365H30.1632L30.5 28Z" fill="white"/>
<path d="M30.5 28L30.8368 29.0365H31.9266L31.0449 29.6771L31.3817 30.7135L30.5 30.0729L29.6183 30.7135L29.9551 29.6771L29.0734 29.0365H30.1632L30.5 28Z" fill="white"/>
<path d="M27.5 31L27.8368 32.0365H28.9266L28.0449 32.6771L28.3817 33.7135L27.5 33.0729L26.6183 33.7135L26.9551 32.6771L26.0734 32.0365H27.1632L27.5 31Z" fill="white"/>
<path d="M27.5 31L27.8368 32.0365H28.9266L28.0449 32.6771L28.3817 33.7135L27.5 33.0729L26.6183 33.7135L26.9551 32.6771L26.0734 32.0365H27.1632L27.5 31Z" fill="white"/>
<path d="M27.5 31L27.8368 32.0365H28.9266L28.0449 32.6771L28.3817 33.7135L27.5 33.0729L26.6183 33.7135L26.9551 32.6771L26.0734 32.0365H27.1632L27.5 31Z" fill="white"/>
<path d="M36.5 28L36.8368 29.0365H37.9266L37.0449 29.6771L37.3817 30.7135L36.5 30.0729L35.6183 30.7135L35.9551 29.6771L35.0734 29.0365H36.1632L36.5 28Z" fill="white"/>
<path d="M36.5 28L36.8368 29.0365H37.9266L37.0449 29.6771L37.3817 30.7135L36.5 30.0729L35.6183 30.7135L35.9551 29.6771L35.0734 29.0365H36.1632L36.5 28Z" fill="white"/>
<path d="M36.5 28L36.8368 29.0365H37.9266L37.0449 29.6771L37.3817 30.7135L36.5 30.0729L35.6183 30.7135L35.9551 29.6771L35.0734 29.0365H36.1632L36.5 28Z" fill="white"/>
<path d="M33.5 31L33.8368 32.0365H34.9266L34.0449 32.6771L34.3817 33.7135L33.5 33.0729L32.6183 33.7135L32.9551 32.6771L32.0734 32.0365H33.1632L33.5 31Z" fill="white"/>
<path d="M33.5 31L33.8368 32.0365H34.9266L34.0449 32.6771L34.3817 33.7135L33.5 33.0729L32.6183 33.7135L32.9551 32.6771L32.0734 32.0365H33.1632L33.5 31Z" fill="white"/>
<path d="M33.5 31L33.8368 32.0365H34.9266L34.0449 32.6771L34.3817 33.7135L33.5 33.0729L32.6183 33.7135L32.9551 32.6771L32.0734 32.0365H33.1632L33.5 31Z" fill="white"/>
<path d="M42.5 28L42.8368 29.0365H43.9266L43.0449 29.6771L43.3817 30.7135L42.5 30.0729L41.6183 30.7135L41.9551 29.6771L41.0734 29.0365H42.1632L42.5 28Z" fill="white"/>
<path d="M42.5 28L42.8368 29.0365H43.9266L43.0449 29.6771L43.3817 30.7135L42.5 30.0729L41.6183 30.7135L41.9551 29.6771L41.0734 29.0365H42.1632L42.5 28Z" fill="white"/>
<path d="M42.5 28L42.8368 29.0365H43.9266L43.0449 29.6771L43.3817 30.7135L42.5 30.0729L41.6183 30.7135L41.9551 29.6771L41.0734 29.0365H42.1632L42.5 28Z" fill="white"/>
<path d="M39.5 31L39.8368 32.0365H40.9266L40.0449 32.6771L40.3817 33.7135L39.5 33.0729L38.6183 33.7135L38.9551 32.6771L38.0734 32.0365H39.1632L39.5 31Z" fill="white"/>
<path d="M39.5 31L39.8368 32.0365H40.9266L40.0449 32.6771L40.3817 33.7135L39.5 33.0729L38.6183 33.7135L38.9551 32.6771L38.0734 32.0365H39.1632L39.5 31Z" fill="white"/>
<path d="M39.5 31L39.8368 32.0365H40.9266L40.0449 32.6771L40.3817 33.7135L39.5 33.0729L38.6183 33.7135L38.9551 32.6771L38.0734 32.0365H39.1632L39.5 31Z" fill="white"/>
<path d="M12.5 34L12.8368 35.0365H13.9266L13.0449 35.6771L13.3817 36.7135L12.5 36.0729L11.6183 36.7135L11.9551 35.6771L11.0734 35.0365H12.1632L12.5 34Z" fill="white"/>
<path d="M12.5 34L12.8368 35.0365H13.9266L13.0449 35.6771L13.3817 36.7135L12.5 36.0729L11.6183 36.7135L11.9551 35.6771L11.0734 35.0365H12.1632L12.5 34Z" fill="white"/>
<path d="M12.5 34L12.8368 35.0365H13.9266L13.0449 35.6771L13.3817 36.7135L12.5 36.0729L11.6183 36.7135L11.9551 35.6771L11.0734 35.0365H12.1632L12.5 34Z" fill="white"/>
<path d="M18.5 34L18.8368 35.0365H19.9266L19.0449 35.6771L19.3817 36.7135L18.5 36.0729L17.6183 36.7135L17.9551 35.6771L17.0734 35.0365H18.1632L18.5 34Z" fill="white"/>
<path d="M18.5 34L18.8368 35.0365H19.9266L19.0449 35.6771L19.3817 36.7135L18.5 36.0729L17.6183 36.7135L17.9551 35.6771L17.0734 35.0365H18.1632L18.5 34Z" fill="white"/>
<path d="M18.5 34L18.8368 35.0365H19.9266L19.0449 35.6771L19.3817 36.7135L18.5 36.0729L17.6183 36.7135L17.9551 35.6771L17.0734 35.0365H18.1632L18.5 34Z" fill="white"/>
<path d="M15.5 37L15.8368 38.0365H16.9266L16.0449 38.6771L16.3817 39.7135L15.5 39.0729L14.6183 39.7135L14.9551 38.6771L14.0734 38.0365H15.1632L15.5 37Z" fill="white"/>
<path d="M15.5 37L15.8368 38.0365H16.9266L16.0449 38.6771L16.3817 39.7135L15.5 39.0729L14.6183 39.7135L14.9551 38.6771L14.0734 38.0365H15.1632L15.5 37Z" fill="white"/>
<path d="M15.5 37L15.8368 38.0365H16.9266L16.0449 38.6771L16.3817 39.7135L15.5 39.0729L14.6183 39.7135L14.9551 38.6771L14.0734 38.0365H15.1632L15.5 37Z" fill="white"/>
<path d="M24.5 34L24.8368 35.0365H25.9266L25.0449 35.6771L25.3817 36.7135L24.5 36.0729L23.6183 36.7135L23.9551 35.6771L23.0734 35.0365H24.1632L24.5 34Z" fill="white"/>
<path d="M24.5 34L24.8368 35.0365H25.9266L25.0449 35.6771L25.3817 36.7135L24.5 36.0729L23.6183 36.7135L23.9551 35.6771L23.0734 35.0365H24.1632L24.5 34Z" fill="white"/>
<path d="M24.5 34L24.8368 35.0365H25.9266L25.0449 35.6771L25.3817 36.7135L24.5 36.0729L23.6183 36.7135L23.9551 35.6771L23.0734 35.0365H24.1632L24.5 34Z" fill="white"/>
<path d="M21.5 37L21.8368 38.0365H22.9266L22.0449 38.6771L22.3817 39.7135L21.5 39.0729L20.6183 39.7135L20.9551 38.6771L20.0734 38.0365H21.1632L21.5 37Z" fill="white"/>
<path d="M21.5 37L21.8368 38.0365H22.9266L22.0449 38.6771L22.3817 39.7135L21.5 39.0729L20.6183 39.7135L20.9551 38.6771L20.0734 38.0365H21.1632L21.5 37Z" fill="white"/>
<path d="M21.5 37L21.8368 38.0365H22.9266L22.0449 38.6771L22.3817 39.7135L21.5 39.0729L20.6183 39.7135L20.9551 38.6771L20.0734 38.0365H21.1632L21.5 37Z" fill="white"/>
<path d="M30.5 34L30.8368 35.0365H31.9266L31.0449 35.6771L31.3817 36.7135L30.5 36.0729L29.6183 36.7135L29.9551 35.6771L29.0734 35.0365H30.1632L30.5 34Z" fill="white"/>
<path d="M30.5 34L30.8368 35.0365H31.9266L31.0449 35.6771L31.3817 36.7135L30.5 36.0729L29.6183 36.7135L29.9551 35.6771L29.0734 35.0365H30.1632L30.5 34Z" fill="white"/>
<path d="M30.5 34L30.8368 35.0365H31.9266L31.0449 35.6771L31.3817 36.7135L30.5 36.0729L29.6183 36.7135L29.9551 35.6771L29.0734 35.0365H30.1632L30.5 34Z" fill="white"/>
<path d="M27.5 37L27.8368 38.0365H28.9266L28.0449 38.6771L28.3817 39.7135L27.5 39.0729L26.6183 39.7135L26.9551 38.6771L26.0734 38.0365H27.1632L27.5 37Z" fill="white"/>
<path d="M27.5 37L27.8368 38.0365H28.9266L28.0449 38.6771L28.3817 39.7135L27.5 39.0729L26.6183 39.7135L26.9551 38.6771L26.0734 38.0365H27.1632L27.5 37Z" fill="white"/>
<path d="M27.5 37L27.8368 38.0365H28.9266L28.0449 38.6771L28.3817 39.7135L27.5 39.0729L26.6183 39.7135L26.9551 38.6771L26.0734 38.0365H27.1632L27.5 37Z" fill="white"/>
<path d="M36.5 34L36.8368 35.0365H37.9266L37.0449 35.6771L37.3817 36.7135L36.5 36.0729L35.6183 36.7135L35.9551 35.6771L35.0734 35.0365H36.1632L36.5 34Z" fill="white"/>
<path d="M36.5 34L36.8368 35.0365H37.9266L37.0449 35.6771L37.3817 36.7135L36.5 36.0729L35.6183 36.7135L35.9551 35.6771L35.0734 35.0365H36.1632L36.5 34Z" fill="white"/>
<path d="M36.5 34L36.8368 35.0365H37.9266L37.0449 35.6771L37.3817 36.7135L36.5 36.0729L35.6183 36.7135L35.9551 35.6771L35.0734 35.0365H36.1632L36.5 34Z" fill="white"/>
<path d="M33.5 37L33.8368 38.0365H34.9266L34.0449 38.6771L34.3817 39.7135L33.5 39.0729L32.6183 39.7135L32.9551 38.6771L32.0734 38.0365H33.1632L33.5 37Z" fill="white"/>
<path d="M33.5 37L33.8368 38.0365H34.9266L34.0449 38.6771L34.3817 39.7135L33.5 39.0729L32.6183 39.7135L32.9551 38.6771L32.0734 38.0365H33.1632L33.5 37Z" fill="white"/>
<path d="M33.5 37L33.8368 38.0365H34.9266L34.0449 38.6771L34.3817 39.7135L33.5 39.0729L32.6183 39.7135L32.9551 38.6771L32.0734 38.0365H33.1632L33.5 37Z" fill="white"/>
<path d="M42.5 34L42.8368 35.0365H43.9266L43.0449 35.6771L43.3817 36.7135L42.5 36.0729L41.6183 36.7135L41.9551 35.6771L41.0734 35.0365H42.1632L42.5 34Z" fill="white"/>
<path d="M42.5 34L42.8368 35.0365H43.9266L43.0449 35.6771L43.3817 36.7135L42.5 36.0729L41.6183 36.7135L41.9551 35.6771L41.0734 35.0365H42.1632L42.5 34Z" fill="white"/>
<path d="M42.5 34L42.8368 35.0365H43.9266L43.0449 35.6771L43.3817 36.7135L42.5 36.0729L41.6183 36.7135L41.9551 35.6771L41.0734 35.0365H42.1632L42.5 34Z" fill="white"/>
<path d="M39.5 37L39.8368 38.0365H40.9266L40.0449 38.6771L40.3817 39.7135L39.5 39.0729L38.6183 39.7135L38.9551 38.6771L38.0734 38.0365H39.1632L39.5 37Z" fill="white"/>
<path d="M39.5 37L39.8368 38.0365H40.9266L40.0449 38.6771L40.3817 39.7135L39.5 39.0729L38.6183 39.7135L38.9551 38.6771L38.0734 38.0365H39.1632L39.5 37Z" fill="white"/>
<path d="M39.5 37L39.8368 38.0365H40.9266L40.0449 38.6771L40.3817 39.7135L39.5 39.0729L38.6183 39.7135L38.9551 38.6771L38.0734 38.0365H39.1632L39.5 37Z" fill="white"/>
</svg>
