<svg width="88" height="81" viewBox="0 0 88 81" fill="none" xmlns="http://www.w3.org/2000/svg">
<path d="M87.5 40.5C87.5 18.4468 68.0642 0.5 44 0.5C19.9358 0.5 0.5 18.4468 0.5 40.5C0.5 62.5532 19.9358 80.5 44 80.5C68.0642 80.5 87.5 62.5532 87.5 40.5Z" fill="white" stroke="black"/>
<rect x="10.5" y="15.5" width="68" height="48" fill="#100884" stroke="black"/>
<rect x="11" y="58" width="6" height="5" fill="white"/>
<rect x="72" y="58" width="6" height="5" fill="white"/>
<rect x="74.0333" y="54.869" width="4.93746" height="1.76429" transform="rotate(31.83 74.0333 54.869)" fill="white"/>
<rect x="73" y="16" width="5" height="7" fill="white"/>
<rect x="11" y="16" width="4" height="7" fill="white"/>
<rect x="14.6272" y="15.78" width="5.46671" height="2.46787" transform="rotate(32.4479 14.6272 15.78)" fill="white"/>
<rect x="11" y="57.6446" width="5" height="5.29032" transform="rotate(-7.40672 11 57.6446)" fill="white"/>
<rect x="10.9001" y="57.3412" width="5" height="6.19856" transform="rotate(-30.1704 10.9001 57.3412)" fill="white"/>
<rect x="11.0552" y="59" width="2.09343" height="3.42552" transform="rotate(0.796171 11.0552 59)" fill="#BD0909"/>
<line x1="43" y1="63" x2="43" y2="16" stroke="white" stroke-width="10"/>
<line x1="10.953" y1="41.6296" x2="77.9575" y2="41.0002" stroke="white" stroke-width="10"/>
<line x1="14.8066" y1="59.655" x2="75.8066" y2="19.655" stroke="white" stroke-width="8"/>
<line x1="13.1934" y1="19.655" x2="74.1934" y2="59.655" stroke="white" stroke-width="8"/>
<path d="M43 63L43 16" stroke="#BD0909" stroke-width="6"/>
<line x1="78.0448" y1="40.9997" x2="11.0448" y2="41.9997" stroke="#BD0909" stroke-width="6"/>
<line x1="77.0854" y1="18.6798" x2="12.0854" y2="60.6798" stroke="#BD0909" stroke-width="4"/>
<line x1="12.0854" y1="19.3202" x2="77.0854" y2="61.3202" stroke="#BD0909" stroke-width="4"/>
</svg>
