<svg width="88" height="81" viewBox="0 0 88 81" fill="none" xmlns="http://www.w3.org/2000/svg">
<path d="M87.5 40.5C87.5 62.5532 68.0642 80.5 44 80.5C19.9358 80.5 0.5 62.5532 0.5 40.5C0.5 18.4468 19.9358 0.5 44 0.5C68.0642 0.5 87.5 18.4468 87.5 40.5Z" fill="white" stroke="black"/>
<path d="M48.1875 60.4375C47.3542 60.2708 46.5833 60.1458 45.875 60.0625C45.2083 59.9375 44.6042 59.8333 44.0625 59.75C43.4375 59.6667 42.8542 59.6042 42.3125 59.5625C41.7292 59.5208 41.0417 59.4792 40.25 59.4375C39.5417 59.3958 38.6667 59.375 37.625 59.375C36.625 59.3333 35.4583 59.3125 34.125 59.3125C35.3333 56.4792 36.3125 54.0833 37.0625 52.125C37.8125 50.125 38.3958 48.4792 38.8125 47.1875C39.2708 45.6875 39.6042 44.4583 39.8125 43.5C39.9792 42.5417 40.1875 41.375 40.4375 40C40.6458 38.8333 40.9167 37.375 41.25 35.625C41.5833 33.8333 42 31.7292 42.5 29.3125L48.0625 29.5625C47.7292 31.7708 47.4792 33.6667 47.3125 35.25C47.1875 36.7917 47.0833 38.0833 47 39.125C46.9167 40.3333 46.8958 41.3333 46.9375 42.125C46.9375 43 47 44.25 47.125 45.875C47.2083 47.25 47.3333 49.1042 47.5 51.4375C47.6667 53.7708 47.8958 56.7708 48.1875 60.4375ZM41.25 24.5625C41 24.1042 40.8333 23.6042 40.75 23.0625C40.7083 22.4792 40.75 21.9167 40.875 21.375C41.0417 20.7917 41.3125 20.2708 41.6875 19.8125C42.1042 19.3125 42.6458 18.8958 43.3125 18.5625C44.6458 17.9375 45.8333 17.7708 46.875 18.0625C47.9167 18.3542 48.6875 18.8958 49.1875 19.6875C49.7292 20.5208 49.7708 21.5208 49.3125 22.6875C48.8542 23.8125 47.9375 24.6667 46.5625 25.25C45.2292 25.8333 44.1042 26.0417 43.1875 25.875C42.3125 25.7083 41.6667 25.2708 41.25 24.5625Z" fill="black"/>
</svg>
