<svg width="88" height="81" viewBox="0 0 88 81" fill="none" xmlns="http://www.w3.org/2000/svg">
<path d="M87.5 40.5C87.5 62.5532 68.0642 80.5 44 80.5C19.9358 80.5 0.5 62.5532 0.5 40.5C0.5 18.4468 19.9358 0.5 44 0.5C68.0642 0.5 87.5 18.4468 87.5 40.5Z" fill="black" stroke="white"/>
<path d="M49.1875 60.4375C48.3542 60.2708 47.5833 60.1458 46.875 60.0625C46.2083 59.9375 45.6042 59.8333 45.0625 59.75C44.4375 59.6667 43.8542 59.6042 43.3125 59.5625C42.7292 59.5208 42.0417 59.4792 41.25 59.4375C40.5417 59.3958 39.6667 59.375 38.625 59.375C37.625 59.3333 36.4583 59.3125 35.125 59.3125C36.3333 56.4792 37.3125 54.0833 38.0625 52.125C38.8125 50.125 39.3958 48.4792 39.8125 47.1875C40.2708 45.6875 40.6042 44.4583 40.8125 43.5C40.9792 42.5417 41.1875 41.375 41.4375 40C41.6458 38.8333 41.9167 37.375 42.25 35.625C42.5833 33.8333 43 31.7292 43.5 29.3125L49.0625 29.5625C48.7292 31.7708 48.4792 33.6667 48.3125 35.25C48.1875 36.7917 48.0833 38.0833 48 39.125C47.9167 40.3333 47.8958 41.3333 47.9375 42.125C47.9375 43 48 44.25 48.125 45.875C48.2083 47.25 48.3333 49.1042 48.5 51.4375C48.6667 53.7708 48.8958 56.7708 49.1875 60.4375ZM42.25 24.5625C42 24.1042 41.8333 23.6042 41.75 23.0625C41.7083 22.4792 41.75 21.9167 41.875 21.375C42.0417 20.7917 42.3125 20.2708 42.6875 19.8125C43.1042 19.3125 43.6458 18.8958 44.3125 18.5625C45.6458 17.9375 46.8333 17.7708 47.875 18.0625C48.9167 18.3542 49.6875 18.8958 50.1875 19.6875C50.7292 20.5208 50.7708 21.5208 50.3125 22.6875C49.8542 23.8125 48.9375 24.6667 47.5625 25.25C46.2292 25.8333 45.1042 26.0417 44.1875 25.875C43.3125 25.7083 42.6667 25.2708 42.25 24.5625Z" fill="white"/>
</svg>
