<svg width="88" height="81" viewBox="0 0 88 81" fill="none" xmlns="http://www.w3.org/2000/svg">
<path d="M87.5 40.5C87.5 18.4468 68.0642 0.5 44 0.5C19.9358 0.5 0.5 18.4468 0.5 40.5C0.5 62.5532 19.9358 80.5 44 80.5C68.0642 80.5 87.5 62.5532 87.5 40.5Z" fill="black" stroke="white"/>
<path d="M45.5 35.5C45.5 37.62 43.3599 39.5 40.5 39.5C37.6401 39.5 35.5 37.62 35.5 35.5C35.5 33.38 37.6401 31.5 40.5 31.5C43.3599 31.5 45.5 33.38 45.5 35.5Z" fill="black" stroke="white"/>
<path d="M50.5 39.5C50.5 41.62 48.3599 43.5 45.5 43.5C42.6401 43.5 40.5 41.62 40.5 39.5C40.5 37.38 42.6401 35.5 45.5 35.5C48.3599 35.5 50.5 37.38 50.5 39.5Z" fill="black" stroke="white"/>
<path d="M55.5 43.5C55.5 45.62 53.3599 47.5 50.5 47.5C47.6401 47.5 45.5 45.62 45.5 43.5C45.5 41.38 47.6401 39.5 50.5 39.5C53.3599 39.5 55.5 41.38 55.5 43.5Z" fill="black" stroke="white"/>
<path d="M60.5 47.5C60.5 49.62 58.3599 51.5 55.5 51.5C52.6401 51.5 50.5 49.62 50.5 47.5C50.5 45.38 52.6401 43.5 55.5 43.5C58.3599 43.5 60.5 45.38 60.5 47.5Z" fill="black" stroke="white"/>
<path d="M64.5 52.5C64.5 54.62 62.3599 56.5 59.5 56.5C56.6401 56.5 54.5 54.62 54.5 52.5C54.5 50.38 56.6401 48.5 59.5 48.5C62.3599 48.5 64.5 50.38 64.5 52.5Z" fill="black" stroke="white"/>
<path d="M69 57C69 59.12 66.8599 61 64 61C61.1401 61 59 59.12 59 57C59 54.88 61.1401 53 64 53C66.8599 53 69 54.88 69 57Z" fill="black" stroke="white"/>
<path d="M71.5 62.5C71.5 64.62 69.3599 66.5 66.5 66.5C63.6401 66.5 61.5 64.62 61.5 62.5C61.5 60.38 63.6401 58.5 66.5 58.5C69.3599 58.5 71.5 60.38 71.5 62.5Z" fill="black" stroke="white"/>
<path d="M73.5 68.5C73.5 70.62 71.3599 72.5 68.5 72.5C65.6401 72.5 63.5 70.62 63.5 68.5C63.5 66.38 65.6401 64.5 68.5 64.5C71.3599 64.5 73.5 66.38 73.5 68.5Z" fill="black" stroke="white"/>
<path d="M35.7282 33.9172C35.8007 33.8905 35.8503 33.8791 35.8822 33.8744C35.8891 33.9059 35.8959 33.9564 35.8964 34.0336C35.898 34.2517 35.846 34.5749 35.7219 35.01C35.4757 35.8736 34.9807 37.0602 34.2656 38.4943C32.8387 41.3557 30.5742 45.1259 27.8091 49.1216C25.044 53.1173 22.3135 56.5651 20.1385 58.9087C19.0484 60.0833 18.1123 60.9647 17.3909 61.4994C17.0274 61.7689 16.7433 61.9314 16.5386 62.0068C16.4661 62.0336 16.4165 62.045 16.3846 62.0496C16.3777 62.0181 16.3709 61.9677 16.3703 61.8904C16.3688 61.6723 16.4208 61.3491 16.5449 60.914C16.7911 60.0504 17.2861 58.8638 18.0012 57.4297C19.4281 54.5684 21.6926 50.7982 24.4577 46.8024C27.2228 42.8067 29.9533 39.3589 32.1283 37.0153C33.2184 35.8407 34.1545 34.9593 34.8759 34.4246C35.2394 34.1552 35.5235 33.9926 35.7282 33.9172ZM16.3369 62.0519C16.3369 62.0519 16.3372 62.0519 16.3378 62.052L16.3369 62.0519ZM16.3993 62.095C16.3993 62.095 16.3991 62.0948 16.3988 62.0943L16.3993 62.095Z" fill="black"/>
<path d="M35.7282 33.9172C35.8007 33.8905 35.8503 33.8791 35.8822 33.8744C35.8891 33.9059 35.8959 33.9564 35.8964 34.0336C35.898 34.2517 35.846 34.5749 35.7219 35.01C35.4757 35.8736 34.9807 37.0602 34.2656 38.4943C32.8387 41.3557 30.5742 45.1259 27.8091 49.1216C25.044 53.1173 22.3135 56.5651 20.1385 58.9087C19.0484 60.0833 18.1123 60.9647 17.3909 61.4994C17.0274 61.7689 16.7433 61.9314 16.5386 62.0068C16.4661 62.0336 16.4165 62.045 16.3846 62.0496C16.3777 62.0181 16.3709 61.9677 16.3703 61.8904C16.3688 61.6723 16.4208 61.3491 16.5449 60.914C16.7911 60.0504 17.2861 58.8638 18.0012 57.4297C19.4281 54.5684 21.6926 50.7982 24.4577 46.8024C27.2228 42.8067 29.9533 39.3589 32.1283 37.0153C33.2184 35.8407 34.1545 34.9593 34.8759 34.4246C35.2394 34.1552 35.5235 33.9926 35.7282 33.9172ZM16.3369 62.0519C16.3369 62.0519 16.3372 62.0519 16.3378 62.052L16.3369 62.0519ZM16.3993 62.095C16.3993 62.095 16.3991 62.0948 16.3988 62.0943L16.3993 62.095Z" fill="black"/>
<path d="M35.7282 33.9172C35.8007 33.8905 35.8503 33.8791 35.8822 33.8744C35.8891 33.9059 35.8959 33.9564 35.8964 34.0336C35.898 34.2517 35.846 34.5749 35.7219 35.01C35.4757 35.8736 34.9807 37.0602 34.2656 38.4943C32.8387 41.3557 30.5742 45.1259 27.8091 49.1216C25.044 53.1173 22.3135 56.5651 20.1385 58.9087C19.0484 60.0833 18.1123 60.9647 17.3909 61.4994C17.0274 61.7689 16.7433 61.9314 16.5386 62.0068C16.4661 62.0336 16.4165 62.045 16.3846 62.0496C16.3777 62.0181 16.3709 61.9677 16.3703 61.8904C16.3688 61.6723 16.4208 61.3491 16.5449 60.914C16.7911 60.0504 17.2861 58.8638 18.0012 57.4297C19.4281 54.5684 21.6926 50.7982 24.4577 46.8024C27.2228 42.8067 29.9533 39.3589 32.1283 37.0153C33.2184 35.8407 34.1545 34.9593 34.8759 34.4246C35.2394 34.1552 35.5235 33.9926 35.7282 33.9172ZM16.3369 62.0519C16.3369 62.0519 16.3372 62.0519 16.3378 62.052L16.3369 62.0519ZM16.3993 62.095C16.3993 62.095 16.3991 62.0948 16.3988 62.0943L16.3993 62.095Z" stroke="white"/>
<path d="M35.2101 33.431C35.287 33.4377 35.3368 33.4486 35.3676 33.4579C35.3604 33.4893 35.3451 33.5379 35.3127 33.608C35.2211 33.806 35.0364 34.0763 34.7389 34.4171C34.1482 35.0935 33.1949 35.9562 31.937 36.9491C29.4272 38.93 25.7724 41.3764 21.5687 43.8137C17.3649 46.2509 13.4259 48.2072 10.4598 49.401C8.97318 49.9994 7.75084 50.398 6.87035 50.5745C6.42673 50.6634 6.10043 50.6895 5.88313 50.6705C5.80615 50.6638 5.75637 50.653 5.72553 50.6436C5.73273 50.6122 5.74808 50.5637 5.7805 50.4935C5.87203 50.2955 6.05675 50.0253 6.35433 49.6845C6.94496 49.008 7.89826 48.1453 9.15616 47.1525C11.666 45.1715 15.3208 42.7251 19.5245 40.2879C23.7283 37.8506 27.6672 35.8944 30.6334 34.7005C32.12 34.1022 33.3423 33.7035 34.2228 33.527C34.6664 33.4381 34.9927 33.4121 35.2101 33.431ZM5.68148 50.6254C5.68149 50.6254 5.68173 50.6255 5.68217 50.6259L5.68148 50.6254ZM5.71951 50.691C5.7195 50.691 5.71946 50.6907 5.71942 50.6901L5.71951 50.691Z" fill="black"/>
<path d="M35.2101 33.431C35.287 33.4377 35.3368 33.4486 35.3676 33.4579C35.3604 33.4893 35.3451 33.5379 35.3127 33.608C35.2211 33.806 35.0364 34.0763 34.7389 34.4171C34.1482 35.0935 33.1949 35.9562 31.937 36.9491C29.4272 38.93 25.7724 41.3764 21.5687 43.8137C17.3649 46.2509 13.4259 48.2072 10.4598 49.401C8.97318 49.9994 7.75084 50.398 6.87035 50.5745C6.42673 50.6634 6.10043 50.6895 5.88313 50.6705C5.80615 50.6638 5.75637 50.653 5.72553 50.6436C5.73273 50.6122 5.74808 50.5637 5.7805 50.4935C5.87203 50.2955 6.05675 50.0253 6.35433 49.6845C6.94496 49.008 7.89826 48.1453 9.15616 47.1525C11.666 45.1715 15.3208 42.7251 19.5245 40.2879C23.7283 37.8506 27.6672 35.8944 30.6334 34.7005C32.12 34.1022 33.3423 33.7035 34.2228 33.527C34.6664 33.4381 34.9927 33.4121 35.2101 33.431ZM5.68148 50.6254C5.68149 50.6254 5.68173 50.6255 5.68217 50.6259L5.68148 50.6254ZM5.71951 50.691C5.7195 50.691 5.71946 50.6907 5.71942 50.6901L5.71951 50.691Z" fill="black"/>
<path d="M35.2101 33.431C35.287 33.4377 35.3368 33.4486 35.3676 33.4579C35.3604 33.4893 35.3451 33.5379 35.3127 33.608C35.2211 33.806 35.0364 34.0763 34.7389 34.4171C34.1482 35.0935 33.1949 35.9562 31.937 36.9491C29.4272 38.93 25.7724 41.3764 21.5687 43.8137C17.3649 46.2509 13.4259 48.2072 10.4598 49.401C8.97318 49.9994 7.75084 50.398 6.87035 50.5745C6.42673 50.6634 6.10043 50.6895 5.88313 50.6705C5.80615 50.6638 5.75637 50.653 5.72553 50.6436C5.73273 50.6122 5.74808 50.5637 5.7805 50.4935C5.87203 50.2955 6.05675 50.0253 6.35433 49.6845C6.94496 49.008 7.89826 48.1453 9.15616 47.1525C11.666 45.1715 15.3208 42.7251 19.5245 40.2879C23.7283 37.8506 27.6672 35.8944 30.6334 34.7005C32.12 34.1022 33.3423 33.7035 34.2228 33.527C34.6664 33.4381 34.9927 33.4121 35.2101 33.431ZM5.68148 50.6254C5.68149 50.6254 5.68173 50.6255 5.68217 50.6259L5.68148 50.6254ZM5.71951 50.691C5.7195 50.691 5.71946 50.6907 5.71942 50.6901L5.71951 50.691Z" stroke="white"/>
<path d="M60.5038 10.2483C60.5806 10.2394 60.6315 10.24 60.6636 10.243C60.6629 10.2752 60.6576 10.3259 60.6399 10.4011C60.59 10.6135 60.4634 10.9153 60.2403 11.3089C59.7976 12.0902 59.0371 13.1269 58.0043 14.3522C55.9437 16.797 52.855 19.9279 49.2266 23.16C45.5982 26.3921 42.1326 29.0999 39.4668 30.8653C38.1307 31.7501 37.0134 32.3862 36.1863 32.736C35.7696 32.9123 35.4552 33.0033 35.2385 33.0284C35.1617 33.0373 35.1108 33.0367 35.0787 33.0338C35.0795 33.0015 35.0847 32.9509 35.1024 32.8756C35.1523 32.6633 35.2789 32.3615 35.502 31.9678C35.9447 31.1865 36.7052 30.1499 37.738 28.9245C39.7986 26.4797 42.8874 23.3489 46.5157 20.1168C50.1441 16.8847 53.6097 14.1769 56.2755 12.4115C57.6116 11.5266 58.7289 10.8905 59.556 10.5407C59.9727 10.3645 60.2871 10.2734 60.5038 10.2483ZM35.0319 33.0247C35.0319 33.0247 35.0322 33.0248 35.0327 33.025L35.0319 33.0247ZM35.0823 33.0813C35.0823 33.0813 35.0822 33.0811 35.0821 33.0805L35.0823 33.0813Z" fill="black"/>
<path d="M60.5038 10.2483C60.5806 10.2394 60.6315 10.24 60.6636 10.243C60.6629 10.2752 60.6576 10.3259 60.6399 10.4011C60.59 10.6135 60.4634 10.9153 60.2403 11.3089C59.7976 12.0902 59.0371 13.1269 58.0043 14.3522C55.9437 16.797 52.855 19.9279 49.2266 23.16C45.5982 26.3921 42.1326 29.0999 39.4668 30.8653C38.1307 31.7501 37.0134 32.3862 36.1863 32.736C35.7696 32.9123 35.4552 33.0033 35.2385 33.0284C35.1617 33.0373 35.1108 33.0367 35.0787 33.0338C35.0795 33.0015 35.0847 32.9509 35.1024 32.8756C35.1523 32.6633 35.2789 32.3615 35.502 31.9678C35.9447 31.1865 36.7052 30.1499 37.738 28.9245C39.7986 26.4797 42.8874 23.3489 46.5157 20.1168C50.1441 16.8847 53.6097 14.1769 56.2755 12.4115C57.6116 11.5266 58.7289 10.8905 59.556 10.5407C59.9727 10.3645 60.2871 10.2734 60.5038 10.2483ZM35.0319 33.0247C35.0319 33.0247 35.0322 33.0248 35.0327 33.025L35.0319 33.0247ZM35.0823 33.0813C35.0823 33.0813 35.0822 33.0811 35.0821 33.0805L35.0823 33.0813Z" fill="black"/>
<path d="M60.5038 10.2483C60.5806 10.2394 60.6315 10.24 60.6636 10.243C60.6629 10.2752 60.6576 10.3259 60.6399 10.4011C60.59 10.6135 60.4634 10.9153 60.2403 11.3089C59.7976 12.0902 59.0371 13.1269 58.0043 14.3522C55.9437 16.797 52.855 19.9279 49.2266 23.16C45.5982 26.3921 42.1326 29.0999 39.4668 30.8653C38.1307 31.7501 37.0134 32.3862 36.1863 32.736C35.7696 32.9123 35.4552 33.0033 35.2385 33.0284C35.1617 33.0373 35.1108 33.0367 35.0787 33.0338C35.0795 33.0015 35.0847 32.9509 35.1024 32.8756C35.1523 32.6633 35.2789 32.3615 35.502 31.9678C35.9447 31.1865 36.7052 30.1499 37.738 28.9245C39.7986 26.4797 42.8874 23.3489 46.5157 20.1168C50.1441 16.8847 53.6097 14.1769 56.2755 12.4115C57.6116 11.5266 58.7289 10.8905 59.556 10.5407C59.9727 10.3645 60.2871 10.2734 60.5038 10.2483ZM35.0319 33.0247C35.0319 33.0247 35.0322 33.0248 35.0327 33.025L35.0319 33.0247ZM35.0823 33.0813C35.0823 33.0813 35.0822 33.0811 35.0821 33.0805L35.0823 33.0813Z" stroke="white"/>
<path d="M36.0565 33.1238C36.0565 33.1238 36.0564 33.1242 36.056 33.1251L36.0565 33.1238ZM35.9214 33.0325C35.9897 33.0866 36.0239 33.1255 36.0406 33.1487C36.023 33.1712 35.9873 33.2088 35.9171 33.2603C35.7554 33.3788 35.4864 33.5125 35.0925 33.6494C34.3104 33.9212 33.1531 34.1665 31.6906 34.3663C28.7734 34.7648 24.732 34.9707 20.2616 34.8853C15.7913 34.7999 11.7607 34.4396 8.86088 33.93C7.40706 33.6744 6.25996 33.3852 5.48886 33.0837C5.10047 32.9318 4.83676 32.7879 4.67973 32.6633C4.6115 32.6092 4.57725 32.5703 4.56055 32.5471C4.57812 32.5246 4.61383 32.487 4.68408 32.4355C4.84576 32.317 5.11478 32.1833 5.50868 32.0464C6.29074 31.7746 7.44805 31.5293 8.91058 31.3295C11.8278 30.931 15.8692 30.7251 20.3395 30.8105C24.8098 30.8959 28.8404 31.2562 31.7403 31.7658C33.1941 32.0213 34.3412 32.3106 35.1123 32.6121C35.5007 32.764 35.7644 32.9079 35.9214 33.0325ZM4.54466 32.572C4.54463 32.572 4.54478 32.5716 4.54517 32.5707L4.54466 32.572Z" fill="black"/>
<path d="M36.0565 33.1238C36.0565 33.1238 36.0564 33.1242 36.056 33.1251L36.0565 33.1238ZM35.9214 33.0325C35.9897 33.0866 36.0239 33.1255 36.0406 33.1487C36.023 33.1712 35.9873 33.2088 35.9171 33.2603C35.7554 33.3788 35.4864 33.5125 35.0925 33.6494C34.3104 33.9212 33.1531 34.1665 31.6906 34.3663C28.7734 34.7648 24.732 34.9707 20.2616 34.8853C15.7913 34.7999 11.7607 34.4396 8.86088 33.93C7.40706 33.6744 6.25996 33.3852 5.48886 33.0837C5.10047 32.9318 4.83676 32.7879 4.67973 32.6633C4.6115 32.6092 4.57725 32.5703 4.56055 32.5471C4.57812 32.5246 4.61383 32.487 4.68408 32.4355C4.84576 32.317 5.11478 32.1833 5.50868 32.0464C6.29074 31.7746 7.44805 31.5293 8.91058 31.3295C11.8278 30.931 15.8692 30.7251 20.3395 30.8105C24.8098 30.8959 28.8404 31.2562 31.7403 31.7658C33.1941 32.0213 34.3412 32.3106 35.1123 32.6121C35.5007 32.764 35.7644 32.9079 35.9214 33.0325ZM4.54466 32.572C4.54463 32.572 4.54478 32.5716 4.54517 32.5707L4.54466 32.572Z" fill="black"/>
<path d="M36.0565 33.1238C36.0565 33.1238 36.0564 33.1242 36.056 33.1251L36.0565 33.1238ZM35.9214 33.0325C35.9897 33.0866 36.0239 33.1255 36.0406 33.1487C36.023 33.1712 35.9873 33.2088 35.9171 33.2603C35.7554 33.3788 35.4864 33.5125 35.0925 33.6494C34.3104 33.9212 33.1531 34.1665 31.6906 34.3663C28.7734 34.7648 24.732 34.9707 20.2616 34.8853C15.7913 34.7999 11.7607 34.4396 8.86088 33.93C7.40706 33.6744 6.25996 33.3852 5.48886 33.0837C5.10047 32.9318 4.83676 32.7879 4.67973 32.6633C4.6115 32.6092 4.57725 32.5703 4.56055 32.5471C4.57812 32.5246 4.61383 32.487 4.68408 32.4355C4.84576 32.317 5.11478 32.1833 5.50868 32.0464C6.29074 31.7746 7.44805 31.5293 8.91058 31.3295C11.8278 30.931 15.8692 30.7251 20.3395 30.8105C24.8098 30.8959 28.8404 31.2562 31.7403 31.7658C33.1941 32.0213 34.3412 32.3106 35.1123 32.6121C35.5007 32.764 35.7644 32.9079 35.9214 33.0325ZM4.54466 32.572C4.54463 32.572 4.54478 32.5716 4.54517 32.5707L4.54466 32.572Z" stroke="white"/>
<path d="M47.8974 8.26161C47.8975 8.26157 47.898 8.26194 47.8989 8.26284L47.8974 8.26161ZM47.7393 8.3214C47.8328 8.27952 47.8842 8.27217 47.9064 8.27159C47.9197 8.28933 47.9459 8.33422 47.9711 8.43352C48.016 8.61008 48.0357 8.88133 48.0115 9.25944C47.9633 10.0107 47.7505 11.062 47.3802 12.3498C46.6417 14.9177 45.3042 18.3334 43.5397 21.9824C41.7752 25.6313 39.9283 28.8007 38.374 30.974C37.5945 32.064 36.9026 32.8836 36.3436 33.3879C36.0623 33.6417 35.8374 33.7946 35.6711 33.8691C35.5776 33.911 35.5262 33.9183 35.504 33.9189C35.4907 33.9012 35.4645 33.8563 35.4393 33.757C35.3944 33.5804 35.3746 33.3091 35.3989 32.931C35.4471 32.1798 35.6599 31.1285 36.0302 29.8406C36.7687 27.2728 38.1061 23.857 39.8707 20.2081C41.6352 16.5592 43.4821 13.3898 45.0364 11.2165C45.8159 10.1265 46.5078 9.30689 47.0668 8.80261C47.3481 8.54882 47.573 8.39588 47.7393 8.3214ZM35.4906 33.9181C35.4906 33.918 35.4912 33.9181 35.4924 33.9184L35.4906 33.9181ZM35.5129 33.9289C35.5129 33.9289 35.5124 33.9286 35.5115 33.9277L35.5129 33.9289ZM47.9179 8.27202C47.9192 8.27219 47.9198 8.27236 47.9198 8.2724L47.9179 8.27202Z" fill="black"/>
<path d="M47.8974 8.26161C47.8975 8.26157 47.898 8.26194 47.8989 8.26284L47.8974 8.26161ZM47.7393 8.3214C47.8328 8.27952 47.8842 8.27217 47.9064 8.27159C47.9197 8.28933 47.9459 8.33422 47.9711 8.43352C48.016 8.61008 48.0357 8.88133 48.0115 9.25944C47.9633 10.0107 47.7505 11.062 47.3802 12.3498C46.6417 14.9177 45.3042 18.3334 43.5397 21.9824C41.7752 25.6313 39.9283 28.8007 38.374 30.974C37.5945 32.064 36.9026 32.8836 36.3436 33.3879C36.0623 33.6417 35.8374 33.7946 35.6711 33.8691C35.5776 33.911 35.5262 33.9183 35.504 33.9189C35.4907 33.9012 35.4645 33.8563 35.4393 33.757C35.3944 33.5804 35.3746 33.3091 35.3989 32.931C35.4471 32.1798 35.6599 31.1285 36.0302 29.8406C36.7687 27.2728 38.1061 23.857 39.8707 20.2081C41.6352 16.5592 43.4821 13.3898 45.0364 11.2165C45.8159 10.1265 46.5078 9.30689 47.0668 8.80261C47.3481 8.54882 47.573 8.39588 47.7393 8.3214ZM35.4906 33.9181C35.4906 33.918 35.4912 33.9181 35.4924 33.9184L35.4906 33.9181ZM35.5129 33.9289C35.5129 33.9289 35.5124 33.9286 35.5115 33.9277L35.5129 33.9289ZM47.9179 8.27202C47.9192 8.27219 47.9198 8.27236 47.9198 8.2724L47.9179 8.27202Z" fill="black"/>
<path d="M47.8974 8.26161C47.8975 8.26157 47.898 8.26194 47.8989 8.26284L47.8974 8.26161ZM47.7393 8.3214C47.8328 8.27952 47.8842 8.27217 47.9064 8.27159C47.9197 8.28933 47.9459 8.33422 47.9711 8.43352C48.016 8.61008 48.0357 8.88133 48.0115 9.25944C47.9633 10.0107 47.7505 11.062 47.3802 12.3498C46.6417 14.9177 45.3042 18.3334 43.5397 21.9824C41.7752 25.6313 39.9283 28.8007 38.374 30.974C37.5945 32.064 36.9026 32.8836 36.3436 33.3879C36.0623 33.6417 35.8374 33.7946 35.6711 33.8691C35.5776 33.911 35.5262 33.9183 35.504 33.9189C35.4907 33.9012 35.4645 33.8563 35.4393 33.757C35.3944 33.5804 35.3746 33.3091 35.3989 32.931C35.4471 32.1798 35.6599 31.1285 36.0302 29.8406C36.7687 27.2728 38.1061 23.857 39.8707 20.2081C41.6352 16.5592 43.4821 13.3898 45.0364 11.2165C45.8159 10.1265 46.5078 9.30689 47.0668 8.80261C47.3481 8.54882 47.573 8.39588 47.7393 8.3214ZM35.4906 33.9181C35.4906 33.918 35.4912 33.9181 35.4924 33.9184L35.4906 33.9181ZM35.5129 33.9289C35.5129 33.9289 35.5124 33.9286 35.5115 33.9277L35.5129 33.9289ZM47.9179 8.27202C47.9192 8.27219 47.9198 8.27236 47.9198 8.2724L47.9179 8.27202Z" stroke="white"/>
<path d="M32.5678 5.81162C32.5678 5.81158 32.5684 5.81161 32.5697 5.81185L32.5678 5.81162ZM32.4675 5.94782C32.5232 5.86182 32.5624 5.82768 32.5807 5.81514C32.6015 5.82278 32.6479 5.84622 32.7231 5.91583C32.8567 6.03961 33.0208 6.25651 33.2061 6.58701C33.5742 7.24369 33.9673 8.24164 34.3568 9.52384C35.1335 12.0804 35.8685 15.6742 36.3719 19.696C36.8754 23.7178 37.0489 27.382 36.9264 30.0511C36.8649 31.3898 36.7299 32.4538 36.5351 33.181C36.437 33.5469 36.3314 33.7976 36.2324 33.9505C36.1767 34.0365 36.1375 34.0706 36.1192 34.0832C36.0984 34.0755 36.052 34.0521 35.9769 33.9825C35.8432 33.8587 35.6791 33.6418 35.4938 33.3113C35.1257 32.6546 34.7326 31.6567 34.3431 30.3745C33.5664 27.8179 32.8314 24.2241 32.328 20.2023C31.8245 16.1805 31.651 12.5163 31.7735 9.84721C31.835 8.50855 31.97 7.4445 32.1649 6.71734C32.2629 6.35137 32.3685 6.10073 32.4675 5.94782ZM36.1076 34.0898C36.1076 34.0897 36.1081 34.0895 36.1093 34.0891L36.1076 34.0898ZM36.1322 34.0867C36.1322 34.0867 36.1316 34.0867 36.1303 34.0865L36.1322 34.0867ZM32.5906 5.80925C32.5917 5.80869 32.5923 5.8085 32.5923 5.80854L32.5906 5.80925Z" fill="black"/>
<path d="M32.5678 5.81162C32.5678 5.81158 32.5684 5.81161 32.5697 5.81185L32.5678 5.81162ZM32.4675 5.94782C32.5232 5.86182 32.5624 5.82768 32.5807 5.81514C32.6015 5.82278 32.6479 5.84622 32.7231 5.91583C32.8567 6.03961 33.0208 6.25651 33.2061 6.58701C33.5742 7.24369 33.9673 8.24164 34.3568 9.52384C35.1335 12.0804 35.8685 15.6742 36.3719 19.696C36.8754 23.7178 37.0489 27.382 36.9264 30.0511C36.8649 31.3898 36.7299 32.4538 36.5351 33.181C36.437 33.5469 36.3314 33.7976 36.2324 33.9505C36.1767 34.0365 36.1375 34.0706 36.1192 34.0832C36.0984 34.0755 36.052 34.0521 35.9769 33.9825C35.8432 33.8587 35.6791 33.6418 35.4938 33.3113C35.1257 32.6546 34.7326 31.6567 34.3431 30.3745C33.5664 27.8179 32.8314 24.2241 32.328 20.2023C31.8245 16.1805 31.651 12.5163 31.7735 9.84721C31.835 8.50855 31.97 7.4445 32.1649 6.71734C32.2629 6.35137 32.3685 6.10073 32.4675 5.94782ZM36.1076 34.0898C36.1076 34.0897 36.1081 34.0895 36.1093 34.0891L36.1076 34.0898ZM36.1322 34.0867C36.1322 34.0867 36.1316 34.0867 36.1303 34.0865L36.1322 34.0867ZM32.5906 5.80925C32.5917 5.80869 32.5923 5.8085 32.5923 5.80854L32.5906 5.80925Z" fill="black"/>
<path d="M32.5678 5.81162C32.5678 5.81158 32.5684 5.81161 32.5697 5.81185L32.5678 5.81162ZM32.4675 5.94782C32.5232 5.86182 32.5624 5.82768 32.5807 5.81514C32.6015 5.82278 32.6479 5.84622 32.7231 5.91583C32.8567 6.03961 33.0208 6.25651 33.2061 6.58701C33.5742 7.24369 33.9673 8.24164 34.3568 9.52384C35.1335 12.0804 35.8685 15.6742 36.3719 19.696C36.8754 23.7178 37.0489 27.382 36.9264 30.0511C36.8649 31.3898 36.7299 32.4538 36.5351 33.181C36.437 33.5469 36.3314 33.7976 36.2324 33.9505C36.1767 34.0365 36.1375 34.0706 36.1192 34.0832C36.0984 34.0755 36.052 34.0521 35.9769 33.9825C35.8432 33.8587 35.6791 33.6418 35.4938 33.3113C35.1257 32.6546 34.7326 31.6567 34.3431 30.3745C33.5664 27.8179 32.8314 24.2241 32.328 20.2023C31.8245 16.1805 31.651 12.5163 31.7735 9.84721C31.835 8.50855 31.97 7.4445 32.1649 6.71734C32.2629 6.35137 32.3685 6.10073 32.4675 5.94782ZM36.1076 34.0898C36.1076 34.0897 36.1081 34.0895 36.1093 34.0891L36.1076 34.0898ZM36.1322 34.0867C36.1322 34.0867 36.1316 34.0867 36.1303 34.0865L36.1322 34.0867ZM32.5906 5.80925C32.5917 5.80869 32.5923 5.8085 32.5923 5.80854L32.5906 5.80925Z" stroke="white"/>
<path d="M63.2876 23.5525C63.2877 23.5525 63.2878 23.5531 63.2878 23.5544L63.2876 23.5525ZM63.1342 23.4814C63.2296 23.5188 63.2708 23.5504 63.2868 23.5659C63.2834 23.5878 63.2697 23.6379 63.2164 23.7254C63.1217 23.881 62.9418 24.085 62.6547 24.3323C62.0843 24.8236 61.1845 25.4074 60.0054 26.0441C57.6544 27.3137 54.2785 28.7489 50.4372 30.0421C46.5959 31.3354 43.0394 32.2342 40.3993 32.645C39.0751 32.851 38.0055 32.9303 37.2541 32.884C36.876 32.8606 36.6093 32.807 36.4398 32.7404C36.3444 32.7029 36.3032 32.6713 36.2872 32.6559C36.2906 32.634 36.3043 32.5838 36.3576 32.4963C36.4523 32.3407 36.6322 32.1368 36.9193 31.8895C37.4897 31.3981 38.3895 30.8144 39.5686 30.1776C41.9196 28.908 45.2955 27.4729 49.1368 26.1796C52.9781 24.8864 56.5346 23.9876 59.1747 23.5768C60.4989 23.3708 61.5685 23.2914 62.3199 23.3378C62.698 23.3611 62.9647 23.4147 63.1342 23.4814ZM36.2784 32.6458C36.2785 32.6458 36.2789 32.6462 36.2794 32.6473L36.2784 32.6458ZM36.2864 32.6693C36.2863 32.6693 36.2862 32.6687 36.2862 32.6674L36.2864 32.6693ZM63.2945 23.5744C63.2953 23.5754 63.2956 23.576 63.2956 23.576L63.2945 23.5744Z" fill="black"/>
<path d="M63.2876 23.5525C63.2877 23.5525 63.2878 23.5531 63.2878 23.5544L63.2876 23.5525ZM63.1342 23.4814C63.2296 23.5188 63.2708 23.5504 63.2868 23.5659C63.2834 23.5878 63.2697 23.6379 63.2164 23.7254C63.1217 23.881 62.9418 24.085 62.6547 24.3323C62.0843 24.8236 61.1845 25.4074 60.0054 26.0441C57.6544 27.3137 54.2785 28.7489 50.4372 30.0421C46.5959 31.3354 43.0394 32.2342 40.3993 32.645C39.0751 32.851 38.0055 32.9303 37.2541 32.884C36.876 32.8606 36.6093 32.807 36.4398 32.7404C36.3444 32.7029 36.3032 32.6713 36.2872 32.6559C36.2906 32.634 36.3043 32.5838 36.3576 32.4963C36.4523 32.3407 36.6322 32.1368 36.9193 31.8895C37.4897 31.3981 38.3895 30.8144 39.5686 30.1776C41.9196 28.908 45.2955 27.4729 49.1368 26.1796C52.9781 24.8864 56.5346 23.9876 59.1747 23.5768C60.4989 23.3708 61.5685 23.2914 62.3199 23.3378C62.698 23.3611 62.9647 23.4147 63.1342 23.4814ZM36.2784 32.6458C36.2785 32.6458 36.2789 32.6462 36.2794 32.6473L36.2784 32.6458ZM36.2864 32.6693C36.2863 32.6693 36.2862 32.6687 36.2862 32.6674L36.2864 32.6693ZM63.2945 23.5744C63.2953 23.5754 63.2956 23.576 63.2956 23.576L63.2945 23.5744Z" fill="black"/>
<path d="M63.2876 23.5525C63.2877 23.5525 63.2878 23.5531 63.2878 23.5544L63.2876 23.5525ZM63.1342 23.4814C63.2296 23.5188 63.2708 23.5504 63.2868 23.5659C63.2834 23.5878 63.2697 23.6379 63.2164 23.7254C63.1217 23.881 62.9418 24.085 62.6547 24.3323C62.0843 24.8236 61.1845 25.4074 60.0054 26.0441C57.6544 27.3137 54.2785 28.7489 50.4372 30.0421C46.5959 31.3354 43.0394 32.2342 40.3993 32.645C39.0751 32.851 38.0055 32.9303 37.2541 32.884C36.876 32.8606 36.6093 32.807 36.4398 32.7404C36.3444 32.7029 36.3032 32.6713 36.2872 32.6559C36.2906 32.634 36.3043 32.5838 36.3576 32.4963C36.4523 32.3407 36.6322 32.1368 36.9193 31.8895C37.4897 31.3981 38.3895 30.8144 39.5686 30.1776C41.9196 28.908 45.2955 27.4729 49.1368 26.1796C52.9781 24.8864 56.5346 23.9876 59.1747 23.5768C60.4989 23.3708 61.5685 23.2914 62.3199 23.3378C62.698 23.3611 62.9647 23.4147 63.1342 23.4814ZM36.2784 32.6458C36.2785 32.6458 36.2789 32.6462 36.2794 32.6473L36.2784 32.6458ZM36.2864 32.6693C36.2863 32.6693 36.2862 32.6687 36.2862 32.6674L36.2864 32.6693ZM63.2945 23.5744C63.2953 23.5754 63.2956 23.576 63.2956 23.576L63.2945 23.5744Z" stroke="white"/>
<path d="M36.3185 33.2531L36.3178 33.2538L36.3149 33.2561C36.3118 33.2583 36.3049 33.2627 36.2923 33.2681C36.266 33.2792 36.2179 33.2928 36.1391 33.2983C35.9768 33.3095 35.7376 33.283 35.4133 33.1968C34.7678 33.0252 33.8985 32.649 32.8576 32.082C30.7832 30.9518 28.1181 29.1139 25.3618 26.8337C22.6054 24.5535 20.3007 22.2801 18.8018 20.4542C18.0497 19.5381 17.5173 18.7547 17.2278 18.1527C17.0824 17.8503 17.0114 17.6203 16.9921 17.4589C16.9827 17.3804 16.9871 17.3306 16.9931 17.3026C16.9959 17.2892 16.999 17.2816 17.0006 17.2782L17.0023 17.2749L17.0029 17.2741L17.0036 17.2734L17.0065 17.2711C17.0096 17.2688 17.0164 17.2644 17.0291 17.2591C17.0554 17.248 17.1035 17.2344 17.1823 17.2289C17.3446 17.2176 17.5838 17.2442 17.9081 17.3304C18.5536 17.5019 19.4229 17.8781 20.4638 18.4452C22.5382 19.5753 25.2033 21.4133 27.9596 23.6935C30.7159 25.9737 33.0207 28.2471 34.5196 30.0729C35.2717 30.9891 35.8041 31.7725 36.0936 32.3744C36.239 32.6769 36.31 32.9068 36.3293 33.0683C36.3387 33.1468 36.3343 33.1966 36.3283 33.2245C36.3255 33.2379 36.3224 33.2455 36.3208 33.249L36.3191 33.2523L36.3185 33.2531Z" fill="black"/>
<path d="M36.3185 33.2531L36.3178 33.2538L36.3149 33.2561C36.3118 33.2583 36.3049 33.2627 36.2923 33.2681C36.266 33.2792 36.2179 33.2928 36.1391 33.2983C35.9768 33.3095 35.7376 33.283 35.4133 33.1968C34.7678 33.0252 33.8985 32.649 32.8576 32.082C30.7832 30.9518 28.1181 29.1139 25.3618 26.8337C22.6054 24.5535 20.3007 22.2801 18.8018 20.4542C18.0497 19.5381 17.5173 18.7547 17.2278 18.1527C17.0824 17.8503 17.0114 17.6203 16.9921 17.4589C16.9827 17.3804 16.9871 17.3306 16.9931 17.3026C16.9959 17.2892 16.999 17.2816 17.0006 17.2782L17.0023 17.2749L17.0029 17.2741L17.0036 17.2734L17.0065 17.2711C17.0096 17.2688 17.0164 17.2644 17.0291 17.2591C17.0554 17.248 17.1035 17.2344 17.1823 17.2289C17.3446 17.2176 17.5838 17.2442 17.9081 17.3304C18.5536 17.5019 19.4229 17.8781 20.4638 18.4452C22.5382 19.5753 25.2033 21.4133 27.9596 23.6935C30.7159 25.9737 33.0207 28.2471 34.5196 30.0729C35.2717 30.9891 35.8041 31.7725 36.0936 32.3744C36.239 32.6769 36.31 32.9068 36.3293 33.0683C36.3387 33.1468 36.3343 33.1966 36.3283 33.2245C36.3255 33.2379 36.3224 33.2455 36.3208 33.249L36.3191 33.2523L36.3185 33.2531Z" fill="black"/>
<path d="M36.3185 33.2531L36.3178 33.2538L36.3149 33.2561C36.3118 33.2583 36.3049 33.2627 36.2923 33.2681C36.266 33.2792 36.2179 33.2928 36.1391 33.2983C35.9768 33.3095 35.7376 33.283 35.4133 33.1968C34.7678 33.0252 33.8985 32.649 32.8576 32.082C30.7832 30.9518 28.1181 29.1139 25.3618 26.8337C22.6054 24.5535 20.3007 22.2801 18.8018 20.4542C18.0497 19.5381 17.5173 18.7547 17.2278 18.1527C17.0824 17.8503 17.0114 17.6203 16.9921 17.4589C16.9827 17.3804 16.9871 17.3306 16.9931 17.3026C16.9959 17.2892 16.999 17.2816 17.0006 17.2782L17.0023 17.2749L17.0029 17.2741L17.0036 17.2734L17.0065 17.2711C17.0096 17.2688 17.0164 17.2644 17.0291 17.2591C17.0554 17.248 17.1035 17.2344 17.1823 17.2289C17.3446 17.2176 17.5838 17.2442 17.9081 17.3304C18.5536 17.5019 19.4229 17.8781 20.4638 18.4452C22.5382 19.5753 25.2033 21.4133 27.9596 23.6935C30.7159 25.9737 33.0207 28.2471 34.5196 30.0729C35.2717 30.9891 35.8041 31.7725 36.0936 32.3744C36.239 32.6769 36.31 32.9068 36.3293 33.0683C36.3387 33.1468 36.3343 33.1966 36.3283 33.2245C36.3255 33.2379 36.3224 33.2455 36.3208 33.249L36.3191 33.2523L36.3185 33.2531Z" stroke="white"/>
<ellipse cx="37.1881" cy="69.2814" rx="7.81579" ry="5" transform="rotate(-40.6022 37.1881 69.2814)" fill="white"/>
<ellipse cx="45.8196" cy="61.8828" rx="7.81579" ry="5" transform="rotate(-40.6022 45.8196 61.8828)" fill="white"/>
<ellipse cx="37.1353" cy="69.7657" rx="3.19737" ry="3.33333" transform="rotate(-40.6022 37.1353 69.7657)" fill="black"/>
<ellipse cx="45.7668" cy="62.3671" rx="3.19737" ry="3.33333" transform="rotate(-40.6022 45.7668 62.3671)" fill="black"/>
</svg>
