<svg width="88" height="81" viewBox="0 0 88 81" fill="none" xmlns="http://www.w3.org/2000/svg">
<path d="M87.5 40.5C87.5 18.4468 68.0642 0.5 44 0.5C19.9358 0.5 0.5 18.4468 0.5 40.5C0.5 62.5532 19.9358 80.5 44 80.5C68.0642 80.5 87.5 62.5532 87.5 40.5Z" fill="black" stroke="white"/>
<rect x="16" y="11" width="57" height="59" rx="9" fill="black" stroke="white" stroke-width="2"/>
<ellipse cx="32" cy="51.5" rx="11" ry="7.5" fill="white"/>
<ellipse cx="43" cy="43.5" rx="11" ry="7.5" fill="white"/>
<ellipse cx="31.5" cy="52" rx="4.5" ry="5" fill="black"/>
<ellipse cx="42.5" cy="44" rx="4.5" ry="5" fill="black"/>
<path d="M66.3125 20.5625C65.4792 20.7292 64.7083 20.8542 64 20.9375C63.3333 21.0625 62.7292 21.1667 62.1875 21.25C61.5625 21.3333 60.9792 21.3958 60.4375 21.4375C59.8542 21.4792 59.1667 21.5208 58.375 21.5625C57.6667 21.6042 56.7917 21.625 55.75 21.625C54.75 21.6667 53.5833 21.6875 52.25 21.6875C53.4583 24.5208 54.4375 26.9167 55.1875 28.875C55.9375 30.875 56.5208 32.5208 56.9375 33.8125C57.3958 35.3125 57.7292 36.5417 57.9375 37.5C58.1042 38.4583 58.3125 39.625 58.5625 41C58.7708 42.1667 59.0417 43.625 59.375 45.375C59.7083 47.1667 60.125 49.2708 60.625 51.6875L66.1875 51.4375C65.8542 49.2292 65.6042 47.3333 65.4375 45.75C65.3125 44.2083 65.2083 42.9167 65.125 41.875C65.0417 40.6667 65.0208 39.6667 65.0625 38.875C65.0625 38 65.125 36.75 65.25 35.125C65.3333 33.75 65.4583 31.8958 65.625 29.5625C65.7917 27.2292 66.0208 24.2292 66.3125 20.5625ZM59.375 56.4375C59.125 56.8958 58.9583 57.3958 58.875 57.9375C58.8333 58.5208 58.875 59.0833 59 59.625C59.1667 60.2083 59.4375 60.7292 59.8125 61.1875C60.2292 61.6875 60.7708 62.1042 61.4375 62.4375C62.7708 63.0625 63.9583 63.2292 65 62.9375C66.0417 62.6458 66.8125 62.1042 67.3125 61.3125C67.8542 60.4792 67.8958 59.4792 67.4375 58.3125C66.9792 57.1875 66.0625 56.3333 64.6875 55.75C63.3542 55.1667 62.2292 54.9583 61.3125 55.125C60.4375 55.2917 59.7917 55.7292 59.375 56.4375Z" fill="white"/>
</svg>
