<svg width="88" height="81" viewBox="0 0 88 81" fill="none" xmlns="http://www.w3.org/2000/svg">
<path d="M87.5 40.5C87.5 18.4468 68.0642 0.5 44 0.5C19.9358 0.5 0.5 18.4468 0.5 40.5C0.5 62.5532 19.9358 80.5 44 80.5C68.0642 80.5 87.5 62.5532 87.5 40.5Z" fill="white" stroke="black"/>
<rect x="15" y="11" width="57" height="59" rx="9" fill="white" stroke="black" stroke-width="2"/>
<ellipse cx="32" cy="51.5" rx="11" ry="7.5" fill="black"/>
<ellipse cx="43" cy="43.5" rx="11" ry="7.5" fill="black"/>
<ellipse cx="31.5" cy="52" rx="4.5" ry="5" fill="white"/>
<ellipse cx="42.5" cy="44" rx="4.5" ry="5" fill="white"/>
<path d="M65.3125 20.5625C64.4792 20.7292 63.7083 20.8542 63 20.9375C62.3333 21.0625 61.7292 21.1667 61.1875 21.25C60.5625 21.3333 59.9792 21.3958 59.4375 21.4375C58.8542 21.4792 58.1667 21.5208 57.375 21.5625C56.6667 21.6042 55.7917 21.625 54.75 21.625C53.75 21.6667 52.5833 21.6875 51.25 21.6875C52.4583 24.5208 53.4375 26.9167 54.1875 28.875C54.9375 30.875 55.5208 32.5208 55.9375 33.8125C56.3958 35.3125 56.7292 36.5417 56.9375 37.5C57.1042 38.4583 57.3125 39.625 57.5625 41C57.7708 42.1667 58.0417 43.625 58.375 45.375C58.7083 47.1667 59.125 49.2708 59.625 51.6875L65.1875 51.4375C64.8542 49.2292 64.6042 47.3333 64.4375 45.75C64.3125 44.2083 64.2083 42.9167 64.125 41.875C64.0417 40.6667 64.0208 39.6667 64.0625 38.875C64.0625 38 64.125 36.75 64.25 35.125C64.3333 33.75 64.4583 31.8958 64.625 29.5625C64.7917 27.2292 65.0208 24.2292 65.3125 20.5625ZM58.375 56.4375C58.125 56.8958 57.9583 57.3958 57.875 57.9375C57.8333 58.5208 57.875 59.0833 58 59.625C58.1667 60.2083 58.4375 60.7292 58.8125 61.1875C59.2292 61.6875 59.7708 62.1042 60.4375 62.4375C61.7708 63.0625 62.9583 63.2292 64 62.9375C65.0417 62.6458 65.8125 62.1042 66.3125 61.3125C66.8542 60.4792 66.8958 59.4792 66.4375 58.3125C65.9792 57.1875 65.0625 56.3333 63.6875 55.75C62.3542 55.1667 61.2292 54.9583 60.3125 55.125C59.4375 55.2917 58.7917 55.7292 58.375 56.4375Z" fill="black"/>
</svg>
