<svg width="88" height="81" viewBox="0 0 88 81" fill="none" xmlns="http://www.w3.org/2000/svg">
<path d="M87.5 40.5C87.5 18.4468 68.0642 0.5 44 0.5C19.9358 0.5 0.5 18.4468 0.5 40.5C0.5 62.5532 19.9358 80.5 44 80.5C68.0642 80.5 87.5 62.5532 87.5 40.5Z" fill="white" stroke="black"/>
<path d="M41.5 35.5C41.5 37.62 39.3599 39.5 36.5 39.5C33.6401 39.5 31.5 37.62 31.5 35.5C31.5 33.38 33.6401 31.5 36.5 31.5C39.3599 31.5 41.5 33.38 41.5 35.5Z" fill="white" stroke="black"/>
<path d="M46.5 39.5C46.5 41.62 44.3599 43.5 41.5 43.5C38.6401 43.5 36.5 41.62 36.5 39.5C36.5 37.38 38.6401 35.5 41.5 35.5C44.3599 35.5 46.5 37.38 46.5 39.5Z" fill="white" stroke="black"/>
<path d="M51.5 43.5C51.5 45.62 49.3599 47.5 46.5 47.5C43.6401 47.5 41.5 45.62 41.5 43.5C41.5 41.38 43.6401 39.5 46.5 39.5C49.3599 39.5 51.5 41.38 51.5 43.5Z" fill="white" stroke="black"/>
<path d="M56.5 47.5C56.5 49.62 54.3599 51.5 51.5 51.5C48.6401 51.5 46.5 49.62 46.5 47.5C46.5 45.38 48.6401 43.5 51.5 43.5C54.3599 43.5 56.5 45.38 56.5 47.5Z" fill="white" stroke="black"/>
<path d="M60.5 52.5C60.5 54.62 58.3599 56.5 55.5 56.5C52.6401 56.5 50.5 54.62 50.5 52.5C50.5 50.38 52.6401 48.5 55.5 48.5C58.3599 48.5 60.5 50.38 60.5 52.5Z" fill="white" stroke="black"/>
<path d="M65 57C65 59.12 62.8599 61 60 61C57.1401 61 55 59.12 55 57C55 54.88 57.1401 53 60 53C62.8599 53 65 54.88 65 57Z" fill="white" stroke="black"/>
<path d="M67.5 62.5C67.5 64.62 65.3599 66.5 62.5 66.5C59.6401 66.5 57.5 64.62 57.5 62.5C57.5 60.38 59.6401 58.5 62.5 58.5C65.3599 58.5 67.5 60.38 67.5 62.5Z" fill="white" stroke="black"/>
<path d="M69.5 68.5C69.5 70.62 67.3599 72.5 64.5 72.5C61.6401 72.5 59.5 70.62 59.5 68.5C59.5 66.38 61.6401 64.5 64.5 64.5C67.3599 64.5 69.5 66.38 69.5 68.5Z" fill="white" stroke="black"/>
<path d="M31.7282 33.9172C31.8007 33.8905 31.8503 33.8791 31.8822 33.8744C31.8891 33.9059 31.8959 33.9564 31.8964 34.0336C31.898 34.2517 31.846 34.5749 31.7219 35.01C31.4757 35.8736 30.9807 37.0602 30.2656 38.4943C28.8387 41.3557 26.5742 45.1259 23.8091 49.1216C21.044 53.1173 18.3135 56.5651 16.1385 58.9087C15.0484 60.0833 14.1123 60.9647 13.3909 61.4994C13.0274 61.7689 12.7433 61.9314 12.5386 62.0068C12.4661 62.0336 12.4165 62.045 12.3846 62.0496C12.3777 62.0181 12.3709 61.9677 12.3703 61.8904C12.3688 61.6723 12.4208 61.3491 12.5449 60.914C12.7911 60.0504 13.2861 58.8638 14.0012 57.4297C15.4281 54.5684 17.6926 50.7982 20.4577 46.8024C23.2228 42.8067 25.9533 39.3589 28.1283 37.0153C29.2184 35.8407 30.1545 34.9593 30.8759 34.4246C31.2394 34.1552 31.5235 33.9926 31.7282 33.9172ZM12.3369 62.0519C12.3369 62.0519 12.3372 62.0519 12.3378 62.052L12.3369 62.0519ZM12.3993 62.095C12.3993 62.095 12.3991 62.0948 12.3988 62.0943L12.3993 62.095Z" fill="white"/>
<path d="M31.7282 33.9172C31.8007 33.8905 31.8503 33.8791 31.8822 33.8744C31.8891 33.9059 31.8959 33.9564 31.8964 34.0336C31.898 34.2517 31.846 34.5749 31.7219 35.01C31.4757 35.8736 30.9807 37.0602 30.2656 38.4943C28.8387 41.3557 26.5742 45.1259 23.8091 49.1216C21.044 53.1173 18.3135 56.5651 16.1385 58.9087C15.0484 60.0833 14.1123 60.9647 13.3909 61.4994C13.0274 61.7689 12.7433 61.9314 12.5386 62.0068C12.4661 62.0336 12.4165 62.045 12.3846 62.0496C12.3777 62.0181 12.3709 61.9677 12.3703 61.8904C12.3688 61.6723 12.4208 61.3491 12.5449 60.914C12.7911 60.0504 13.2861 58.8638 14.0012 57.4297C15.4281 54.5684 17.6926 50.7982 20.4577 46.8024C23.2228 42.8067 25.9533 39.3589 28.1283 37.0153C29.2184 35.8407 30.1545 34.9593 30.8759 34.4246C31.2394 34.1552 31.5235 33.9926 31.7282 33.9172ZM12.3369 62.0519C12.3369 62.0519 12.3372 62.0519 12.3378 62.052L12.3369 62.0519ZM12.3993 62.095C12.3993 62.095 12.3991 62.0948 12.3988 62.0943L12.3993 62.095Z" fill="white"/>
<path d="M31.7282 33.9172C31.8007 33.8905 31.8503 33.8791 31.8822 33.8744C31.8891 33.9059 31.8959 33.9564 31.8964 34.0336C31.898 34.2517 31.846 34.5749 31.7219 35.01C31.4757 35.8736 30.9807 37.0602 30.2656 38.4943C28.8387 41.3557 26.5742 45.1259 23.8091 49.1216C21.044 53.1173 18.3135 56.5651 16.1385 58.9087C15.0484 60.0833 14.1123 60.9647 13.3909 61.4994C13.0274 61.7689 12.7433 61.9314 12.5386 62.0068C12.4661 62.0336 12.4165 62.045 12.3846 62.0496C12.3777 62.0181 12.3709 61.9677 12.3703 61.8904C12.3688 61.6723 12.4208 61.3491 12.5449 60.914C12.7911 60.0504 13.2861 58.8638 14.0012 57.4297C15.4281 54.5684 17.6926 50.7982 20.4577 46.8024C23.2228 42.8067 25.9533 39.3589 28.1283 37.0153C29.2184 35.8407 30.1545 34.9593 30.8759 34.4246C31.2394 34.1552 31.5235 33.9926 31.7282 33.9172ZM12.3369 62.0519C12.3369 62.0519 12.3372 62.0519 12.3378 62.052L12.3369 62.0519ZM12.3993 62.095C12.3993 62.095 12.3991 62.0948 12.3988 62.0943L12.3993 62.095Z" stroke="black"/>
<path d="M31.2101 33.431C31.287 33.4377 31.3368 33.4486 31.3676 33.4579C31.3604 33.4893 31.3451 33.5379 31.3127 33.608C31.2211 33.806 31.0364 34.0763 30.7389 34.4171C30.1482 35.0935 29.1949 35.9562 27.937 36.9491C25.4272 38.93 21.7724 41.3764 17.5687 43.8137C13.3649 46.2509 9.42595 48.2072 6.4598 49.401C4.97318 49.9994 3.75084 50.398 2.87035 50.5745C2.42673 50.6634 2.10043 50.6895 1.88313 50.6705C1.80615 50.6638 1.75637 50.653 1.72553 50.6436C1.73273 50.6122 1.74808 50.5637 1.7805 50.4935C1.87203 50.2955 2.05675 50.0253 2.35433 49.6845C2.94496 49.008 3.89826 48.1453 5.15616 47.1525C7.66596 45.1715 11.3208 42.7251 15.5245 40.2879C19.7283 37.8506 23.6672 35.8944 26.6334 34.7005C28.12 34.1022 29.3423 33.7035 30.2228 33.527C30.6664 33.4381 30.9927 33.4121 31.2101 33.431ZM1.68148 50.6254C1.68149 50.6254 1.68173 50.6255 1.68217 50.6259L1.68148 50.6254ZM1.71951 50.691C1.7195 50.691 1.71946 50.6907 1.71942 50.6901L1.71951 50.691Z" fill="white"/>
<path d="M31.2101 33.431C31.287 33.4377 31.3368 33.4486 31.3676 33.4579C31.3604 33.4893 31.3451 33.5379 31.3127 33.608C31.2211 33.806 31.0364 34.0763 30.7389 34.4171C30.1482 35.0935 29.1949 35.9562 27.937 36.9491C25.4272 38.93 21.7724 41.3764 17.5687 43.8137C13.3649 46.2509 9.42595 48.2072 6.4598 49.401C4.97318 49.9994 3.75084 50.398 2.87035 50.5745C2.42673 50.6634 2.10043 50.6895 1.88313 50.6705C1.80615 50.6638 1.75637 50.653 1.72553 50.6436C1.73273 50.6122 1.74808 50.5637 1.7805 50.4935C1.87203 50.2955 2.05675 50.0253 2.35433 49.6845C2.94496 49.008 3.89826 48.1453 5.15616 47.1525C7.66596 45.1715 11.3208 42.7251 15.5245 40.2879C19.7283 37.8506 23.6672 35.8944 26.6334 34.7005C28.12 34.1022 29.3423 33.7035 30.2228 33.527C30.6664 33.4381 30.9927 33.4121 31.2101 33.431ZM1.68148 50.6254C1.68149 50.6254 1.68173 50.6255 1.68217 50.6259L1.68148 50.6254ZM1.71951 50.691C1.7195 50.691 1.71946 50.6907 1.71942 50.6901L1.71951 50.691Z" fill="white"/>
<path d="M31.2101 33.431C31.287 33.4377 31.3368 33.4486 31.3676 33.4579C31.3604 33.4893 31.3451 33.5379 31.3127 33.608C31.2211 33.806 31.0364 34.0763 30.7389 34.4171C30.1482 35.0935 29.1949 35.9562 27.937 36.9491C25.4272 38.93 21.7724 41.3764 17.5687 43.8137C13.3649 46.2509 9.42595 48.2072 6.4598 49.401C4.97318 49.9994 3.75084 50.398 2.87035 50.5745C2.42673 50.6634 2.10043 50.6895 1.88313 50.6705C1.80615 50.6638 1.75637 50.653 1.72553 50.6436C1.73273 50.6122 1.74808 50.5637 1.7805 50.4935C1.87203 50.2955 2.05675 50.0253 2.35433 49.6845C2.94496 49.008 3.89826 48.1453 5.15616 47.1525C7.66596 45.1715 11.3208 42.7251 15.5245 40.2879C19.7283 37.8506 23.6672 35.8944 26.6334 34.7005C28.12 34.1022 29.3423 33.7035 30.2228 33.527C30.6664 33.4381 30.9927 33.4121 31.2101 33.431ZM1.68148 50.6254C1.68149 50.6254 1.68173 50.6255 1.68217 50.6259L1.68148 50.6254ZM1.71951 50.691C1.7195 50.691 1.71946 50.6907 1.71942 50.6901L1.71951 50.691Z" stroke="black"/>
<path d="M56.5038 10.2483C56.5806 10.2394 56.6315 10.24 56.6636 10.243C56.6629 10.2752 56.6576 10.3259 56.6399 10.4011C56.59 10.6135 56.4634 10.9153 56.2403 11.3089C55.7976 12.0902 55.0371 13.1269 54.0043 14.3522C51.9437 16.797 48.855 19.9279 45.2266 23.16C41.5982 26.3921 38.1326 29.0999 35.4668 30.8653C34.1307 31.7501 33.0134 32.3862 32.1863 32.736C31.7696 32.9123 31.4552 33.0033 31.2385 33.0284C31.1617 33.0373 31.1108 33.0367 31.0787 33.0338C31.0795 33.0015 31.0847 32.9509 31.1024 32.8756C31.1523 32.6633 31.2789 32.3615 31.502 31.9678C31.9447 31.1865 32.7052 30.1499 33.738 28.9245C35.7986 26.4797 38.8874 23.3489 42.5157 20.1168C46.1441 16.8847 49.6097 14.1769 52.2755 12.4115C53.6116 11.5266 54.7289 10.8905 55.556 10.5407C55.9727 10.3645 56.2871 10.2734 56.5038 10.2483ZM31.0319 33.0247C31.0319 33.0247 31.0322 33.0248 31.0327 33.025L31.0319 33.0247ZM31.0823 33.0813C31.0823 33.0813 31.0822 33.0811 31.0821 33.0805L31.0823 33.0813Z" fill="white"/>
<path d="M56.5038 10.2483C56.5806 10.2394 56.6315 10.24 56.6636 10.243C56.6629 10.2752 56.6576 10.3259 56.6399 10.4011C56.59 10.6135 56.4634 10.9153 56.2403 11.3089C55.7976 12.0902 55.0371 13.1269 54.0043 14.3522C51.9437 16.797 48.855 19.9279 45.2266 23.16C41.5982 26.3921 38.1326 29.0999 35.4668 30.8653C34.1307 31.7501 33.0134 32.3862 32.1863 32.736C31.7696 32.9123 31.4552 33.0033 31.2385 33.0284C31.1617 33.0373 31.1108 33.0367 31.0787 33.0338C31.0795 33.0015 31.0847 32.9509 31.1024 32.8756C31.1523 32.6633 31.2789 32.3615 31.502 31.9678C31.9447 31.1865 32.7052 30.1499 33.738 28.9245C35.7986 26.4797 38.8874 23.3489 42.5157 20.1168C46.1441 16.8847 49.6097 14.1769 52.2755 12.4115C53.6116 11.5266 54.7289 10.8905 55.556 10.5407C55.9727 10.3645 56.2871 10.2734 56.5038 10.2483ZM31.0319 33.0247C31.0319 33.0247 31.0322 33.0248 31.0327 33.025L31.0319 33.0247ZM31.0823 33.0813C31.0823 33.0813 31.0822 33.0811 31.0821 33.0805L31.0823 33.0813Z" fill="white"/>
<path d="M56.5038 10.2483C56.5806 10.2394 56.6315 10.24 56.6636 10.243C56.6629 10.2752 56.6576 10.3259 56.6399 10.4011C56.59 10.6135 56.4634 10.9153 56.2403 11.3089C55.7976 12.0902 55.0371 13.1269 54.0043 14.3522C51.9437 16.797 48.855 19.9279 45.2266 23.16C41.5982 26.3921 38.1326 29.0999 35.4668 30.8653C34.1307 31.7501 33.0134 32.3862 32.1863 32.736C31.7696 32.9123 31.4552 33.0033 31.2385 33.0284C31.1617 33.0373 31.1108 33.0367 31.0787 33.0338C31.0795 33.0015 31.0847 32.9509 31.1024 32.8756C31.1523 32.6633 31.2789 32.3615 31.502 31.9678C31.9447 31.1865 32.7052 30.1499 33.738 28.9245C35.7986 26.4797 38.8874 23.3489 42.5157 20.1168C46.1441 16.8847 49.6097 14.1769 52.2755 12.4115C53.6116 11.5266 54.7289 10.8905 55.556 10.5407C55.9727 10.3645 56.2871 10.2734 56.5038 10.2483ZM31.0319 33.0247C31.0319 33.0247 31.0322 33.0248 31.0327 33.025L31.0319 33.0247ZM31.0823 33.0813C31.0823 33.0813 31.0822 33.0811 31.0821 33.0805L31.0823 33.0813Z" stroke="black"/>
<path d="M32.0565 33.1238C32.0565 33.1238 32.0564 33.1242 32.056 33.1251L32.0565 33.1238ZM31.9214 33.0325C31.9897 33.0866 32.0239 33.1255 32.0406 33.1487C32.023 33.1712 31.9873 33.2088 31.9171 33.2603C31.7554 33.3788 31.4864 33.5125 31.0925 33.6494C30.3104 33.9212 29.1531 34.1665 27.6906 34.3663C24.7734 34.7648 20.732 34.9707 16.2616 34.8853C11.7913 34.7999 7.76071 34.4396 4.86088 33.93C3.40706 33.6744 2.25996 33.3852 1.48886 33.0837C1.10047 32.9318 0.836761 32.7879 0.67973 32.6633C0.611496 32.6092 0.577251 32.5703 0.560548 32.5471C0.578124 32.5246 0.61383 32.487 0.684084 32.4355C0.845762 32.317 1.11478 32.1833 1.50868 32.0464C2.29074 31.7746 3.44805 31.5293 4.91058 31.3295C7.82777 30.931 11.8692 30.7251 16.3395 30.8105C20.8098 30.8959 24.8404 31.2562 27.7403 31.7658C29.1941 32.0213 30.3412 32.3106 31.1123 32.6121C31.5007 32.764 31.7644 32.9079 31.9214 33.0325ZM0.544655 32.572C0.54463 32.572 0.544775 32.5716 0.545168 32.5707L0.544655 32.572Z" fill="white"/>
<path d="M32.0565 33.1238C32.0565 33.1238 32.0564 33.1242 32.056 33.1251L32.0565 33.1238ZM31.9214 33.0325C31.9897 33.0866 32.0239 33.1255 32.0406 33.1487C32.023 33.1712 31.9873 33.2088 31.9171 33.2603C31.7554 33.3788 31.4864 33.5125 31.0925 33.6494C30.3104 33.9212 29.1531 34.1665 27.6906 34.3663C24.7734 34.7648 20.732 34.9707 16.2616 34.8853C11.7913 34.7999 7.76071 34.4396 4.86088 33.93C3.40706 33.6744 2.25996 33.3852 1.48886 33.0837C1.10047 32.9318 0.836761 32.7879 0.67973 32.6633C0.611496 32.6092 0.577251 32.5703 0.560548 32.5471C0.578124 32.5246 0.61383 32.487 0.684084 32.4355C0.845762 32.317 1.11478 32.1833 1.50868 32.0464C2.29074 31.7746 3.44805 31.5293 4.91058 31.3295C7.82777 30.931 11.8692 30.7251 16.3395 30.8105C20.8098 30.8959 24.8404 31.2562 27.7403 31.7658C29.1941 32.0213 30.3412 32.3106 31.1123 32.6121C31.5007 32.764 31.7644 32.9079 31.9214 33.0325ZM0.544655 32.572C0.54463 32.572 0.544775 32.5716 0.545168 32.5707L0.544655 32.572Z" fill="white"/>
<path d="M32.0565 33.1238C32.0565 33.1238 32.0564 33.1242 32.056 33.1251L32.0565 33.1238ZM31.9214 33.0325C31.9897 33.0866 32.0239 33.1255 32.0406 33.1487C32.023 33.1712 31.9873 33.2088 31.9171 33.2603C31.7554 33.3788 31.4864 33.5125 31.0925 33.6494C30.3104 33.9212 29.1531 34.1665 27.6906 34.3663C24.7734 34.7648 20.732 34.9707 16.2616 34.8853C11.7913 34.7999 7.76071 34.4396 4.86088 33.93C3.40706 33.6744 2.25996 33.3852 1.48886 33.0837C1.10047 32.9318 0.836761 32.7879 0.67973 32.6633C0.611496 32.6092 0.577251 32.5703 0.560548 32.5471C0.578124 32.5246 0.61383 32.487 0.684084 32.4355C0.845762 32.317 1.11478 32.1833 1.50868 32.0464C2.29074 31.7746 3.44805 31.5293 4.91058 31.3295C7.82777 30.931 11.8692 30.7251 16.3395 30.8105C20.8098 30.8959 24.8404 31.2562 27.7403 31.7658C29.1941 32.0213 30.3412 32.3106 31.1123 32.6121C31.5007 32.764 31.7644 32.9079 31.9214 33.0325ZM0.544655 32.572C0.54463 32.572 0.544775 32.5716 0.545168 32.5707L0.544655 32.572Z" stroke="black"/>
<path d="M43.8974 8.26161C43.8975 8.26157 43.898 8.26194 43.8989 8.26284L43.8974 8.26161ZM43.7393 8.3214C43.8328 8.27952 43.8842 8.27217 43.9064 8.27159C43.9197 8.28933 43.9459 8.33422 43.9711 8.43352C44.016 8.61008 44.0357 8.88133 44.0115 9.25944C43.9633 10.0107 43.7505 11.062 43.3802 12.3498C42.6417 14.9177 41.3042 18.3334 39.5397 21.9824C37.7752 25.6313 35.9283 28.8007 34.374 30.974C33.5945 32.064 32.9026 32.8836 32.3436 33.3879C32.0623 33.6417 31.8374 33.7946 31.6711 33.8691C31.5776 33.911 31.5262 33.9183 31.504 33.9189C31.4907 33.9012 31.4645 33.8563 31.4393 33.757C31.3944 33.5804 31.3746 33.3091 31.3989 32.931C31.4471 32.1798 31.6599 31.1285 32.0302 29.8406C32.7687 27.2728 34.1061 23.857 35.8707 20.2081C37.6352 16.5592 39.4821 13.3898 41.0364 11.2165C41.8159 10.1265 42.5078 9.30689 43.0668 8.80261C43.3481 8.54882 43.573 8.39588 43.7393 8.3214ZM31.4906 33.9181C31.4906 33.918 31.4912 33.9181 31.4924 33.9184L31.4906 33.9181ZM31.5129 33.9289C31.5129 33.9289 31.5124 33.9286 31.5115 33.9277L31.5129 33.9289ZM43.9179 8.27202C43.9192 8.27219 43.9198 8.27236 43.9198 8.2724L43.9179 8.27202Z" fill="white"/>
<path d="M43.8974 8.26161C43.8975 8.26157 43.898 8.26194 43.8989 8.26284L43.8974 8.26161ZM43.7393 8.3214C43.8328 8.27952 43.8842 8.27217 43.9064 8.27159C43.9197 8.28933 43.9459 8.33422 43.9711 8.43352C44.016 8.61008 44.0357 8.88133 44.0115 9.25944C43.9633 10.0107 43.7505 11.062 43.3802 12.3498C42.6417 14.9177 41.3042 18.3334 39.5397 21.9824C37.7752 25.6313 35.9283 28.8007 34.374 30.974C33.5945 32.064 32.9026 32.8836 32.3436 33.3879C32.0623 33.6417 31.8374 33.7946 31.6711 33.8691C31.5776 33.911 31.5262 33.9183 31.504 33.9189C31.4907 33.9012 31.4645 33.8563 31.4393 33.757C31.3944 33.5804 31.3746 33.3091 31.3989 32.931C31.4471 32.1798 31.6599 31.1285 32.0302 29.8406C32.7687 27.2728 34.1061 23.857 35.8707 20.2081C37.6352 16.5592 39.4821 13.3898 41.0364 11.2165C41.8159 10.1265 42.5078 9.30689 43.0668 8.80261C43.3481 8.54882 43.573 8.39588 43.7393 8.3214ZM31.4906 33.9181C31.4906 33.918 31.4912 33.9181 31.4924 33.9184L31.4906 33.9181ZM31.5129 33.9289C31.5129 33.9289 31.5124 33.9286 31.5115 33.9277L31.5129 33.9289ZM43.9179 8.27202C43.9192 8.27219 43.9198 8.27236 43.9198 8.2724L43.9179 8.27202Z" fill="white"/>
<path d="M43.8974 8.26161C43.8975 8.26157 43.898 8.26194 43.8989 8.26284L43.8974 8.26161ZM43.7393 8.3214C43.8328 8.27952 43.8842 8.27217 43.9064 8.27159C43.9197 8.28933 43.9459 8.33422 43.9711 8.43352C44.016 8.61008 44.0357 8.88133 44.0115 9.25944C43.9633 10.0107 43.7505 11.062 43.3802 12.3498C42.6417 14.9177 41.3042 18.3334 39.5397 21.9824C37.7752 25.6313 35.9283 28.8007 34.374 30.974C33.5945 32.064 32.9026 32.8836 32.3436 33.3879C32.0623 33.6417 31.8374 33.7946 31.6711 33.8691C31.5776 33.911 31.5262 33.9183 31.504 33.9189C31.4907 33.9012 31.4645 33.8563 31.4393 33.757C31.3944 33.5804 31.3746 33.3091 31.3989 32.931C31.4471 32.1798 31.6599 31.1285 32.0302 29.8406C32.7687 27.2728 34.1061 23.857 35.8707 20.2081C37.6352 16.5592 39.4821 13.3898 41.0364 11.2165C41.8159 10.1265 42.5078 9.30689 43.0668 8.80261C43.3481 8.54882 43.573 8.39588 43.7393 8.3214ZM31.4906 33.9181C31.4906 33.918 31.4912 33.9181 31.4924 33.9184L31.4906 33.9181ZM31.5129 33.9289C31.5129 33.9289 31.5124 33.9286 31.5115 33.9277L31.5129 33.9289ZM43.9179 8.27202C43.9192 8.27219 43.9198 8.27236 43.9198 8.2724L43.9179 8.27202Z" stroke="black"/>
<path d="M28.5678 5.81162C28.5678 5.81158 28.5684 5.81161 28.5697 5.81185L28.5678 5.81162ZM28.4675 5.94782C28.5232 5.86182 28.5624 5.82768 28.5807 5.81514C28.6015 5.82278 28.6479 5.84622 28.7231 5.91583C28.8567 6.03961 29.0208 6.25651 29.2061 6.58701C29.5742 7.24369 29.9673 8.24164 30.3568 9.52384C31.1335 12.0804 31.8685 15.6742 32.3719 19.696C32.8754 23.7178 33.0489 27.382 32.9264 30.0511C32.8649 31.3898 32.7299 32.4538 32.5351 33.181C32.437 33.5469 32.3314 33.7976 32.2324 33.9505C32.1767 34.0365 32.1375 34.0706 32.1192 34.0832C32.0984 34.0755 32.052 34.0521 31.9769 33.9825C31.8432 33.8587 31.6791 33.6418 31.4938 33.3113C31.1257 32.6546 30.7326 31.6567 30.3431 30.3745C29.5664 27.8179 28.8314 24.2241 28.328 20.2023C27.8245 16.1805 27.651 12.5163 27.7735 9.84721C27.835 8.50855 27.97 7.4445 28.1649 6.71734C28.2629 6.35137 28.3685 6.10073 28.4675 5.94782ZM32.1076 34.0898C32.1076 34.0897 32.1081 34.0895 32.1093 34.0891L32.1076 34.0898ZM32.1322 34.0867C32.1322 34.0867 32.1316 34.0867 32.1303 34.0865L32.1322 34.0867ZM28.5906 5.80925C28.5917 5.80869 28.5923 5.8085 28.5923 5.80854L28.5906 5.80925Z" fill="white"/>
<path d="M28.5678 5.81162C28.5678 5.81158 28.5684 5.81161 28.5697 5.81185L28.5678 5.81162ZM28.4675 5.94782C28.5232 5.86182 28.5624 5.82768 28.5807 5.81514C28.6015 5.82278 28.6479 5.84622 28.7231 5.91583C28.8567 6.03961 29.0208 6.25651 29.2061 6.58701C29.5742 7.24369 29.9673 8.24164 30.3568 9.52384C31.1335 12.0804 31.8685 15.6742 32.3719 19.696C32.8754 23.7178 33.0489 27.382 32.9264 30.0511C32.8649 31.3898 32.7299 32.4538 32.5351 33.181C32.437 33.5469 32.3314 33.7976 32.2324 33.9505C32.1767 34.0365 32.1375 34.0706 32.1192 34.0832C32.0984 34.0755 32.052 34.0521 31.9769 33.9825C31.8432 33.8587 31.6791 33.6418 31.4938 33.3113C31.1257 32.6546 30.7326 31.6567 30.3431 30.3745C29.5664 27.8179 28.8314 24.2241 28.328 20.2023C27.8245 16.1805 27.651 12.5163 27.7735 9.84721C27.835 8.50855 27.97 7.4445 28.1649 6.71734C28.2629 6.35137 28.3685 6.10073 28.4675 5.94782ZM32.1076 34.0898C32.1076 34.0897 32.1081 34.0895 32.1093 34.0891L32.1076 34.0898ZM32.1322 34.0867C32.1322 34.0867 32.1316 34.0867 32.1303 34.0865L32.1322 34.0867ZM28.5906 5.80925C28.5917 5.80869 28.5923 5.8085 28.5923 5.80854L28.5906 5.80925Z" fill="white"/>
<path d="M28.5678 5.81162C28.5678 5.81158 28.5684 5.81161 28.5697 5.81185L28.5678 5.81162ZM28.4675 5.94782C28.5232 5.86182 28.5624 5.82768 28.5807 5.81514C28.6015 5.82278 28.6479 5.84622 28.7231 5.91583C28.8567 6.03961 29.0208 6.25651 29.2061 6.58701C29.5742 7.24369 29.9673 8.24164 30.3568 9.52384C31.1335 12.0804 31.8685 15.6742 32.3719 19.696C32.8754 23.7178 33.0489 27.382 32.9264 30.0511C32.8649 31.3898 32.7299 32.4538 32.5351 33.181C32.437 33.5469 32.3314 33.7976 32.2324 33.9505C32.1767 34.0365 32.1375 34.0706 32.1192 34.0832C32.0984 34.0755 32.052 34.0521 31.9769 33.9825C31.8432 33.8587 31.6791 33.6418 31.4938 33.3113C31.1257 32.6546 30.7326 31.6567 30.3431 30.3745C29.5664 27.8179 28.8314 24.2241 28.328 20.2023C27.8245 16.1805 27.651 12.5163 27.7735 9.84721C27.835 8.50855 27.97 7.4445 28.1649 6.71734C28.2629 6.35137 28.3685 6.10073 28.4675 5.94782ZM32.1076 34.0898C32.1076 34.0897 32.1081 34.0895 32.1093 34.0891L32.1076 34.0898ZM32.1322 34.0867C32.1322 34.0867 32.1316 34.0867 32.1303 34.0865L32.1322 34.0867ZM28.5906 5.80925C28.5917 5.80869 28.5923 5.8085 28.5923 5.80854L28.5906 5.80925Z" stroke="black"/>
<path d="M59.2876 23.5525C59.2877 23.5525 59.2878 23.5531 59.2878 23.5544L59.2876 23.5525ZM59.1342 23.4814C59.2296 23.5188 59.2708 23.5504 59.2868 23.5659C59.2834 23.5878 59.2697 23.6379 59.2164 23.7254C59.1217 23.881 58.9418 24.085 58.6547 24.3323C58.0843 24.8236 57.1845 25.4074 56.0054 26.0441C53.6544 27.3137 50.2785 28.7489 46.4372 30.0421C42.5959 31.3354 39.0394 32.2342 36.3993 32.645C35.0751 32.851 34.0055 32.9303 33.2541 32.884C32.876 32.8606 32.6093 32.807 32.4398 32.7404C32.3444 32.7029 32.3032 32.6713 32.2872 32.6559C32.2906 32.634 32.3043 32.5838 32.3576 32.4963C32.4523 32.3407 32.6322 32.1368 32.9193 31.8895C33.4897 31.3981 34.3895 30.8144 35.5686 30.1776C37.9196 28.908 41.2955 27.4729 45.1368 26.1796C48.9781 24.8864 52.5346 23.9876 55.1747 23.5768C56.4989 23.3708 57.5685 23.2914 58.3199 23.3378C58.698 23.3611 58.9647 23.4147 59.1342 23.4814ZM32.2784 32.6458C32.2785 32.6458 32.2789 32.6462 32.2794 32.6473L32.2784 32.6458ZM32.2864 32.6693C32.2863 32.6693 32.2862 32.6687 32.2862 32.6674L32.2864 32.6693ZM59.2945 23.5744C59.2953 23.5754 59.2956 23.576 59.2956 23.576L59.2945 23.5744Z" fill="white"/>
<path d="M59.2876 23.5525C59.2877 23.5525 59.2878 23.5531 59.2878 23.5544L59.2876 23.5525ZM59.1342 23.4814C59.2296 23.5188 59.2708 23.5504 59.2868 23.5659C59.2834 23.5878 59.2697 23.6379 59.2164 23.7254C59.1217 23.881 58.9418 24.085 58.6547 24.3323C58.0843 24.8236 57.1845 25.4074 56.0054 26.0441C53.6544 27.3137 50.2785 28.7489 46.4372 30.0421C42.5959 31.3354 39.0394 32.2342 36.3993 32.645C35.0751 32.851 34.0055 32.9303 33.2541 32.884C32.876 32.8606 32.6093 32.807 32.4398 32.7404C32.3444 32.7029 32.3032 32.6713 32.2872 32.6559C32.2906 32.634 32.3043 32.5838 32.3576 32.4963C32.4523 32.3407 32.6322 32.1368 32.9193 31.8895C33.4897 31.3981 34.3895 30.8144 35.5686 30.1776C37.9196 28.908 41.2955 27.4729 45.1368 26.1796C48.9781 24.8864 52.5346 23.9876 55.1747 23.5768C56.4989 23.3708 57.5685 23.2914 58.3199 23.3378C58.698 23.3611 58.9647 23.4147 59.1342 23.4814ZM32.2784 32.6458C32.2785 32.6458 32.2789 32.6462 32.2794 32.6473L32.2784 32.6458ZM32.2864 32.6693C32.2863 32.6693 32.2862 32.6687 32.2862 32.6674L32.2864 32.6693ZM59.2945 23.5744C59.2953 23.5754 59.2956 23.576 59.2956 23.576L59.2945 23.5744Z" fill="white"/>
<path d="M59.2876 23.5525C59.2877 23.5525 59.2878 23.5531 59.2878 23.5544L59.2876 23.5525ZM59.1342 23.4814C59.2296 23.5188 59.2708 23.5504 59.2868 23.5659C59.2834 23.5878 59.2697 23.6379 59.2164 23.7254C59.1217 23.881 58.9418 24.085 58.6547 24.3323C58.0843 24.8236 57.1845 25.4074 56.0054 26.0441C53.6544 27.3137 50.2785 28.7489 46.4372 30.0421C42.5959 31.3354 39.0394 32.2342 36.3993 32.645C35.0751 32.851 34.0055 32.9303 33.2541 32.884C32.876 32.8606 32.6093 32.807 32.4398 32.7404C32.3444 32.7029 32.3032 32.6713 32.2872 32.6559C32.2906 32.634 32.3043 32.5838 32.3576 32.4963C32.4523 32.3407 32.6322 32.1368 32.9193 31.8895C33.4897 31.3981 34.3895 30.8144 35.5686 30.1776C37.9196 28.908 41.2955 27.4729 45.1368 26.1796C48.9781 24.8864 52.5346 23.9876 55.1747 23.5768C56.4989 23.3708 57.5685 23.2914 58.3199 23.3378C58.698 23.3611 58.9647 23.4147 59.1342 23.4814ZM32.2784 32.6458C32.2785 32.6458 32.2789 32.6462 32.2794 32.6473L32.2784 32.6458ZM32.2864 32.6693C32.2863 32.6693 32.2862 32.6687 32.2862 32.6674L32.2864 32.6693ZM59.2945 23.5744C59.2953 23.5754 59.2956 23.576 59.2956 23.576L59.2945 23.5744Z" stroke="black"/>
<path d="M32.3185 33.2531L32.3178 33.2538L32.3149 33.2561C32.3118 33.2583 32.3049 33.2627 32.2923 33.2681C32.266 33.2792 32.2179 33.2928 32.1391 33.2983C31.9768 33.3095 31.7376 33.283 31.4133 33.1968C30.7678 33.0252 29.8985 32.649 28.8576 32.082C26.7832 30.9518 24.1181 29.1139 21.3618 26.8337C18.6054 24.5535 16.3007 22.2801 14.8018 20.4542C14.0497 19.5381 13.5173 18.7547 13.2278 18.1527C13.0824 17.8503 13.0114 17.6203 12.9921 17.4589C12.9827 17.3804 12.9871 17.3306 12.9931 17.3026C12.9959 17.2892 12.999 17.2816 13.0006 17.2782L13.0023 17.2749L13.0029 17.2741L13.0036 17.2734L13.0065 17.2711C13.0096 17.2688 13.0164 17.2644 13.0291 17.2591C13.0554 17.248 13.1035 17.2344 13.1823 17.2289C13.3446 17.2176 13.5838 17.2442 13.9081 17.3304C14.5536 17.5019 15.4229 17.8781 16.4638 18.4452C18.5382 19.5753 21.2033 21.4133 23.9596 23.6935C26.7159 25.9737 29.0207 28.2471 30.5196 30.0729C31.2717 30.9891 31.8041 31.7725 32.0936 32.3744C32.239 32.6769 32.31 32.9068 32.3293 33.0683C32.3387 33.1468 32.3343 33.1966 32.3283 33.2245C32.3255 33.2379 32.3224 33.2455 32.3208 33.249L32.3191 33.2523L32.3185 33.2531Z" fill="white"/>
<path d="M32.3185 33.2531L32.3178 33.2538L32.3149 33.2561C32.3118 33.2583 32.3049 33.2627 32.2923 33.2681C32.266 33.2792 32.2179 33.2928 32.1391 33.2983C31.9768 33.3095 31.7376 33.283 31.4133 33.1968C30.7678 33.0252 29.8985 32.649 28.8576 32.082C26.7832 30.9518 24.1181 29.1139 21.3618 26.8337C18.6054 24.5535 16.3007 22.2801 14.8018 20.4542C14.0497 19.5381 13.5173 18.7547 13.2278 18.1527C13.0824 17.8503 13.0114 17.6203 12.9921 17.4589C12.9827 17.3804 12.9871 17.3306 12.9931 17.3026C12.9959 17.2892 12.999 17.2816 13.0006 17.2782L13.0023 17.2749L13.0029 17.2741L13.0036 17.2734L13.0065 17.2711C13.0096 17.2688 13.0164 17.2644 13.0291 17.2591C13.0554 17.248 13.1035 17.2344 13.1823 17.2289C13.3446 17.2176 13.5838 17.2442 13.9081 17.3304C14.5536 17.5019 15.4229 17.8781 16.4638 18.4452C18.5382 19.5753 21.2033 21.4133 23.9596 23.6935C26.7159 25.9737 29.0207 28.2471 30.5196 30.0729C31.2717 30.9891 31.8041 31.7725 32.0936 32.3744C32.239 32.6769 32.31 32.9068 32.3293 33.0683C32.3387 33.1468 32.3343 33.1966 32.3283 33.2245C32.3255 33.2379 32.3224 33.2455 32.3208 33.249L32.3191 33.2523L32.3185 33.2531Z" fill="white"/>
<path d="M32.3185 33.2531L32.3178 33.2538L32.3149 33.2561C32.3118 33.2583 32.3049 33.2627 32.2923 33.2681C32.266 33.2792 32.2179 33.2928 32.1391 33.2983C31.9768 33.3095 31.7376 33.283 31.4133 33.1968C30.7678 33.0252 29.8985 32.649 28.8576 32.082C26.7832 30.9518 24.1181 29.1139 21.3618 26.8337C18.6054 24.5535 16.3007 22.2801 14.8018 20.4542C14.0497 19.5381 13.5173 18.7547 13.2278 18.1527C13.0824 17.8503 13.0114 17.6203 12.9921 17.4589C12.9827 17.3804 12.9871 17.3306 12.9931 17.3026C12.9959 17.2892 12.999 17.2816 13.0006 17.2782L13.0023 17.2749L13.0029 17.2741L13.0036 17.2734L13.0065 17.2711C13.0096 17.2688 13.0164 17.2644 13.0291 17.2591C13.0554 17.248 13.1035 17.2344 13.1823 17.2289C13.3446 17.2176 13.5838 17.2442 13.9081 17.3304C14.5536 17.5019 15.4229 17.8781 16.4638 18.4452C18.5382 19.5753 21.2033 21.4133 23.9596 23.6935C26.7159 25.9737 29.0207 28.2471 30.5196 30.0729C31.2717 30.9891 31.8041 31.7725 32.0936 32.3744C32.239 32.6769 32.31 32.9068 32.3293 33.0683C32.3387 33.1468 32.3343 33.1966 32.3283 33.2245C32.3255 33.2379 32.3224 33.2455 32.3208 33.249L32.3191 33.2523L32.3185 33.2531Z" stroke="black"/>
<ellipse cx="32.0294" cy="70.3993" rx="8.39474" ry="5.5" transform="rotate(-35.3153 32.0294 70.3993)" fill="black"/>
<ellipse cx="41.993" cy="63.3407" rx="8.39474" ry="5.5" transform="rotate(-35.3153 41.993 63.3407)" fill="black"/>
<ellipse cx="31.93" cy="70.9191" rx="3.43421" ry="3.66667" transform="rotate(-35.3153 31.93 70.9191)" fill="white"/>
<ellipse cx="41.8936" cy="63.8605" rx="3.43421" ry="3.66667" transform="rotate(-35.3153 41.8936 63.8605)" fill="white"/>
</svg>
